<?xml version="1.0" standalone="no"?>
<!DOCTYPE svg PUBLIC "-//W3C//DTD SVG 20010904//EN"
 "http://www.w3.org/TR/2001/REC-SVG-20010904/DTD/svg10.dtd">
<svg version="1.0" xmlns="http://www.w3.org/2000/svg"
 width="512.000000pt" height="512.000000pt" viewBox="0 0 512.000000 512.000000"
 preserveAspectRatio="xMidYMid meet">
<metadata>
Created by potrace 1.11, written by Peter Selinger 2001-2013
</metadata>
<g transform="translate(0.000000,512.000000) scale(0.100000,-0.100000)"
fill="#000000" stroke="none">
<path d="M0 2560 l0 -2560 2560 0 2560 0 0 2560 0 2560 -2560 0 -2560 0 0
-2560z m2442 1233 c137 -137 248 -251 248 -255 0 -4 -247 -4 -550 -1 l-550 6
0 -991 0 -992 985 0 985 0 0 557 0 558 250 -250 250 -250 0 -557 0 -558 -1485
0 -1485 0 0 1490 0 1490 552 0 553 0 247 -247z m1123 -253 l500 -500 -503 0
-502 0 0 500 c0 275 1 500 3 500 1 0 227 -225 502 -500z"/>
</g>
</svg>
