<svg xmlns="http://www.w3.org/2000/svg" xmlns:xlink="http://www.w3.org/1999/xlink" preserveAspectRatio="xMidYMid meet" width="366" height="366" viewBox="0 0 366 366" style="width:100%;height:100%"><g id="_R_G"><g id="_R_G_L_14_G" transform=" translate(182.916, 176.975) translate(-176.3, -182.405)"><path id="_R_G_L_14_G_D_0_P_0" fill="#ffffff" fill-opacity="1" fill-rule="nonzero" d=" M321.33 271.32 C321.33,271.32 317.98,332.97 317.98,332.97 C317.98,332.97 201.92,332.97 201.92,332.97 C149.92,364.44 115.11,364.56 107.8,332.97 C107.8,332.97 46.17,332.97 46.17,332.97 C46.17,332.97 20.66,243.63 43.63,164.95 C41.02,163.84 0.25,145.57 17.09,104.42 C35.8,58.66 171.05,0.25 259.05,25.91 C347.7,51.77 327.59,130.25 327.59,209.21 C340.13,206.42 350.65,214.37 351.41,236.94 C352.35,264.85 335.19,272.74 321.33,271.32z "/></g><g id="_R_G_L_13_G" transform=" translate(40.953, 228.813) translate(-33.105, -111.212)"><path id="_R_G_L_13_G_D_0_P_0" stroke="#372f30" stroke-linecap="round" stroke-linejoin="round" fill="none" stroke-width="4.994" stroke-opacity="1" d=" M44.94 209.94 C44.94,209.94 12.48,96.32 53.72,12.49 "/></g><g id="_R_G_L_12_G" transform=" translate(207.949, 178.876) translate(-163.945, -106.224)"><path id="_R_G_L_12_G_D_0_P_0" stroke="#372f30" stroke-linecap="round" stroke-linejoin="round" fill="none" stroke-width="4.994" stroke-opacity="1" d=" M12.48 53.12 C12.48,53.12 72.05,95.6 149.17,54.04 C226.28,12.49 254.91,14.19 262.76,41.27 C270.61,68.36 251.68,102.07 254.45,108.07 C257.22,114.08 266.92,110.84 266.92,110.84 C266.92,110.84 268.31,132.55 259.53,157.48 C278.93,125.16 312.64,117.77 314.02,158.87 C315.4,199.96 277.54,197.66 268.77,186.11 "/></g><g id="_R_G_L_11_G" transform=" translate(180.321, 99.313) translate(-186.493, -116.975)"><path id="_R_G_L_11_G_D_0_P_0" stroke="#372f30" stroke-linecap="round" stroke-linejoin="round" fill="none" stroke-width="4.994" stroke-opacity="1" d=" M56.55 177.24 C56.55,177.24 12.49,159.16 29.88,116.65 C48.59,70.9 183.84,12.48 271.84,38.15 C360.5,64.01 340.38,142.5 340.38,221.46 "/></g><g id="_R_G_L_10_G" transform=" translate(328.729, 231.54) translate(-28.145, -29.198)"><path id="_R_G_L_10_G_D_0_P_0" stroke="#372f30" stroke-linecap="round" stroke-linejoin="round" fill="none" stroke-width="4.994" stroke-opacity="1" d=" M31.49 45.91 C33.99,36.52 22.3,27.54 12.49,39.23 C25.62,12.48 43.81,14.8 42.14,31.92 "/></g><g id="_R_G_L_9_G" transform=" translate(326.272, 296.714) translate(-4.173, -33.322)"><path id="_R_G_L_9_G_D_0_P_0" stroke="#372f30" stroke-linecap="round" stroke-linejoin="round" fill="none" stroke-width="4.994" stroke-opacity="1" d=" M5.85 2.5 C5.85,2.5 2.5,64.15 2.5,64.15 "/></g><g id="_R_G_L_8_G" transform=" translate(143.908, 288.097) translate(-80.095, -109.438)"><path id="_R_G_L_8_G_D_0_P_0" stroke="#372f30" stroke-linecap="round" stroke-linejoin="round" fill="none" stroke-width="4.994" stroke-opacity="1" d=" M90.83 12.49 C12.49,162.3 52.05,206.39 147.7,147.06 "/></g><g id="_R_G_L_7_G"><path id="_R_G_L_7_G_D_0_P_0" stroke="#372f30" stroke-linecap="round" stroke-linejoin="round" fill="none" stroke-width="4.994" stroke-opacity="1" d=" M54.41 33.45 C54.41,45.02 45.02,54.41 33.45,54.41 C21.87,54.41 12.49,45.02 12.49,33.45 C12.49,21.87 21.87,12.49 33.45,12.49 C45.02,12.49 54.41,21.87 54.41,33.45z "/></g><g id="_R_G_L_6_G"><path id="_R_G_L_6_G_D_0_P_0" fill="#372f30" fill-opacity="1" fill-rule="nonzero" d=" M26.33 13.29 C26.33,20.5 20.5,26.33 13.29,26.33 C6.09,26.33 0.25,20.5 0.25,13.29 C0.25,6.09 6.09,0.25 13.29,0.25 C20.5,0.25 26.33,6.09 26.33,13.29z "/></g><g id="_R_G_L_5_G"><path id="_R_G_L_5_G_D_0_P_0" stroke="#372f30" stroke-linecap="round" stroke-linejoin="round" fill="none" stroke-width="4.994" stroke-opacity="1" d=" M54.41 33.44 C54.41,45.02 45.02,54.4 33.45,54.4 C21.87,54.4 12.49,45.02 12.49,33.44 C12.49,21.87 21.87,12.48 33.45,12.48 C45.02,12.48 54.41,21.87 54.41,33.44z "/></g><g id="_R_G_L_4_G"><path id="_R_G_L_4_G_D_0_P_0" fill="#372f30" fill-opacity="1" fill-rule="nonzero" d=" M26.33 13.29 C26.33,20.5 20.5,26.33 13.29,26.33 C6.09,26.33 0.25,20.5 0.25,13.29 C0.25,6.09 6.09,0.25 13.29,0.25 C20.5,0.25 26.33,6.09 26.33,13.29z "/></g><g id="_R_G_L_3_G" transform=" translate(241.839, 232.942) translate(-34.151, -16.613)"><path id="_R_G_L_3_G_D_0_P_0" stroke="#372f30" stroke-linecap="round" stroke-linejoin="round" fill="none" stroke-width="4.994" stroke-opacity="1" d=" M12.49 15.08 C12.49,15.08 35.76,20.74 55.82,12.48 "/></g><g id="_R_G_L_2_G" transform=" translate(89.904, 242.734) translate(-34.151, -16.613)"><path id="_R_G_L_2_G_D_0_P_0" stroke="#372f30" stroke-linecap="round" stroke-linejoin="round" fill="none" stroke-width="4.994" stroke-opacity="1" d=" M12.48 15.08 C12.48,15.08 35.76,20.74 55.82,12.48 "/></g><g id="_R_G_L_1_G"><path id="_R_G_L_1_G_D_0_P_0" stroke="#372f30" stroke-linecap="round" stroke-linejoin="round" fill="none" stroke-width="4.994" stroke-opacity="1" d=" M12.49 36.91 C12.49,36.91 29.67,12.49 51.68,33.59 "/></g><g id="_R_G_L_0_G"><path id="_R_G_L_0_G_D_0_P_0" stroke="#372f30" stroke-linecap="round" stroke-linejoin="round" fill="none" stroke-width="4.994" stroke-opacity="1" d=" M51.8 33.42 C51.8,33.42 35.17,12.49 12.49,32.17 "/></g></g><g id="time_group"/><defs><animate repeatCount="indefinite" dur="6s" begin="0s" xlink:href="#_R_G_L_7_G" fill="freeze" attributeName="opacity" from="1" to="1" keyTimes="0;0.2416667;0.2444444;0.2611111;0.2638889;0.6555556;0.6583333;0.675;0.6777778;1" values="1;1;0;0;1;1;0;0;1;1" keySplines="0.167 0.167 0.833 0.833;0.167 0.167 0.833 0.833;0.167 0.167 0.833 0.833;0.167 0.167 0.833 0.833;0.167 0.167 0.833 0.833;0.167 0.167 0.833 0.833;0.167 0.167 0.833 0.833;0.167 0.167 0.833 0.833;0 0 0 0" calcMode="spline"/><animateMotion repeatCount="indefinite" dur="6s" begin="0s" xlink:href="#_R_G_L_7_G" fill="freeze" keyTimes="0;0.4666667;0.5333333;0.9111111;0.975;1" path="M242.55 222.55 C242.55,222.55 242.55,222.55 242.55,222.55 C242.88,222.55 244.21,222.55 244.55,222.55 C244.55,222.55 244.55,222.55 244.55,222.55 C244.21,222.55 242.88,222.55 242.55,222.55 C242.55,222.55 242.55,222.55 242.55,222.55 " keyPoints="0;0;0.5;0.5;1;1" keySplines="0.333 0 0.667 1;0.333 0 0.667 1;0.333 0.333 0.667 0.667;0.333 0 0.667 1;0 0 0 0" calcMode="spline"/><animateTransform repeatCount="indefinite" dur="6s" begin="0s" xlink:href="#_R_G_L_7_G" fill="freeze" attributeName="transform" from="-33.445 -33.445" to="-33.445 -33.445" type="translate" additive="sum" keyTimes="0;1" values="-33.445 -33.445;-33.445 -33.445" keySplines="0 0 1 1" calcMode="spline"/><animate repeatCount="indefinite" dur="6s" begin="0s" xlink:href="#_R_G_L_6_G" fill="freeze" attributeName="opacity" from="1" to="1" keyTimes="0;0.2416667;0.2444444;0.2611111;0.2638889;0.6555556;0.6583333;0.675;0.6777778;1" values="1;1;0;0;1;1;0;0;1;1" keySplines="0.167 0.167 0.833 0.833;0.167 0.167 0.833 0.833;0.167 0.167 0.833 0.833;0.167 0.167 0.833 0.833;0.167 0.167 0.833 0.833;0.167 0.167 0.833 0.833;0.167 0.167 0.833 0.833;0.167 0.167 0.833 0.833;0 0 0 0" calcMode="spline"/><animateMotion repeatCount="indefinite" dur="6s" begin="0s" xlink:href="#_R_G_L_6_G" fill="freeze" keyTimes="0;0.4666667;0.5333333;0.9111111;0.975;1" path="M237.71 229.56 C237.71,229.56 237.71,229.56 237.71,229.56 C238.71,229.73 242.71,230.39 243.71,230.56 C243.71,230.56 243.71,230.56 243.71,230.56 C242.71,230.39 238.71,229.73 237.71,229.56 C237.71,229.56 237.71,229.56 237.71,229.56 " keyPoints="0;0;0.5;0.5;1;1" keySplines="0.333 0 0.667 1;0.333 0 0.667 1;0.333 0.333 0.667 0.667;0.333 0 0.667 1;0 0 0 0" calcMode="spline"/><animateTransform repeatCount="indefinite" dur="6s" begin="0s" xlink:href="#_R_G_L_6_G" fill="freeze" attributeName="transform" from="-13.292 -13.292" to="-13.292 -13.292" type="translate" additive="sum" keyTimes="0;1" values="-13.292 -13.292;-13.292 -13.292" keySplines="0 0 1 1" calcMode="spline"/><animate repeatCount="indefinite" dur="6s" begin="0s" xlink:href="#_R_G_L_5_G" fill="freeze" attributeName="opacity" from="1" to="1" keyTimes="0;0.2416667;0.2444444;0.2611111;0.2638889;0.6555556;0.6583333;0.675;0.6777778;1" values="1;1;0;0;1;1;0;0;1;1" keySplines="0.167 0.167 0.833 0.833;0.167 0.167 0.833 0.833;0.167 0.167 0.833 0.833;0.167 0.167 0.833 0.833;0.167 0.167 0.833 0.833;0.167 0.167 0.833 0.833;0.167 0.167 0.833 0.833;0.167 0.167 0.833 0.833;0 0 0 0" calcMode="spline"/><animateMotion repeatCount="indefinite" dur="6s" begin="0s" xlink:href="#_R_G_L_5_G" fill="freeze" keyTimes="0;0.4666667;0.5333333;0.9111111;0.975;1" path="M90.17 231.41 C90.17,231.41 90.17,231.41 90.17,231.41 C90.5,231.41 91.84,231.41 92.17,231.41 C92.17,231.41 92.17,231.41 92.17,231.41 C91.84,231.41 90.5,231.41 90.17,231.41 C90.17,231.41 90.17,231.41 90.17,231.41 " keyPoints="0;0;0.5;0.5;1;1" keySplines="0.333 0 0.667 1;0.333 0 0.667 1;0.333 0.333 0.667 0.667;0.333 0 0.667 1;0 0 0 0" calcMode="spline"/><animateTransform repeatCount="indefinite" dur="6s" begin="0s" xlink:href="#_R_G_L_5_G" fill="freeze" attributeName="transform" from="-33.445 -33.444" to="-33.445 -33.444" type="translate" additive="sum" keyTimes="0;1" values="-33.445 -33.444;-33.445 -33.444" keySplines="0 0 1 1" calcMode="spline"/><animate repeatCount="indefinite" dur="6s" begin="0s" xlink:href="#_R_G_L_4_G" fill="freeze" attributeName="opacity" from="1" to="1" keyTimes="0;0.2416667;0.2444444;0.2611111;0.2638889;0.6555556;0.6583333;0.675;0.6777778;1" values="1;1;0;0;1;1;0;0;1;1" keySplines="0.167 0.167 0.833 0.833;0.167 0.167 0.833 0.833;0.167 0.167 0.833 0.833;0.167 0.167 0.833 0.833;0.167 0.167 0.833 0.833;0.167 0.167 0.833 0.833;0.167 0.167 0.833 0.833;0.167 0.167 0.833 0.833;0 0 0 0" calcMode="spline"/><animateMotion repeatCount="indefinite" dur="6s" begin="0s" xlink:href="#_R_G_L_4_G" fill="freeze" keyTimes="0;0.4666667;0.5333333;0.9111111;0.975;1" path="M85.34 238.42 C85.34,238.42 85.34,238.42 85.34,238.42 C86.17,238.59 89.5,239.25 90.34,239.42 C90.34,239.42 90.34,239.42 90.34,239.42 C89.5,239.25 86.17,238.59 85.34,238.42 C85.34,238.42 85.34,238.42 85.34,238.42 " keyPoints="0;0;0.5;0.5;1;1" keySplines="0.333 0 0.667 1;0.333 0 0.667 1;0.333 0.333 0.667 0.667;0.333 0 0.667 1;0 0 0 0" calcMode="spline"/><animateTransform repeatCount="indefinite" dur="6s" begin="0s" xlink:href="#_R_G_L_4_G" fill="freeze" attributeName="transform" from="-13.292 -13.292" to="-13.292 -13.292" type="translate" additive="sum" keyTimes="0;1" values="-13.292 -13.292;-13.292 -13.292" keySplines="0 0 1 1" calcMode="spline"/><animate repeatCount="indefinite" dur="6s" begin="0s" xlink:href="#_R_G_L_3_G" fill="freeze" attributeName="opacity" from="0" to="0" keyTimes="0;0.2416667;0.2444444;0.2611111;0.2638889;0.6555556;0.6583333;0.675;0.6777778;1" values="0;0;1;1;0;0;1;1;0;0" keySplines="0.167 0.167 0.833 0.833;0.167 0.167 0.833 0.833;0.167 0.167 0.833 0.833;0.167 0.167 0.833 0.833;0.167 0.167 0.833 0.833;0.167 0.167 0.833 0.833;0.167 0.167 0.833 0.833;0.167 0.167 0.833 0.833;0 0 0 0" calcMode="spline"/><animate repeatCount="indefinite" dur="6s" begin="0s" xlink:href="#_R_G_L_2_G" fill="freeze" attributeName="opacity" from="0" to="0" keyTimes="0;0.2416667;0.2444444;0.2611111;0.2638889;0.6555556;0.6583333;0.675;0.6777778;1" values="0;0;1;1;0;0;1;1;0;0" keySplines="0.167 0.167 0.833 0.833;0.167 0.167 0.833 0.833;0.167 0.167 0.833 0.833;0.167 0.167 0.833 0.833;0.167 0.167 0.833 0.833;0.167 0.167 0.833 0.833;0.167 0.167 0.833 0.833;0.167 0.167 0.833 0.833;0 0 0 0" calcMode="spline"/><animateMotion repeatCount="indefinite" dur="6s" begin="0s" xlink:href="#_R_G_L_1_G" fill="freeze" keyTimes="0;0.4694444;0.55;0.8944444;0.9666667;1" path="M94.62 169.74 C94.62,169.74 94.62,169.74 94.62,169.74 C94.62,169.08 94.62,166.41 94.62,165.74 C94.62,165.74 94.62,165.74 94.62,165.74 C94.62,166.41 94.62,169.08 94.62,169.74 C94.62,169.74 94.62,169.74 94.62,169.74 " keyPoints="0;0;0.5;0.5;1;1" keySplines="0.333 0 0.667 1;0.333 0 0.667 1;0.333 0.333 0.667 0.667;0.333 0 0.667 1;0 0 0 0" calcMode="spline"/><animateTransform repeatCount="indefinite" dur="6s" begin="0s" xlink:href="#_R_G_L_1_G" fill="freeze" attributeName="transform" from="-32.083 -24.696" to="-32.083 -24.696" type="translate" additive="sum" keyTimes="0;1" values="-32.083 -24.696;-32.083 -24.696" keySplines="0 0 1 1" calcMode="spline"/><animateMotion repeatCount="indefinite" dur="6s" begin="0s" xlink:href="#_R_G_L_0_G" fill="freeze" keyTimes="0;0.4694444;0.55;0.9;0.9611111;1" path="M248.6 151.09 C248.6,151.09 248.6,151.09 248.6,151.09 C248.6,152.59 248.6,158.59 248.6,160.09 C248.6,160.09 248.6,160.09 248.6,160.09 C248.6,158.59 248.6,152.59 248.6,151.09 C248.6,151.09 248.6,151.09 248.6,151.09 " keyPoints="0;0;0.5;0.5;1;1" keySplines="0.333 0 0.667 1;0.333 0 0.667 1;0.333 0.333 0.667 0.667;0.333 0 0.667 1;0 0 0 0" calcMode="spline"/><animateTransform repeatCount="indefinite" dur="6s" begin="0s" xlink:href="#_R_G_L_0_G" fill="freeze" attributeName="transform" from="-32.143 -22.953" to="-32.143 -22.953" type="translate" additive="sum" keyTimes="0;1" values="-32.143 -22.953;-32.143 -22.953" keySplines="0 0 1 1" calcMode="spline"/><animate attributeType="XML" attributeName="opacity" dur="6s" from="0" to="1" xlink:href="#time_group"/></defs></svg>