<svg xmlns="http://www.w3.org/2000/svg" viewBox="0 0 433.49 358.69"><defs><style>.cls-1{fill:#90a2b2;}.cls-2{fill:#c6d6e4;}.cls-3{fill:#b6c8d9;}.cls-4{fill:#c2d2e2;}.cls-5{fill:#0a4783;}.cls-6{fill:#bbccdc;}.cls-7{fill:#cddcea;}.cls-8{fill:#2c6192;}.cls-9{fill:#3e6d99;}.cls-10{fill:#acc1d4;}.cls-11{fill:#aabfd3;}.cls-12{fill:#adc1d4;}.cls-13{fill:#f8fcff;}.cls-14{fill:#95b0ca;}.cls-15{fill:#91aec8;}.cls-16{fill:#507aa1;}.cls-17{fill:#406f9a;}.cls-18{fill:#6f92b2;}.cls-19{fill:#d5e3f0;}.cls-20{fill:#346695;}.cls-21{fill:#5e84a8;}.cls-22{fill:#45729c;}.cls-23{fill:#235b8f;}.cls-24{fill:#7496b5;}.cls-25{fill:#e4f0fc;}.cls-26{fill:#e2effb;}.cls-27{fill:#d2e0ee;}.cls-28{fill:#5c83a7;}</style></defs><g id="Layer_2" data-name="Layer 2"><g id="Layer_2-2" data-name="Layer 2"><path class="cls-1" d="M162.21,280.89c-16.66,6.72-32.94,14.27-49.27,21.84-5,2.32-10.23,5.17-15.75,6-1.06.17-2.11.35-3.17.55-1.58,3.13-3,6.34-4.61,9.63-3.27,6.81-8.64,11.62-16.33,12a28.85,28.85,0,0,1-4.61,7.17,1.65,1.65,0,0,1-.42,1.31,9.39,9.39,0,0,1-7.35,3,19.14,19.14,0,0,1-7.62-1.74,20.16,20.16,0,0,1-8.73-7.82,11.36,11.36,0,0,0-1.27,3c-2.52,9.7,18.3,14,24.33,14.8a74.67,74.67,0,0,0,9.65.62c24.11,0,47.66-11.06,70-18.73a60.28,60.28,0,0,1,12.71-3.34,18.94,18.94,0,0,1,2-.1c5.41,0,10.9,2.25,16,3.66,9,2.48,18.26,5.06,27.67,5.06.66,0,1.33,0,2,0a255.14,255.14,0,0,0,26.32-2.45c6-.86,11.94-2,17.83-3.38a90.7,90.7,0,0,1-16-6.47c-8-3.9-15.82-8.32-23.46-13q-9.33-5.64-18.34-11.79c-6.37-4.38-13.6-8.65-18.74-14.51h-.4a25,25,0,0,1-2.73-.15,2.6,2.6,0,0,1-2-1.45,33.85,33.85,0,0,1-7.7-3.67m123.38-.83c-4.65,16.53-12.36,31.66-18.15,47.76,7.1-2,14.16-4.06,21.23-6.12,15.61-4.53,31.18-9.19,46.59-14.35,6.68-2.24,13.36-4.54,19.94-7.07-2.66-.11-5.3-.44-7.75-.77a175.9,175.9,0,0,1-25.92-5.93,230.75,230.75,0,0,1-35.94-13.52m70.84-22.33c4.91,8.17,9.56,16.62,13.63,25.14a2.16,2.16,0,0,1,1.38,1.19,11,11,0,0,1,.69,8.94,54.56,54.56,0,0,0,12.92-8.08c2.2-2,4.65-4.54,3.67-7.71-1.13-3.63-5.41-6.25-8.43-8.13a141.12,141.12,0,0,0-23.86-11.35"/><path class="cls-1" d="M155.64,275.83c-12.37,5-24.58,10.48-36.69,16.15-6.54,3.06-13.17,6.86-20.11,9A73.35,73.35,0,0,0,94,309.32c1.06-.2,2.11-.38,3.17-.55,5.52-.87,10.73-3.72,15.75-6,16.33-7.57,32.61-15.12,49.27-21.84a48.17,48.17,0,0,1-6.57-5.06M352.94,252c1.17,1.88,2.34,3.78,3.49,5.69a141.12,141.12,0,0,1,23.86,11.35c3,1.88,7.3,4.5,8.43,8.13,1,3.17-1.47,5.75-3.67,7.71A54.56,54.56,0,0,1,372.13,293a9.85,9.85,0,0,1-5.29,5.51,23.88,23.88,0,0,1-9.85,1.8c-.6,0-1.19,0-1.79,0-6.58,2.53-13.26,4.83-19.94,7.07-15.41,5.16-31,9.82-46.59,14.35-7.07,2.06-14.13,4.16-21.23,6.12l-.33.92a2.13,2.13,0,0,1-.88,1.13c-1.57,2.33-4.57,3.13-7.55,3.13a19.34,19.34,0,0,1-2.54-.18,40,40,0,0,1-4.58-.94c-5.89,1.35-11.83,2.52-17.83,3.38a255.14,255.14,0,0,1-26.32,2.45c-.67,0-1.34,0-2,0-9.41,0-18.67-2.58-27.67-5.06-5.1-1.41-10.59-3.66-16-3.66a18.94,18.94,0,0,0-2,.1A60.28,60.28,0,0,0,147,332.47c-22.32,7.67-45.87,18.73-70,18.73a74.67,74.67,0,0,1-9.65-.62c-6-.8-26.85-5.1-24.33-14.8a11.36,11.36,0,0,1,1.27-3,27.12,27.12,0,0,1-3-6.9c-6.75,6.83-9.23,14.82.53,22.61,9.49,7.58,22.54,10.19,34.7,10.19q3,0,6-.2c15.42-1.05,30.45-5.43,44.92-10.66,6.31-2.28,12.57-4.73,18.89-7,4.41-1.61,9.09-3.56,13.78-4.17a11.74,11.74,0,0,1,1.41-.09,15.25,15.25,0,0,1,3.69.56c5.46,1.32,10.87,2.89,16.32,4.25a93.12,93.12,0,0,0,22.75,2.93c2.56,0,5.15-.11,7.79-.35,18.49-1.65,36.37-4.36,54.26-9.42,18.87-5.34,37.69-10.83,56.37-16.81,13.12-4.19,26.23-8.56,39-13.78,7.92-3.25,16-6.7,23.08-11.6,8-5.54,13.51-14.08,5.45-22.22-4.25-4.29-10-7.11-15.49-9.59A223.58,223.58,0,0,0,352.94,252"/><path class="cls-2" d="M350,212.68c-6.41,2.38-12.84,4.78-19.28,7.13,3.43,5.06,7.05,10,10.61,15,2.46-7.52,5.54-14.82,8.67-22.09M283.42,107.25a32.24,32.24,0,0,1-1.79,6.09l2.28,0h1a1.58,1.58,0,0,1,.83-.22h.06a147.39,147.39,0,0,1,15.48,1.07l1.11.06.15-.27a15.45,15.45,0,0,1,2.72-5.8l.09-.14c-2.14.14-4.28.2-6.43.2a129.84,129.84,0,0,1-15.51-1m91-46.23A111,111,0,0,1,371,73.94a108.57,108.57,0,0,1-7.27,16.17c-2.14,4-4.49,7.85-6.54,11.88-1.49,2.94-2.66,6-4.1,9a42.31,42.31,0,0,1-6.24,9.47,161.54,161.54,0,0,0,33.29-5.51c1.29-.37,2.61-.75,3.94-1.17,5.38-15.67,12-31,17.87-46.54-6.6-1-13.13-3.08-19.65-4.5L374.46,61"/><path class="cls-3" d="M361.45,58a67.1,67.1,0,0,1-6.66,10.41c5,4.06,2.06,11.78-2,15.89a12.84,12.84,0,0,1-8.6,3.94l-.45,0c-4.39,11-9.13,22.35-15.43,32.34,2.38.19,4.78.26,7.18.26s5-.08,7.44-.19H343l.25,0,3.55-.2a42.31,42.31,0,0,0,6.24-9.47c1.44-3,2.61-6,4.1-9,2.05-4,4.4-7.9,6.54-11.88A108.57,108.57,0,0,0,371,73.94,111,111,0,0,0,374.46,61c-4.35-1-8.69-2-13-3"/><path class="cls-4" d="M301.29,114.19l1.06.15,0-.09-1.11-.06"/><path class="cls-5" d="M277.82,36.89A21.53,21.53,0,0,1,282.23,40l1.14-1.16-5.55-2"/><path class="cls-6" d="M287,37.13a2,2,0,0,1,.35,2.9c-.7.83-1.59,1.76-2.6,2.74l.64.87c1.28-1.94,2.58-3.87,3.87-5.81-.76-.22-1.51-.45-2.26-.7m-2.93-1c.4.26.81.53,1.2.81a1.56,1.56,0,0,1,.58-.15c-.6-.21-1.19-.43-1.78-.66"/><path class="cls-6" d="M304.28,41.09l.84.32c5.11,2,10.43,3.27,15.37,5.68a1.58,1.58,0,0,1,.61.54,24.22,24.22,0,0,1,9.09,3.11c.61-1,1.25-2.05,1.95-3-8.58-3.91-18.49-5.05-27.86-6.61"/><path class="cls-6" d="M323.11,101.78l-.46.63c-2.82,3.68-7.08,4.46-11.44,5-.64.09-1.28.17-1.93.24-.39.72-.94,1.42-1.21,1.86a37.25,37.25,0,0,1-3.38,5l0,0a7.85,7.85,0,0,0,2.95.57h0c5.84,0,11.9-6.26,15.41-13.41"/><path class="cls-5" d="M275.37,36a85.29,85.29,0,0,0-7.81,11.69c-.16.29-.32.58-.47.87a5.46,5.46,0,0,0,.82.06c4.63,0,10.63-5,14.32-8.64a21.53,21.53,0,0,0-4.41-3.12L275.37,36"/><path class="cls-7" d="M289.37,42.47c-1.41,2.42-2.89,4.79-4.36,7.19-2.3,3.75-5.81,8.59-6.57,13s3.3,4.45,6.61,5c2.78.47,5.56.74,7.93,2.35a1.49,1.49,0,0,1-.79,2.76,1.39,1.39,0,0,1-.35,0c-4.69-.94-15.65-1.22-16.58-7.47-.61-4.06,2.8-9.28,4.64-12.6,1.71-3.07,3.59-6.05,5.53-9l-.64-.87c-4.4,4.25-11.29,9.32-17.14,9.69-4.63,10-8.52,20.24-10.19,31.2,0,.11,0,.23,0,.35l12.95-2.27a4.13,4.13,0,0,1,.76-.07c4.22,0,5.79,6.57,1.26,7.38-5.19.92-10.38,1.87-15.57,2.8a11.56,11.56,0,0,0,1.36,5.55c2.09,3.38,10.72,3.78,14.45,4.5a150.23,150.23,0,0,0,28.29,3c1.19,0,2.39,0,3.59-.06,4.82-.16,11.8.19,15.43-3.52C323,98.2,323.83,93,325.11,89a.8.8,0,0,1,.79-.54.67.67,0,0,1,.73.74A37.91,37.91,0,0,1,324.56,99c-2.86,8.47-9.26,16.8-15.71,16.83h0a7.72,7.72,0,0,1-4.14-1.25c-.12.14-.25.28-.38.41-1.44,3.93-3.3,7.71-4.73,11.63s-5.17,12.71-1.65,16.29a5.16,5.16,0,0,0,3.82,1.65c5,0,10.94-6.42,13.34-9.34,3.76-4.58,6.38-10,10.07-14.61l0-.1c5.21-11,11-21.8,16.38-32.77A7.06,7.06,0,0,1,337.5,83a1.63,1.63,0,0,1,1.69-2.19,2,2,0,0,1,1.64.79,4.49,4.49,0,0,0,3.67,2c5.19,0,11.1-8.91,7.19-12.33a2.31,2.31,0,0,1-.64-.27,5.37,5.37,0,0,0-2.75-.67A12.56,12.56,0,0,0,342.61,72a1.28,1.28,0,0,1-.59.88C339,75,335.71,76.76,332.72,79a1.15,1.15,0,0,1-.71.24,1.59,1.59,0,0,1-1.51-2c1.06-3.06,2.3-6.07,3.32-9.15.85-2.55,1.2-4-1.7-5.24a16.61,16.61,0,0,0-5.71-1.07,1.47,1.47,0,0,1-1.25-2.18c1.79-2.91,3.29-6,5-8.87a24.22,24.22,0,0,0-9.09-3.11,2,2,0,0,1,.1,2.18c-4.35,6.34-9.39,16.92-18,16.92a12,12,0,0,1-3.76-.65c-9.82-3.28-11.7-14.46-10.1-23.61"/><path class="cls-5" d="M265.24,32.59a3.7,3.7,0,0,0-.48,0c-3.1.38-2.72,3.56-2.68,6.31,0,2.51.09,5.76,1.77,7.81a4.91,4.91,0,0,0,3.24,1.86c.15-.29.31-.58.47-.87A85.29,85.29,0,0,1,275.37,36l-1-.34c-2.33-.81-6.51-3.1-9.16-3.1"/><path class="cls-8" d="M326.85,5.27a63.07,63.07,0,0,0-21.52,4.15A128.07,128.07,0,0,0,273.78,25.8c18.12,13.44,41.75,10,61.39,20a1.51,1.51,0,0,1,.3,2.35c-2.68,3.34-4.51,7.21-6.62,10.91,3.53.44,8,1.65,8.89,5,.66,2.65-.89,6.33-2.39,9.57,1.77-1,3.57-2,5.33-3.08a1.36,1.36,0,0,1,.46-.19,13.67,13.67,0,0,1,8.95-3.68,11.67,11.67,0,0,1,2.65.31,2.17,2.17,0,0,1,.49.16c5.94-12.19,13-26.05,8.13-39.76-3.87-10.91-12.84-18.31-23.94-20.94a45.78,45.78,0,0,0-10.57-1.21"/><path class="cls-6" d="M324.56,99a15.38,15.38,0,0,1-1.45,2.75c-3.51,7.15-9.57,13.39-15.41,13.41h0a7.85,7.85,0,0,1-2.95-.57l0,0h0a7.72,7.72,0,0,0,4.14,1.25h0c6.45,0,12.85-8.35,15.71-16.83"/><path class="cls-5" d="M293.59,41.94c-1.62,7.61-.88,19,8.38,20.57a7.37,7.37,0,0,0,1.22.11c6.09,0,10.17-7.9,13.38-13-2.38-1-4.83-1.87-7.27-2.75-4.43-.23-8.72-.76-12.5-2.84a15,15,0,0,1-3.21-2.09"/><path class="cls-5" d="M293.76,41.2c-.06.24-.12.49-.17.74A15,15,0,0,0,296.8,44c3.78,2.08,8.07,2.61,12.5,2.84-1.17-.42-2.33-.85-3.49-1.32-3.94-1.62-7.83-3.62-12.05-4.35"/><path class="cls-5" d="M354.69,210.92l-1.46.55L350,212.68c-3.13,7.27-6.21,14.57-8.67,22.09q1.62,2.26,3.23,4.55c2.91-9.62,6.77-18.94,10.16-28.4"/><path class="cls-9" d="M354.79,68.41c-.16.22-.33.43-.5.64a2.35,2.35,0,0,1-2.12,2.3,1.59,1.59,0,0,1-.48-.07c3.91,3.42-2,12.33-7.19,12.33a4.49,4.49,0,0,1-3.67-2,2,2,0,0,0-1.64-.79A1.63,1.63,0,0,0,337.5,83a7.06,7.06,0,0,0,4.07,4.76c.47-1,.94-1.91,1.4-2.87a.81.81,0,0,1,.77-.48c.62,0,1.29.55,1,1.23-.34.86-.69,1.71-1,2.57l.45,0a12.84,12.84,0,0,0,8.6-3.94c4.07-4.11,7-11.83,2-15.89"/><path class="cls-9" d="M289.3,37.83c-1.29,1.94-2.59,3.87-3.87,5.81-1.94,2.94-3.82,5.92-5.53,9-1.84,3.32-5.25,8.54-4.64,12.6.93,6.25,11.89,6.53,16.58,7.47a1.39,1.39,0,0,0,.35,0A1.49,1.49,0,0,0,293,70c-2.37-1.61-5.15-1.88-7.93-2.35-3.31-.55-7.38-.64-6.61-5s4.27-9.22,6.57-13c1.47-2.4,2.95-4.77,4.36-7.19.2-1.12.45-2.21.74-3.26a1.94,1.94,0,0,1,.61-1l-1.42-.4"/><path class="cls-9" d="M325.9,88.42a.8.8,0,0,0-.79.54c-1.28,4.06-2.09,9.24-5.18,12.38-3.63,3.71-10.61,3.36-15.43,3.52-1.2,0-2.4.06-3.59.06a150.23,150.23,0,0,1-28.29-3c-3.73-.72-12.36-1.12-14.45-4.5a11.56,11.56,0,0,1-1.36-5.55l-3.53.62c.15,3.3.75,6.9,2.47,8.74,1.42,1.53,3.95,1.61,5.92,2.09,3.58.87,7.19,1.65,10.82,2.29,3,.54,6,1,9.06,1.42.13-.61.25-1.23.38-1.85a.76.76,0,0,1,.76-.66,1,1,0,0,1,1,1.15c-.08.53-.17,1.06-.27,1.6a129.84,129.84,0,0,0,15.51,1c2.15,0,4.29-.06,6.43-.2.63-1,1.62-3.07,3-3.07a1.4,1.4,0,0,1,.55.12c1.21.51,1,1.59.41,2.61.65-.07,1.29-.15,1.93-.24,4.36-.59,8.62-1.37,11.44-5l.46-.63h0A15.38,15.38,0,0,0,324.56,99h0a37.91,37.91,0,0,0,2.07-9.87.67.67,0,0,0-.73-.74m-61.46-36.3a81,81,0,0,0-10.89,32.57l3.86-.68c0-.12,0-.24,0-.35,1.67-11,5.56-21.21,10.19-31.2-.22,0-.44,0-.67,0a8.57,8.57,0,0,1-2.54-.36"/><path class="cls-9" d="M343.74,84.42a.81.81,0,0,0-.77.48c-.46,1-.93,1.91-1.4,2.87-5.36,11-11.17,21.75-16.38,32.77l0,.1.27-.34a1.08,1.08,0,0,1,.83-.44,1.26,1.26,0,0,1,1,.61l1,.09c6.3-10,11-21.35,15.43-32.34.34-.86.69-1.71,1-2.57.27-.68-.4-1.23-1-1.23"/><path class="cls-5" d="M350.09,66.71a13.67,13.67,0,0,0-8.95,3.68l.23,0A1.38,1.38,0,0,1,342.61,72a12.56,12.56,0,0,1,5.69-1.65,5.37,5.37,0,0,1,2.75.67,2.31,2.31,0,0,0,.64.27,1.59,1.59,0,0,0,.48.07,2.35,2.35,0,0,0,2.12-2.3l-.63.78a.69.69,0,0,1-.52.26.88.88,0,0,1-.72-1.22l.81-1.69a2.17,2.17,0,0,0-.49-.16,11.67,11.67,0,0,0-2.65-.31"/><path class="cls-5" d="M271.63,24.64a1.4,1.4,0,0,0-.88,2.36,25.52,25.52,0,0,0,5.32,4.9,55.28,55.28,0,0,1,8,4.19c.59.23,1.18.45,1.78.66H286a1.79,1.79,0,0,1,1.07.38c.75.25,1.5.48,2.26.7l1.42.4a1.89,1.89,0,0,1,1.25-.44,2.18,2.18,0,0,1,1.85,1h.48a28.06,28.06,0,0,1,10,2.31c9.37,1.56,19.28,2.7,27.86,6.61-.7,1-1.34,2-1.95,3-1.74,2.91-3.24,6-5,8.87a1.47,1.47,0,0,0,1.25,2.18,16.61,16.61,0,0,1,5.71,1.07c2.9,1.24,2.55,2.69,1.7,5.24-1,3.08-2.26,6.09-3.32,9.15a1.59,1.59,0,0,0,1.51,2,1.15,1.15,0,0,0,.71-.24c3-2.2,6.23-4,9.3-6.09a1.28,1.28,0,0,0,.59-.88,1.38,1.38,0,0,0-1.24-1.62l-.23,0a1.36,1.36,0,0,0-.46.19c-1.76,1.07-3.56,2-5.33,3.08,1.5-3.24,3-6.92,2.39-9.57-.84-3.34-5.36-4.55-8.89-5,2.11-3.7,3.94-7.57,6.62-10.91a1.51,1.51,0,0,0-.3-2.35c-19.64-10-43.27-6.6-61.39-20l-1.5,1.11a.86.86,0,0,1-.53.2,1.13,1.13,0,0,1-.75-1.86l.63-.61"/><path class="cls-5" d="M267.09,48.59a4.91,4.91,0,0,1-3.24-1.86c-1.68-2-1.73-5.3-1.77-7.81,0-2.75-.42-5.93,2.68-6.31a3.7,3.7,0,0,1,.48,0c2.65,0,6.83,2.29,9.16,3.1l1,.34h0l2.45.86,5.55,2L282.23,40c-3.69,3.67-9.69,8.64-14.32,8.64a5.46,5.46,0,0,1-.82-.06h0m-3.17-20.74a6.17,6.17,0,0,0-2.92.68c-5.55,2.95-4.07,13.89-1.91,18.48,1.36,2.87,3.22,4.46,5.35,5.11a8.57,8.57,0,0,0,2.54.36c.23,0,.45,0,.67,0,5.85-.37,12.74-5.44,17.14-9.69,1-1,1.9-1.91,2.6-2.74a2,2,0,0,0-.35-2.9,1.79,1.79,0,0,0-1.07-.38h-.08a1.56,1.56,0,0,0-.58.15c-.39-.28-.8-.55-1.2-.81a55.28,55.28,0,0,0-8-4.19c-1.76-.76-3.55-1.47-5.34-2.19-2.05-.81-4.48-1.86-6.81-1.86"/><path class="cls-5" d="M293.59,41.94c.05-.25.11-.5.17-.74,4.22.73,8.11,2.73,12.05,4.35,1.16.47,2.32.9,3.49,1.32h0c2.44.88,4.89,1.7,7.27,2.75-3.21,5.1-7.29,13-13.38,13a7.37,7.37,0,0,1-1.22-.11c-9.26-1.57-10-13-8.38-20.57h0M292,37.79a1.89,1.89,0,0,0-1.25.44,1.94,1.94,0,0,0-.61,1c-.29,1-.54,2.14-.74,3.26-1.6,9.15.28,20.33,10.1,23.61a12,12,0,0,0,3.76.65c8.58,0,13.62-10.58,18-16.92a2,2,0,0,0-.1-2.18,1.58,1.58,0,0,0-.61-.54c-4.94-2.41-10.26-3.71-15.37-5.68l-.84-.32a28.06,28.06,0,0,0-10-2.31h-.48a2.18,2.18,0,0,0-1.85-1"/><path class="cls-7" d="M379.77,39.41a8.46,8.46,0,0,0,.47,4.37,6.93,6.93,0,0,0,3.95,4.81A153.85,153.85,0,0,1,399.06,57c2.91,1.94,6,4,8.08,7a44.18,44.18,0,0,1,6,10.42,26.89,26.89,0,0,1,3.46,13.15c-.09,8.54-4.92,15.14-11.64,20.12C388.56,119.8,365,123,344.81,123.8c-.6,6.14-.3,13.06,6.49,14.76a18.8,18.8,0,0,0,4.63.53,50,50,0,0,0,9.69-1.27,190.43,190.43,0,0,0,18.63-4.9c10.86-3.34,22-7.27,31.19-14.09C426.73,107.63,433.35,93,428.34,76,424.52,63,412.68,53.78,401.2,47.78a109.65,109.65,0,0,0-21.43-8.37"/><path class="cls-6" d="M415.44,118.83c-9.19,6.82-20.33,10.75-31.19,14.09a190.43,190.43,0,0,1-18.63,4.9,50,50,0,0,1-9.69,1.27,18.8,18.8,0,0,1-4.63-.53c-6.79-1.7-7.09-8.62-6.49-14.76l-.9,0a92.34,92.34,0,0,0-10.18,20.72c14.82-.08,30.06-.58,44.39-4.59a1.7,1.7,0,0,1,.93-.26c1.73-.51,3.46-1.07,5.16-1.68,11.05-4,22.53-10.57,31.23-19.2M367.61,36.65a46.09,46.09,0,0,1-2.14,11.6c12.77,1.77,25.85,5.58,36.25,13.29a40.58,40.58,0,0,1,11.45,12.8,44.18,44.18,0,0,0-6-10.42c-2-2.91-5.17-5-8.08-7a153.85,153.85,0,0,0-14.87-8.37,6.93,6.93,0,0,1-3.95-4.81,8.46,8.46,0,0,1-.47-4.37c-4-1.12-8.08-2-12.16-2.76"/><path class="cls-7" d="M284,116c-11.53.35-22.51,1.88-32.93,6.67,10.28,3.09,18,10,21.22,20.16,6.74-6.27,10.07-18,11.71-26.83"/><path class="cls-4" d="M301.35,116.21c-5,.2-10,.28-15,.41-1.23,10.31-5,23.08-13.13,29.79.16.77.3,1.55.41,2.35a48.92,48.92,0,0,1-2.1,21.55c4.16,1,6.28,4.86,5.95,9.3-.52,7.17-5.5,13.55-10.53,18.3a85.53,85.53,0,0,1-15.68,11.27,39.41,39.41,0,0,1,8.23,6.95C279,209.8,299.13,205.34,319.26,201A53.71,53.71,0,0,0,324,195.6q2.31-3.18,4.68-6.31c-6.35-9.84-4.44-23.49-1.83-34.23s6.8-22.46,14.05-31.13h-1.22a92.67,92.67,0,0,1-12.89-.8c-3.75,7.79-14.55,24.62-24.66,24.62a9.13,9.13,0,0,1-5.63-2c-4.61-3.52-2.47-11.08-1-15.62a85.9,85.9,0,0,1,5.84-14"/><path class="cls-10" d="M271.51,170.31a55.87,55.87,0,0,1-15.33,24,33.39,33.39,0,0,1-18.5,8.71,56.22,56.22,0,0,1,13.57,6.13,85.53,85.53,0,0,0,15.68-11.27c5-4.75,10-11.13,10.53-18.3.33-4.44-1.79-8.3-5.95-9.3"/><path class="cls-11" d="M203.76,131.12l-.18,0h0l.18,0h0"/><path class="cls-12" d="M203.76,131.12l-.18,0v0l.19,0"/><path class="cls-13" d="M229.65,123.7a52.16,52.16,0,0,0-19,3.18,22.73,22.73,0,0,0-7.07,4.26l.18,0a37.47,37.47,0,0,1,6.78-.58,76.88,76.88,0,0,1,15.57,2c6.78,1.42,13.84,4.23,18,9.93,4.55-4.45,10.1-9.09,16.25-10.87-5.39-4.24-12.47-6.29-19.92-7.17l-.47-.06c.05,1.41.07,2.81.08,4.22a2,2,0,0,1-2.11,2,1.8,1.8,0,0,1-1.84-1.43c-.38-1.73-.73-3.47-1.07-5.21-1.78-.11-3.58-.18-5.38-.18"/><path class="cls-12" d="M207,133.09a45.46,45.46,0,0,0-5.59.34c-3.42,4.32-4.69,9.92-4.13,16.18,1.31-.41,2.53-.72,3.42-1a103.22,103.22,0,0,1,17.37-3.14,1.54,1.54,0,0,1,1.26-.68h.48c4.3,0,5.73,2.56,4.76,5.27a4.55,4.55,0,0,1,.42,3.65,9.65,9.65,0,0,1-3.79,5.36c2.7,1,4.8,2.74,3.86,5.52a4.7,4.7,0,0,1-.4.85A5.06,5.06,0,0,1,225,167a5.87,5.87,0,0,1-2.61,5.24,5.33,5.33,0,0,1,2.22,3.95,6,6,0,0,1-2.86,5.56c.4.77.82,1.53,1.27,2.28,2.29,3.77,5.46,8.05,9.79,9.58a7.87,7.87,0,0,0,2.6.45c4.35,0,8.11-3.7,10.93-6.78,5.73-6.26,10.49-13.5,17.06-19a18.66,18.66,0,0,1,5.69-3.55,39.8,39.8,0,0,0-.43-20.92A25.11,25.11,0,0,0,263,134c-2.79,1.72-5.9,2.92-8.67,4.73a65,65,0,0,0-9.3,7.66,1.81,1.81,0,0,1-1.24.48,1.61,1.61,0,0,1-1.45-.83c-3.68-6.79-11.45-9.3-18.54-10.81a81.7,81.7,0,0,0-16.76-2.1"/><path class="cls-14" d="M224.7,165.46c-1.38,2.28-4.81,3.7-7.16,4.52a13.07,13.07,0,0,1,4.89,2.24A5.87,5.87,0,0,0,225,167a5.06,5.06,0,0,0-.34-1.52m44.43-.71a18.66,18.66,0,0,0-5.69,3.55c-6.57,5.46-11.33,12.7-17.06,19-2.82,3.08-6.58,6.78-10.93,6.78a7.87,7.87,0,0,1-2.6-.45c-4.33-1.53-7.5-5.81-9.79-9.58-.45-.75-.87-1.51-1.27-2.28-2.79,1.88-7.12,2.42-10.62,2.42-.61,0-1.2,0-1.75,0a7.2,7.2,0,0,1,1,.53,1.33,1.33,0,0,1,.45-.08,1.35,1.35,0,0,1,.33,0c4.3,1,5.51,6.83,3,9.74,5.94,3.48,12.43,5.91,19.21,5.91a27.44,27.44,0,0,0,6.18-.7c8.17-1.87,15-7.76,19.89-14.33a55.77,55.77,0,0,0,9.62-20.47m-44.52-14.67a8.07,8.07,0,0,1-2.7,3.5,37.39,37.39,0,0,1-7,4.25,23.15,23.15,0,0,1,6.38,1.26,9.65,9.65,0,0,0,3.79-5.36,4.55,4.55,0,0,0-.42-3.65"/><path class="cls-7" d="M209.34,184.1c.33.19.65.39,1,.61l.16-.07a7.2,7.2,0,0,0-1-.53h-.08"/><path class="cls-2" d="M371.72,152.85l-2,.38q-4.69.84-9.45,1.37a39.39,39.39,0,0,0-5.94.76c-2.82.78-2.7,4.62-3.3,7-1.63,6.36-4.37,12.36-7,18.33a137.82,137.82,0,0,0-6.5,16.43c6.62-1.45,13.23-3,19.79-4.55a1.83,1.83,0,0,1,1.16-.51c2.95-8.58,5.63-17.25,8.59-25.82,1.5-4.34,3-8.9,4.71-13.35"/><path class="cls-3" d="M375.45,144.37a148.38,148.38,0,0,1-28.79,3.57,1.74,1.74,0,0,1,.18.86c-.47,13.59-3.47,32.56-14.87,41.51a2.42,2.42,0,0,1-.5.31,85.37,85.37,0,0,1-5.48,8.95q5.75-1.23,11.48-2.49a137.82,137.82,0,0,1,6.5-16.43c2.65-6,5.39-12,7-18.33.6-2.34.48-6.18,3.3-7a39.39,39.39,0,0,1,5.94-.76q4.75-.53,9.45-1.37l2-.38a89.56,89.56,0,0,1,3.73-8.48"/><path class="cls-7" d="M218.41,147.56a137.59,137.59,0,0,0-14.19,3.57,39.08,39.08,0,0,0-8.51,3.3c-2.14,1.26-3,1.72-.47,3a8.91,8.91,0,0,0,4.06.86c4.49,0,9.77-2.33,13.22-3.82a30.81,30.81,0,0,0,7.6-4.2c2.31-1.92,1.31-1.51-1.16-2.4a1.73,1.73,0,0,1-.55-.32"/><path class="cls-15" d="M343.68,148c-3.74.1-7.47.14-11.17.14-.62,2-1.19,3.93-1.7,5.89-2.61,9.89-4.95,22.77.31,32.26,9.48-9,11.24-25.33,12.33-37.53a1.74,1.74,0,0,1,.23-.76"/><path class="cls-14" d="M212.77,158.75l-.8.32.73-.06a2.5,2.5,0,0,1,.07-.26"/><path class="cls-7" d="M213.77,160.78a105.48,105.48,0,0,0-15.21,3.43,16,16,0,0,0-4.31,1.65c-.9.6-1.27.16.43.67a40.19,40.19,0,0,0,7.85,1.36c1.52.14,3.09.23,4.67.23A24.57,24.57,0,0,0,219,165.58c6-3.25-2.48-4-5.24-4.8M212.7,159l-.73.06-.11.05h.83s0-.07,0-.1"/><path class="cls-7" d="M211.29,172a41.28,41.28,0,0,0-12.19,2c-7.22,2.57,5.27,6,8,6.36a34.76,34.76,0,0,0,5.2.45,21.81,21.81,0,0,0,2.29-.12c2-.22,7.72-1.65,6.9-4.75-.75-2.85-7.76-3.17-10-3.9l-.11,0"/><path class="cls-7" d="M204.17,185.23c-1,0-2,.05-2.85.1-1.66.1-6.93.25-5.54,2.86s6.76,3.7,9.38,4.34a19.41,19.41,0,0,0,4.29.76,5,5,0,0,0,1-.08,1.52,1.52,0,0,1,1-.36h.09c2.25-1.22.93-4.54-1.28-5.73a1.22,1.22,0,0,1-.69-1.16,16,16,0,0,0-5.31-.74"/><path class="cls-10" d="M214.4,198.33c-.73.17-1.46.36-2.18.56,1.27.07,2.55.16,3.84.26-.56-.26-1.11-.54-1.66-.82"/><path class="cls-16" d="M194.54,202.54c-14.87,2.61-29.26,5.23-42.81,12.63-5.85,3.2-11.23,6.06-16.33,10.49q-2.51,2.19-4.88,4.53a19.77,19.77,0,0,1,6.16,3.64,25.53,25.53,0,0,1,.89-3.25,14,14,0,0,1,4.25-6.37,2,2,0,0,1,1.06-1.66,75.72,75.72,0,0,1,30.58-7.38c5.4-.23,10.8-.23,16.19-.66,6.42-.51,12.67-2,19.06-2.76h.09a1,1,0,0,1,.39,1.77c-9.91,4.4-21.34,5-32,5.52-9.31.49-18,1.75-26.52,5,9.54,3.74,16,11.83,19.32,22a73.4,73.4,0,0,1,3.13,15.45,39.94,39.94,0,0,0,7.92,1h1.14c7.72,0,15.43-1.75,22.84-3.74,10.9-2.93,21.56-6.71,32.19-10.5,9.28-3.3,18.55-6.91,28.09-9.38a43.82,43.82,0,0,1,4.36-.93l.05,0a46,46,0,0,1-4.82.27q-.76,0-1.53,0c-2.39-.1-4.93-.44-6.89-1.93-1.7-1.3-2.87-2.76-4.8-4-3.77-2.4-7.85-4.27-11.66-6.6a1.5,1.5,0,0,1,.62-2.72h.18c4.78-1.94,9.61-3.72,14.49-5.38a54.34,54.34,0,0,0-9.86-6.34c-.89.15-1.72.25-2.37.33a74.64,74.64,0,0,1-9.6.54c-3.77,0-7.56-.18-11.29-.27a105,105,0,0,1-13-1c-4-.6-8.22-1.42-11.76-3.41-1.7-1-3.76-2.64-2.84-4.81"/><path class="cls-17" d="M269.63,238a43.82,43.82,0,0,0-4.36.93c-9.54,2.47-18.81,6.08-28.09,9.38-10.63,3.79-21.29,7.57-32.19,10.5-7.41,2-15.12,3.74-22.84,3.74H181a39.94,39.94,0,0,1-7.92-1c.15,1.42.26,2.84.35,4.26a108.86,108.86,0,0,1,.32,15.34c21.34-3.92,41.06-11.69,60.75-20.85a183.74,183.74,0,0,0,22.61-12.41A91.9,91.9,0,0,0,267.56,240a27.37,27.37,0,0,0,2.07-2.09M197.08,202.1l-2.54.44c-.92,2.17,1.14,3.85,2.84,4.81,3.54,2,7.79,2.81,11.76,3.41a105,105,0,0,0,13,1c3.73.09,7.52.27,11.29.27a74.64,74.64,0,0,0,9.6-.54c.65-.08,1.48-.18,2.37-.33-14.27-7.16-31.14-8.33-47.11-8.68a2,2,0,0,1-1.22-.41"/><path class="cls-18" d="M14.72,204.39c-7.55,4.7-12.65,12.23-10.65,21.69,1.65,7.76,5.88,14.93,8.4,22.43,1.5,4.46,2.41,9.09,4.41,13.37a66.43,66.43,0,0,0,7,11.41A61.76,61.76,0,0,0,41,289.61c-.12-.94-.28-1.88-.48-2.81-.29-1.32-.58-2.63-.88-3.94-8-5-13.25-12.61-16.92-21.29-.82-1.91-1.52-3.88-2.16-5.87a2,2,0,0,1-1.28-3c.08-.13.16-.26.25-.39-1.81-6.15-3.34-12.41-6.12-18.13-2.38-4.88-10.58-17.64-3.1-22.16.18-.11.36-.2.54-.29.33-2.55,1.29-6.22,3.82-6.85l0-.48"/><path class="cls-7" d="M28,213.7c3.68,11.37,3.91,26.58-2.17,37A39,39,0,0,0,31,256.56c2.2,2.17,4.46,4.26,6.74,6.35A18.21,18.21,0,0,1,43.11,252c-1.34-3.49,1.1-5.83,4.11-5.83a6.14,6.14,0,0,1,1.81.28,9.16,9.16,0,0,1,.5-4.46c-5.72-5.11-9.8-12.69-12.65-20.33-2.55-1.12-4.44-3.54-6.38-5.49-.82-.84-1.63-1.68-2.46-2.49"/><path class="cls-6" d="M25.87,250.68a26.08,26.08,0,0,1-2.83,4c3.41,9.67,8,18.7,16,25.43a53.32,53.32,0,0,1-1.53-14.76c.05-.8.14-1.61.26-2.4-2.28-2.09-4.54-4.18-6.74-6.35a39,39,0,0,1-5.16-5.88"/><path class="cls-1" d="M335.34,249.9a244.77,244.77,0,0,1-23.84,11.28c-4.58,1.95-9.2,3.82-13.78,5.79,19.45,5.43,37.85,15.94,58.07,18.15-2.3-4-4-8.38-5.91-12.62A131.75,131.75,0,0,0,341,256.8c-1.3-2.08-2.62-4.16-3.93-6.24l-1.74-.66"/><path class="cls-1" d="M336.31,249.35l-1,.55,1.74.66c-.26-.4-.52-.8-.77-1.21"/><path class="cls-2" d="M321.86,226a18.8,18.8,0,0,1-4.84,4.9,70.35,70.35,0,0,1-10.33,6.55,127.5,127.5,0,0,1-11.56,5.38c-1.88,7.26-3.66,14.56-5.49,21.83,2.22-1.06,4.64-1.86,6.73-2.77q6.11-2.64,12.26-5.18c8.5-3.51,16.93-7.15,25.12-11.33-4.06-6.4-8.1-12.81-11.89-19.38"/><path class="cls-3" d="M320.45,223.49c-7.31,2.58-14.67,5-22.08,7.32-1.13,4-2.2,8-3.24,12a127.5,127.5,0,0,0,11.56-5.38A70.35,70.35,0,0,0,317,230.86a18.8,18.8,0,0,0,4.84-4.9l-1.41-2.47"/><path class="cls-19" d="M327.25,221.06l-3.31,1.19C331,233,338.25,243.56,345.1,254.42a134.64,134.64,0,0,1,9.23,16.39c2.38,5.28,4.51,10.67,7.83,15.45,1.23,1.78-.4,3.44-2.1,3.44a2.38,2.38,0,0,1-.91-.18,32.27,32.27,0,0,1-3.25.15c-10,0-20.06-4.05-29.53-6.8-12.44-3.61-24.28-8.84-36.79-12.26a14.45,14.45,0,0,1-1.57.4q-.75,2.89-1.53,5.78c4.17,1.13,8.29,2.38,12.4,3.71,14.83,4.79,29.76,9.84,45.13,12.65a74,74,0,0,0,13.1,1.63,25.74,25.74,0,0,0,5.57-.56c4-.88,4.81-2.71,4.63-5.65a3,3,0,0,1-.8-.86c-7.73-12.15-13.38-25.58-21.23-37.71-6.07-9.37-14.34-18.23-18-28.94"/><path class="cls-18" d="M297.72,267l-.35.15c-2.56,1.1-5.11,2.63-7.79,3.49,12.51,3.42,24.35,8.65,36.79,12.26,9.47,2.75,19.48,6.8,29.53,6.8a32.27,32.27,0,0,0,3.25-.15,2.46,2.46,0,0,1-1.09-.86,36.64,36.64,0,0,1-2.27-3.54c-20.22-2.21-38.62-12.72-58.07-18.15"/><path class="cls-5" d="M333.75,245.34c-8.19,4.18-16.62,7.82-25.12,11.33q-6.15,2.55-12.26,5.18c-2.09.91-4.51,1.71-6.73,2.77q-.81,3.19-1.63,6.39a14.45,14.45,0,0,0,1.57-.4c2.68-.86,5.23-2.39,7.79-3.49l.35-.15c4.58-2,9.2-3.84,13.78-5.79a244.77,244.77,0,0,0,23.84-11.28l1-.55-2.56-4"/><path class="cls-20" d="M143.84,226.7a13.37,13.37,0,0,0-3.11,5.92,24.63,24.63,0,0,0-.35,4.25,104.33,104.33,0,0,0,15.26-4.79,26.42,26.42,0,0,0-11.8-5.38"/><path class="cls-19" d="M294.83,231.87q-2.46.74-4.93,1.43c-9.13,30.13-18.12,60.58-29.3,90a2.16,2.16,0,0,1-2.08,1.43,2,2,0,0,1-2.06-1.47c-11.92-4.23-23-10.34-33.82-16.85-6.44-3.88-12.93-7.68-19.37-11.56-5.64-3.41-10.88-7.24-16.32-10.89a68,68,0,0,1-6.87,1.67c5.89,5.17,12.65,9.48,19.2,13.75,7.6,4.95,15.34,9.71,23.23,14.18,3.53,2,26.51,15.54,36.82,15.54a5.85,5.85,0,0,0,3.62-1,2.55,2.55,0,0,1,.11-.52c5.63-17.08,14-32.9,18.76-50.31,4.19-15.16,7.37-30.73,13-45.45"/><path class="cls-7" d="M147.89,237.67c-9.27,3.31-19.2,5.05-28.79,6.51-11.51,1.76-23.28,3.64-35,3.64-.8,0-1.59,0-2.39,0a13.5,13.5,0,0,1,.56,10.64c1.21,1.43,3.28,1.71,5.16,1.71.47,0,.94,0,1.37,0,7-.36,13.84-2.53,20.68-3.77s13.88-1.8,20.76-3.08a77.58,77.58,0,0,0,11.54-3c2.92-1,6.12-2.26,8.43-4.4,1.41-1.31,2.18-3,1.14-4.82a11.43,11.43,0,0,0-3.5-3.38m-19.39-5.41a101.7,101.7,0,0,0-6.89,8.06c4.83-.72,9.71-1.51,14.54-2.51a26.87,26.87,0,0,0-7.65-5.55"/><path class="cls-6" d="M157.33,233.57a73.15,73.15,0,0,1-9.44,4.1,11.43,11.43,0,0,1,3.5,3.38c1,1.78.27,3.51-1.14,4.82-2.31,2.14-5.51,3.37-8.43,4.4a77.58,77.58,0,0,1-11.54,3c-6.88,1.28-13.87,1.83-20.76,3.08s-13.7,3.41-20.68,3.77c-.43,0-.9,0-1.37,0-1.88,0-4-.28-5.16-1.71a12.3,12.3,0,0,1-6.2,7c.08.25.15.5.22.76,15.37-3.81,31.6-4.42,47.19-7,14.44-2.44,28.83-5.18,43-8.91-1.83-6.61-4.77-12.42-9.19-16.68"/><path class="cls-1" d="M271.8,275.53c-15.73,7.1-31.83,13.39-48,19.39a2.49,2.49,0,0,1-.89.17,2.19,2.19,0,0,1-2-1.65c-4.07-1.7-8.11-3.43-12-5.44s-7.5-4.83-11.27-7.25l-4.67,1.45c4.33,2.73,8.47,6.05,12.74,8.63,6.15,3.73,12.37,7.34,18.52,11.08s12.28,7.78,18.84,11c4.86,2.38,9.73,4.42,14.19,7.42,4.93-14.89,9.71-29.86,14.63-44.78"/><path class="cls-2" d="M281.1,248.08a62.82,62.82,0,0,0-6.45,2.88c-4.94,2.57-9.68,5.5-14.57,8.17-6.85,3.74-13.86,7.18-21,10.22a260.37,260.37,0,0,1-33.34,11.16c1.29.85,2.59,1.69,3.93,2.44,4.27,2.37,8.59,4.63,12.82,7.05h0q25.65-9.33,51-19.43,3.75-11.28,7.66-22.49"/><path class="cls-3" d="M286,234.38c-3.23.88-6.56,1.78-9.92,2.48-2,5.61-10.85,11-14.8,13.74A163,163,0,0,1,237.83,264c-10.51,5-21.09,9.9-32,13.93l-2.63.94,2.5,1.64A260.37,260.37,0,0,0,239,269.35c7.19-3,14.2-6.48,21-10.22,4.89-2.67,9.63-5.6,14.57-8.17a62.82,62.82,0,0,1,6.45-2.88q2.4-6.87,4.92-13.7"/><path class="cls-5" d="M273.44,270.57q-25.35,10.1-51,19.43h0l1.59.92c1.51.88.75,3.39-.77,3.39a1.7,1.7,0,0,1-.61-.12l-1.79-.75a2.19,2.19,0,0,0,2,1.65,2.49,2.49,0,0,0,.89-.17c16.17-6,32.27-12.29,48-19.39.54-1.65,1.09-3.31,1.64-5"/><path class="cls-7" d="M75.59,245.9a2.9,2.9,0,0,0-.58,0c-2.85.53-4.82,3.77-6.2,6.4a21.37,21.37,0,0,1,3.87,5H73a13.67,13.67,0,0,0,4.88-1,5.12,5.12,0,0,0,2.65-2.14,11,11,0,0,0-1-5.14c-.74-1.56-2.08-3.18-3.88-3.18m-13.53-4.26c-1.46,0-2.16,2.61-2.29,4.57a1.44,1.44,0,0,1-1.43,1.38,1.39,1.39,0,0,1-1.18-.67c-.65-1-2.29-4.13-4-4.13a1.52,1.52,0,0,0-.88.28c-1,.68-.37,4-.09,5.34h0a14,14,0,0,1,4,.59,16.21,16.21,0,0,1,3.5-.4A12.76,12.76,0,0,1,65.54,250a12.28,12.28,0,0,0,0-3.53,1.19,1.19,0,0,1-.22-1A6.58,6.58,0,0,0,64,242.81a2.78,2.78,0,0,0-1.9-1.17"/><path class="cls-6" d="M80.48,254.22a5.12,5.12,0,0,1-2.65,2.14,13.67,13.67,0,0,1-4.88,1h-.27a35.14,35.14,0,0,1,2.51,5.4,10.13,10.13,0,0,0,4.88-6,11.33,11.33,0,0,0,.41-2.53"/><path class="cls-7" d="M67.39,247.1a13.69,13.69,0,0,1-.8,3.51l.78.53a21.89,21.89,0,0,1,1.94-3.71l-.22,0c-.57-.09-1.14-.18-1.7-.3"/><path class="cls-7" d="M47.37,249a1.47,1.47,0,0,0-1.53,1l.65-.33a16,16,0,0,1,1.5-.63,2.68,2.68,0,0,0-.62-.07"/><path class="cls-21" d="M52.18,252.31A9.47,9.47,0,0,0,47,254c-5.64,3.67-6,11.18-5.47,17.26s2.62,11.92,3.38,18c1,8.25-.73,16.5-1,24.73s1.51,17.23,8.75,22.11A16.25,16.25,0,0,0,61,339,6,6,0,0,0,65.69,337a1.67,1.67,0,0,1,.7-.47c.88-2,1.94-3.9,3-5.8,1-4.21,1-9,1.24-13.06.43-7.57.58-15.18.47-22.76-.19-12.47.16-24.93-7.57-35.45-2.82-3.83-6.88-7.18-11.32-7.18"/><path class="cls-20" d="M167.13,252.65q-10.14,3.1-20.43,5.51c3.2,4.64,6,9.34,10.11,13.41s8.52,6.75,13.17,9.64c-.38-4.37-.22-8.85-.59-13.21a105.8,105.8,0,0,0-2.26-15.35"/><path class="cls-18" d="M62.82,253c11.19,10.57,11.3,26.38,11.35,40.63,0,8.62-.15,17.26-1,25.85-.11,1.13-.21,2.3-.32,3.48.15-.47.28-1,.4-1.45a78.73,78.73,0,0,0,1.53-13A226.69,226.69,0,0,0,75.56,285c-.28-8.06-1-16.93-4.62-24.25A15.36,15.36,0,0,0,62.82,253"/><path class="cls-7" d="M102.94,272a11.64,11.64,0,0,0-2.48.28c-.33.46-.65.91-.95,1.36-2.5,3.72-5,7.43-7.74,11-3.33,4.32-7.53,10-13.15,11.42-.21,4.13-.53,8.26-.87,12.38-.49,6.07-1.17,12.56-3.13,18.51,3.45-.77,6.46-2,8.86-5.13s3.75-6.83,5.28-10.37a70.09,70.09,0,0,1,10.55-16.92c3.77-4.58,7.74-9,11.69-13.48-.19-3.11-1-6.12-3.85-7.88a7.9,7.9,0,0,0-4.21-1.15"/><path class="cls-6" d="M126.65,262.26l-2.17.38c-6.44,1.09-13,1.88-19.49,2.69v0a39.08,39.08,0,0,1-4.52,7,11.64,11.64,0,0,1,2.48-.28,7.9,7.9,0,0,1,4.21,1.15c2.9,1.76,3.66,4.77,3.85,7.88,5.42-6.12,10.81-12.25,15.65-18.81"/><path class="cls-11" d="M100.45,265.89a227.87,227.87,0,0,0-23.21,3.87,66.54,66.54,0,0,1,1.47,10.84c.21,4.11.2,8.22.05,12.33,5.86-2,10.69-10.55,13.73-15,2.35-3.45,4.75-8.63,8-12"/><path class="cls-5" d="M380.35,143.06c-1.62.48-3.26.91-4.9,1.31a89.56,89.56,0,0,0-3.73,8.48c-1.73,4.45-3.21,9-4.71,13.35-3,8.57-5.64,17.24-8.59,25.82h.14a2.38,2.38,0,0,1,.76.13l1.61.55c3.33-8.13,6.25-16.42,9.27-24.68,3.09-8.46,6.87-16.6,10.15-24.95m-1.3-3.35a1.7,1.7,0,0,0-.93.26l.93-.26"/><path class="cls-9" d="M367.63,33.85c0,.93,0,1.86,0,2.8,4.08.73,8.15,1.64,12.16,2.76a109.65,109.65,0,0,1,21.43,8.37c11.48,6,23.32,15.25,27.14,28.19,5,17-1.61,31.66-12.9,42.86-8.7,8.63-20.18,15.2-31.23,19.2-1.7.61-3.43,1.17-5.16,1.68l-.93.26c-14.33,4-29.57,4.51-44.39,4.59-.43,1.2-.83,2.41-1.22,3.62,3.7,0,7.43,0,11.17-.14a1.83,1.83,0,0,1,1.58-.88,1.54,1.54,0,0,1,1.4.78,148.38,148.38,0,0,0,28.79-3.57c1.64-.4,3.28-.83,4.9-1.31,1.2-.36,2.39-.74,3.58-1.15,13.73-4.7,27-12.45,36.81-23.25,9.4-10.35,14.52-24.08,12.18-38.07s-11.73-24.34-23.28-31.8a97.87,97.87,0,0,0-42-14.94"/><path class="cls-22" d="M343.91,123.84l-.62,0a2.21,2.21,0,0,1-.37,0l-2,0c-7.25,8.67-11.45,20.38-14.05,31.13s-4.52,24.39,1.83,34.23l.74-1a1.55,1.55,0,0,1,1.24-.63,1.36,1.36,0,0,1,1.25,2.08l-.48.85a2.42,2.42,0,0,0,.5-.31c11.4-8.95,14.4-27.92,14.87-41.51a1.74,1.74,0,0,0-.18-.86,1.54,1.54,0,0,0-1.4-.78,1.83,1.83,0,0,0-1.58.88,1.74,1.74,0,0,0-.23.76c-1.09,12.2-2.85,28.51-12.33,37.53-5.26-9.49-2.92-22.37-.31-32.26.51-2,1.08-3.93,1.7-5.89.39-1.21.79-2.42,1.22-3.62a92.34,92.34,0,0,1,10.18-20.72"/><path class="cls-9" d="M365.47,48.25c-.36,1.17-.77,2.34-1.21,3.49,11.22,1.47,23.08,4.65,32.69,10.93a46.11,46.11,0,0,1,6.39,2.27,1.91,1.91,0,0,1,.78-.16,1.64,1.64,0,0,1,1.68,2.16l-.75,2.45c7.21,7.88,11.07,19.49,4.4,28.92-5,7.08-13.46,11.34-21.82,14.27-.47,1-.93,1.93-1.4,2.88a1.13,1.13,0,0,1-1.05.65,1.33,1.33,0,0,1-1.37-1.67c.08-.22.15-.45.23-.67-1.33.42-2.65.8-3.94,1.17a161.54,161.54,0,0,1-33.29,5.51l-3.55.2c1.64.24,1.66,2.84,0,3.21l.62,0,.9,0c20.15-.78,43.75-4,60.18-16.19,6.72-5,11.55-11.58,11.64-20.12a26.89,26.89,0,0,0-3.46-13.15,40.58,40.58,0,0,0-11.45-12.8c-10.4-7.71-23.48-11.52-36.25-13.29"/><path class="cls-22" d="M327.26,120.47a1.44,1.44,0,0,1,.16,1.38c-.17.39-.37.82-.59,1.29a92.67,92.67,0,0,0,12.89.8h1.22l2,0a2.21,2.21,0,0,0,.37,0c1.63-.37,1.61-3,0-3.21l-.25,0h-.09c-2.47.11-5,.19-7.44.19s-4.8-.07-7.18-.26l-1-.09"/><path class="cls-22" d="M330.7,187.69a1.55,1.55,0,0,0-1.24.63l-.74,1q-2.37,3.14-4.68,6.31a53.71,53.71,0,0,1-4.78,5.41l6.73-1.44a85.37,85.37,0,0,0,5.48-8.95l.48-.85a1.36,1.36,0,0,0-1.25-2.08"/><path class="cls-22" d="M284.43,116H284c-1.64,8.86-5,20.56-11.71,26.83a33.87,33.87,0,0,1,.94,3.6c8.14-6.71,11.9-19.48,13.13-29.79l-.52,0h-.06a1.54,1.54,0,0,1-1.32-.67"/><path class="cls-9" d="M283.91,113.32l-2.28,0c-.27.66-.57,1.3-.89,1.92a.68.68,0,0,1-.63.42.87.87,0,0,1-.77-1.24c.17-.35.33-.7.47-1.06-11.38.34-23.1,2.25-32.81,8.27a40.4,40.4,0,0,1,4,1c10.42-4.79,21.4-6.32,32.93-6.67h.46a1.91,1.91,0,0,1-.32-1.09,1.76,1.76,0,0,1,.81-1.55h-1"/><path class="cls-22" d="M285.75,113.11a1.58,1.58,0,0,0-.83.22,1.76,1.76,0,0,0-.81,1.55,1.91,1.91,0,0,0,.32,1.09,1.54,1.54,0,0,0,1.32.67h.06l.52,0c5-.13,10-.21,15-.41.33-.63.66-1.25,1-1.87l-1.06-.15a147.39,147.39,0,0,0-15.48-1.07h-.06"/><path class="cls-23" d="M197,199.33c-16.34.42-33.18,6.09-47.51,13.58a90.42,90.42,0,0,0-31.88,28l.58-.08,3.44-.5a101.7,101.7,0,0,1,6.89-8.06c-.38-.2-.76-.38-1.12-.55-1.22-.56-.41-2.14.69-2.14h.2a14.77,14.77,0,0,1,2.25.61q2.37-2.34,4.88-4.53c5.1-4.43,10.48-7.29,16.33-10.49,13.55-7.4,27.94-10,42.81-12.63l2.54-.44a2,2,0,0,1-.1-2.77"/><path class="cls-5" d="M210.83,196.32c-4.18.71-8.28,1.84-12.53,2.35h0a2,2,0,0,0-1.32.66,2,2,0,0,0,.1,2.77,2,2,0,0,0,1.22.41c16,.35,32.84,1.52,47.11,8.68a54.34,54.34,0,0,1,9.86,6.34c1.4-.48,2.8-.95,4.21-1.4a39.41,39.41,0,0,0-8.23-6.95,56.22,56.22,0,0,0-13.57-6.13,33.91,33.91,0,0,1-4.16.25,41.15,41.15,0,0,1-17.46-4.15c-1.29-.1-2.57-.19-3.84-.26.72-.2,1.45-.39,2.18-.56-1.21-.62-2.39-1.29-3.57-2"/><path class="cls-24" d="M211.36,192.85a1.52,1.52,0,0,0-1,.36l.18,0a3.52,3.52,0,0,0,.87-.32h-.09m-13.71-59.64c-2.93,4.76-3.84,10.62-2.45,17.15.71-.28,1.43-.53,2.12-.75-.56-6.26.71-11.86,4.13-16.18-1,.13-2.06.29-3.08.5a.44.44,0,0,1-.16,0,.58.58,0,0,1-.56-.74m42.18-12.65c.06,1.26.11,2.51.14,3.77l.47.06c7.45.88,14.53,2.93,19.92,7.17a20.07,20.07,0,0,1,2.87-.61h.18c1.24,0,1.39,1.83.48,2.45-.29.2-.59.39-.89.57a25.11,25.11,0,0,1,5.7,9.87,39.8,39.8,0,0,1,.43,20.92,55.77,55.77,0,0,1-9.62,20.47c-4.92,6.57-11.72,12.46-19.89,14.33a27.44,27.44,0,0,1-6.18.7c-6.78,0-13.27-2.43-19.21-5.91a4.83,4.83,0,0,1-2.86,1.57c-.32.05-.64.1-1,.13l.11.07.33.21c1.18.72,2.36,1.39,3.57,2,.55.28,1.1.56,1.66.82a41.15,41.15,0,0,0,17.46,4.15,33.91,33.91,0,0,0,4.16-.25,33.39,33.39,0,0,0,18.5-8.71,55.87,55.87,0,0,0,15.33-24,48.92,48.92,0,0,0,2.1-21.55c-.11-.8-.25-1.58-.41-2.35a33.87,33.87,0,0,0-.94-3.6C269,132.69,261.32,125.74,251,122.65a40.4,40.4,0,0,0-4-1l-.23,0c-2.27-.42-4.59-.78-6.94-1m-9.44-.55a57.79,57.79,0,0,0-19.35,3c-5.94,2.13-10.41,5.51-13.18,9.82a.86.86,0,0,1,.19-.11,28.54,28.54,0,0,1,5.52-1.61v0h0a22.73,22.73,0,0,1,7.07-4.26,52.16,52.16,0,0,1,19-3.18c1.8,0,3.6.07,5.38.18-.24-1.25-.47-2.51-.68-3.77-1.32-.07-2.64-.1-4-.1"/><path class="cls-9" d="M199.3,158.3a8.91,8.91,0,0,1-4.06-.86c-2.55-1.29-1.67-1.75.47-3a39.08,39.08,0,0,1,8.51-3.3,137.59,137.59,0,0,1,14.19-3.57,1.73,1.73,0,0,0,.55.32c2.47.89,3.47.48,1.16,2.4a30.81,30.81,0,0,1-7.6,4.2c-3.45,1.49-8.73,3.82-13.22,3.82m20.55-13.49h-.48a1.54,1.54,0,0,0-1.26.68,103.22,103.22,0,0,0-17.37,3.14c-.89.25-2.11.56-3.42,1-.69.22-1.41.47-2.12.75-3.2,1.28-6.19,3.25-5.69,6.41.45,2.83,2.76,4.27,5.45,4.9a52.73,52.73,0,0,1,5.76-1.31,61.69,61.69,0,0,1,11.14-1.24l.11-.05.8-.32a1.39,1.39,0,0,1,1.35-.94h0l.72,0a37.39,37.39,0,0,0,7-4.25,8.07,8.07,0,0,0,2.7-3.5c1-2.71-.46-5.27-4.76-5.27"/><path class="cls-24" d="M210.54,130.54a37.47,37.47,0,0,0-6.78.58h0l-.19,0a28.54,28.54,0,0,0-5.52,1.61.86.86,0,0,0-.19.11.63.63,0,0,0-.21.33.58.58,0,0,0,.56.74.44.44,0,0,0,.16,0c1-.21,2-.37,3.08-.5a45.46,45.46,0,0,1,5.59-.34,81.7,81.7,0,0,1,16.76,2.1c7.09,1.51,14.86,4,18.54,10.81a1.61,1.61,0,0,0,1.45.83,1.81,1.81,0,0,0,1.24-.48,65,65,0,0,1,9.3-7.66c2.77-1.81,5.88-3,8.67-4.73.3-.18.6-.37.89-.57.91-.62.76-2.45-.48-2.45h-.18a20.07,20.07,0,0,0-2.87.61c-6.15,1.78-11.7,6.42-16.25,10.87-4.16-5.7-11.22-8.51-18-9.93a76.88,76.88,0,0,0-15.57-2"/><path class="cls-24" d="M238,129.4a.74.74,0,0,1-.78-.62c-1.93-12.2-3.31-24.48-4.82-36.74a1.54,1.54,0,0,1,1.14-1.49C246,88.2,258.47,86,270.94,83.82a1.83,1.83,0,0,1,.33,0c1.8,0,2.48,2.81.53,3.16-12.05,2.14-24.1,4.34-36.18,6.37,1.19,11.73,2.49,23.46,3.28,35.22a.84.84,0,0,1-.91.85m33.13-47.73a4.13,4.13,0,0,0-.76.07L257.41,84l-3.86.68c-6.87,1.22-13.74,2.48-20.57,3.87-2.09.43-2.77,2.62-2.52,4.44,1.25,9,2.32,18.12,3.89,27.11.21,1.26.44,2.52.68,3.77.34,1.74.69,3.48,1.07,5.21a1.8,1.8,0,0,0,1.84,1.43,2,2,0,0,0,2.11-2c0-1.41,0-2.81-.08-4.22s-.08-2.51-.14-3.77c-.4-8.51-1.25-17-2-25.48,5.16-.81,10.31-1.7,15.46-2.61l3.53-.62c5.19-.93,10.38-1.88,15.57-2.8,4.53-.81,3-7.38-1.26-7.38"/><path class="cls-25" d="M271.27,83.8a1.83,1.83,0,0,0-.33,0c-12.47,2.22-25,4.38-37.41,6.73A1.54,1.54,0,0,0,232.39,92c1.51,12.26,2.89,24.54,4.82,36.74a.74.74,0,0,0,.78.62.84.84,0,0,0,.91-.85c-.79-11.76-2.09-23.49-3.28-35.22,12.08-2,24.13-4.23,36.18-6.37,1.95-.35,1.27-3.16-.53-3.16"/><path class="cls-9" d="M207.2,168.12c-1.58,0-3.15-.09-4.67-.23a40.19,40.19,0,0,1-7.85-1.36c-1.7-.51-1.33-.07-.43-.67a16,16,0,0,1,4.31-1.65,105.48,105.48,0,0,1,15.21-3.43c2.76.81,11.21,1.55,5.24,4.8a24.57,24.57,0,0,1-11.81,2.54m6.92-10.31a1.39,1.39,0,0,0-1.35.94,2.5,2.5,0,0,0-.07.26s0,.06,0,.1h-.83a61.69,61.69,0,0,0-11.14,1.24,52.73,52.73,0,0,0-5.76,1.31,8.79,8.79,0,0,0-4.55,2.76c-2.86,3.91,2.5,5.64,7.25,6.42a33.46,33.46,0,0,1,4.85-.94,42.19,42.19,0,0,1,6-.44c.94,0,1.88,0,2.81.1h.08a10.88,10.88,0,0,1,1.8-.14,18.08,18.08,0,0,1,4.34.56c2.35-.82,5.78-2.24,7.16-4.52a4.7,4.7,0,0,0,.4-.85c.94-2.78-1.16-4.5-3.86-5.52a23.15,23.15,0,0,0-6.38-1.26l-.72,0h0"/><path class="cls-9" d="M212.26,180.85a34.76,34.76,0,0,1-5.2-.45c-2.69-.41-15.18-3.79-8-6.36a41.28,41.28,0,0,1,12.19-2l.11,0c2.29.73,9.3,1,10,3.9.82,3.1-4.91,4.53-6.9,4.75a21.81,21.81,0,0,1-2.29.12m.94-11.43a10.88,10.88,0,0,0-1.8.14h-.08c-.93-.06-1.87-.1-2.81-.1a42.19,42.19,0,0,0-6,.44,33.46,33.46,0,0,0-4.85.94c-2.3.68-4.44,1.84-5,4-1,4,3,6.31,7.33,7.63.54,0,1.1-.07,1.66-.07a16.17,16.17,0,0,1,7.68,1.73h.08c.55,0,1.14,0,1.75,0,3.5,0,7.83-.54,10.62-2.42a6,6,0,0,0,2.86-5.56,5.33,5.33,0,0,0-2.22-3.95,13.07,13.07,0,0,0-4.89-2.24,18.08,18.08,0,0,0-4.34-.56"/><path class="cls-9" d="M209.45,193.29a19.41,19.41,0,0,1-4.29-.76c-2.62-.64-8-1.71-9.38-4.34s3.88-2.76,5.54-2.86c.89-.05,1.86-.1,2.85-.1a16,16,0,0,1,5.31.74,1.22,1.22,0,0,0,.69,1.16c2.21,1.19,3.53,4.51,1.28,5.73a3.52,3.52,0,0,1-.87.32l-.18,0a5,5,0,0,1-1,.08m-7.79-10.92c-.56,0-1.12,0-1.66.07a21,21,0,0,0-2.77.39c-4.64,1-6.89,4.95-2.8,8.48,3.29,2.83,9.57,4.8,14.46,4.8.52,0,1,0,1.5-.07s.66-.08,1-.13a4.83,4.83,0,0,0,2.86-1.57c2.52-2.91,1.31-8.72-3-9.74a1.35,1.35,0,0,0-.33,0,1.33,1.33,0,0,0-.45.08l-.16.07c-.31-.22-.63-.42-1-.61a16.17,16.17,0,0,0-7.68-1.73"/><path class="cls-22" d="M302.55,114l-.15.27,0,.09c-.34.62-.67,1.24-1,1.87a85.9,85.9,0,0,0-5.84,14c-1.44,4.54-3.58,12.1,1,15.62a9.13,9.13,0,0,0,5.63,2c10.11,0,20.91-16.83,24.66-24.62.22-.47.42-.9.59-1.29a1.44,1.44,0,0,0-.16-1.38,1.26,1.26,0,0,0-1-.61,1.08,1.08,0,0,0-.83.44l-.27.34c-3.69,4.59-6.31,10-10.07,14.61-2.4,2.92-8.32,9.34-13.34,9.34a5.16,5.16,0,0,1-3.82-1.65c-3.52-3.58.26-12.46,1.65-16.29s3.29-7.7,4.73-11.63c-.14.15-.29.29-.44.43a.83.83,0,0,1-.57.22.79.79,0,0,1-.82-.79,8.6,8.6,0,0,1,.08-.9"/><path class="cls-5" d="M308.32,105c-1.34,0-2.33,2.06-3,3.07l-.09.14a15.45,15.45,0,0,0-2.72,5.8,8.6,8.6,0,0,0-.08.9.79.79,0,0,0,.82.79.83.83,0,0,0,.57-.22c.15-.14.3-.28.44-.43s.26-.27.38-.41h0a37.25,37.25,0,0,0,3.38-5c.27-.44.82-1.14,1.21-1.86.55-1,.8-2.1-.41-2.61a1.4,1.4,0,0,0-.55-.12"/><path class="cls-23" d="M208.8,211.75h-.09c-6.39.79-12.64,2.25-19.06,2.76-5.39.43-10.79.43-16.19.66a75.72,75.72,0,0,0-30.58,7.38,2,2,0,0,0-1.06,1.66,13.64,13.64,0,0,1,1.42-1A1.37,1.37,0,0,1,144,223c1.21,0,2.24,1.69,1.12,2.6a11.33,11.33,0,0,0-1.24,1.15,26.42,26.42,0,0,1,11.8,5.38c1-.38,1.89-.79,2.83-1.21a.91.91,0,0,1,.41-.1.9.9,0,0,1,.5,1.67c-.67.39-1.36.77-2,1.13,4.42,4.26,7.36,10.07,9.19,16.68l2.54-.68a1.4,1.4,0,0,1,.34,0,1.2,1.2,0,0,1,.29,2.33l-2.56.8A105.8,105.8,0,0,1,169.39,268c.37,4.36.21,8.84.59,13.21l.72.44a2.29,2.29,0,0,1,.56-.15c.84-.15,1.67-.29,2.5-.45a108.86,108.86,0,0,0-.32-15.34c-.09-1.42-.2-2.84-.35-4.26A73.4,73.4,0,0,0,170,246c-3.37-10.15-9.78-18.24-19.32-22,8.52-3.23,17.21-4.49,26.52-5,10.69-.56,22.12-1.12,32-5.52a1,1,0,0,0-.39-1.77"/><path class="cls-18" d="M289.9,233.3l-2.28.64-1.6.44q-2.52,6.83-4.92,13.7-3.93,11.21-7.66,22.49c-.55,1.65-1.1,3.31-1.64,5-4.92,14.92-9.7,29.89-14.63,44.78.68.45,1.35.92,2,1.42.87.67.56,2.24-.5,2.24a1.26,1.26,0,0,1-.41-.07c-.6-.21-1.2-.41-1.8-.63a2,2,0,0,0,2.06,1.47,2.16,2.16,0,0,0,2.08-1.43c11.18-29.43,20.17-59.88,29.3-90"/><path class="cls-18" d="M298.37,230.81l-3.54,1.06c-5.64,14.72-8.82,30.29-13,45.45-4.8,17.41-13.13,33.23-18.76,50.31a2.55,2.55,0,0,0-.11.52,3.34,3.34,0,0,0,1.2-1.87,1.41,1.41,0,0,1,1.39-1.16,1.74,1.74,0,0,1,1.72,2,6.6,6.6,0,0,1-1,2.73,2.13,2.13,0,0,0,.88-1.13l.33-.92c5.79-16.1,13.5-31.23,18.15-47.76l-2.24-1.1c-1.42-.71-.59-2.75.77-2.75a1.49,1.49,0,0,1,.36.05l2,.53q.78-2.88,1.53-5.78.83-3.19,1.63-6.39c1.83-7.27,3.61-14.57,5.49-21.83,1-4,2.11-8,3.24-12"/><path class="cls-18" d="M323.94,222.25l-3.49,1.24,1.41,2.47c3.79,6.57,7.83,13,11.89,19.38l2.56,4c.25.41.51.81.77,1.21,1.31,2.08,2.63,4.16,3.93,6.24a131.75,131.75,0,0,1,8.87,15.7c1.92,4.24,3.61,8.59,5.91,12.62a36.64,36.64,0,0,0,2.27,3.54,2.46,2.46,0,0,0,1.09.86,2.38,2.38,0,0,0,.91.18c1.7,0,3.33-1.66,2.1-3.44-3.32-4.78-5.45-10.17-7.83-15.45a134.64,134.64,0,0,0-9.23-16.39C338.25,243.56,331,233,323.94,222.25"/><path class="cls-18" d="M330.69,219.81l-3.44,1.25c3.69,10.71,12,19.57,18,28.94,7.85,12.13,13.5,25.56,21.23,37.71a3,3,0,0,0,.8.86,26.51,26.51,0,0,0-.32-2.64,2.77,2.77,0,0,1,2.59-3.12,2,2,0,0,1,.48.06c-4.07-8.52-8.72-17-13.63-25.14-1.15-1.91-2.32-3.81-3.49-5.69-.85-1.36-1.71-2.72-2.57-4.06-1.88-2.93-3.84-5.81-5.84-8.66q-1.61-2.28-3.23-4.55c-3.56-5-7.18-9.9-10.61-15"/><path class="cls-5" d="M362.55,55.74c-.35.76-.72,1.51-1.1,2.26,4.32,1.07,8.66,2.06,13,3l7.8,1.71c6.52,1.42,13.05,3.49,19.65,4.5l.47-1.23a1.81,1.81,0,0,1,1-1.06A46.11,46.11,0,0,0,397,62.67c-4.55-1.28-9.33-2.07-13.84-3-6.82-1.46-13.68-2.69-20.56-3.89"/><path class="cls-5" d="M404.12,64.78a1.91,1.91,0,0,0-.78.16,1.81,1.81,0,0,0-1,1.06l-.47,1.23C396.08,82.76,389.42,98.1,384,113.77c-.08.22-.15.45-.23.67a1.33,1.33,0,0,0,1.37,1.67,1.13,1.13,0,0,0,1.05-.65c.47-.95.93-1.91,1.4-2.88a324.32,324.32,0,0,0,17.42-43.19l.75-2.45a1.64,1.64,0,0,0-1.68-2.16"/><path class="cls-18" d="M284.12,276.21c-1.36,0-2.19,2-.77,2.75l2.24,1.1a230.75,230.75,0,0,0,35.94,13.52,175.9,175.9,0,0,0,25.92,5.93c2.45.33,5.09.66,7.75.77.6,0,1.19,0,1.79,0a23.88,23.88,0,0,0,9.85-1.8,9.85,9.85,0,0,0,5.29-5.51,11,11,0,0,0-.69-8.94,2.16,2.16,0,0,0-1.38-1.19,2,2,0,0,0-.48-.06,2.77,2.77,0,0,0-2.59,3.12,26.51,26.51,0,0,1,.32,2.64c.18,2.94-.64,4.77-4.63,5.65a25.74,25.74,0,0,1-5.57.56,74,74,0,0,1-13.1-1.63c-15.37-2.81-30.3-7.86-45.13-12.65-4.11-1.33-8.23-2.58-12.4-3.71l-2-.53a1.49,1.49,0,0,0-.36-.05"/><path class="cls-5" d="M52.16,248.41h0l.09.42a1.5,1.5,0,0,1-1.41,1.8,1.35,1.35,0,0,1-1-.42A4.18,4.18,0,0,0,48,249.1a16,16,0,0,0-1.5.63l-.65.33a3.17,3.17,0,0,0,.35,2.15,1.36,1.36,0,0,1-1.2,2,1.27,1.27,0,0,1-1.08-.64,8.31,8.31,0,0,1-.8-1.52,18.21,18.21,0,0,0-5.34,10.89c-.12.79-.21,1.6-.26,2.4A53.32,53.32,0,0,0,39,280.07c.93.78,1.91,1.53,2.94,2.24a.85.85,0,0,1-.41,1.55.77.77,0,0,1-.42-.12c-.51-.28-1-.57-1.49-.88.3,1.31.59,2.62.88,3.94.2.93.36,1.87.48,2.81.84.51,1.69,1,2.57,1.46a.85.85,0,0,1-.45,1.58.75.75,0,0,1-.21,0c-.57-.14-1.12-.31-1.68-.49.59,9.51-2,19.09-1,28.62a31.29,31.29,0,0,0,1,5.13,27.12,27.12,0,0,0,3,6.9,20.16,20.16,0,0,0,8.73,7.82,19.14,19.14,0,0,0,7.62,1.74,9.39,9.39,0,0,0,7.35-3,1.65,1.65,0,0,0,.42-1.31c-.27.31-.54.61-.83.9a1,1,0,0,1-.72.29,1.05,1.05,0,0,1-1.1-1.35c.18-.46.37-.91.57-1.36a1.67,1.67,0,0,0-.7.47A6,6,0,0,1,61,339a16.25,16.25,0,0,1-8.34-2.9c-7.24-4.88-9-13.93-8.75-22.11s2-16.48,1-24.73c-.76-6.08-2.84-11.84-3.38-18S41.31,257.63,47,254a9.47,9.47,0,0,1,5.23-1.65c4.44,0,8.5,3.35,11.32,7.18,7.73,10.52,7.38,23,7.57,35.45.11,7.58,0,15.19-.47,22.76-.24,4.08-.22,8.85-1.24,13.06.35-.66.7-1.31,1-2a1.45,1.45,0,0,1,.46-.9,33,33,0,0,0,2-5c.11-1.18.21-2.35.32-3.48.8-8.59,1-17.23,1-25.85,0-14.25-.16-30.06-11.35-40.63a26.69,26.69,0,0,0-10-1.6c-.78,0-.81-1-.17-1.28A22.42,22.42,0,0,1,56.13,249a14,14,0,0,0-4-.59"/><path class="cls-5" d="M70.4,328.79c-.34.66-.69,1.31-1,2-1,1.9-2.09,3.79-3,5.8-.2.45-.39.9-.57,1.36a1.05,1.05,0,0,0,1.1,1.35,1,1,0,0,0,.72-.29c.29-.29.56-.59.83-.9a28.85,28.85,0,0,0,4.61-7.17l-.88,0h-.12a1.83,1.83,0,0,1-1.68-2.14M59.63,248.6a16.21,16.21,0,0,0-3.5.4,22.42,22.42,0,0,0-3.43,1.08c-.64.26-.61,1.28.17,1.28a26.69,26.69,0,0,1,10,1.6,15.36,15.36,0,0,1,8.12,7.82C74.61,268.1,75.28,277,75.56,285a226.69,226.69,0,0,1-.73,23.45,78.73,78.73,0,0,1-1.53,13c-.12.49-.25,1-.4,1.45a33,33,0,0,1-2,5,1.5,1.5,0,0,1,.77-.36c1-.17,2-.35,3-.56,2-6,2.64-12.44,3.13-18.51.34-4.12.66-8.25.87-12.38a12.38,12.38,0,0,1-1.5.27h-.19c-1.75,0-1.64-2.81.19-3a8.51,8.51,0,0,0,1.64-.39c.15-4.11.16-8.22-.05-12.33a66.54,66.54,0,0,0-1.47-10.84l-.88.21a2.1,2.1,0,0,1-.48.06c-1.93,0-2.61-3-.49-3.58l.94-.24c-.07-.26-.14-.51-.22-.76a12.2,12.2,0,0,1-1.35.53,1.16,1.16,0,0,1-.4.07,1.35,1.35,0,0,1-.62-2.48c.5-.27,1-.54,1.45-.83a35.14,35.14,0,0,0-2.51-5.4,21.37,21.37,0,0,0-3.87-5c-.26.49-.5,1-.72,1.4a.71.71,0,0,1-.65.39.81.81,0,0,1-.84-1c.23-.63.48-1.3.77-2l-.78-.53a12.52,12.52,0,0,1-.76,1.65.33.33,0,0,1-.3.18.38.38,0,0,1-.39-.47,16.56,16.56,0,0,0,.4-2,12.76,12.76,0,0,0-5.91-1.41"/><path class="cls-5" d="M75.64,243.34a5.16,5.16,0,0,0-1.16.13,7.26,7.26,0,0,0-3.15,1.63,2.22,2.22,0,0,1,.84.38,1.07,1.07,0,0,1,.53.92l0-.05a1.09,1.09,0,0,1-.75,1.08,2.66,2.66,0,0,1-1,.17,10.06,10.06,0,0,1-1.58-.17,21.89,21.89,0,0,0-1.94,3.71c-.29.68-.54,1.35-.77,2a.81.81,0,0,0,.84,1,.71.71,0,0,0,.65-.39c.22-.43.46-.91.72-1.4,1.38-2.63,3.35-5.87,6.2-6.4a2.9,2.9,0,0,1,.58,0c1.8,0,3.14,1.62,3.88,3.18a11,11,0,0,1,1,5.14,11.33,11.33,0,0,1-.41,2.53,10.13,10.13,0,0,1-4.88,6c-.46.29-1,.56-1.45.83a1.35,1.35,0,0,0,.62,2.48,1.16,1.16,0,0,0,.4-.07,11.71,11.71,0,0,0,7.55-7.55,13.5,13.5,0,0,0-.56-10.64l-2.4-.08a1.2,1.2,0,0,1,0-2.4l.58,0a6.17,6.17,0,0,0-4.29-1.93"/><path class="cls-5" d="M65.57,246.48a12.28,12.28,0,0,1,0,3.53,16.56,16.56,0,0,1-.4,2,.38.38,0,0,0,.39.47.33.33,0,0,0,.3-.18,12.52,12.52,0,0,0,.76-1.65,13.69,13.69,0,0,0,.8-3.51c-.46-.1-.91-.21-1.36-.33a1,1,0,0,1-.46-.29m-3.81-7.73c-2,0-3.33,1.88-4.06,4-1.28-1.61-2.91-3.06-4.74-3.06a3.5,3.5,0,0,0-1.44.31l-.15.06c.3.44.6.88.88,1.32a1.09,1.09,0,0,1-1,1.68,1.25,1.25,0,0,1-.78-.28q-.45-.37-.9-.78a9.16,9.16,0,0,0-.5,4.46,6.14,6.14,0,0,0-1.81-.28c-3,0-5.45,2.34-4.11,5.83a8.31,8.31,0,0,0,.8,1.52,1.27,1.27,0,0,0,1.08.64,1.36,1.36,0,0,0,1.2-2,3.17,3.17,0,0,1-.35-2.15,1.47,1.47,0,0,1,1.53-1,2.68,2.68,0,0,1,.62.07,4.18,4.18,0,0,1,1.88,1.11,1.35,1.35,0,0,0,1,.42,1.5,1.5,0,0,0,1.41-1.8l-.09-.42c-.28-1.36-.92-4.66.09-5.34a1.52,1.52,0,0,1,.88-.28c1.75,0,3.39,3.1,4,4.13a1.39,1.39,0,0,0,1.18.67,1.44,1.44,0,0,0,1.43-1.38c.13-2,.83-4.57,2.29-4.57a2.78,2.78,0,0,1,1.9,1.17,6.58,6.58,0,0,1,1.39,2.62.85.85,0,0,1,.83-.69h.12c.36,0,.71.07,1.07.09A6.86,6.86,0,0,0,64,239.45a4.64,4.64,0,0,0-2.28-.7"/><path class="cls-7" d="M18.55,200.91s-.06,0-.15.17a6.27,6.27,0,0,0-.51,1,1.41,1.41,0,0,1-.21.56,14.53,14.53,0,0,0-.59,2.53,7.68,7.68,0,0,1,3,3.07,18.29,18.29,0,0,1,2.95,8.51,1.22,1.22,0,0,1-1.27,1.2,1.06,1.06,0,0,1-1-.59c-1.12-2.13-1.49-4.58-2.58-6.74-.44-.86-1.26-2.63-2.32-3a1.18,1.18,0,0,0-.31,0c-1.2,0-1.87,2.19-2.23,3.85,3.7.77,6.56,6.58,6.62,9.78a1.1,1.1,0,0,1-1.17,1.12,1.06,1.06,0,0,1-1.07-.82c-.47-1.9-2.17-7.29-4.9-7.29a2.86,2.86,0,0,0-1.79.74,2.93,2.93,0,0,0-.83,1.12c.42.51.79,1.08,1,1.44A66.56,66.56,0,0,1,17.8,230c1.68,4,3.1,8,4.43,12.13.3.91.59,1.84.9,2.75,3.9-10.88,3-23.17.36-34.45a1.5,1.5,0,0,1,.14-1,1.47,1.47,0,0,1-.5.09,1,1,0,0,1-1-.95c-.4-2.38-1.08-5-2.7-6.89a4.3,4.3,0,0,0-.82-.72s0,0,0,0m6.64-8.14a2.51,2.51,0,0,0-1.13.28c-1.66.86-2.44,4.06-3,6.25A11.06,11.06,0,0,1,23.47,203a10,10,0,0,1,1.19,5.24,1.2,1.2,0,0,1-.1.37,1.59,1.59,0,0,1,.61-.13,1.25,1.25,0,0,1,1.17.8,1,1,0,0,0,.07.15A13.38,13.38,0,0,1,32.29,212c.61.44,1.28.92,2,1.44q-.28-1.07-.54-2.1c-1.26-5-1.23-11.09-4.3-15.47-.89-1.28-2.49-3.13-4.22-3.13"/><path class="cls-6" d="M10.25,216.08c-1.48,3.36,2.2,10,3.34,12.34a96.64,96.64,0,0,1,6.34,16.36c.43,1.5.88,3,1.34,4.47a39.49,39.49,0,0,0,1.86-4.35c-.31-.91-.6-1.84-.9-2.75C20.9,238.05,19.48,234,17.8,230a66.56,66.56,0,0,0-6.51-12.5c-.25-.36-.62-.93-1-1.44"/><path class="cls-5" d="M169.4,249.52a1.4,1.4,0,0,0-.34,0l-2.54.68c-14.17,3.73-28.56,6.47-43,8.91-15.59,2.63-31.82,3.24-47.19,7l-.94.24C73.27,267,74,270,75.88,270a2.1,2.1,0,0,0,.48-.06l.88-.21a227.87,227.87,0,0,1,23.21-3.87,12.93,12.93,0,0,1,2.78-2.29,1.33,1.33,0,0,1,.66-.19,1.36,1.36,0,0,1,1.1,1.92c6.52-.81,13.05-1.6,19.49-2.69l2.17-.38c.68-.92,1.34-1.84,2-2.78a1,1,0,0,1,.81-.42.88.88,0,0,1,.89,1.14c-.14.5-.3,1-.48,1.48q6.63-1.23,13.21-2.69l-.47-1a1.64,1.64,0,0,1,1.43-2.39,1.69,1.69,0,0,1,1.36.76c.44.61.87,1.23,1.3,1.84q10.29-2.42,20.43-5.51l2.56-.8a1.2,1.2,0,0,0-.29-2.33"/><path class="cls-5" d="M129.46,259.06a1,1,0,0,0-.81.42c-.66.94-1.32,1.86-2,2.78-4.84,6.56-10.23,12.69-15.65,18.81-4,4.46-7.92,8.9-11.69,13.48a70.09,70.09,0,0,0-10.55,16.92c-1.53,3.54-2.9,7.3-5.28,10.37s-5.41,4.36-8.86,5.13c-1,.21-2,.39-3,.56a1.5,1.5,0,0,0-.77.36,1.45,1.45,0,0,0-.46.9,1.83,1.83,0,0,0,1.68,2.14h.12l.88,0c7.69-.34,13.06-5.15,16.33-12,1.59-3.29,3-6.5,4.61-9.63A73.35,73.35,0,0,1,98.84,301c.73-1.05,1.5-2.1,2.33-3.13,5.58-6.93,11.62-13.48,17.35-20.29,3.89-4.64,9.14-10,11.35-15.89.18-.49.34-1,.48-1.48a.88.88,0,0,0-.89-1.14"/><path class="cls-5" d="M103.89,263.41a1.33,1.33,0,0,0-.66.19,12.93,12.93,0,0,0-2.78,2.29c-3.21,3.4-5.61,8.58-8,12-3,4.46-7.87,13-13.73,15a8.51,8.51,0,0,1-1.64.39c-1.83.23-1.94,3-.19,3h.19a12.38,12.38,0,0,0,1.5-.27c5.62-1.43,9.82-7.1,13.15-11.42,2.73-3.55,5.24-7.26,7.74-11,.3-.45.62-.9.95-1.36a39.08,39.08,0,0,0,4.52-7v0a1.36,1.36,0,0,0-1.1-1.92"/><path class="cls-23" d="M144,223a1.37,1.37,0,0,0-.72.22,13.64,13.64,0,0,0-1.42,1,14,14,0,0,0-4.25,6.37,25.53,25.53,0,0,0-.89,3.25,16.25,16.25,0,0,1,2.9,3.23l.8-.19a24.63,24.63,0,0,1,.35-4.25,13.37,13.37,0,0,1,3.11-5.92,11.33,11.33,0,0,1,1.24-1.15c1.12-.91.09-2.6-1.12-2.6"/><path class="cls-5" d="M158.88,230.77a.91.91,0,0,0-.41.1c-.94.42-1.88.83-2.83,1.21a104.33,104.33,0,0,1-15.26,4.79l-.8.19c.19.28.36.57.53.87a1.56,1.56,0,0,1-1.43,2.31,1.45,1.45,0,0,1-1.26-.74,11,11,0,0,0-1.27-1.69c-4.83,1-9.71,1.79-14.54,2.51l-3.44.5-.58.08c-12.48,1.79-25.09,3.38-37.66,4.37l-.58,0a1.2,1.2,0,0,0,0,2.4l2.4.08c.8,0,1.59,0,2.39,0,11.68,0,23.45-1.88,35-3.64,9.59-1.46,19.52-3.2,28.79-6.51a73.15,73.15,0,0,0,9.44-4.1c.69-.36,1.38-.74,2-1.13a.9.9,0,0,0-.5-1.67"/><path class="cls-5" d="M23,254.64l-.5.55a1.85,1.85,0,0,1-1.36.61,2.09,2.09,0,0,1-.6-.1c.64,2,1.34,4,2.16,5.87,3.67,8.68,8.93,16.29,16.92,21.29.48.31,1,.6,1.49.88a.77.77,0,0,0,.42.12.85.85,0,0,0,.41-1.55c-1-.71-2-1.46-2.94-2.24-8-6.73-12.59-15.76-16-25.43m-9.65-43.21c-.14.68-.24,1.28-.29,1.59a1,1,0,0,1-1.1.84,1.13,1.13,0,0,1-1.23-1.16c0-.29.06-.62.1-1-.18.09-.36.18-.54.29-7.48,4.52.72,17.28,3.1,22.16,2.78,5.72,4.31,12,6.12,18.13.62-1,1.2-2,1.72-3.05-.46-1.48-.91-3-1.34-4.47a96.64,96.64,0,0,0-6.34-16.36c-1.14-2.3-4.82-9-3.34-12.34a2.93,2.93,0,0,1,.83-1.12,2.86,2.86,0,0,1,1.79-.74c2.73,0,4.43,5.39,4.9,7.29a1.06,1.06,0,0,0,1.07.82A1.1,1.1,0,0,0,20,221.21c-.06-3.2-2.92-9-6.62-9.78"/><path class="cls-5" d="M14.69,204.87c-2.53.63-3.49,4.3-3.82,6.85,0,.36-.08.69-.1,1A1.13,1.13,0,0,0,12,213.86a1,1,0,0,0,1.1-.84c.05-.31.15-.91.29-1.59.36-1.66,1-3.85,2.23-3.85a1.18,1.18,0,0,1,.31,0c1.06.32,1.88,2.09,2.32,3,1.09,2.16,1.46,4.61,2.58,6.74a1.06,1.06,0,0,0,1,.59,1.22,1.22,0,0,0,1.27-1.2,18.29,18.29,0,0,0-2.95-8.51,7.68,7.68,0,0,0-3-3.07c-.08.52-.15,1-.22,1.53a.94.94,0,0,1-1,.82,1.15,1.15,0,0,1-1.23-1.12c0-.47,0-1,.06-1.49"/><path class="cls-5" d="M17.68,202.6a1.22,1.22,0,0,1-.42.36c-.87.44-1.72.92-2.54,1.43l0,.48c0,.52,0,1-.06,1.49a1.15,1.15,0,0,0,1.23,1.12.94.94,0,0,0,1-.82c.07-.49.14-1,.22-1.53a14.53,14.53,0,0,1,.59-2.53m.85-4.4a2.78,2.78,0,0,0-2.07.93,5.26,5.26,0,0,0-.93,1.43c.34-.07.69-.11,1-.15h.12a1.36,1.36,0,0,1,1.2,1.64,6.27,6.27,0,0,1,.51-1c.09-.14.13-.17.15-.17s0,0,0,0a4.3,4.3,0,0,1,.82.72c1.62,1.87,2.3,4.51,2.7,6.89a1,1,0,0,0,1,.95,1.47,1.47,0,0,0,.5-.09,1.79,1.79,0,0,1,.93-.83,1.2,1.2,0,0,0,.1-.37A10,10,0,0,0,23.47,203,11.06,11.06,0,0,0,21,199.3c-.14.49-.26.93-.39,1.28a.53.53,0,0,1-.5.34.4.4,0,0,1-.41-.34,15.19,15.19,0,0,1-.25-2.23,3.14,3.14,0,0,0-.95-.15"/><path class="cls-5" d="M39.72,220.63A2,2,0,0,1,37.94,222a2,2,0,0,1-.61-.11l-.45-.18c2.85,7.64,6.93,15.22,12.65,20.33q.45.41.9.78a1.25,1.25,0,0,0,.78.28,1.09,1.09,0,0,0,1-1.68c-.28-.44-.58-.88-.88-1.32-2.24-3.23-4.83-6.2-6.85-9.62a69.13,69.13,0,0,1-4.8-9.82M25.28,189.88a5.52,5.52,0,0,0-1.13.13c-3.72.86-4.79,4.87-4.67,8.34a15.19,15.19,0,0,0,.25,2.23.4.4,0,0,0,.41.34.53.53,0,0,0,.5-.34c.13-.35.25-.79.39-1.28.59-2.19,1.37-5.39,3-6.25a2.51,2.51,0,0,1,1.13-.28c1.73,0,3.33,1.85,4.22,3.13,3.07,4.38,3,10.44,4.3,15.47q.26,1,.54,2.1a27.1,27.1,0,0,1,4.24,3.8l-.15-.46c-2.28-6.88-2.18-15.23-5.82-21.54-1.44-2.49-4.13-5.39-7.24-5.39"/><path class="cls-5" d="M25.17,208.46a1.59,1.59,0,0,0-.61.13,1.79,1.79,0,0,0-.93.83,1.5,1.5,0,0,0-.14,1c2.6,11.28,3.54,23.57-.36,34.45a39.49,39.49,0,0,1-1.86,4.35c-.52,1-1.1,2.06-1.72,3.05-.09.13-.17.26-.25.39a2,2,0,0,0,1.28,3,2.09,2.09,0,0,0,.6.1,1.85,1.85,0,0,0,1.36-.61l.5-.55a26.08,26.08,0,0,0,2.83-4c6.08-10.4,5.85-25.61,2.17-37a35.25,35.25,0,0,0-3.42-3,.74.74,0,0,1,.37-1.36h0a9.4,9.4,0,0,1,1.42.1,1,1,0,0,1-.07-.15,1.25,1.25,0,0,0-1.17-.8"/><path class="cls-5" d="M25,209.31a.74.74,0,0,0-.37,1.36,35.25,35.25,0,0,1,3.42,3c.83.81,1.64,1.65,2.46,2.49,1.94,1.95,3.83,4.37,6.38,5.49l.45.18a2,2,0,0,0,.61.11,2,2,0,0,0,1.78-1.34,2.06,2.06,0,0,0-.08-1.78,11.48,11.48,0,0,0-1.15-1.58,27.1,27.1,0,0,0-4.24-3.8c-.68-.52-1.35-1-2-1.44a13.38,13.38,0,0,0-5.88-2.62,9.4,9.4,0,0,0-1.42-.1h0"/><path class="cls-5" d="M16.69,200.4h-.12c-.35,0-.7.08-1,.15C7,202.11.86,212,.09,220.16c-.84,9,4.29,17.52,7.38,25.62,2,5.19,3.08,10.71,5.25,15.82a62,62,0,0,0,8.09,13.49c5.2,6.73,12.08,14.26,20.44,17.05.56.18,1.11.35,1.68.49a.75.75,0,0,0,.21,0,.85.85,0,0,0,.45-1.58c-.88-.46-1.73-.95-2.57-1.46a61.76,61.76,0,0,1-17.13-16.32,66.43,66.43,0,0,1-7-11.41c-2-4.28-2.91-8.91-4.41-13.37C10,241,5.72,233.84,4.07,226.08c-2-9.46,3.1-17,10.65-21.69.82-.51,1.67-1,2.54-1.43a1.22,1.22,0,0,0,.42-.36,1.41,1.41,0,0,0,.21-.56,1.36,1.36,0,0,0-1.2-1.64"/><path class="cls-23" d="M144,255.56a1.64,1.64,0,0,0-1.43,2.39l.47,1a55.71,55.71,0,0,0,12.56,16.84,48.17,48.17,0,0,0,6.57,5.06,33.85,33.85,0,0,0,7.7,3.67,2,2,0,0,1,.79-2.91l-.72-.44c-4.65-2.89-9.18-5.63-13.17-9.64s-6.91-8.77-10.11-13.41c-.43-.61-.86-1.23-1.3-1.84a1.69,1.69,0,0,0-1.36-.76"/><path class="cls-5" d="M203.19,278.87c-1.87.65-3.75,1.27-5.64,1.88,3.77,2.42,7.19,5.18,11.27,7.25s8,3.74,12,5.44l1.79.75a1.7,1.7,0,0,0,.61.12c1.52,0,2.28-2.51.77-3.39l-1.59-.92c-4.23-2.42-8.55-4.68-12.82-7.05-1.34-.75-2.64-1.59-3.93-2.44l-2.5-1.64"/><path class="cls-18" d="M192.88,282.2,189,283.35,187,284c5.44,3.65,10.68,7.48,16.32,10.89,6.44,3.88,12.93,7.68,19.37,11.56,10.81,6.51,21.9,12.62,33.82,16.85.6.22,1.2.42,1.8.63a1.26,1.26,0,0,0,.41.07c1.06,0,1.37-1.57.5-2.24-.65-.5-1.32-1-2-1.42-4.46-3-9.33-5-14.19-7.42-6.56-3.2-12.61-7.19-18.84-11s-12.37-7.35-18.52-11.08c-4.27-2.58-8.41-5.9-12.74-8.63"/><path class="cls-18" d="M180.08,285.64a32.29,32.29,0,0,1-5.08.52c5.14,5.86,12.37,10.13,18.74,14.51q9,6.16,18.34,11.79c7.64,4.63,15.42,9.05,23.46,13a90.7,90.7,0,0,0,16,6.47,40,40,0,0,0,4.58.94,19.34,19.34,0,0,0,2.54.18c3,0,6-.8,7.55-3.13a6.6,6.6,0,0,0,1-2.73,1.74,1.74,0,0,0-1.72-2,1.41,1.41,0,0,0-1.39,1.16,3.34,3.34,0,0,1-1.2,1.87,5.85,5.85,0,0,1-3.62,1c-10.31,0-33.29-13.54-36.82-15.54-7.89-4.47-15.63-9.23-23.23-14.18-6.55-4.27-13.31-8.58-19.2-13.75"/><path class="cls-23" d="M276.1,236.86a64.49,64.49,0,0,1-6.42,1l-.05,0a27.37,27.37,0,0,1-2.07,2.09,91.9,91.9,0,0,1-10.44,7.75,183.74,183.74,0,0,1-22.61,12.41c-19.69,9.16-39.41,16.93-60.75,20.85-.83.16-1.66.3-2.5.45a2.29,2.29,0,0,0-.56.15,2,2,0,0,0-.79,2.91,2.6,2.6,0,0,0,2,1.45,25,25,0,0,0,2.73.15h.4a32.29,32.29,0,0,0,5.08-.52A68,68,0,0,0,187,284l2.09-.62,3.84-1.15,4.67-1.45c1.89-.61,3.77-1.23,5.64-1.88l2.63-.94c10.92-4,21.5-8.94,32-13.93a163,163,0,0,0,23.47-13.4c3.95-2.74,12.77-8.13,14.8-13.74"/><path class="cls-5" d="M282.69,104.5a.76.76,0,0,0-.76.66c-.13.62-.25,1.24-.38,1.85a34.89,34.89,0,0,1-1.74,6.37c-.14.36-.3.71-.47,1.06a.87.87,0,0,0,.77,1.24.68.68,0,0,0,.63-.42c.32-.62.62-1.26.89-1.92a32.24,32.24,0,0,0,1.79-6.09c.1-.54.19-1.07.27-1.6a1,1,0,0,0-1-1.15"/><path class="cls-26" d="M358.31,196.68c-12.69,3.17-25.44,6-38.21,8.85a1.55,1.55,0,0,1-.86.27l-.24,0c-25.36,5.58-50.75,11-75.78,18.06a120,120,0,0,1,11.12,5.25,19.4,19.4,0,0,1,2.44,1.61c8.09-1.44,16-3.69,23.92-5.92,9.48-2.67,18.93-5.15,28.56-7.24A188.77,188.77,0,0,0,337.69,209c8.62-3.34,17.5-5.95,26-9.66l1.05-.47q-3.18-1.11-6.39-2.16"/><path class="cls-27" d="M364.7,198.84l-1.05.47c-8.46,3.71-17.34,6.32-26,9.66a188.77,188.77,0,0,1-28.43,8.57c-9.63,2.09-19.08,4.57-28.56,7.24-7.91,2.23-15.83,4.48-23.92,5.92.84.62,1.65,1.25,2.43,1.71a8.1,8.1,0,0,0,4.13.87c1.19,0,2.37-.12,3.38-.2,8.84-.71,17.67-3.42,26.13-6,11-3.3,21.9-7.08,32.74-11,14.32-5.13,28.79-11.63,43.59-15.69-1.48-.57-3-1.11-4.48-1.64"/><path class="cls-28" d="M320.1,205.53l-1.1.25.24,0a1.55,1.55,0,0,0,.86-.27"/><path class="cls-5" d="M66.18,244.74a.85.85,0,0,0-.83.69,1.19,1.19,0,0,0,.22,1,1,1,0,0,0,.46.29c.45.12.9.23,1.36.33s1.13.21,1.7.3l.22,0a10.06,10.06,0,0,0,1.58.17,2.66,2.66,0,0,0,1-.17,1.09,1.09,0,0,0,.75-1.08l0,.05a1.07,1.07,0,0,0-.53-.92,2.22,2.22,0,0,0-.84-.38,9.68,9.68,0,0,0-1.9-.18c-.69,0-1.38,0-2.06-.08-.36,0-.71-.05-1.07-.09h-.12"/><path class="cls-23" d="M128.07,229.57c-1.1,0-1.91,1.58-.69,2.14.36.17.74.35,1.12.55a26.87,26.87,0,0,1,7.65,5.55,11,11,0,0,1,1.27,1.69,1.45,1.45,0,0,0,1.26.74,1.56,1.56,0,0,0,1.43-2.31c-.17-.3-.34-.59-.53-.87a16.25,16.25,0,0,0-2.9-3.23,19.77,19.77,0,0,0-6.16-3.64,14.77,14.77,0,0,0-2.25-.61h-.2"/><path class="cls-28" d="M358.56,192h-.14a1.83,1.83,0,0,0-1.16.51l.88-.22a2.2,2.2,0,0,1,.56-.07c2.26,0,3.05,3.58.57,4.2l-1,.24q3.21,1,6.39,2.16c1.5.53,3,1.07,4.48,1.64-14.8,4.06-29.27,10.56-43.59,15.69-10.84,3.88-21.72,7.66-32.74,11-8.46,2.53-17.29,5.24-26.13,6-1,.08-2.19.2-3.38.2a8.1,8.1,0,0,1-4.13-.87c-.78-.46-1.59-1.09-2.43-1.71a19.4,19.4,0,0,0-2.44-1.61,120,120,0,0,0-11.12-5.25l-2.62.75a.71.71,0,0,1-.24,0c-.76,0-1-1.16-.16-1.49l.58-.23h-.18a1.5,1.5,0,0,0-.62,2.72c3.81,2.33,7.89,4.2,11.66,6.6,1.93,1.23,3.1,2.69,4.8,4,2,1.49,4.5,1.83,6.89,1.93q.76,0,1.53,0a46,46,0,0,0,4.82-.27,64.49,64.49,0,0,0,6.42-1c3.36-.7,6.69-1.6,9.92-2.48l1.6-.44,2.28-.64q2.48-.69,4.93-1.43l3.54-1.06c7.41-2.27,14.77-4.74,22.08-7.32l3.49-1.24,3.31-1.19,3.44-1.25c6.44-2.35,12.87-4.75,19.28-7.13l3.26-1.21,1.46-.55c7.41-2.79,14.92-5.86,22.64-7.62,1.83-.41,2.44-3.48.56-4.28-5.56-2.38-11.25-4.38-17-6.33l-1.61-.55a2.38,2.38,0,0,0-.76-.13"/><path class="cls-28" d="M358.7,192.24a2.2,2.2,0,0,0-.56.07l-.88.22c-6.56,1.6-13.17,3.1-19.79,4.55q-5.73,1.26-11.48,2.49L319.26,201c-20.13,4.33-40.27,8.79-59.78,15.12-1.41.45-2.81.92-4.21,1.4-4.88,1.66-9.71,3.44-14.49,5.38l-.58.23c-.79.33-.6,1.49.16,1.49a.71.71,0,0,0,.24,0l2.62-.75c25-7.09,50.42-12.48,75.78-18.06l1.1-.25c12.77-2.81,25.52-5.68,38.21-8.85l1-.24c2.48-.62,1.69-4.2-.57-4.2"/><path class="cls-5" d="M329,0a71.19,71.19,0,0,0-21.92,3.78,97.4,97.4,0,0,0-35.42,20.86l-.63.61a1.13,1.13,0,0,0,.75,1.86.86.86,0,0,0,.53-.2l1.5-1.11A128.07,128.07,0,0,1,305.33,9.42a63.07,63.07,0,0,1,21.52-4.15,45.78,45.78,0,0,1,10.57,1.21c11.1,2.63,20.07,10,23.94,20.94,4.87,13.71-2.19,27.57-8.13,39.76l-.81,1.69a.88.88,0,0,0,.72,1.22.69.69,0,0,0,.52-.26l.63-.78c.17-.21.34-.42.5-.64A67.1,67.1,0,0,0,361.45,58c.38-.75.75-1.5,1.1-2.26.62-1.31,1.19-2.65,1.71-4,.44-1.15.85-2.32,1.21-3.49a46.09,46.09,0,0,0,2.14-11.6c0-.94.05-1.87,0-2.8a32.18,32.18,0,0,0-.51-4.91c-2.3-12.45-11.75-22.67-23.6-26.69A45.17,45.17,0,0,0,329,0"/></g></g></svg>