<svg xmlns="http://www.w3.org/2000/svg" viewBox="0 0 520 521"><defs><style>.cls-1{fill:#234363;}.cls-2{fill:none;}</style></defs><g id="Layer_2" data-name="Layer 2"><g id="Layer_2-2" data-name="Layer 2"><path class="cls-1" d="M331.53,334.43c-.57,4.84-12.7.18-14.6-1-5-3.1-8.72-7.65-14.18-10.19a37.85,37.85,0,0,0-30.19-.93c-6.47,2.63-3.64,13.28,2.93,10.6a27.8,27.8,0,0,1,19.47-1c6.85,2.25,11,7.95,17.11,11.42,10.57,6,28.66,6.28,30.46-8.9C343.37,327.41,332.36,327.47,331.53,334.43Z"/><path class="cls-1" d="M259,323.08a44.79,44.79,0,0,0-36.22-4.22,44.08,44.08,0,0,0-15.64,8.67c-1.15,1-12,13.28-13.39,9.22-2.28-6.65-12.91-3.79-10.61,2.93,2.21,6.42,8.65,9.68,15.27,8.31,7.44-1.54,11.11-8.14,16.51-12.68,10.68-9,26.71-9.83,38.53-2.73C259.53,336.23,265.07,326.72,259,323.08Z"/><path class="cls-1" d="M279.16,414.74c-.32.94-.67,1.86-1,2.78a5.29,5.29,0,0,0-6.5-.75,24.45,24.45,0,0,0-5.14,4.71c.91-6.74-8.9-9.91-10.61-2.86-.56,2.3-1.22,4.54-2,6.74a31.49,31.49,0,0,0-1.56-9.1c-1.75-4.93-9.1-5.52-10.61,0l-.39,1.47c-.3-1.7-.58-3.41-.89-5.11-1.11-6.17-10.89-4.64-10.8,1.46,0,2.1,0,4.2-.09,6.28-.8-3.68-1.53-7.37-2.16-11.09-1.18-7-11.78-4-10.61,2.92A230.7,230.7,0,0,0,226,448.32c1.57,4.63,8.29,5.43,10.28.93,2.49,2.95,8.58,2.22,9.56-1.95,2,3.44,6.74,4.29,9.32.8,1.77,3,5.91,4.84,8.55,1.51a39,39,0,0,0,3.58-5.48c0,.18,0,.37-.05.55-.57,5.4,7.94,7.54,10.25,2.78a267.18,267.18,0,0,0,12.27-29.79C292.06,411,281.44,408.07,279.16,414.74Z"/><path class="cls-1" d="M380.15,229c-13-11.49-29.54-16.89-46.74-17.73-10.07-.49-20.17.64-30.09,2.32s-18.89,2.89-29.5,1.64c-9.16-1.08-17.22-6-26.33-7.73A171.6,171.6,0,0,0,220,204.6c-19.33-.52-38.6,1.74-57.73,4.21-7.86,1-8,13.46-.11,12.55,2.51,21.26,5.19,50.45,30.94,55.21,10.73,2,24.18,1.58,34.3-2.77,9.37-4,15.79-12.4,20-21.43,7.28-15.62,14.41-24.49,21.76-23.89,7.64.62,12.2,12.37,16,21.8,4.18,10.34,8,21.42,16.65,29,8.38,7.34,19.75,9.85,30.67,8.89,11.54-1,24.67-4.7,32.55-13.74,4.43-5.07,6.26-11.35,7.36-17.87,1-5.76,1.27-13.94,6.5-17.73C381.92,236.63,383.44,231.89,380.15,229Z"/><path class="cls-1" d="M237.94,162c-19.95-8-39.57,3.29-55.82,14.15-5.86,3.91-.36,13.44,5.55,9.49,13.89-9.27,30.15-19.95,47.35-13C241.58,175.21,244.44,164.57,237.94,162Z"/><path class="cls-1" d="M363.53,188.28c-9.09-23.47-37.88-29.8-57.54-15-5.6,4.19-.12,13.75,5.55,9.49,13.31-10,34.66-8.87,41.38,8.48C355.45,197.74,366.09,194.9,363.53,188.28Z"/><rect class="cls-2" width="520" height="521"/></g></g></svg>