<svg xmlns="http://www.w3.org/2000/svg" viewBox="0 0 395.43 455.13"><defs><style>.cls-1{fill:#fff;}.cls-2{fill:#6f92b2;}.cls-3{fill:#91aec8;}.cls-4{fill:#acc1d4;}.cls-5{fill:#c2d2e2;}.cls-6{fill:#346695;}.cls-7{fill:#507aa1;}.cls-8{fill:#2c6192;}.cls-9{fill:#bbccdc;}.cls-10{fill:#cddcea;}.cls-11{fill:#235b8f;}.cls-12{fill:#3e6d99;}.cls-13{fill:#45729c;}.cls-14{fill:#0a4783;}.cls-15{fill:#bbcbdb;}.cls-16{fill:#20598e;}.cls-17{fill:#90a2b2;}</style></defs><g id="Layer_2" data-name="Layer 2"><g id="Layer_2-2" data-name="Layer 2"><path class="cls-1" d="M139.14,74.27a3.86,3.86,0,0,1-1.55-.35c-1.8-.81-2.38-2.6-2.85-4.39s-.9-3.73-.39-5.46a4.32,4.32,0,0,1,4.11-3.31,3.77,3.77,0,0,1,3.72,2.79,2.94,2.94,0,0,1,0,1.5,8.47,8.47,0,0,1-.05,7.41,3.44,3.44,0,0,1-3,1.81m.54-13.73a13.86,13.86,0,0,0-1.56.09c-5.85.67-9.37,4.32-13,8.3,4.76,2.58,8.83,5.86,14.61,6.53a18.31,18.31,0,0,0,2.06.12c4.88,0,8.56-2.12,12.57-4.81-3.66-5.19-8.09-10.23-14.73-10.23"/><path class="cls-2" d="M246.65,404.28a1.45,1.45,0,0,1-1.12-.57c-8-9.48-10-20.52-4.63-31.85,2.56-5.43,6.25-10.24,9.63-15.17,2.74-4,9.13-12.16,2.63-15.68a1.23,1.23,0,0,1,.52-2.25,1.18,1.18,0,0,1,.39.08c10.81,4.4,2.91,15.4-1.43,22-4.23,6.39-9.09,12.68-10.43,20.43a17.42,17.42,0,0,0,1.95,12c1.6,2.88,3.73,5.5,4.26,8.82a2,2,0,0,1-1.77,2.25m1.66-68.6A40.74,40.74,0,0,0,237.9,337a2.35,2.35,0,0,1-.46.42c-7.43,5-10.27,15.1-12,23.39-1.59,7.73-2.84,18-.51,26.18a2,2,0,0,1,.46.43c4.08,5.23,7.21,11.46,12.89,15.21A22,22,0,0,0,250.08,406a19.73,19.73,0,0,0,3.56-.31c8.25-1.5,8.82-10.89,9.25-17.71.75-12.08,1.23-24.42,1.2-36.52,0-5.29-.38-12.68-6.42-14.49a33,33,0,0,0-9.36-1.27"/><path class="cls-3" d="M265.33,229a43.06,43.06,0,0,0-1.59,9.53c-.53,6.16-2.11,21.59,6.94,21.86h0c4.77-4.28,4.76-12.12,5-18.3A62.67,62.67,0,0,1,265.33,229"/><path class="cls-3" d="M136.3,231.73a74.35,74.35,0,0,1-8.15,11.6c1.27,5.1,3.6,10.94,8.8,12.73,2.56-7.18,2.29-13.65.24-21.28-.27-1-.57-2-.89-3.05"/><path class="cls-4" d="M239.37,225.59A139.81,139.81,0,0,1,248.64,237c4.71,6.5,6.59,16.33,12.89,21.36-2.42-6.41-2.19-16.27-1.88-19.85.11-1.26.3-2.69.58-4.21a36.42,36.42,0,0,1-20.86-8.75m-9.19-3.37A211.77,211.77,0,0,0,244,245.38a11,11,0,0,1,2.26,6.71c0,3.4-1.39,6.61-1.39,10.33a14.66,14.66,0,0,0,.13,2c0,1,4,3,6,4a1.09,1.09,0,0,1,.28.8,7.73,7.73,0,0,1-1.28,3.2h0c-.28,1.75-2,2.3-4.42,2.3a60.32,60.32,0,0,1-7.32-.74,64.53,64.53,0,0,0-8.43-.74c-.68,0-1.35,0-2,.07,6.72.84,13.36,3.13,19.54,5.69,6.74,2.8,13.81,6.28,18.51,12a1.91,1.91,0,0,1-1.21,3.09,1.69,1.69,0,0,1-.94-.31,120.86,120.86,0,0,0-14.31-8.29,4.14,4.14,0,0,1,.1.87,7.5,7.5,0,0,1-1.52,4,4.68,4.68,0,0,1-4.39,2.22h-.23a15,15,0,0,1-2.65-.33c-.44-.08-.87-.18-1.32-.28a83,83,0,0,1,21,17.33c2.34-.42,4.69-.93,7-1.52l1.74-.44a19.3,19.3,0,0,0-.67-12.18,1.62,1.62,0,0,1,.43-1.62c7.31-6.36-5.59-14.18-9.42-18.91a20.87,20.87,0,0,1-3.82-17.34,18.6,18.6,0,0,1-1.54-1.91c-3.48-4.91-5.12-10.85-8.62-15.73-4.56-6.34-10.3-11.64-15.4-17.45m-3.57-12.47a33,33,0,0,0,3.84,6.17,56.54,56.54,0,0,1-3.84-6.17"/><path class="cls-4" d="M182.3,167.06c-5.9,1.82-11.85,3.69-17.35,6.53a63.07,63.07,0,0,0-11.32,7.72c12.19-3.45,24.72-5.47,36.88-8.68-3.79-.84-7-2.68-8.21-5.57"/><path class="cls-5" d="M210.79,165.14a2.34,2.34,0,0,1-.07.45c-1.29,4.95-8.26,7.58-15,7.58a24.31,24.31,0,0,1-5.17-.54c-12.16,3.21-24.69,5.23-36.88,8.68-1.95,1.63-3.84,3.34-5.66,5.06-8.42,8-15,17.33-21.1,27.14,7.4,1.41,11.34,12.09,13.37,18.43.58,1.82,1.24,4.11,1.79,6.6,9.11-10.75,9.94-24.94,16-36.16,1.3-1.95,2.61-4.75,4.74-7a14.41,14.41,0,0,1,3.77-3.83.92.92,0,0,1,.5-.16,1,1,0,0,1,.68,1.68c-5.3,5.41-4.23,13.48-3.78,20.38.54,8.25,1.9,16.43,3.13,24.59,2,13.48,4.29,28.23.6,41.64a89.4,89.4,0,0,1,19.43-2.42h1.17A107.54,107.54,0,0,1,239.42,292c.45.1.88.2,1.32.28a15,15,0,0,0,2.65.33h.23a4.68,4.68,0,0,0,4.39-2.22,7.5,7.5,0,0,0,1.52-4,4.14,4.14,0,0,0-.1-.87,115.19,115.19,0,0,0-26.62-9.12c-1.93-.42-1.46-3.4.43-3.4h0a43.86,43.86,0,0,1,4.57.32c.65,0,1.32-.07,2-.07a64.53,64.53,0,0,1,8.43.74,60.32,60.32,0,0,0,7.32.74c2.46,0,4.14-.55,4.42-2.3h0a7.73,7.73,0,0,0,1.28-3.2,1.09,1.09,0,0,0-.28-.8c-2-1-6-3-6-4a14.66,14.66,0,0,1-.13-2c0-3.72,1.39-6.93,1.39-10.33a11,11,0,0,0-2.26-6.71,211.77,211.77,0,0,1-13.83-23.16c-1-1.17-2-2.36-3-3.58-4.45-5.68-9.06-14.37-6.66-21.72a1.83,1.83,0,0,1,1.78-1.26,1.64,1.64,0,0,1,1.73,1.74,26.57,26.57,0,0,0,2.55,12.35,56.54,56.54,0,0,0,3.84,6.17,49.78,49.78,0,0,0,4.26,4.78c1.58,1.56,3.13,3.2,4.66,4.89a36.42,36.42,0,0,0,20.86,8.75c1.67-9.17,6.51-21.81,15.88-21.81l.69,0A94,94,0,0,0,252.46,185c-12.59-9.64-26.75-15.1-41.67-19.82"/><path class="cls-4" d="M162.75,195.37c-2.13,2.26-3.44,5.06-4.74,7-6,11.22-6.87,25.41-16,36.16,1.18,5.36,1.83,11.67,0,16.34,8.66-7.19,14.85-16.91,18.8-27.43-1-7.38-1.79-15-1.1-22.46a20.28,20.28,0,0,1,3-9.62"/><path class="cls-6" d="M328.39,346.71c-1.39,13.62-9.64,26-24.13,26h0a27.06,27.06,0,0,1-4.13-.32H300a11.89,11.89,0,0,1-5-2.26c-3.78-2.64-7.39-6.59-12.09-6.61h-.05a9.47,9.47,0,0,0-3.86.87c-4.55,1.95-8.26,4.75-12.23,7.3l-.12,3.83c-.05,1.6-.08,3.26-.12,4.95a15.56,15.56,0,0,1,2.92-.27c6.2,0,11.45,3.59,17.29,6.11a17.29,17.29,0,0,0,6.89,1.44c7.57,0,14.64-4.91,20.49-9.95,6.87-5.91,13.65-14.05,14.64-23.41a26.89,26.89,0,0,0-.38-7.67"/><path class="cls-7" d="M291.71,309.34a68.58,68.58,0,0,0-12.93,1.51c-9.65,1.88-18.88,4.77-28.75,5.49-3.4.24-6.8.34-10.2.34-6.74,0-13.48-.4-20.2-.87-3.75-.26-7.5-.38-11.24-.38-17.25,0-34.38,2.61-51.26,6.24,2.8,2.18,5.58,4.37,8.47,6.43,4.53,3.23,10.4,7.86,16.19,7.86a9.92,9.92,0,0,0,4.45-1c4.73-2.33,9.14-6.1,14.57-6.1a10.75,10.75,0,0,1,1.68.13c4.63.67,8.1,4.12,11.59,7.08,3.84-3.45,10.48-7,16-7,3.24,0,6.09,1.2,7.78,4.32a22.31,22.31,0,0,1,9.23-1.69,57.88,57.88,0,0,1,8.67.77c5.13.78,8.89,3.06,10.67,8.12,1.67,4.72,1.26,10,1,14.89-.28,5.39-.48,10.78-.65,16.18,4-2.55,7.68-5.35,12.23-7.3a9.43,9.43,0,0,1,3.86-.87h.05c4.7,0,8.31,4,12.09,6.61a11.89,11.89,0,0,0,5,2.26h.1a27.06,27.06,0,0,0,4.13.32h0c14.49,0,22.74-12.38,24.13-26a55,55,0,0,0-5.79-15.47c-3.9-7.3-9.33-14.19-16.59-18.39a27.9,27.9,0,0,0-14.3-3.51"/><path class="cls-6" d="M219.3,370.69a13.79,13.79,0,0,0-3.29.69l-.14.1-.05,0a90.94,90.94,0,0,1-10.37,6.07.84.84,0,0,1-.3.54,24.69,24.69,0,0,1-6.76,3.79c-2.38.95-4.69,2.54-7.25,2.54h-.25c-1.12.46-2.25.9-3.38,1.31,4.62,3.86,10.05,7.05,16.16,7.14h.3c6.94,0,11.41-3.61,16.85-7.28a42.9,42.9,0,0,1-1.52-14.93m-168.66-17a32.59,32.59,0,0,0,9.55,9.17c13.25,8.42,28.28,7.17,43.25,7.76a61.51,61.51,0,0,1,20.46,4.06c6.35,2.49,12.4,5.71,18.85,8a50.05,50.05,0,0,0,16.58,2.72c9.4,0,18.75-2.31,27.9-5.25-25.72-9.7-50.49-9.74-77.22-13.7-6-1-12-8-19-8h0c-1.9,0-3.82,0-5.73,0s-3.8,0-5.7,0h0c-10.21,0-20.25-.58-28.89-4.8"/><path class="cls-6" d="M118,302.29h0a22.3,22.3,0,0,0-2.57.16,79.55,79.55,0,0,1,33.21,12.82c1.56,1.08,3.08,2.19,4.58,3.33,12.85-3.55,25.7-6.78,39-8,.81-.08,1.63-.14,2.44-.2a31.87,31.87,0,0,0-8-1.16h0a22.54,22.54,0,0,0-2.46.14l-.13,0h0l-.67.09a123.14,123.14,0,0,1-16.1,1.09h0c-14.25,0-27.19-2.66-42.09-6.87l-.33-.09-.07,0-.44-.13-.26-.07h0l-.08,0a16.21,16.21,0,0,0-6-1.06h0"/><path class="cls-7" d="M188,281.64a72.58,72.58,0,0,0-10.41.74c-15.36,2.2-29.88,8.38-45.28,10.28a74.49,74.49,0,0,1-9.08.53,107.11,107.11,0,0,1-14-1c-7.3-1-14.48-3.11-21.78-3.91a26.69,26.69,0,0,0-3.07-.17c-21.68,0-36.71,25.54-38.81,44.78a30.59,30.59,0,0,0,5,20.77c8.64,4.22,18.68,4.8,28.89,4.8h0c1.89,0,3.8,0,5.7,0s3.83,0,5.73,0h0c7,0,13,7,19,8,26.73,4,51.5,4,77.22,13.7.92-.29,1.84-.6,2.75-.9a2.92,2.92,0,0,1,.92-.16h0a23.91,23.91,0,0,1,5.61-2.1,17.57,17.57,0,0,1,5.28-.87,16.76,16.76,0,0,1,2.86.25,1.1,1.1,0,0,1,.78,1.28,90.94,90.94,0,0,0,10.37-6.07l.05,0,.14-.1a13.79,13.79,0,0,1,3.29-.69A83.5,83.5,0,0,1,220.85,359c1.34-6.82,4.28-18.71,11.12-23.21a6.77,6.77,0,0,0-2.8-.56c-4.67,0-10.26,3.89-12.72,7a1.48,1.48,0,0,1-.25.25c-1.42,2.69-3.55,5.09-5.09,7.72a109.87,109.87,0,0,0-5.47,10.05,1.16,1.16,0,0,1-1.09.75,1.62,1.62,0,0,1-1.57-1.87,48.36,48.36,0,0,1,3.83-11.45,42.17,42.17,0,0,1,3.86-6.76c-3.34-2.83-6.4-5.7-10.36-5.7a9.94,9.94,0,0,0-4.46,1.15c-4.7,2.34-8.81,5.9-14.21,5.9-.35,0-.71,0-1.07,0-6-.52-11.9-4.63-16.67-7.94-5.61-3.89-10.8-8.36-16.32-12.38-11.45-8.35-24.45-12.86-38.5-14.41a90.17,90.17,0,0,0-9.72-.72A25.82,25.82,0,0,0,91,307.88c-4.29,1.5-7.94,4.09-12.35,4.09a11.23,11.23,0,0,1-2.53-.29c-2.33-.52-1.69-3.94.54-4,5.73-.18,10.46-4.95,16.11-5.89a48.24,48.24,0,0,1,7.91-.6,93.25,93.25,0,0,1,11.53.83c1,.13,2.09.28,3.13.44a22.3,22.3,0,0,1,2.57-.16h0a16.21,16.21,0,0,1,6,1.06l.08,0h0l.26.07.44.13.07,0,.33.09c14.9,4.21,27.84,6.86,42.09,6.87h0a123.14,123.14,0,0,0,16.1-1.09l.67-.09h0l.13,0a22.54,22.54,0,0,1,2.46-.14h0a31.87,31.87,0,0,1,8,1.16c3.43-.25,6.84-.35,10.24-.35,9.14,0,18.22.69,27.42,1q3.07.1,6.12.11A128.17,128.17,0,0,0,256.15,310c-18.28-16.29-43.27-28.37-68.11-28.37"/><path class="cls-8" d="M138.16,70.2h0l0,.05c0,.06,0,.12,0,.12l.06-.18m1.69,0s0,0,0,0l0,0m-1.67,0c-.08.07-.09.09-.07.09l0,0a.24.24,0,0,1,0-.07m0,0h0l0,0s.05,0,0-.06m0,0h0"/><path class="cls-8" d="M120.42,71a2.11,2.11,0,0,1-.65-2.08c2-7.74,11-13.33,18.66-13.7l.87,0c9.49,0,14,7.52,18.09,15.17a1.28,1.28,0,0,1,0,1.33c-1.59,6.2-10.68,8.91-16.32,9h-.33c-7.23,0-16-3.74-20.3-9.7m51.76-40.67a39.93,39.93,0,0,0-4.63.27c-15.24,1.8-28.46,10.43-39,21.17-10,10.22-19.2,21.54-26.13,34.13a62.44,62.44,0,0,0,12.77,1.28c9,0,17.87-1.79,27.08-4.19,12-3.15,23.87-6.7,36.36-6.7.78,0,1.57,0,2.35,0a1.87,1.87,0,0,1,1.78,2.33c-1.31,5.14-1.3,10.45-1.76,15.71a23.25,23.25,0,0,1,6.81-1.23c2.39,0,4.57.63,5.84,2.42,1.39,2,1.29,5.44,1.5,7.72.13,1.46.24,2.91.34,4.37,1.51-2.19,3.1-4.31,4.57-6.54a1.66,1.66,0,0,1,.4-.43c2.05-4.74,5.7-8.78,11-9.84a3.68,3.68,0,0,1,.71-.08h.22c.33-13.91.61-28.19-6.07-40.85-6.58-12.47-20.31-19.6-34.1-19.6"/><path class="cls-9" d="M125.36,216a2.4,2.4,0,0,1-1,.89,15.11,15.11,0,0,1,4.62,10.6,12.82,12.82,0,0,1-2,6.92c-15,24-41,30-67,35a72.44,72.44,0,0,1-17.72,1.91c-4,0-8-.2-12-.41s-7.91-.4-11.78-.4c-2.32,0-4.62.07-6.9.26l1.59.43c5.2,1.51,10.47,1.66,15.81,2.21a2.54,2.54,0,0,1,1.56.76c22.66-1.45,45.53-3.23,66.46-12.83A81.83,81.83,0,0,0,134.57,227c-.51-1.21-1.07-2.4-1.69-3.55-1.93-3.58-4.07-6-7.52-7.5"/><path class="cls-10" d="M124.39,216.86h0c-10.46,20.86-30.91,45.4-56.22,45.4-.6,0-1.2,0-1.79,0a1.77,1.77,0,0,1-1.63-1,1.37,1.37,0,0,1,.27-2.47c5.48-1.56,9-8.22,7.78-13.73-.36-1.61-2.45-5.73-4.66-5.73a1.73,1.73,0,0,0-.58.1c-1.22.42-1.55,2.36-1.85,3.45-1.69,6-1.31,15.1-9.26,15.1a12.57,12.57,0,0,1-2-.16,9.57,9.57,0,0,1-7.87-10.42,11.22,11.22,0,0,1,2.64-6.22c1.65-1.93,4.14-2.58,5.82-4.34s.46-2.26-1.14-2.26a10.1,10.1,0,0,0-2.66.39c-2.71.79-4.36,3-5.28,5.55-1.79,5-1,10.64.67,15.5.69,2-.93,3.29-2.58,3.29a2.72,2.72,0,0,1-2.65-1.85h0c-.17-.44-.34-.9-.5-1.38-2-5.53-4.46-10.94-6.64-16.42-.65-1.63-2.24-4.86-4.19-4.86a2.59,2.59,0,0,0-1.92,1.09c-1.06,1.23-.58,3-.19,4.39,1.65,5.94,6,10.39,9.41,15.34.42.59.82,1.19,1.19,1.81h0a2.59,2.59,0,0,1-2.39,3.89A2.47,2.47,0,0,1,34.05,260h0c-3.47-5.6-8.93-9.51-13.9-13.69-.75-.63-2.94-2.4-4.26-2.4a.94.94,0,0,0-1,.79c-.28,1.08,1.58,3.16,2.18,3.91,4.14,5.22,10.73,9.6,16.69,12.54,2.25,1.11,1.41,5.15-1.07,5.15a1.77,1.77,0,0,1-.32,0c-6.91-.92-14-2.94-21-2.94-.62,0-1.25,0-1.87.05-2.16.12-6.29.3-3.71,4.3,1,1.62,3.65,2.44,5.78,3,2.28-.19,4.58-.26,6.9-.26,3.87,0,7.81.2,11.78.4s8,.41,12,.41A72.44,72.44,0,0,0,60,269.38c26-5,52-11,67-35a12.82,12.82,0,0,0,2-6.92,15.11,15.11,0,0,0-4.62-10.6"/><path class="cls-9" d="M273.18,216.65a27.27,27.27,0,0,0-6.11,8.27c9.12,10.43,17.79,19.92,29.83,27.18a108,108,0,0,0,36.28,13.61,105.41,105.41,0,0,0,18.91,1.74,89,89,0,0,0,18.81-1.94,61.79,61.79,0,0,0,9.82-3c-4.15.73-8.28,1.29-12.71,1.84l-.6.08h0a148.62,148.62,0,0,1-19.31,1.47h0a69.62,69.62,0,0,1-25.89-4.49l-.14-.06c-11-4-21-9-30-16-7.91-6.15-19.68-13.08-19.7-23.49a15.35,15.35,0,0,1,.7-4.51,1.77,1.77,0,0,1,.17-.73"/><path class="cls-10" d="M391.25,256.08h0m0,0h0m0,0h0M277.83,214.4a9.23,9.23,0,0,0-4.65,2.25,1.77,1.77,0,0,0-.17.73,15.35,15.35,0,0,0-.7,4.51c0,10.41,11.79,17.34,19.7,23.49,9,7,19,12,30,16l.14.06A69.62,69.62,0,0,0,348,265.93h0a148.62,148.62,0,0,0,19.31-1.47h0l.6-.08c4.43-.55,8.56-1.11,12.71-1.84a41.86,41.86,0,0,0,7.07-3.58c1-.62,2.94-1.69,3.45-2.86a1,1,0,0,1-1,.6,7.1,7.1,0,0,1-1-.12,6.71,6.71,0,0,0-1.22-.13h-.14A27.48,27.48,0,0,0,377.71,259a29.18,29.18,0,0,1-3.24,1.66h0a2.09,2.09,0,0,1-.86.19,1.86,1.86,0,0,1-1.05-3.46,44.18,44.18,0,0,1,8-3.79,23.29,23.29,0,0,0,8.79-8.19c1.11-1.9,3-7.61-.55-8.37a1.72,1.72,0,0,0-.39,0c-1.69,0-3.33,2.21-4.28,3.28-4.65,5.3-8.07,14.61-15.6,16.46a2.05,2.05,0,0,1-.54.07,2.21,2.21,0,0,1-1.59-3.74c4.48-4.5,7.88-10.74,8-17.22a22.52,22.52,0,0,0-.65-6c-.44-1.72-1.42-2.92-2.39-2.92-.71,0-1.42.65-1.91,2.21-2.64,8.36-1.34,17.86-7.93,24.64a2.25,2.25,0,0,1-1.62.76,2.6,2.6,0,0,1-2.14-3.66c3.37-7.45,5.81-22.34-5.67-22.34a13.61,13.61,0,0,0-1.39.07c-1.58.15-6.88.63-4.17,4.31.54.72,3.08,1.26,4,1.6a13.77,13.77,0,0,1,5.51,3.4,7.84,7.84,0,0,1,.79,9.24,11.21,11.21,0,0,1-9.51,5.53,8.28,8.28,0,0,1-7.85-5.16c-1.2-2.73,0-5.13-.35-7.89C338.91,238,338,236,336.48,236a2.69,2.69,0,0,0-1.77.84,7.57,7.57,0,0,0-2.09,5.7c.1,6,5.11,10.86,10.53,12.83l1.65.15c1.77.16,2.39,2.84.44,3.28a34,34,0,0,1-7.54.8c-10.92,0-22.89-4.43-31.69-9.46-12.57-7.19-22.09-19.61-26.84-33.12-.43-.86-.88-1.72-1.34-2.57"/><path class="cls-9" d="M125.94,91.25a68,68,0,0,1-10.34.87c-.75,0-1.5,0-2.24-.05-.4,1.73-.76,3.46-1.1,5.19a26.81,26.81,0,0,1,12.28,3.26c.44-3.09.93-6.18,1.4-9.27M178.7,80c-13.68.15-27.37,5.52-40.5,8.71-3,.73-6.16,1.45-9.38,2l-.12,2A19.53,19.53,0,0,0,138,95.38h.22c.42,0,.83,0,1.24,0h.14a28.5,28.5,0,0,0,8-1.3,90.26,90.26,0,0,0,9.78-3.74h0c5.94-2.51,12-5,18.57-5,.69,0,1.39,0,2.09.09.15-1.83.36-3.64.69-5.44"/><path class="cls-10" d="M175.92,85.36c-6.58,0-12.63,2.52-18.57,5h0a90.26,90.26,0,0,1-9.78,3.74,28.56,28.56,0,0,1-8,1.3h-.14c-.41,0-.82,0-1.24,0H138a19.53,19.53,0,0,1-9.31-2.57c-.34,4.85-1,9.67-1.5,14.52-.58,5.33-2.12,13.28-.24,18.45a3.41,3.41,0,0,0,3.58,2.29c2.24,0,5-1.11,6.77-1.63a28.25,28.25,0,0,1,7.55-1.42,13.51,13.51,0,0,1,2.17.18c1.81.3,1.68,3.13,0,3.53-4.73,1.12-9.79,2.75-14.63,3.24a12.4,12.4,0,0,1-1.49.08c-2.45,0-4.8-.69-6.31-2.85-3.06-4.39-1.78-12.32-1.4-17.18.3-3.85.78-7.68,1.34-11.5a26.81,26.81,0,0,0-12.28-3.26,133.44,133.44,0,0,0-2.06,40.22c1.34,12.77,3.55,28.17,13.29,37.48,15.29-2.75,30.46-6.65,44.83-12.62A103.46,103.46,0,0,0,188,152c7.91-5.53,5.58-14.16,4.37-22.35a1,1,0,0,1,1-1.19.88.88,0,0,1,.85.68c.43,1.36.88,2.77,1.29,4.21,5,12.15,4,32.26-6.36,34.66a15.21,15.21,0,0,0,4.7.66c5.38,0,11.67-2,13.35-4.6l.07-.11c.09-7.77,1.23-15.6,1.78-23.35.48-6.88.84-13.78,1-20.68h-.33c-2.13,0-4.36-1-6.53-3.31a2.24,2.24,0,0,1,2.71-3.51,6.67,6.67,0,0,0,3.1.84c7.53,0,10.37-15.92,4-17.87a2.49,2.49,0,0,1-.49,0h-.3c-.2,0-.4,0-.6,0-3.1,0-6.32,2.52-8.49,5.4a1.55,1.55,0,0,1-.18,1.28c-2.31,3.91-5,7.57-7.18,11.59a1.58,1.58,0,0,1-1.43.93,2.13,2.13,0,0,1-2-1.87c-.45-4.27-.44-8.66-1.18-12.89-.48-2.81-1.7-3.68-3.87-3.68a13.59,13.59,0,0,0-2.07.19,23.65,23.65,0,0,0-5.71,1.71,1.32,1.32,0,0,1-.48.09,1.84,1.84,0,0,1-1.78-1.81c.46-3.86.54-7.75.87-11.6-.7-.06-1.4-.09-2.09-.09"/><path class="cls-9" d="M195.47,133.38c1.37,4.82,2.29,10,.41,14.66s-6.28,7.62-10.6,10.13c.25,2.16.08,4.35.27,6.52.39,1.66,1.73,2.73,3.56,3.35,10.38-2.4,11.36-22.51,6.36-34.66"/><path class="cls-11" d="M128.15,243.33c-1.27,1.49-2.6,2.93-4,4.31,1.5,6.25,7.56,12.15,13.67,12.18h0a1.61,1.61,0,0,0,1.38-.78l-.16.06-.26.21a1.23,1.23,0,0,1-.76.26,1,1,0,0,1-.25,0h0l-.21,0a.57.57,0,0,1-.52-.36,1.53,1.53,0,0,1-.64-1.75c.19-.47.37-.94.53-1.41-5.2-1.79-7.53-7.63-8.8-12.73"/><path class="cls-11" d="M275.72,242.11c-.26,6.18-.25,14-5,18.3a1.57,1.57,0,0,1,1.19,2.58c5.17-3,7.56-10.88,7.51-17.46-1.26-1.11-2.49-2.24-3.68-3.42"/><path class="cls-12" d="M214.71,91.28c-.08.36-.17.72-.25,1.07a3.35,3.35,0,0,1,.23,1.13,2.45,2.45,0,0,1-1.76,2.64c6.41,1.95,3.57,17.87-4,17.87a6.67,6.67,0,0,1-3.1-.84,2.24,2.24,0,0,0-2.71,3.51c2.17,2.32,4.4,3.31,6.53,3.31H210c0-1.36.06-2.71.08-4.06a1.12,1.12,0,0,1,1.17-1.16,1.19,1.19,0,0,1,1.23,1.16c.06,1.14.12,2.28.17,3.43,9.24-4,14.86-25.15,2-28"/><path class="cls-12" d="M128.82,90.76c-1,.18-1.92.34-2.88.49-.47,3.09-1,6.18-1.4,9.27-.56,3.82-1,7.65-1.34,11.5-.38,4.86-1.66,12.79,1.4,17.18,1.51,2.16,3.86,2.85,6.31,2.85a12.4,12.4,0,0,0,1.49-.08c4.84-.49,9.9-2.12,14.63-3.24,1.68-.4,1.81-3.23,0-3.53a13.51,13.51,0,0,0-2.17-.18,28.25,28.25,0,0,0-7.55,1.42c-1.82.52-4.53,1.63-6.77,1.63a3.41,3.41,0,0,1-3.58-2.29c-1.88-5.17-.34-13.12.24-18.45.54-4.85,1.16-9.67,1.5-14.52l.12-2"/><path class="cls-12" d="M109.59,91.73c-4.31,12.69-5.33,26.42-4.48,39.71.8,12.62,2.54,26.83,8.57,38.16,1.57,2.94,5,9.05,8.5,10a4.78,4.78,0,0,0,1.23.14c2.27,0,5.25-1.11,7.18-1.52q5.73-1.21,11.4-2.71c13.58-3.59,27.19-8.26,39.5-15.15a18.18,18.18,0,0,1,.33-3.38,1.7,1.7,0,0,1,3.26,0c.09.41.15.83.2,1.24,4.32-2.51,8.76-5.55,10.6-10.13s1-9.84-.41-14.66h0c-.41-1.44-.86-2.85-1.29-4.21a.88.88,0,0,0-.85-.68,1,1,0,0,0-1,1.19c1.21,8.19,3.54,16.82-4.37,22.35a103.46,103.46,0,0,1-19.66,10.31c-14.37,6-29.54,9.87-44.83,12.62-9.74-9.31-11.95-24.71-13.29-37.48a133.44,133.44,0,0,1,2.06-40.22c.34-1.73.7-3.46,1.1-5.19-1.27-.06-2.53-.17-3.77-.34"/><path class="cls-12" d="M211.27,114.74a1.12,1.12,0,0,0-1.17,1.16c0,1.35,0,2.7-.08,4.06-.17,6.9-.53,13.8-1,20.68-.55,7.75-1.69,15.58-1.78,23.35a1.84,1.84,0,0,1,.44-.44c-.38-1,0-2.26,1.2-2.26h.21q.94.12,1.89.27a243.44,243.44,0,0,0,1.7-42.24c0-1.15-.11-2.29-.17-3.43a1.19,1.19,0,0,0-1.23-1.16"/><path class="cls-12" d="M183.45,155.72a1.59,1.59,0,0,0-1.63,1.21,18.18,18.18,0,0,0-.33,3.38,34.05,34.05,0,0,0,.17,3.65l.71-.16a2.2,2.2,0,0,1,1.53-.64,1.59,1.59,0,0,1,1.62,1.38l0,.15c-.19-2.17,0-4.36-.27-6.52-.05-.41-.11-.83-.2-1.24a1.58,1.58,0,0,0-1.63-1.21"/><path class="cls-13" d="M183.9,163.16a2.2,2.2,0,0,0-1.53.64l.91-.22a1.87,1.87,0,0,1,.4,0,1.52,1.52,0,0,1,.4,3l-1.78.55c1.25,2.89,4.42,4.73,8.21,5.57a24.31,24.31,0,0,0,5.17.54c6.78,0,13.75-2.63,15-7.58a2.34,2.34,0,0,0,.07-.45l-2.14-.67a1.55,1.55,0,0,1-1-.92,1.84,1.84,0,0,0-.44.44l-.07.11c-1.68,2.59-8,4.6-13.35,4.6a15.21,15.21,0,0,1-4.7-.66h0c-1.83-.62-3.17-1.69-3.56-3.35l0-.15a1.59,1.59,0,0,0-1.62-1.38"/><path class="cls-14" d="M139.3,55.22l-.87,0c-7.7.37-16.65,6-18.66,13.7a2.11,2.11,0,0,0,.65,2.08c-.12-.16-.23-.33-.35-.5-1-1.53.41-2.94,1.88-2.94a2.08,2.08,0,0,1,.88.19c.8.36,1.58.75,2.34,1.16,3.58-4,7.1-7.63,13-8.3a13.86,13.86,0,0,1,1.56-.09c6.64,0,11.07,5,14.73,10.23l1.18-.8a1.11,1.11,0,0,1,.63-.2,1.39,1.39,0,0,1,1.23,1.63,3,3,0,0,1-.08.32,1.28,1.28,0,0,0,0-1.33c-4.08-7.65-8.6-15.17-18.09-15.17"/><path class="cls-14" d="M122,67.58c-1.47,0-2.89,1.41-1.88,2.94.12.17.23.34.35.5,4.27,6,13.07,9.7,20.3,9.7h.33c5.64-.08,14.73-2.79,16.32-9a3,3,0,0,0,.08-.32,1.39,1.39,0,0,0-1.23-1.63,1.11,1.11,0,0,0-.63.2l-1.18.8c-4,2.69-7.69,4.81-12.57,4.81a18.31,18.31,0,0,1-2.06-.12c-5.78-.67-9.85-3.95-14.61-6.53-.76-.41-1.54-.8-2.34-1.16a2.08,2.08,0,0,0-.88-.19"/><path class="cls-14" d="M138.18,70.14h0a.24.24,0,0,0,0,.07h0l0,0h0m1.7.07s0,0,0,0l0,0m-1.7-.07h0s0,0,0,.06l-.06.18s0-.06,0-.12l0-.05,0,0s0,0,.07-.09m.28-9.38a4.32,4.32,0,0,0-4.11,3.31c-.51,1.73,0,3.76.39,5.46s1,3.58,2.85,4.39a3.86,3.86,0,0,0,1.55.35,3.44,3.44,0,0,0,3-1.81,8.47,8.47,0,0,0,.05-7.41,2.94,2.94,0,0,0,0-1.5,3.77,3.77,0,0,0-3.72-2.79"/><path class="cls-15" d="M95.78,0c-2.3,0-4.53,2.87-2.29,5,5.79,5.6,10.57,12.18,16,18.12a1,1,0,0,0,.73.33,1.13,1.13,0,0,0,1-1.67C107,14.92,102.53,8.22,98.17,1.42A2.79,2.79,0,0,0,95.78,0"/><path class="cls-15" d="M82.37,18.85a2.93,2.93,0,0,0-2.09,4.93c1.77,2.16,5.08,3.64,7.37,5.22,2.72,1.87,5.67,3.35,8.4,5.17a.7.7,0,0,0,.39.12A.79.79,0,0,0,97,33c-2.22-2.54-4.11-5.22-6.5-7.65-1.92-2-4.11-5-6.63-6.17a3.33,3.33,0,0,0-1.45-.34"/><path class="cls-15" d="M74.67,41.34c-3.24,0-4.34,6.07.25,6.62,5,.6,10.23.42,15.3.77h.06c.78,0,.85-1.17.13-1.41-5-1.64-9.77-3.83-14.63-5.76a3.12,3.12,0,0,0-1.11-.22"/><path class="cls-13" d="M208.87,161.29c-1.16,0-1.58,1.3-1.2,2.26a1.55,1.55,0,0,0,1,.92l2.14.67c14.92,4.72,29.08,10.18,41.67,19.82a94,94,0,0,1,24.34,27.59,12.49,12.49,0,0,1,2.19.36.74.74,0,0,1-.17,1.44h-.21a6.81,6.81,0,0,0-.78.05c.46.85.91,1.71,1.34,2.57-.14-.41-.29-.83-.42-1.25a1,1,0,0,1,1-1.26.88.88,0,0,1,.81.48c.31.59.62,1.18.94,1.77-10.42-28.33-41-50.59-70.56-55.14q-.94-.15-1.89-.27h-.21"/><path class="cls-12" d="M121,215c-11.06,19-25.64,36.78-47.2,42.17a11.67,11.67,0,0,1-8.46,4.12h0a1.26,1.26,0,0,1-.57-.13,1.77,1.77,0,0,0,1.63,1c.59,0,1.19,0,1.79,0,25.31,0,45.76-24.54,56.22-45.4a2.13,2.13,0,0,1-.89.19,2.54,2.54,0,0,1-2.47-2"/><path class="cls-13" d="M183.68,163.54a1.87,1.87,0,0,0-.4,0l-.91.22-.71.16c-5.93,1.38-11.93,2.58-17.52,5.08-6.85,3.05-12.85,7.72-18.38,12.71a120.18,120.18,0,0,0-24.46,31.77A2.33,2.33,0,0,0,121,215a2.54,2.54,0,0,0,2.47,2,2.13,2.13,0,0,0,.89-.19h0a2.4,2.4,0,0,0,1-.89,17.7,17.7,0,0,0-2.1-.78c-.75-.23-.86-1.47,0-1.64a10.33,10.33,0,0,1,1.95-.2,8.27,8.27,0,0,1,1.66.16c6.06-9.81,12.68-19.17,21.1-27.14,1.82-1.72,3.71-3.43,5.66-5.06A63.07,63.07,0,0,1,165,173.59c5.5-2.84,11.45-4.71,17.35-6.53l1.78-.55a1.52,1.52,0,0,0-.4-3"/><path class="cls-13" d="M167,191.38a.92.92,0,0,0-.5.16,14.41,14.41,0,0,0-3.77,3.83,20.28,20.28,0,0,0-3,9.62c-.69,7.41.15,15.08,1.1,22.46.22-.58.43-1.16.64-1.74a1.55,1.55,0,0,1,1.49-1.12,1.58,1.58,0,0,1,1.58,2,43.67,43.67,0,0,1-2.7,8.52c2,15.36,3.81,30.23,1,45.74,1.59-.4,3.18-.78,4.78-1.14,3.69-13.41,1.43-28.16-.6-41.64-1.23-8.16-2.59-16.34-3.13-24.59-.45-6.9-1.52-15,3.78-20.38a1,1,0,0,0-.68-1.68"/><path class="cls-13" d="M137.06,259.22a.57.57,0,0,0,.52.36l.21,0h0a1.78,1.78,0,0,1-.75-.32M163,224.59a1.55,1.55,0,0,0-1.49,1.12c-.21.58-.42,1.16-.64,1.74-4,10.52-10.14,20.24-18.8,27.43a10.08,10.08,0,0,1-3,4.22l.16-.06c9.89-3.79,18.22-13.69,22.61-24a43.67,43.67,0,0,0,2.7-8.52,1.58,1.58,0,0,0-1.58-2"/><path class="cls-12" d="M134.57,227A81.83,81.83,0,0,1,97,261.31c-20.93,9.6-43.8,11.38-66.46,12.83,1.07,1.07,1.33,2.95.16,3.78,1.56,0,3.14.06,4.72.06,31.46,0,66.45-8,88.76-30.34,1.37-1.38,2.7-2.82,4-4.31a74.35,74.35,0,0,0,8.15-11.6c-.51-1.59-1.07-3.17-1.73-4.71"/><path class="cls-12" d="M53.7,228.9a14.52,14.52,0,0,0-4.49.7c-5.64,1.88-8.48,6.82-9.42,12.39l-.07-.12c-1.43-2.87-2.41-6.6-4.71-9a6.87,6.87,0,0,0-4.95-2,6.79,6.79,0,0,0-6,3.39c-1.45,2.62-1.2,5.7-.09,8.88-1.47-1-2.94-2-4.38-3a7.75,7.75,0,0,0-4.26-1.32,5.28,5.28,0,0,0-5.58,5.86c.25,4.95,5.4,9.05,8.79,12L21.18,259c-2.42-.38-4.85-.71-7.3-.88-1.06-.08-2.28-.16-3.54-.16-3.49,0-7.33.6-9.16,3.49-3.53,5.56,1.53,10.85,6.32,13a42.5,42.5,0,0,0,17.56,4.1,33.71,33.71,0,0,0,4.59-.31,2.26,2.26,0,0,0,1.05-.39c1.17-.83.91-2.71-.16-3.78a2.54,2.54,0,0,0-1.56-.76c-5.34-.55-10.61-.7-15.81-2.21l-1.59-.43h0c-2.13-.59-4.73-1.41-5.78-3-2.58-4,1.55-4.18,3.71-4.3.62,0,1.25-.05,1.87-.05,7,0,14.1,2,21,2.94a1.77,1.77,0,0,0,.32,0c2.48,0,3.32-4,1.07-5.15-6-2.94-12.55-7.32-16.69-12.54-.6-.75-2.46-2.83-2.18-3.91a.94.94,0,0,1,1-.79c1.32,0,3.51,1.77,4.26,2.4,5,4.18,10.43,8.09,13.9,13.69h0a2.47,2.47,0,0,0,2.14,1.24,2.59,2.59,0,0,0,2.39-3.89h0c-.37-.62-.77-1.22-1.19-1.81-3.41-4.95-7.76-9.4-9.41-15.34-.39-1.4-.87-3.16.19-4.39a2.59,2.59,0,0,1,1.92-1.09c1.95,0,3.54,3.23,4.19,4.86,2.18,5.48,4.6,10.89,6.64,16.42.16.48.33.94.5,1.38h0a2.72,2.72,0,0,0,2.65,1.85c1.65,0,3.27-1.29,2.58-3.29-1.69-4.86-2.46-10.54-.67-15.5.92-2.56,2.57-4.76,5.28-5.55a10.1,10.1,0,0,1,2.66-.39c1.6,0,2.77.54,1.14,2.26s-4.17,2.41-5.82,4.34a11.22,11.22,0,0,0-2.64,6.22,9.57,9.57,0,0,0,7.87,10.42,12.57,12.57,0,0,0,2,.16c8,0,7.57-9.13,9.26-15.1.3-1.09.63-3,1.85-3.45a1.73,1.73,0,0,1,.58-.1c2.21,0,4.3,4.12,4.66,5.73,1.21,5.51-2.3,12.17-7.78,13.73a1.37,1.37,0,0,0-.27,2.47,1.26,1.26,0,0,0,.57.13h0a11.67,11.67,0,0,0,8.46-4.12,15.52,15.52,0,0,0,3.1-14.39c-1.28-4.18-5.48-7.9-9.32-7.9-2.11,0-4.12,1.12-5.47,3.92-1.62,3.34-1.7,7.17-2.54,10.72a5.18,5.18,0,0,1-4.49,3.84,3.31,3.31,0,0,1-2.81-1.71c-1.78-2.74-.48-6.14,1.81-8,1.11-.89,2.54-1.43,3.73-2.22,3.24-2.16,6.37-6.11,3.21-9.81-1.7-2-4.54-2.78-7.32-2.78"/><path class="cls-12" d="M391.24,256.09h0m0,0h0m0,0h0m-43.41-8a5.19,5.19,0,0,1-1.22-.14c-4.32-1-2.59-6.91-3-11.52a53.86,53.86,0,0,0,6.41,3c5.17,2.45,2.39,8.67-2.16,8.67m23.7-26.2c-3.41,0-5.64,3.92-6.52,7.1-.26.93-.48,1.89-.67,2.88a13.4,13.4,0,0,0-2.2-3.79c-2.16-2.63-7.13-4.36-11.76-4.36-4.79,0-9.22,1.86-9.81,6.5a7.43,7.43,0,0,0-.07,1,6,6,0,0,0-2.73-.61,10.07,10.07,0,0,0-7.4,3.77c-4.93,6.21-2.52,14.74,2.85,19.82,3.26.47,6.55.82,9.9,1.13-5.42-2-10.43-6.85-10.53-12.83a7.57,7.57,0,0,1,2.09-5.7,2.69,2.69,0,0,1,1.77-.84c1.5,0,2.43,2,2.62,3.65.32,2.76-.85,5.16.35,7.89a8.28,8.28,0,0,0,7.85,5.16,11.21,11.21,0,0,0,9.51-5.53,7.84,7.84,0,0,0-.79-9.24,13.77,13.77,0,0,0-5.51-3.4c-.88-.34-3.42-.88-4-1.6-2.71-3.68,2.59-4.16,4.17-4.31a13.61,13.61,0,0,1,1.39-.07c11.48,0,9,14.89,5.67,22.34a2.6,2.6,0,0,0,2.14,3.66,2.25,2.25,0,0,0,1.62-.76c6.59-6.78,5.29-16.28,7.93-24.64.49-1.56,1.2-2.21,1.91-2.21,1,0,1.95,1.2,2.39,2.92a22.52,22.52,0,0,1,.65,6c-.13,6.48-3.53,12.72-8,17.22a2.21,2.21,0,0,0,1.59,3.74,2.05,2.05,0,0,0,.54-.07c7.53-1.85,10.95-11.16,15.6-16.46.95-1.07,2.59-3.28,4.28-3.28a1.72,1.72,0,0,1,.39,0c3.55.76,1.66,6.47.55,8.37a23.29,23.29,0,0,1-8.79,8.19,44.18,44.18,0,0,0-8,3.79,1.86,1.86,0,0,0,1.05,3.46,2.09,2.09,0,0,0,.86-.19h0a29.18,29.18,0,0,0,3.24-1.66,27.48,27.48,0,0,1,10.14-2.52H388a6.71,6.71,0,0,1,1.22.13,7.1,7.1,0,0,0,1,.12,1,1,0,0,0,1-.6c-.51,1.17-2.49,2.24-3.45,2.86a41.86,41.86,0,0,1-7.07,3.58h0a61.79,61.79,0,0,1-9.82,3,89,89,0,0,1-18.81,1.94,105.41,105.41,0,0,1-18.91-1.74A108,108,0,0,1,296.9,252.1c-12-7.26-20.71-16.75-29.83-27.18a34.61,34.61,0,0,0-1.46,3.31c-.1.26-.19.53-.28.79a62.67,62.67,0,0,0,10.39,13.09c1.19,1.18,2.42,2.31,3.68,3.42a114.58,114.58,0,0,0,10.44,8.08,106.25,106.25,0,0,0,59.1,18.2,98.79,98.79,0,0,0,12.14-.75,92.44,92.44,0,0,0,16.61-3.67c5-1.59,10.21-2.93,14.4-6.27,2.59-2.05,5.39-6.07,1.18-8.12a10.92,10.92,0,0,0-4.78-1c-.4,0-.8,0-1.2.05a23.09,23.09,0,0,0,4.89-5.56c2.21-3.72,3.39-9.86-1.26-12.27a7.24,7.24,0,0,0-3.34-.89c-3.69,0-6.65,3.36-9.43,7.28a25.22,25.22,0,0,0,.57-4.42c.15-4.23-.37-11.6-4.8-13.76a5.51,5.51,0,0,0-2.36-.59"/><path class="cls-12" d="M279.78,214.46a1,1,0,0,0-1,1.26c.13.42.28.84.42,1.25,4.75,13.51,14.27,25.93,26.84,33.12,8.8,5,20.77,9.46,31.69,9.46a34,34,0,0,0,7.54-.8c1.95-.44,1.33-3.12-.44-3.28l-1.65-.15c-3.35-.31-6.64-.66-9.9-1.13-8.68-1.24-17.05-3.32-25.1-7.75-11.85-6.52-20.26-18-26.62-29.73-.32-.59-.63-1.18-.94-1.77a.88.88,0,0,0-.81-.48"/><path class="cls-13" d="M276.11,212.53c-9.37,0-14.21,12.64-15.88,21.81h0c-.28,1.52-.47,2.95-.58,4.21-.31,3.58-.54,13.44,1.88,19.85a14.39,14.39,0,0,0,6.7,3c.88.14.7,1.6-.14,1.6H268a25.58,25.58,0,0,1-4.38-.81,5.66,5.66,0,0,0,4.4,2.11,8.34,8.34,0,0,0,3.08-.66,1.69,1.69,0,0,0,.78-.59,1.57,1.57,0,0,0-1.19-2.58h0c-9.05-.27-7.47-15.7-6.94-21.86a43.06,43.06,0,0,1,1.59-9.53c.09-.26.18-.53.28-.79a34.61,34.61,0,0,1,1.46-3.31,27.27,27.27,0,0,1,6.11-8.27,9.23,9.23,0,0,1,4.65-2.25,6.81,6.81,0,0,1,.78-.05h.21a.74.74,0,0,0,.17-1.44,12.49,12.49,0,0,0-2.19-.36l-.69,0"/><path class="cls-13" d="M222.33,195.66a1.83,1.83,0,0,0-1.78,1.26c-2.4,7.35,2.21,16,6.66,21.72.95,1.22,1.95,2.41,3,3.58,5.1,5.81,10.84,11.11,15.4,17.45,3.5,4.88,5.14,10.82,8.62,15.73a18.6,18.6,0,0,0,1.54,1.91c.07-.34.15-.67.24-1a.84.84,0,0,1,.83-.62.85.85,0,0,1,.85.62,25.92,25.92,0,0,1,.6,3.28,16.83,16.83,0,0,0,5.37,2.55,25.58,25.58,0,0,0,4.38.81h.08c.84,0,1-1.46.14-1.6a14.39,14.39,0,0,1-6.7-3c-6.3-5-8.18-14.86-12.89-21.36a139.81,139.81,0,0,0-9.27-11.45h0c-1.53-1.69-3.08-3.33-4.66-4.89a49.78,49.78,0,0,1-4.26-4.78h0a33,33,0,0,1-3.84-6.17h0a26.57,26.57,0,0,1-2.55-12.35,1.64,1.64,0,0,0-1.73-1.74"/><path class="cls-13" d="M256.81,255.68a.84.84,0,0,0-.83.62c-.09.34-.17.67-.24,1a20.87,20.87,0,0,0,3.82,17.34c3.83,4.73,16.73,12.55,9.42,18.91a1.62,1.62,0,0,0-.43,1.62,19.3,19.3,0,0,1,.67,12.18c1.21-.3,2.43-.61,3.67-.9a18.42,18.42,0,0,0-.53-10.37,5.79,5.79,0,0,1-.28-1c.2-.21.41-.42.59-.63a9.06,9.06,0,0,0,2.09-4.65c.71-5.5-4.9-9.63-8.37-12.95-3.08-2.94-5.86-5.75-7.05-10a49,49,0,0,1-1.08-7.34,25.92,25.92,0,0,0-.6-3.28.85.85,0,0,0-.85-.62"/><path class="cls-11" d="M187.08,277.25a89.4,89.4,0,0,0-19.43,2.42c-1.6.36-3.19.74-4.78,1.14-8,2-15.9,4.41-23.91,6.09a79.47,79.47,0,0,1-16.36,1.66,94.6,94.6,0,0,1-10.6-.62c-8.34-.94-16.48-3.58-24.81-4.34-1-.09-2-.13-2.94-.13-22.36,0-38.83,23.29-43.08,43.33-2.43,11.44-.93,23,6.6,32.28,8.31,10.22,21.63,15.23,34.43,16.45,3.69.35,7.42.39,11.15.39h3.24a89.08,89.08,0,0,1,15.75,1c8.61,1.54,16.36,6,24.36,9.26a62.06,62.06,0,0,0,23.82,4.62,76.75,76.75,0,0,0,22.35-3.48c-.4-.57-.77-1.15-1.12-1.75a1.9,1.9,0,0,1,3-2.29c.89.84,1.82,1.68,2.79,2.48,1.13-.41,2.26-.85,3.38-1.31-.21,0-.43,0-.64-.06-1.52-.23-1.93-2.15-1.34-3.29a5.35,5.35,0,0,1,2-2.08h0a2.92,2.92,0,0,0-.92.16c-.91.3-1.83.61-2.75.9h0c-9.15,2.94-18.5,5.25-27.9,5.25a50.05,50.05,0,0,1-16.58-2.72c-6.45-2.25-12.5-5.47-18.85-8a61.51,61.51,0,0,0-20.46-4.06c-15-.59-30,.66-43.25-7.76a32.59,32.59,0,0,1-9.55-9.17,30.59,30.59,0,0,1-5-20.77c2.1-19.24,17.13-44.78,38.81-44.78a26.69,26.69,0,0,1,3.07.17c7.3.8,14.48,3,21.78,3.91a107.11,107.11,0,0,0,14,1,74.49,74.49,0,0,0,9.08-.53c15.4-1.9,29.92-8.08,45.28-10.28a72.58,72.58,0,0,1,10.41-.74c24.84,0,49.83,12.08,68.11,28.37,1.43-.2,2.87-.43,4.3-.69a83,83,0,0,0-21-17.33h0a107.54,107.54,0,0,0-51.17-14.73h-1.17"/><path class="cls-11" d="M100.7,301.18a48.24,48.24,0,0,0-7.91.6c-5.65.94-10.38,5.71-16.11,5.89-2.23.07-2.87,3.49-.54,4a11.23,11.23,0,0,0,2.53.29c4.41,0,8.06-2.59,12.35-4.09a25.82,25.82,0,0,1,8.34-1.18,90.17,90.17,0,0,1,9.72.72c14,1.55,27.05,6.06,38.5,14.41,5.52,4,10.71,8.49,16.32,12.38,4.77,3.31,10.71,7.42,16.67,7.94.36,0,.72,0,1.07,0,5.4,0,9.51-3.56,14.21-5.9a9.94,9.94,0,0,1,4.46-1.15c4,0,7,2.87,10.36,5.7a13.27,13.27,0,0,1,2.87-2.83,1.89,1.89,0,0,1,1.1-.35c1.45,0,2.92,1.52,2.36,3a16.85,16.85,0,0,1-.8,1.73,1.48,1.48,0,0,0,.25-.25c2.46-3.07,8.05-7,12.72-7a6.77,6.77,0,0,1,2.8.56,10.72,10.72,0,0,1,4.06-1.63,1.72,1.72,0,0,1,.39,0h.13a12.49,12.49,0,0,1,1.31-.68c-1.69-3.12-4.54-4.32-7.78-4.32-5.52,0-12.16,3.5-16,7-3.49-3-7-6.41-11.59-7.08a10.75,10.75,0,0,0-1.68-.13c-5.43,0-9.84,3.77-14.57,6.1a9.92,9.92,0,0,1-4.45,1c-5.79,0-11.66-4.63-16.19-7.86-2.89-2.06-5.67-4.25-8.47-6.43-1.76.38-3.53.78-5.29,1.18a2.59,2.59,0,0,1-.47,0,1.87,1.87,0,0,1-.52-3.66l2.3-.64c-1.5-1.14-3-2.25-4.58-3.33a79.55,79.55,0,0,0-33.21-12.82h0c-1-.16-2.08-.31-3.13-.44a93.25,93.25,0,0,0-11.53-.83"/><path class="cls-11" d="M183.44,382.76a1.88,1.88,0,0,0-1.69,2.81c.35.6.72,1.18,1.12,1.75a27.79,27.79,0,0,0,20,11.55c.59,0,1.21.06,1.83.06,6.39,0,14.38-2.27,18.47-7.33-.32-.56-.62-1.13-.93-1.71a1.92,1.92,0,0,1-.22-.92,30.57,30.57,0,0,1-1.24-3.35c-5.44,3.67-9.91,7.28-16.85,7.28h-.3c-6.11-.09-11.54-3.28-16.16-7.14-1-.8-1.9-1.64-2.79-2.48a1.87,1.87,0,0,0-1.28-.52"/><path class="cls-16" d="M247.09,331.72a22.31,22.31,0,0,0-9.23,1.69,12.49,12.49,0,0,0-1.31.68,1.82,1.82,0,0,1,1.35,3,40.74,40.74,0,0,1,10.41-1.36,33,33,0,0,1,9.36,1.27c6,1.81,6.4,9.2,6.42,14.49,0,12.1-.45,24.44-1.2,36.52-.43,6.82-1,16.21-9.25,17.71a19.73,19.73,0,0,1-3.56.31,22,22,0,0,1-11.76-3.31c-5.68-3.75-8.81-10-12.89-15.21A2,2,0,0,0,225,387a23.28,23.28,0,0,0,1.34,3.59,1.56,1.56,0,0,1-1.38,2.25,1.41,1.41,0,0,1-1.21-.74,26.46,26.46,0,0,1-1.66-3.16,1.92,1.92,0,0,0,.22.92c.31.58.61,1.15.93,1.71,5.52,9.87,13.14,17.54,25.12,18l1.22,0c5.82,0,11-1.88,13.59-7.58,2.27-5,3-10.85,3.24-16.62h-.32c-2.71,0-3.21-4.12-.59-4.78.36-.09.72-.17,1.07-.23,0-1.69.07-3.35.12-4.95l.12-3.83h0c.17-5.4.37-10.79.65-16.18.26-4.91.67-10.17-1-14.89-1.78-5.06-5.54-7.34-10.67-8.12a57.88,57.88,0,0,0-8.67-.77"/><path class="cls-16" d="M253.68,338.76a1.23,1.23,0,0,0-.52,2.25c6.5,3.52.11,11.68-2.63,15.68-3.38,4.93-7.07,9.74-9.63,15.17-5.33,11.33-3.36,22.37,4.63,31.85a1.45,1.45,0,0,0,1.12.57,2,2,0,0,0,1.77-2.25c-.53-3.32-2.66-5.94-4.26-8.82a17.42,17.42,0,0,1-1.95-12c1.34-7.75,6.2-14,10.43-20.43,4.34-6.56,12.24-17.56,1.43-22a1.18,1.18,0,0,0-.39-.08"/><path class="cls-11" d="M236.42,334.08a1.72,1.72,0,0,0-.39,0,10.72,10.72,0,0,0-4.06,1.63c-6.84,4.5-9.78,16.39-11.12,23.21a83.5,83.5,0,0,0-1.55,11.73h0a42.9,42.9,0,0,0,1.52,14.93,30.57,30.57,0,0,0,1.24,3.35,26.46,26.46,0,0,0,1.66,3.16,1.41,1.41,0,0,0,1.21.74,1.56,1.56,0,0,0,1.38-2.25A23.28,23.28,0,0,1,225,387c-2.33-8.17-1.08-18.45.51-26.18,1.69-8.29,4.53-18.37,12-23.39a2.35,2.35,0,0,0,.46-.42,1.82,1.82,0,0,0-1.35-3h-.13"/><path class="cls-11" d="M291.59,303.75a81.27,81.27,0,0,0-18.7,2.71c-1.24.29-2.46.6-3.67.9l-1.74.44c-2.34.59-4.69,1.1-7,1.52-1.43.26-2.87.49-4.3.69a128.17,128.17,0,0,1-17.76,1.16q-3,0-6.12-.11c-9.2-.34-18.28-1-27.42-1-3.4,0-6.81.1-10.24.35-.81.06-1.63.12-2.44.2-13.32,1.24-26.17,4.47-39,8l-2.3.64a1.87,1.87,0,0,0,.52,3.66,2.59,2.59,0,0,0,.47,0c1.76-.4,3.53-.8,5.29-1.18,16.88-3.63,34-6.24,51.26-6.24,3.74,0,7.49.12,11.24.38,6.72.47,13.46.87,20.2.87,3.4,0,6.8-.1,10.2-.34,9.87-.72,19.1-3.61,28.75-5.49a68.58,68.58,0,0,1,12.93-1.51,27.9,27.9,0,0,1,14.3,3.51c7.26,4.2,12.69,11.09,16.59,18.39a55,55,0,0,1,5.79,15.47h0a26.89,26.89,0,0,1,.38,7.67c-1,9.36-7.77,17.5-14.64,23.41-5.85,5-12.92,9.95-20.49,9.95a17.29,17.29,0,0,1-6.89-1.44c-5.84-2.52-11.09-6.11-17.29-6.11a15.56,15.56,0,0,0-2.92.27c-.35.06-.71.14-1.07.23-2.62.66-2.12,4.78.59,4.78h.51c8.52,0,14.28,5.33,22.24,7.35a19.32,19.32,0,0,0,4.83.61c7,0,13.43-3.62,19.11-7.7,7.9-5.65,15.1-13.05,19-22.08,3.46-8.09,2.72-16.21.07-24.41-4.88-15-16.21-31.56-32.75-34.81a38.53,38.53,0,0,0-7.45-.68"/><path class="cls-17" d="M170.79,442.44c-10.77,0-21.54.15-32.29.58,1.26,0,2.52.05,3.77.05,3,0,3,4.64,0,4.64h-.15c-2.29,0-4.59.16-6.88.23-2.45.07-4.91.12-7.36.15,15.78.57,31.57.79,47.38.79,16.28,0,32.57-.24,48.82-.56s32.42-.78,48.6-1.72c3.79-.23,7.59-.47,11.39-.79-2.75-.24-5.49-.43-8.23-.62-18.73-1.31-37.52-1.9-56.29-2.17-16.17-.24-32.46-.58-48.77-.58"/><path class="cls-17" d="M297.66,447.83h.09a.22.22,0,0,1,.12,0h-.05l-.16,0m0-4h0l.06,0-.07,0M138.5,443c10.75-.43,21.52-.58,32.29-.58,16.31,0,32.6.34,48.77.58,18.77.27,37.56.86,56.29,2.17,2.74.19,5.48.38,8.23.62-3.8.32-7.6.56-11.39.79-16.18.94-32.39,1.39-48.6,1.72s-32.54.56-48.82.56c-15.81,0-31.6-.22-47.38-.79,2.45,0,4.91-.08,7.36-.15,2.29-.07,4.59-.23,6.88-.23h.15c3,0,3-4.63,0-4.64-1.25,0-2.51,0-3.77-.05m53.78-4.72c-25.13,0-50.27.53-75.26,2.25-3.24.23-6.48.51-9.7.87a1.91,1.91,0,0,0-1.31.69,62.65,62.65,0,0,0-13.39,1.31c-4.52,1-6,5.61-1.31,7.56,3,1.28,6.81,1.38,10,1.7,19.7,1.95,39.67,2.45,59.61,2.45,14.71,0,29.41-.27,44-.44,19-.21,38-.6,56.92-1.48,11.57-.53,23.74-.57,35.12-3,2.58-.56,6.53-1.74,5.64-5.25-.85-3.36-6.14-3.56-8.83-3.9-15.72-2-31.84-1.94-47.66-2.2-17.91-.29-35.89-.56-53.87-.56"/><path class="cls-11" d="M201.81,376.05a17.57,17.57,0,0,0-5.28.87,23.91,23.91,0,0,0-5.61,2.1,5.35,5.35,0,0,0-2,2.08c-.59,1.14-.18,3.06,1.34,3.29.21,0,.43.05.64.06h.25c2.56,0,4.87-1.59,7.25-2.54a24.69,24.69,0,0,0,6.76-3.79.84.84,0,0,0,.3-.54h0a1.1,1.1,0,0,0-.78-1.28,16.76,16.76,0,0,0-2.86-.25"/><path class="cls-11" d="M214.64,337.66a1.89,1.89,0,0,0-1.1.35,13.27,13.27,0,0,0-2.87,2.83,42.17,42.17,0,0,0-3.86,6.76A48.36,48.36,0,0,0,203,359.05a1.62,1.62,0,0,0,1.57,1.87,1.16,1.16,0,0,0,1.09-.75,109.87,109.87,0,0,1,5.47-10.05c1.54-2.63,3.67-5,5.09-7.72a16.85,16.85,0,0,0,.8-1.73c.56-1.49-.91-3-2.36-3"/><path class="cls-13" d="M223.24,273c-1.89,0-2.36,3-.43,3.4a115.19,115.19,0,0,1,26.62,9.12,120.86,120.86,0,0,1,14.31,8.29,1.69,1.69,0,0,0,.94.31,1.91,1.91,0,0,0,1.21-3.09c-4.7-5.74-11.77-9.22-18.51-12-6.18-2.56-12.82-4.85-19.54-5.69a43.86,43.86,0,0,0-4.57-.32h0"/><path class="cls-13" d="M125.21,213.35a10.33,10.33,0,0,0-1.95.2c-.86.17-.75,1.41,0,1.64a17.7,17.7,0,0,1,2.1.78c3.45,1.52,5.59,3.92,7.52,7.5.62,1.15,1.18,2.34,1.69,3.55.66,1.54,1.22,3.12,1.73,4.71.32,1,.62,2,.89,3.05,2.05,7.63,2.32,14.1-.24,21.28-.16.47-.34.94-.53,1.41a1.53,1.53,0,0,0,.64,1.75,1.78,1.78,0,0,0,.75.32,1,1,0,0,0,.25,0,1.23,1.23,0,0,0,.76-.26l.26-.21a10.08,10.08,0,0,0,3-4.22c1.82-4.67,1.17-11,0-16.34-.55-2.49-1.21-4.78-1.79-6.6-2-6.34-6-17-13.37-18.43a8.27,8.27,0,0,0-1.66-.16"/><path class="cls-14" d="M212.13,90.79a3.68,3.68,0,0,0-.71.08c-5.27,1.06-8.92,5.1-11,9.84a1.51,1.51,0,0,1,1-.33,1.78,1.78,0,0,1,1.65,1.13c2.17-2.88,5.39-5.4,8.49-5.4.2,0,.4,0,.6,0h.3a2.49,2.49,0,0,0,.49,0,2.45,2.45,0,0,0,1.76-2.64,3.35,3.35,0,0,0-.23-1.13l-.26,1a.91.91,0,0,1-.91.69,1,1,0,0,1-1-1l.06-2.33h-.22"/><path class="cls-14" d="M173.2,23.31c-19,0-37.66,11.94-50.17,25.85-9.52,10.59-18.38,23.26-23.62,36.6a1.63,1.63,0,0,1,.89-.26,1.87,1.87,0,0,1,.4,0c.57.14,1.14.26,1.71.38,6.93-12.59,16.1-23.91,26.13-34.13,10.55-10.74,23.77-19.37,39-21.17a39.93,39.93,0,0,1,4.63-.27c13.79,0,27.52,7.13,34.1,19.6,6.68,12.66,6.4,26.94,6.07,40.85l-.06,2.33a1,1,0,0,0,1,1,.91.91,0,0,0,.91-.69l.26-1c.08-.35.17-.71.25-1.07,5.4-23.78.49-53-23.73-64.12a42.31,42.31,0,0,0-17.78-3.85"/><path class="cls-14" d="M178.62,76.31c-12.49,0-24.32,3.55-36.36,6.7-9.21,2.4-18,4.19-27.08,4.19a62.44,62.44,0,0,1-12.77-1.28c-.57-.12-1.14-.24-1.71-.38a1.87,1.87,0,0,0-.4,0,1.63,1.63,0,0,0-.89.26,1.67,1.67,0,0,0,0,2.95,32.46,32.46,0,0,0,10.22,3c1.24.17,2.5.28,3.77.34.74,0,1.49.05,2.24.05a68,68,0,0,0,10.34-.87c1-.15,1.92-.31,2.88-.49,3.22-.59,6.37-1.31,9.38-2C151.33,85.53,165,80.16,178.7,80c-.33,1.8-.54,3.61-.69,5.44h0c-.33,3.85-.41,7.74-.87,11.6a1.84,1.84,0,0,0,1.78,1.81,1.32,1.32,0,0,0,.48-.09,23.65,23.65,0,0,1,5.71-1.71,13.59,13.59,0,0,1,2.07-.19c2.17,0,3.39.87,3.87,3.68.74,4.23.73,8.62,1.18,12.89a2.13,2.13,0,0,0,2,1.87,1.58,1.58,0,0,0,1.43-.93c2.14-4,4.87-7.68,7.18-11.59a1.55,1.55,0,0,0,.18-1.28,1.78,1.78,0,0,0-1.65-1.13,1.51,1.51,0,0,0-1,.33,1.66,1.66,0,0,0-.4.43c-1.47,2.23-3.06,4.35-4.57,6.54-.1-1.46-.21-2.91-.34-4.37-.21-2.28-.11-5.76-1.5-7.72-1.27-1.79-3.45-2.42-5.84-2.42A23.25,23.25,0,0,0,181,94.4c.46-5.26.45-10.57,1.76-15.71A1.87,1.87,0,0,0,181,76.36c-.78,0-1.57,0-2.35,0"/></g></g></svg>