<svg xmlns="http://www.w3.org/2000/svg" viewBox="0 0 375.67 663.02"><defs><style>.cls-1{fill:#90a2b2;}.cls-2{fill:#6f92b2;}.cls-3{fill:#5880a5;}.cls-4{fill:#e0edf9;}.cls-5{fill:#d0dfed;}.cls-6{fill:#afc2d5;}.cls-7{fill:#a0b8ce;}.cls-8{fill:#baccdc;}.cls-9{fill:#a6bcd1;}.cls-10{fill:#cddcea;}.cls-11{fill:#bbccdc;}.cls-12{fill:#c3d4e3;}.cls-13{fill:#acc1d4;}.cls-14{fill:#507aa1;}.cls-15{fill:#346695;}.cls-16{fill:#2c6192;}.cls-17{fill:#6c8fb0;}.cls-18{fill:#0a4783;}.cls-19{fill:#d6e4f1;}.cls-20{fill:#c7d6e5;}.cls-21{fill:#cad9e7;}.cls-22{fill:#5e84a8;}.cls-23{fill:#91aec8;}.cls-24{fill:#94b0ca;}.cls-25{fill:#a0b8cf;}.cls-26{fill:#3e6d99;}.cls-27{fill:#799ab8;}.cls-28{fill:#7697b6;}.cls-29{fill:#45729c;}.cls-30{fill:#7394b4;}.cls-31{fill:#aabfd3;}</style></defs><g id="Layer_2" data-name="Layer 2"><g id="Layer_2-2" data-name="Layer 2"><path class="cls-1" d="M36.92,635.86c-3.77.4-7.51.86-11.23,1.62-.9.18-1.77.42-2.63.68,3,.63,6.34,1.31,7,1.38q6.65.76,13.31,1.27a11,11,0,0,1-6.45-4.95m134.6-4.75q-18.3,0-36.59.23-11.87.15-23.72.38c-6.64.84-13.3,1.48-19.91,2.51-8.46,1.32-16.61,3.83-25,5.65a92.66,92.66,0,0,1-10.23,1.74c13.24.66,26.52.85,39.72,1.13q25,.51,50,.49,20.32,0,40.63-.27,11.74-.15,23.5-.39c2.6-.06,5.31-.17,7.89-.17a43.16,43.16,0,0,1,5.86.32c6.58.91,13.35,1.78,19.86,2.65h0l.9.12c3.83.52,2.78,6.62-.87,6.62h0c-5.77,0-11.53-.28-17.3-.28-3.48,0-7,.08-10.44.35-.92.07-1.82.18-2.72.32,12.83,3.37,27.12,3.14,40.21,3.48q9,.24,18.07.24,20.31,0,40.58-1.15c14-.79,29-1.15,42.53-5.21.23-.06.54-.16.86-.27l-.91-.35c-14.57-4-30.69-4.07-45.69-4.66h0l-.42,0a2.78,2.78,0,0,1-2.8-3,3.11,3.11,0,0,1,3.06-3.76h.16c3.4-.37,6.84-.72,10.22-1.27-3.48-.54-7-.85-10.52-1.21-15.48-1.56-31.09-2.2-46.63-2.74q-45.15-1.57-90.34-1.53"/><path class="cls-1" d="M208.5,653.43s0,0,.07-.08,0,.08-.07.08m.25-2.35c-.27-.13-.26-.2-.18-.2s.21.07.18.2m149.17-2.43c0-.13,0-.21.11-.21h.06c.15,0,.05.1-.17.21m-31.27-10.09c-.08,0-.14-.08-.18-.2.17,0,.35.11.32.13a.23.23,0,0,1-.14.07m-309.07-1.5a.22.22,0,0,1,.16-.1c.07,0,.12.06.18.15l-.33-.06h0M178,624.36q-10.44,0-20.87.06c-12.2.06-24.46.07-36.72.21a17.24,17.24,0,0,1-.38,5.15,1.12,1.12,0,0,1-.79.8c-2.66.44-5.32.8-8,1.14q11.87-.24,23.72-.38,18.28-.23,36.59-.23,45.18,0,90.34,1.53c15.54.54,31.15,1.18,46.63,2.74,3.5.36,7,.67,10.52,1.21-3.38.55-6.82.9-10.22,1.27h-.16a3.11,3.11,0,0,0-3.06,3.76,2.78,2.78,0,0,0,2.8,3l.42,0h0c15,.59,31.12.62,45.69,4.66l.91.35c-.32.11-.63.21-.86.27C341,653.93,326,654.29,312,655.08q-20.25,1.14-40.58,1.15-9,0-18.07-.24c-13.09-.34-27.38-.11-40.21-3.48.9-.14,1.8-.25,2.72-.32,3.48-.27,7-.35,10.44-.35,5.77,0,11.53.23,17.3.28h0c3.65,0,4.7-6.1.87-6.62l-.9-.12h0c-6.51-.87-13.28-1.74-19.86-2.65a43.16,43.16,0,0,0-5.86-.32c-2.58,0-5.29.11-7.89.17q-11.75.24-23.5.39-20.31.25-40.63.27-25,0-50-.49c-13.2-.28-26.48-.47-39.72-1.13-1.63.16-3.29.27-4.92.27a25.16,25.16,0,0,1-7.82-1.08q-6.67-.51-13.31-1.27c-.66-.07-4-.75-7-1.38.86-.26,1.73-.5,2.63-.68,3.72-.76,7.46-1.22,11.23-1.62a11.82,11.82,0,0,1-1.36-4.13c-.12-.82-.19-1.64-.25-2.47a87.59,87.59,0,0,0-14.77,2.56c-3.19.91-7.67,2.36-8.58,6A4.71,4.71,0,0,0,14.47,643c4.43,2.66,11.1,2.72,16,3.27,10.15,1.14,20.37,1.65,30.57,2.11,28,1.26,56.12,1.54,84.17,1.54h5.92q25.19,0,50.38-.48l1.56,0c-1.58,1.5-1.89,3.5.53,6.11,2.86,3.07,9,3.83,13.09,4.47a242.37,242.37,0,0,0,25.39,2.3q14.43.72,28.92.7c12.57,0,25.14-.38,37.67-1,9.91-.52,19.82-1.21,29.68-2.41,6.46-.79,13.3-1.49,19.46-3.73,5.22-1.89,10.12-7.1,3.47-11.15-5.19-3.16-12.49-3.59-18.36-4.34q-5.66-.71-11.34-1.18a3.71,3.71,0,0,0,.5-4.67c-1.31-2.48-5-3.15-7.48-3.69-12.09-2.6-24.8-3-37.11-3.73-36.45-2.18-73.05-2.74-109.59-2.74"/><path class="cls-2" d="M17.17,565c-5.31,5.43-5.11,15.19-1.59,21.49C19.31,593.2,25.7,598,30.2,604.13A43.77,43.77,0,0,1,38.34,622a33.92,33.92,0,0,1,.4,4.43,24.51,24.51,0,0,1,5.84,1.85c16.61-1.74,33.35-2.66,50.11-3.17A26.37,26.37,0,0,0,99.55,623a4.59,4.59,0,0,0,2.06-2c.69-1.77-1.46-3.26-2.68-4.11a59.31,59.31,0,0,0-8.59-4.65A65.77,65.77,0,0,0,82.48,609a18.65,18.65,0,0,0-2.42-.61c-2.47.33-4.94.71-7.42,1l-.33.16.21-.14c-1.39.18-2.77.36-4.16.5H68.3c-.53,0-.51-.78-.07-.95a75.47,75.47,0,0,1,8.37-2.84A13.63,13.63,0,0,0,79.86,601c1.83-5.24,1.19-11.24-.12-16.51s-3.67-11-7.64-15A16.45,16.45,0,0,0,66,565.6c-8.43,2.78-17.07,7.79-23.83,9.63a21.65,21.65,0,0,1-5.64.82c-5.3,0-9.45-2.49-14.13-6.78A48.59,48.59,0,0,0,17.17,565"/><path class="cls-3" d="M38.74,626.44c0,.83.08,1.65.14,2.45l3.25-.34,2.45-.26a24.51,24.51,0,0,0-5.84-1.85m33.9-17-.12,0-.21.14.33-.16m18.19-1.89a82.34,82.34,0,0,0-10.77.85,18.65,18.65,0,0,1,2.42.61,65.77,65.77,0,0,1,7.86,3.27,59.31,59.31,0,0,1,8.59,4.65c1.22.85,3.37,2.34,2.68,4.11a4.59,4.59,0,0,1-2.06,2,26.37,26.37,0,0,1-4.86,2.14c7.94-.24,15.88-.38,23.82-.47-.31-4.58-7.28-10.9-10.2-12.66a32.64,32.64,0,0,0-17.48-4.48M76.2,563.68A33.43,33.43,0,0,0,66,565.6a16.45,16.45,0,0,1,6.15,3.87c4,4,6.29,9.63,7.64,15s2,11.27.12,16.51a13.63,13.63,0,0,1-3.26,5.12A56,56,0,0,1,91.18,604a40.38,40.38,0,0,1,6.42.5c-1.53-2.71-4-4.67-5.79-7.27A27.05,27.05,0,0,1,88,588.58c-1.6-6.13-2.77-13.89.11-19.76a15.29,15.29,0,0,0-11.9-5.14"/><path class="cls-4" d="M231.44,212.45a13.76,13.76,0,0,1-6.76,2.79,35.06,35.06,0,0,1-5.11.35c-1.2,0-2.43-.05-3.67-.15-1.22,4.29-1.61,10.68,2,12.37a3.16,3.16,0,0,0,1.29.28c2.93,0,6-4,7.33-5.9a49.93,49.93,0,0,0,4.9-9.74m-36.88-3.6c-1.82,4.13-3.08,9.57-.31,12.76a4.9,4.9,0,0,0,3.86,1.59,14.45,14.45,0,0,0,6.92-2.3A32.42,32.42,0,0,0,211.8,215,51.6,51.6,0,0,1,200,211.67a39.47,39.47,0,0,1-5.39-2.82m-16.15-14.53-.2.12c-3.72,4.44-6.87,10.91-6.22,16.21.42,3.46,3.07,4.84,6,4.84a11,11,0,0,0,5.24-1.39c3.26-1.82,5.61-4.7,8-7.52-1.38-1-2.71-2.1-4-3.22a73.72,73.72,0,0,1-8.8-9m-6.8-21.14c-6.93,2.38-15.46,7.33-19.19,13.46-3.56,5.85,3,9.19,8.2,9.52.48,0,1,0,1.44,0A29.7,29.7,0,0,0,176.62,192c-.45-.6-.89-1.22-1.31-1.84-2.94-4.3-4.14-10.53-3.73-15.65,0-.45,0-.9,0-1.34"/><path class="cls-5" d="M231.45,212.42a25.36,25.36,0,0,1-10.52,2,40.22,40.22,0,0,1-4.63-.28c-.14.39-.27.81-.4,1.26,1.24.1,2.47.15,3.67.15a35.06,35.06,0,0,0,5.11-.35,13.76,13.76,0,0,0,6.76-2.79v0m-36.13-5.16c-.26.5-.51,1-.76,1.59a39.47,39.47,0,0,0,5.39,2.82A51.6,51.6,0,0,0,211.8,215c.38-.43.76-.86,1.13-1.3a60.18,60.18,0,0,1-16.67-5.88l-.94-.52M179.4,193.69l-1,.63a73.72,73.72,0,0,0,8.8,9c1.29,1.12,2.62,2.2,4,3.22.34-.41.68-.81,1-1.21a57.06,57.06,0,0,1-12.84-11.68m-7.82-19.17c-.41,5.12.79,11.35,3.73,15.65.42.62.86,1.24,1.31,1.84.36-.2.71-.41,1.06-.63-3.63-5.18-6.05-11-6.1-16.86"/><path class="cls-6" d="M326.74,125l-1.41,0c-.45.41-.92.81-1.39,1.19a61.38,61.38,0,0,1-12.68,7.63,7.1,7.1,0,0,1-.41.7.81.81,0,0,1-.68.35.69.69,0,0,1-.59-.29c-1.46.63-2.93,1.23-4.39,1.8-5.64,2.18-11.45,3.93-17.26,5.64a36.67,36.67,0,0,0,2.24,4.58c5.14-.32,10.2-.15,15.22-1.38-1.51-1.71-3.73-2.4-5.7-3.54a1,1,0,0,1,.6-1.85h.18c3.53.55,7.18,1.58,10.75,1.73h.43c3.59,0,5.4-2,8.07-4.21,4.5-3.79,9-7.54,12.68-12.13-1.89-.17-3.77-.26-5.66-.26"/><path class="cls-7" d="M309.12,130.69c-3.16,1.44-6.44,2.65-9.6,3.82a110.65,110.65,0,0,1-19.93,5.79q3.57.33,7.07.46h.09a1.22,1.22,0,0,1,.38.07,1.14,1.14,0,0,1,.77,1.09l0,.08c5.81-1.71,11.62-3.46,17.26-5.64,1.46-.57,2.93-1.17,4.39-1.8a.64.64,0,0,1-.1-.24,29.2,29.2,0,0,1-.36-3.62M325.33,125a64.11,64.11,0,0,0-7.43.59,37.44,37.44,0,0,1-4.85,3.17,13.46,13.46,0,0,1-.79,2.69,14.89,14.89,0,0,1-1,2.37,61.38,61.38,0,0,0,12.68-7.63c.47-.38.94-.78,1.39-1.19"/><path class="cls-6" d="M219.34,58.51c-2.32,7.12-4.54,14.37-5.26,21.85-.32,3.32-1.38,9.84,2.3,11.12,2.75,1,7,.49,10,.93,1,.15.86,1.64,0,1.88-2.16.6-8.77,1.24-10.19,2.88s-.51,5.23-.06,7.84a1,1,0,0,1,.64.48c.06.11.11.22.17.32a1,1,0,0,1,.42.75A57.24,57.24,0,0,0,235.79,126c-.21-.69-.4-1.4-.57-2.11-1.07-4.55-1.65-9.2-2.27-13.83-.57-4.22-1.09-8.46-2-12.62-.49-2.21-1.36-4.37-1.72-6.61a16,16,0,0,1,1-7.38c.09-.28.18-.55.28-.82a36.6,36.6,0,0,1-3.41,1.6.61.61,0,0,1-.25.06.79.79,0,0,1-.47-1.29,40.05,40.05,0,0,0,6-7.08c2.12-3.61.18-4.93-2.25-7.43-3.4-3.51-7.3-6.48-10.71-10"/><path class="cls-7" d="M237.23,78.28a52.2,52.2,0,0,1-6.79,4.36c-.1.27-.19.54-.28.82a16,16,0,0,0-1,7.38c.36,2.24,1.23,4.4,1.72,6.61.94,4.16,1.46,8.4,2,12.62.62,4.63,1.2,9.28,2.27,13.83.17.71.36,1.42.57,2.11,1.9,1.27,3.87,2.44,5.9,3.53-3.21-9.33-3.93-19.38-5.44-29.07a1.1,1.1,0,0,1,.21-.91c-1.17.31-2.34.64-3.5,1a.76.76,0,0,1-.21,0,.77.77,0,0,1-.52-1.29,38.5,38.5,0,0,1,6-4.33h-1.36a.86.86,0,0,1-.83-.64c-.69-4.43.27-9.34.85-13.75a1,1,0,0,1,.9-.91h0q-.3-.69-.57-1.38"/><path class="cls-8" d="M249.16,97.36c-2.28.92-4.72,1.35-7,2.19a.9.9,0,0,1-.57.22c-.3.12-.6.25-.89.39-2.14,1-2,.61-1.94,3.31,0,1.24.39,2.6.56,3.84,1.06,7.74,2.06,15.41,3.86,23,.75.38,1.51.75,2.27,1.11-.78-5.13-1.56-10.26-2.13-15.41a70.25,70.25,0,0,1-.52-8.46,61.93,61.93,0,0,1,1.18-7.17s1.37-.21,3-.37a1.06,1.06,0,0,1,.64-.47,36.87,36.87,0,0,1,6.59-.55c1,0,1.93,0,2.9.08-2.33-.5-4.69-.91-7.08-1.2a1.28,1.28,0,0,1-.92-.52m-.44-2.74c.24.1.47.2.71.32l0-.14-.74-.18m3.37-15.2c-3.12.61-6.29,1-9.43,1.42-1.07.15-2.16.24-3.23.39a.87.87,0,0,1-.46.15.59.59,0,0,1-.23,0l-.24,0a5.78,5.78,0,0,0,0,.79c0,2.29-2.23,9.22-.62,10.93.43.45,1.75.55,3.17.55.56,0,1.14,0,1.68,0l1.49,0a5.6,5.6,0,0,1,.91,0c.32,0,.62.1.92.16a126,126,0,0,0,6.08-14.37m8.26-56.28c-2.49,5.12-6.33,9.44-8.65,14.67-2.82,6.33-5.54,12.7-8.44,19,4.37,1.05,8.58,2.33,12.34,4.89.61.41.48,1.56-.34,1.56h-.08c-2.42-.2-6.67-1.66-9.77-1.66a4.27,4.27,0,0,0-3,.89c-1.37,1.3-1.34,4.55-1.74,6.34-.46,2.13-1,4.24-1.47,6.36,4.7.44,9.43.22,13.91,1.79,1-2,3.22-5.94,3.22-5.94s11.1,1.73,14.28,2.19c0-.39.07-.78.11-1.17-1.39-1-2.78-1.81-4.06-2.61a1.09,1.09,0,0,1-.22-1.69c1.37-1.47,2.79-2.89,4.24-4.28.12-1.12.27-2.23.38-3.35.18-1.82.57-1.81-.95-2.39a2.93,2.93,0,0,0-1-.15c-2.1,0-5.37,1.54-7,2a1,1,0,0,1-.29,0,1,1,0,0,1-.43-1.75c2.48-1.65,5.37-2.82,7.78-4.56,1.49-1.08.73-.15.86-1.18.22-1.75-.71-4.22-1-5.94-1.57-8.07-3.91-16.26-8.63-23.08"/><path class="cls-9" d="M247,100c-1.67.16-3,.37-3,.37a61.93,61.93,0,0,0-1.18,7.17,70.25,70.25,0,0,0,.52,8.46c.57,5.15,1.35,10.28,2.13,15.41l1,.45c-2.62-10-1.18-21.58.48-31.59a.74.74,0,0,1,.1-.27m9.3-29s-2.25,4-3.22,5.94l.83.31c.76.31,1,1.54,0,1.76-.61.14-1.23.26-1.85.38A126,126,0,0,1,246,93.79a15.21,15.21,0,0,1,2.71.83l.74.18c2.14-7.54,6.94-14.6,11.1-21.12a1.21,1.21,0,0,1,.94-.56.72.72,0,0,1,.29.06c2.71,1.14,5.56,2.24,8.38,3.45a32.78,32.78,0,0,0,.44-3.41c-3.18-.46-14.28-2.19-14.28-2.19"/><path class="cls-8" d="M353.08,80.1c-6,1.52-12,3.05-18,4.41a8.43,8.43,0,0,0-1.87.41L333,85a16.86,16.86,0,0,0-1.2,3c-1.53,3.56-3.06,7.13-4.84,10.57a.76.76,0,0,1-.69.38.77.77,0,0,1-.83-.79c.41-4,1.41-8,1.18-12-2.66.83-5.31,1.75-8,2.44a14.8,14.8,0,0,1-1.49.51H317c-.14.44-.21,1-.28,1.33-1.33,5.5-3.08,11-4.93,16.37a.84.84,0,0,1-.78.59.88.88,0,0,1-.87-.81c-.51-5.18.52-10.23,1-15.36l-2.89,1a19.08,19.08,0,0,1-.61,2A38.62,38.62,0,0,1,305.54,99a91.26,91.26,0,0,1-5,7.75s-6.06,2.28-8.25,2.54a.36.36,0,0,1,0,.1c2,.49,6.61,2.82,5.85,3.68a166.77,166.77,0,0,1-15.89,15.11,118.29,118.29,0,0,1-10.15,7.52c-1.5,1-3.06,1.91-4.63,2.81,1.5.3,3,.57,4.51.81,8.87-.81,17.32-3.3,25.69-6.42,6.07-2.27,12.74-4.53,18.1-8.42a.83.83,0,0,1,.76-.86l.45-.07c.59-.48,1.17-1,1.72-1.51-3.6-2-6.91-4.41-10.5-6.43a1.06,1.06,0,0,1,.56-2,1.07,1.07,0,0,1,.25,0c4.36,1,9.46,3.63,13.93,4a4,4,0,0,1,.64-.21A23.66,23.66,0,0,0,327,116a45.24,45.24,0,0,0,5.62-3,104.37,104.37,0,0,1-10.51-3.76c-.92-.38-1-2,.12-2h.16c4.69.6,9.42.89,14.14,1.26.42,0,1.06.18,1.59.2l.1-.12a33.7,33.7,0,0,0,2.88-4.62,136.59,136.59,0,0,0,12-23.79"/><path class="cls-9" d="M292.36,109.42a1.06,1.06,0,0,1-.26.84,132.46,132.46,0,0,1-16,16c-4.67,3.85-9.82,7.06-14.49,10.91,2,.51,4,1,6,1.37,1.57-.9,3.13-1.82,4.63-2.81a118.29,118.29,0,0,0,10.15-7.52,166.77,166.77,0,0,0,15.89-15.11c.76-.86-3.88-3.19-5.85-3.68m15.88-17.23c-1.91.62-3.84,1.22-5.74,1.88-.49,1.07-1,2.1-1.55,3.1-1.31,2.53-2.79,6.45-4.84,8.47-1.08,1.06-1.14,1-2.84,1.12-2.18.13-4.37.2-6.55.35,1.66.42,3.3.92,4.95,1.51a1,1,0,0,1,.67.7c2.19-.26,8.25-2.54,8.25-2.54a91.26,91.26,0,0,0,5-7.75,38.62,38.62,0,0,0,2.09-4.81,19.08,19.08,0,0,0,.61-2"/><path class="cls-10" d="M360.44,150.49a1.61,1.61,0,0,0-.81.3c-.55.39-1,2.74-1.17,3.44-.63,2.17-1.33,4.3-2.15,6.4a81.28,81.28,0,0,1-6.26,12.3.72.72,0,0,1-.14.19,39.15,39.15,0,0,1,4.48,2.77c3.1-3.71,6.39-7.7,7.08-12.6.59-4.24-.88-8.34-1-12.55,0-.07,0-.15,0-.25M330.5,194.76a.72.72,0,0,1-.73-.94c1.18-4.09,3.5-7.72,7.64-9.26l.19,0a.62.62,0,0,1,.27,1.13c-3.45,1.79-5.35,5-6.63,8.57a.76.76,0,0,1-.74.53m-6.23-53.86a2.87,2.87,0,0,0-1.48.49,3.4,3.4,0,0,0-.38,2,12.48,12.48,0,0,0,1.45,3.61c2.33,5,5.25,10.11,5.58,15.74.38,6.37-2.81,11-6.24,16a1.2,1.2,0,0,1-.79.9.78.78,0,0,1-.25.07l-.2,0a1,1,0,0,1-.9-.57c-2.4-5.1-4.08-10.74-10.14-12.42a12,12,0,0,0-3-.63,2.57,2.57,0,0,0-.85.13c-4.76,1.79-1.68,4.58-.23,6.15a28.17,28.17,0,0,1,3.2,3.53c4.2,6.57,2.67,17.58,13,18,.59,0,.78,1,.15,1.08a13.66,13.66,0,0,1-1.94.21,8,8,0,0,0-1.15.61,11.45,11.45,0,0,0-1.54,1.24c-3.52,15.07-18,25.58-31.47,31.4a114.72,114.72,0,0,1-45.34,9.05c-2.88,0-5.77-.1-8.63-.3,0,.41,0,.81,0,1.22a21.15,21.15,0,0,0,11.08,7.88,33.39,33.39,0,0,0,9,1.14c6,0,12.22-1.28,17.86-2.64a170.09,170.09,0,0,0,34.62-12.64,114,114,0,0,0,13.7-7.75,42.11,42.11,0,0,0,8.55-7.19,13,13,0,0,0,3.39-6.82,15,15,0,0,0-.71-5.56c-.18-.22-.35-.44-.52-.67-.53-.7.23-1.53.95-1.53a.86.86,0,0,1,.65.3,11.1,11.1,0,0,0,7.18,4.15c1.35-.64,2.58-1.54,3.88-2.25,2-1.09,4.24-1.59,6.15-2.78a22.81,22.81,0,0,0,7.41-6.37c7.47-9.72,20-26.57,13.43-26.57h-.11c-1.81,1.69-3.53,4.87-4.27,5.81a24.61,24.61,0,0,1-5.74,5.29l.46.46a1.12,1.12,0,0,1-.85,1.91,1.22,1.22,0,0,1-.77-.29c-7.1-5.78-14.07-10.37-23.46-11.13a1,1,0,0,1-.39-1.91,124.41,124.41,0,0,0-5.53-21.13,34.88,34.88,0,0,0-1.88-4.51,6.05,6.05,0,0,0-1.94-2.47,1.9,1.9,0,0,0-1-.3m17-3.78a4.64,4.64,0,0,0-1.63.35,4.59,4.59,0,0,0-1.22,3.23,24.2,24.2,0,0,0,1.28,6.05,39.16,39.16,0,0,1,1.89,8.32,32.44,32.44,0,0,1-2.12,14.54,32.58,32.58,0,0,1,5.89,1.49,60.13,60.13,0,0,0,1.71-8.71,56.81,56.81,0,0,0-.16-12.77,42.81,42.81,0,0,0-1.24-6.65,12.83,12.83,0,0,0-2-4.6,3,3,0,0,0-2.38-1.25"/><path class="cls-11" d="M330.64,204.89a15,15,0,0,1,.71,5.56,13,13,0,0,1-3.39,6.82,42.11,42.11,0,0,1-8.55,7.19,114,114,0,0,1-13.7,7.75,170.09,170.09,0,0,1-34.62,12.64c-5.64,1.36-11.82,2.64-17.86,2.64a33.39,33.39,0,0,1-9-1.14,21.15,21.15,0,0,1-11.08-7.88,55.5,55.5,0,0,1-.88,11c6.27.52,12.51.85,18.72.85,13.38,0,26.6-1.53,39.57-6,18.25-6.34,37.16-18.2,47.89-34.62a12.23,12.23,0,0,1-7.82-4.77M319,195c-.11.69-.25,1.38-.41,2.06a11.45,11.45,0,0,1,1.54-1.24,8,8,0,0,1,1.15-.61H321a9.34,9.34,0,0,1-2-.21m52.77-27a3.29,3.29,0,0,0-2.08,1.09h.11c6.6,0-6,16.85-13.43,26.57a22.81,22.81,0,0,1-7.41,6.37c-1.91,1.19-4.17,1.69-6.15,2.78-1.3.71-2.53,1.61-3.88,2.25a9.82,9.82,0,0,0,1.21.07c11.06,0,23.55-17.24,27.86-24.89,1.17-2.08,7.22-12.66,4.45-14.08a1.51,1.51,0,0,0-.68-.16m-11.19-17.59h-.11c0,.1,0,.18,0,.25.14,4.21,1.61,8.31,1,12.55-.69,4.9-4,8.89-7.08,12.6,1.1.78,2.17,1.62,3.21,2.51,4.25-6.83,8.66-16.71,6.31-24.8-.3-1-1.86-3.11-3.36-3.11M325.33,140a2.81,2.81,0,0,0-2.54,1.35,2.87,2.87,0,0,1,1.48-.49,1.9,1.9,0,0,1,1,.3,6.05,6.05,0,0,1,1.94,2.47,34.88,34.88,0,0,1,1.88,4.51,124.41,124.41,0,0,1,5.53,21.13,1.08,1.08,0,0,1,.38-.06h0c.61,0,1.21,0,1.81.07.25-7.14-2.08-13.59-4.43-20.26-.9-2.55-2.07-6.28-4.32-8a4.56,4.56,0,0,0-2.76-1m17.27-3.9a4.1,4.1,0,0,0-3,1.33,4.64,4.64,0,0,1,1.63-.35,3,3,0,0,1,2.38,1.25,12.83,12.83,0,0,1,2,4.6,42.81,42.81,0,0,1,1.24,6.65,56.81,56.81,0,0,1,.16,12.77,60.13,60.13,0,0,1-1.71,8.71c.94.34,1.87.71,2.78,1.13a.5.5,0,0,1,0-.12c1.71-6.34,1.56-12.88,1.61-19.4,0-5-.15-12-4.35-15.51a4.28,4.28,0,0,0-2.77-1.06"/><path class="cls-10" d="M158.57,21.68a56.16,56.16,0,0,0-9.41,1.08A77.15,77.15,0,0,0,136.37,26a30.08,30.08,0,0,1,3.72,6,22.1,22.1,0,0,1,4.51-1.83,35.39,35.39,0,0,1,7.33-.88c2.94-.15,5.87-.31,8.78-.69,2.58-.34,5.12-.9,7.69-1.25a5,5,0,0,0-2.29-3.89,13.48,13.48,0,0,0-7.54-1.82M155.93,8.17a31.49,31.49,0,0,0-9.7,2c-6,2.12-11.77,5.62-15.74,10.66a18.53,18.53,0,0,1,2.74,2c4.65-3.57,9.44-6.8,15-8.86a44.37,44.37,0,0,1,8.84-2.29,28.64,28.64,0,0,1,4.07-.37c.45,0,.9,0,1.34.06l-.09-.18c-1.22-2.24-3.7-3-6.45-3m-42.16,40.3c-.43,0-.42-.64-.06-.78,4.74-1.78,7.09-6,8.72-10.49a1.15,1.15,0,0,1,1.11-.78,1.06,1.06,0,0,1,1.08,1.38c-1.56,5.14-5.15,10-10.8,10.67h0M138.24,2.15a15.23,15.23,0,0,0-4.19.79c-12.3,4.33-23.54,18.56-25.71,31.74a.62.62,0,0,1-.12.82h0c-.12,1-.2,1.9-.23,2.83a1,1,0,0,1-1,1,.92.92,0,0,1-1-1c0-.35,0-.69,0-1C97.81,44,90.11,51.42,84.34,60.37a135.71,135.71,0,0,0-14.59,31.2c-3.64,11.11-6.16,22.85-6.08,34.57.08,11.36,2.54,22.16,6.32,32.77,1.13-1.39,2.23-2.82,3.27-4.28-.46-13-.49-26,1.76-38.83,2.68-15.35,8.5-31.09,17.92-43.63.49-.65,1-1.28,1.52-1.89a74.24,74.24,0,0,1,5.78-8.67,54.81,54.81,0,0,1,6.29-6.18c.66-1.75,1.26-3.54,2-5.28a12.57,12.57,0,0,1,1.13-2.41c0-.05,0-.1,0-.15a.72.72,0,0,1,.73-.65.6.6,0,0,1,.63.65,10.28,10.28,0,0,0,.78,4.52,1.14,1.14,0,0,1,.29.64,13.66,13.66,0,0,0,3,3.67,12.73,12.73,0,0,1,4.21,2c2.54,1.65,7.66,7.7,8.64,11.39.23.9.36,2.29,1,3a6.09,6.09,0,0,0,4.22,1.84,2.61,2.61,0,0,0,1.56-.43A4.34,4.34,0,0,0,136,72.44a9.65,9.65,0,0,0-.2-3.46c-1.37-5.41-6.38-9.56-10.25-13.27l-.09-.11a.71.71,0,0,1-.3-.8,15.79,15.79,0,0,1,2.37-5.45c1.09-2.53,2.67-5.22,5.19-6.66a12.62,12.62,0,0,1,6.35-1.5,27.13,27.13,0,0,1,7.24,1.13,28.07,28.07,0,0,1,7.8,3.75c1.46,1,3,2.3,4.88,2.3a3.73,3.73,0,0,0,.57,0c2.06-.32,3.81-1.74,5.75-2.49a9.66,9.66,0,0,0-3-3.42c-5.5-4.11-13.7-4.71-20.36-5.39.16.59.29,1.16.4,1.74a1.06,1.06,0,0,1-1,1.19.73.73,0,0,1-.68-.48c-3.3-7.72-6.65-15.52-14.9-19-.64-.27-.41-1.1.11-1.34a27.06,27.06,0,0,1,8.64-12.86c.9-.75,1.86-1.44,2.82-2.12a4.94,4.94,0,0,0,1.48-1.32,1,1,0,0,0,.11-.63,4.4,4.4,0,0,0-.65-.05"/><path class="cls-11" d="M94.46,70.28c-.52.61-1,1.24-1.52,1.89C83.52,84.71,77.7,100.45,75,115.8c-2.25,12.84-2.22,25.85-1.76,38.83a57.45,57.45,0,0,0,7.17-13.25,106.75,106.75,0,0,1,3.9-49A112.71,112.71,0,0,1,94.45,70.28h0M115,56.42c1.62,1.51,3.51,2.89,5.25,4.61,2.7,2.66,4.33,5.92,6.07,9.24,1.12,2.14,2.7,5.89,5.47,6.21l.52,0c2.3,0,3.38-1.92,3.66-4.07a4.34,4.34,0,0,1-1.35,1.83,2.61,2.61,0,0,1-1.56.43,6.09,6.09,0,0,1-4.22-1.84c-.63-.72-.76-2.11-1-3-1-3.69-6.1-9.74-8.64-11.39a12.73,12.73,0,0,0-4.21-2m-5.39-8.68a12.57,12.57,0,0,0-1.13,2.41c-.69,1.74-1.29,3.53-2,5.28,1.18-1.06,2.34-2.14,3.42-3.31a12,12,0,0,1-.34-4.38M139,41.19a12.62,12.62,0,0,0-6.35,1.5c-2.52,1.44-4.1,4.13-5.19,6.66,2.66-3.77,6.76-5.25,11.29-5.25A31.39,31.39,0,0,1,151,46.94c2.82,1.23,5.23,3.07,7.94,4.44a7.59,7.59,0,0,0,3.33.91c1.72,0,3.12-.91,3.52-3.23a5.3,5.3,0,0,0-.47-3.22c-1.94.75-3.69,2.17-5.75,2.49a3.73,3.73,0,0,1-.57,0c-1.83,0-3.42-1.33-4.88-2.3a28.07,28.07,0,0,0-7.8-3.75A27.13,27.13,0,0,0,139,41.19m29.36-13.8c-2.57.35-5.11.91-7.69,1.25-2.91.38-5.84.54-8.78.69a35.39,35.39,0,0,0-7.33.88A22.1,22.1,0,0,0,140.09,32c.37.79.71,1.59,1,2.39,4.09-2.94,9.13-3.21,14.06-3.21H157c1.43,0,3.11.17,4.76.17a11.22,11.22,0,0,0,4.26-.66,3.45,3.45,0,0,0,2.34-3.35m-7.27-16.12a28.64,28.64,0,0,0-4.07.37,44.37,44.37,0,0,0-8.84,2.29c-5.55,2.06-10.34,5.29-15,8.86.57.49,1.13,1,1.66,1.56a.86.86,0,0,1,.16-.18,33.84,33.84,0,0,1,15.8-7.52c2.54-.54,13.74-.83,11.62-5.32-.44,0-.89-.06-1.34-.06M138.89,2.2a1,1,0,0,1-.11.63,4.94,4.94,0,0,1-1.48,1.32c-1,.68-1.92,1.37-2.82,2.12a27.06,27.06,0,0,0-8.64,12.86.73.73,0,0,1,.3-.07l.17,0a15.82,15.82,0,0,1,2.14.72c.37-4.87,3.5-8.6,6.84-12,.91-.92,4.5-3.4,4.6-4.75,0-.53-.37-.8-1-.89"/><path class="cls-12" d="M80.91,144.33A70.9,70.9,0,0,1,63.7,169.55c-5.22,5-11.46,10.92-18.35,14.61,1.26,7,4.61,13.31,8.38,19.34,4,6.36,8.48,12.33,14.71,16.63A83.19,83.19,0,0,0,81.9,228a27.21,27.21,0,0,0,3.66,1.25q2.23.38,4.53.66c.77.1.83,1.26,0,1.26h0a57.41,57.41,0,0,1-7.88-.71A28.63,28.63,0,0,0,76.06,234,64.48,64.48,0,0,0,65,244.17a46.39,46.39,0,0,0-8.5,13.2,19.8,19.8,0,0,0-1.13,12.4c1,3.77,3.32,7,5.87,9.85,2.35,2.66,5,5.09,7.05,8,1.45,2.12,2.48,4.64,1.65,7.2s-3.32,4.65-5.61,6.14a88.58,88.58,0,0,1-8.75,4.57c-2.07,1-4.57,2.21-5.66,4.38s-.36,5,.32,7.21c1.12,3.7,3.21,11,2.76,14.87-2.54,21.48.4,27.52,4.64,27.52,2.47,0,5.37-2,7.89-4.29A92.7,92.7,0,0,1,75.28,345a144.37,144.37,0,0,1,26.32-18.86c10.74-6.11,22.66-12.46,35-16.91l.66-.37c2.49-1.4,5-2.8,7.35-4.44a13.36,13.36,0,0,0,4-3.74,3.09,3.09,0,0,0-.7-4.22,92.07,92.07,0,0,0-19.42,3.37c-14.29,4-27.6,10.52-41,16.77a.45.45,0,0,1-.16,0,.34.34,0,0,1-.19-.64c15.52-8.49,31.85-16.54,49.2-20.46,1.52-.35,3.19-.72,4.93-1.06.84-2.59,1-5.25-1.24-7.36a5.88,5.88,0,0,0-1.9-1.26c-1,.12-2,.27-3,.43a120.37,120.37,0,0,0-18.18,5l-.1,0c-.29,0-.45-.47-.15-.61A103,103,0,0,1,136.72,284a25,25,0,0,0,4.55-3.62c2.81-2.82,5.19-5.9,8.35-8.38a94.11,94.11,0,0,0,9.66-8.1c1.72-2.14,3.43-4.27,5-6.48,1.32-2.12,2.5-4.31,3.77-6.46.28-.47.55-.94.79-1.41a27,27,0,0,0,2-6.94.49.49,0,0,1,.53-.42.58.58,0,0,1,.63.58,29.67,29.67,0,0,1-.74,4.54,26.16,26.16,0,0,0,1.08,5.66,60.12,60.12,0,0,0,3.49,9.08,16.12,16.12,0,0,0,8.2,7.47c6.24,2.87,13.21,4.26,19.91,5.56,5.3,1,10.64,1.88,16,2.66,5.54-13.06,11.19-26.21,10.67-40.68a130.36,130.36,0,0,1-24.67-4.92c-3.16-1-8.2-1.85-10.4-4.76a36.68,36.68,0,0,1-5.72.83,5.2,5.2,0,0,1-2.56,1.66,24.21,24.21,0,0,1-7.86,1c-1.51,0-3-.06-4.43-.11a90.12,90.12,0,0,1-13-1.27c-10-1.81-19.25-6.72-27.28-12.81-3.66-2.76-7.31-5.89-9.86-9.75a16.2,16.2,0,0,1-1.76-3.6,13.58,13.58,0,0,1-2.69-11,1.13,1.13,0,0,1-.59-1.1C96.53,189.09,84.87,165,80.91,144.33"/><path class="cls-13" d="M151.72,296.37l-1.5,0c-.76,0-1.52.05-2.28.1a3.09,3.09,0,0,1,.7,4.22,13.36,13.36,0,0,1-4,3.74c-2.35,1.64-4.86,3-7.35,4.44l-.66.37a97.67,97.67,0,0,1,24.7-5.73,1.14,1.14,0,0,1,.67-.31l1.67-.22c-1.94-5.54-6.35-6.64-11.95-6.64m-8.65-10.83a38.44,38.44,0,0,0-4.9.35,5.88,5.88,0,0,1,1.9,1.26c2.2,2.11,2.08,4.77,1.24,7.36a58.27,58.27,0,0,1,9.73-1.18c.43-1.73,1-3.89.06-5.4-1.07-1.78-4.39-2.2-6.16-2.32-.62-.05-1.24-.07-1.87-.07m16.21-21.67a94.11,94.11,0,0,1-9.66,8.1c-3.16,2.48-5.54,5.56-8.35,8.38a25,25,0,0,1-4.55,3.62,39.71,39.71,0,0,1,8-1,18.2,18.2,0,0,1,3.49.31c1.62-7.57,6.35-13.52,11.09-19.45m9.56-14.35c-.24.47-.51.94-.79,1.41-1.27,2.15-2.45,4.34-3.77,6.46a42.49,42.49,0,0,0,4.56-7.87m2.4-2.24c-1.62,6.55-5.37,11.91-9.33,17.18,16.72,10.46,37.07,15.19,56.49,16.82.49-1.19,1-2.38,1.5-3.57-5.34-.78-10.68-1.62-16-2.66-6.7-1.3-13.67-2.69-19.91-5.56a16.12,16.12,0,0,1-8.2-7.47,60.12,60.12,0,0,1-3.49-9.08,26.16,26.16,0,0,1-1.08-5.66M61.58,222.38c.13,5.15-1.19,10.12-2.36,15.13-1.36,5.81-2.79,11.54-4.58,17.24-1.88,6-3.76,12-5.75,17.9-1.37,4.07-1.19,7,1.94,10.36,1.6,1.7,3.55,3.09,5.31,4.62a1.23,1.23,0,0,1,0,1.72c-3.08,3.79-6.83,7.06-9.66,11.06-3.61,5.08-2.53,9.49-.06,14.77A37.53,37.53,0,0,1,50,337.82a50.34,50.34,0,0,1-2.94,12c-1.36,3.36-3,6.63-4,10.15-1.37,5.18,1.13,7.55,6.06,8.83a30.85,30.85,0,0,0,7.48.94l0-.1a.4.4,0,0,1,.38-.24.29.29,0,0,1,.31.33h.32a41.74,41.74,0,0,1,7.91-14.5c-2.52,2.24-5.42,4.29-7.89,4.29-4.24,0-7.18-6-4.64-27.52.45-3.83-1.64-11.17-2.76-14.87-.68-2.25-1.45-5-.32-7.21s3.59-3.36,5.66-4.38A88.58,88.58,0,0,0,64.33,301c2.29-1.49,4.74-3.44,5.61-6.14s-.2-5.08-1.65-7.2c-2-2.93-4.7-5.36-7.05-8-2.55-2.88-4.87-6.08-5.87-9.85a19.8,19.8,0,0,1,1.13-12.4,46.39,46.39,0,0,1,8.5-13.2A64.48,64.48,0,0,1,76.06,234a28.63,28.63,0,0,1,6.15-3.55,52.55,52.55,0,0,1-20.63-8.1m61.44-19a16.2,16.2,0,0,0,1.76,3.6c2.55,3.86,6.2,7,9.86,9.75,8,6.09,17.3,11,27.28,12.81a90.12,90.12,0,0,0,13,1.27c1.43.05,2.92.11,4.43.11a24.21,24.21,0,0,0,7.86-1,5.2,5.2,0,0,0,2.56-1.66c-.9.06-1.8.08-2.71.08-11.72,0-23.78-4.91-32.8-11.74a60.39,60.39,0,0,1-12.59-13A20.57,20.57,0,0,1,131.2,207a10.87,10.87,0,0,1-6.14-1.8,9.4,9.4,0,0,1-2-1.85M45.35,184.16a31.69,31.69,0,0,1-7.39,2.9c.06,3.44,1.5,6.46,3.54,9.93,5.08,8.64,11,16.52,19.15,22.47,7.62,5.55,15.92,8.29,24.91,9.81A27.21,27.21,0,0,1,81.9,228a83.19,83.19,0,0,1-13.46-7.89c-6.23-4.3-10.74-10.27-14.71-16.63-3.77-6-7.12-12.32-8.38-19.34"/><path class="cls-14" d="M326.55,430.1a27.49,27.49,0,0,1-5,4.34c2.05-1,4.13-1.9,6.24-2.71a5.21,5.21,0,0,0-1.25-1.63M213.84,302.38c-15.82,0-31.71,1.49-47.58,2.75a1.55,1.55,0,0,1-1,.36,1.22,1.22,0,0,1-.71-.22l-.47,0c-21.1,3.3-40.14,12-58.79,22.31-17.41,9.66-37.88,23.61-45.64,42.81a1.36,1.36,0,0,1-1.16,1.92l-1.42,0c-.47,8.87,1,16.92,6.18,24.56A53.46,53.46,0,0,0,71,405.77a29.78,29.78,0,0,1,3.49,2.12,24.71,24.71,0,0,1,5.79,5.71c1.19,1.63,2.21,3.37,3.89,4.56,4.21,3,10.25,3.3,13.45,7.76C102,432,94.46,439.49,91,444c-1.31,1.73-4.06,4.91-2.29,7.16s6,2.45,8.53,2.8c3.55.48,7.52.42,10.93,1.58.51.17,1.32.38,1.22,1s-1.63,1.18-2.11,1.39a99.31,99.31,0,0,1-11.75,3.53c-2.77.77-6.3,1.4-8.62,3.21l-.19.16a1.22,1.22,0,0,1,.57,1.26,15.19,15.19,0,0,1-.57,2.84c.94,1.82,1.83,3.66,1.55,5.78-.42,3.27-3.11,5.86-5.55,7.81a62.15,62.15,0,0,1-10.69,6.53c-4.52,2.31-9.36,4.21-13.51,7.19,8.08-2.21,16-4.6,23.29-9.07a.85.85,0,0,1,.44-.13.87.87,0,0,1,.41,1.59,79.81,79.81,0,0,1-8.76,4.91c-8.34,6.14-17.78,10.81-26.67,16.06a190.28,190.28,0,0,0-19.71,12.91c-3.9,3-8.14,6.47-10.46,10.92a10.06,10.06,0,0,0-.86,7.41c.52,2,1.33,3.89,1.8,5.9.52,2.24.76,4.53,1.34,6.75a19.34,19.34,0,0,0,4.06,7.72c4.43,5.12,10.74,8.35,17.05,11.11,3.83-.83,7.69-2.62,11.49-4.26a122.14,122.14,0,0,1,15.72-6c2.12-1,4.27-1.92,6.48-2.74a46.23,46.23,0,0,0,4.7-1.84c.69-.35,1.81-.87,1.91-1.77.14-1.26-1.46-2.22-2.85-2.81L76.5,553a121.89,121.89,0,0,0-31.33,6.67.52.52,0,0,1-.21,0c-.63,0-1-1-.33-1.33,10.81-4.94,24-8.59,36-8.59h1.75a41.53,41.53,0,0,0,10.59-7c10.69-9.25,19.15-21,28-31.9,3.5-4.31,7.08-8.56,10.78-12.72a52.54,52.54,0,0,0,6.52-8.35,59.25,59.25,0,0,0,4.71-11.3c.19-1.1.36-2.21.5-3.33a.76.76,0,0,1,.76-.66h0c2.28-7.25,4.32-14.58,6.37-21.9,2.27-8.13,4.51-16.27,6.78-24.41a141.49,141.49,0,0,0-4.83-39.17c-3.87-14.09-11.23-26.64-16.13-40.33a.72.72,0,0,1,.73-.9.6.6,0,0,1,.47.21c2.92,3.31,4.33,7.44,6.2,11.39.23.48.46,1,.7,1.42l2.94,2.67a24,24,0,0,0,3.76,3.07,4.93,4.93,0,0,0,2.5.69c2.54,0,5-1.93,7-3.49a166.41,166.41,0,0,0,15.6-14.68c3.19-3.27,6.3-6.62,9.24-10.12l-.33.81c.5-.54,1-1.08,1.49-1.61a.45.45,0,0,1,.33-.16.52.52,0,0,1,.37.86q-1.77,2-3.48,4c-.94,2.17-1.94,4.32-3,6.46-2.09,4.28-4.45,8.56-5.86,13.13-.68,2.22-1.41,5.8,1.4,6.46,13.19-5.7,26.12-12,39.4-17.61l.12,0a.27.27,0,0,1,.16.5c-6.81,4.12-13.8,8.11-20.93,11.87q-1.12.84-2.22,1.71c-.65.52-3.31,2.26-2.45,3.37.33.43,1.14.58,1.62.72,1.07.3,2.15.54,3.21.84,3,.84,5.94,2,8.9,3a53.82,53.82,0,0,0,12.57,2.94c1.49.14,3,.21,4.48.21a64.05,64.05,0,0,0,11.71-1.18c4.78-.88,9.42-2.31,14.16-3.37a13.7,13.7,0,0,1,2.83-.46c1.08,0,1.94.37,1.72,1.71a13.93,13.93,0,0,1-1.48,3.65c-1,2-2,3.9-2.93,5.88-2,4.23-3.65,8.75-3.91,13.45a23.73,23.73,0,0,0,2.61,11.66c1.6,3.31,3.57,6.5,4.27,10.17,1.69,8.87-4.16,17.18-7.49,24.94-1.24,2.91-2.64,6.41-1.57,9.59.89,2.65,3.3,4.37,5.34,6.1a.81.81,0,0,1,.24.6,62.82,62.82,0,0,0,7.95-16.11.78.78,0,0,1,.78-.61.86.86,0,0,1,.87,1.06c-2.52,11.61-9.86,20.88-16.41,30.49-2.22,3.27-4.88,6.58-6.81,10.16a2.81,2.81,0,0,0,2.31,2.91,5.76,5.76,0,0,0,1.18.11c2.61,0,5.46-1.55,7.58-2.68a81,81,0,0,0,12.5-8.62c7.69-6.22,14.52-13.41,22.25-19.57a84.24,84.24,0,0,1,18.83-11.08,62.6,62.6,0,0,1,11.24-4c2.34-1.47,4.74-2.9,7.2-4.25.23-2.18.32-4.47-.81-6.43a4.9,4.9,0,0,0-1.71-1.76c-3.29.63-6.35,1.53-8.21,2-7.67,2-15.1,4.85-22.8,6.67h-.13a.5.5,0,0,1-.13-1c3.73-1.16,7.37-2.55,11-3.95a37.68,37.68,0,0,0,9.07-8.42c1.67-2.24,3.48-5.35,2.27-8.19a7.17,7.17,0,0,0-2.45-2.88,60.54,60.54,0,0,0-6.22-.42l-.78.4a1.32,1.32,0,0,1-.64.16,1.41,1.41,0,0,1-1.19-2.13,1.14,1.14,0,0,1,1.14-.9h.35l.87-.47c3.4-7.91,6.12-16.2,6.59-24.87,0-.7.05-1.41.05-2.11l-.05-.15c-2.54-7.12-5.62-14.13-8.08-21.3a38,38,0,0,1-2.36-4.23A30.92,30.92,0,0,1,290,339.89a34.65,34.65,0,0,1,2-8.09c0-.07.06-.16.09-.25a28.94,28.94,0,0,0-3.11-5.71c-7.08-10.1-19.44-14.93-30.89-18.1-14.62-4.05-29.38-5.36-44.21-5.36"/><path class="cls-15" d="M82.09,552.74c-1.42,0-2.83.09-4.15.18,1.39.59,3,1.55,2.85,2.81-.1.9-1.22,1.42-1.91,1.77a46.23,46.23,0,0,1-4.7,1.84c-2.21.82-4.36,1.74-6.48,2.74a34.24,34.24,0,0,1,8.87-1.33,17.87,17.87,0,0,1,13.77,5.89c2.27-3.87,4.52-9.15.28-11.95-2.34-1.55-5.47-2-8.53-2M143,478.62a59.25,59.25,0,0,1-4.71,11.3,52.54,52.54,0,0,1-6.52,8.35c-3.7,4.16-7.28,8.41-10.78,12.72-8.87,10.92-17.33,22.65-28,31.9a41.53,41.53,0,0,1-10.59,7c3.64.11,8.16.62,10.93,3.17,9.1-11.84,20.12-22,29.68-33.46a109.44,109.44,0,0,0,7.6-10.22,1.1,1.1,0,0,1,.2-1c.71-.87,1.4-1.76,2.07-2.65A79.91,79.91,0,0,0,143,478.62m14.42-50.3c-2.27,8.14-4.51,16.28-6.78,24.41-2.05,7.32-4.09,14.65-6.37,21.9a.59.59,0,0,1,.6.66,70.38,70.38,0,0,1-2.21,14.8c9.55-18.37,14.18-39.25,14.72-59.92,0-.62,0-1.23,0-1.85"/><path class="cls-15" d="M73.94,493.59a112,112,0,0,1-16.56,6.32c-9.29,2.78-18.88,4.9-27.54,9.41-6.8,3.54-14.65,7.54-19,14.07-5.2,7.74.11,16,.33,24.37A1.2,1.2,0,0,1,9.87,549a1.42,1.42,0,0,1-1-.38c-2.05,1.74-3.8,3.8-5.75,5.66,3.13,4.3,8.54,3.86,13.05,6.24,4.24,2.23,7.39,6,11.07,9a14,14,0,0,0,9.12,3.3,19.34,19.34,0,0,0,4.11-.47c-6.31-2.76-12.62-6-17-11.11a19.34,19.34,0,0,1-4.06-7.72c-.58-2.22-.82-4.51-1.34-6.75-.47-2-1.28-3.91-1.8-5.9a10.06,10.06,0,0,1,.86-7.41c2.32-4.45,6.56-7.9,10.46-10.92a190.28,190.28,0,0,1,19.71-12.91c8.89-5.25,18.33-9.92,26.67-16.06M86.76,469c-2.2,7.06-9.55,9.58-16.54,11.24-5.6,1.33-10.74,3.08-15,7.1-4,3.72-6.91,8.38-10.11,12.77,1.93-.6,3.89-1.17,5.86-1.72,2.55-.71,5.1-1.39,7.64-2.08,4.15-3,9-4.88,13.51-7.19a62.15,62.15,0,0,0,10.69-6.53c2.44-1.95,5.13-4.54,5.55-7.81.28-2.12-.61-4-1.55-5.78M71,405.77c3.8,3.63,7.86,7,11.4,11a1.22,1.22,0,0,1-.83,2,1.17,1.17,0,0,1-.6-.17l-.15-.08c-1.64,7.9-3.44,15.39-3.55,23.6-.1,7.37.27,18.74,7.53,22.95a2,2,0,0,1,1.17-.39,1.55,1.55,0,0,1,.78.19l.19-.16c2.32-1.81,5.85-2.44,8.62-3.21A99.31,99.31,0,0,0,107.32,458c.48-.21,2-.71,2.11-1.39s-.71-.88-1.22-1c-3.41-1.16-7.38-1.1-10.93-1.58-2.53-.35-6.79-.58-8.53-2.8s1-5.43,2.29-7.16c3.42-4.51,10.95-12,6.59-18.08-3.2-4.46-9.24-4.77-13.45-7.76-1.68-1.19-2.7-2.93-3.89-4.56a24.71,24.71,0,0,0-5.79-5.71A29.78,29.78,0,0,0,71,405.77"/><path class="cls-15" d="M195.29,363.77A273.86,273.86,0,0,1,157,380.58a43.82,43.82,0,0,0,8.57.71c1.57,0,3.14,0,4.69-.09a106.79,106.79,0,0,0,19.94-2.11c6.1-1.32,12.38-3.1,18.69-3.1a29.94,29.94,0,0,1,3.66.21c3.68.45,6.84,1.95,10.17,3.49a17.41,17.41,0,0,0,7.22,2.06,11.72,11.72,0,0,0,6.83-2.49.86.86,0,0,1,.5-.17c.82,0,1.51,1.18.76,1.8l-.33.27c-2.35,9.08-6.26,17.53-3.6,27,1.79,6.41,5.65,12.07,3.83,18.89-1.07,4-3.9,8.07-3.86,12.27,0,3.15,2.7,5,4.15,7.53a18.49,18.49,0,0,1,2,8.27,18.71,18.71,0,0,0,2.81,9.64c1.31-1.82,2.59-3.65,3.82-5.52a.81.81,0,0,0-.24-.6c-2-1.73-4.45-3.45-5.34-6.1-1.07-3.18.33-6.68,1.57-9.59,3.33-7.76,9.18-16.07,7.49-24.94-.7-3.67-2.67-6.86-4.27-10.17a23.73,23.73,0,0,1-2.61-11.66c.26-4.7,1.94-9.22,3.91-13.45.93-2,2-3.92,2.93-5.88a13.93,13.93,0,0,0,1.48-3.65c.22-1.34-.64-1.71-1.72-1.71a13.7,13.7,0,0,0-2.83.46c-4.74,1.06-9.38,2.49-14.16,3.37a64.05,64.05,0,0,1-11.71,1.18c-1.5,0-3-.07-4.48-.21a53.82,53.82,0,0,1-12.57-2.94c-3-1-5.88-2.15-8.9-3-1.06-.3-2.14-.54-3.21-.84-.48-.14-1.29-.29-1.62-.72-.86-1.11,1.8-2.85,2.45-3.37s1.47-1.15,2.22-1.71M184,343c-9.87,11.74-18.33,24.89-30.13,34.81a1.46,1.46,0,0,1-1,.37h-.16l.06.18c8.09-2.76,16-5.93,23.75-9.3-2.81-.66-2.08-4.24-1.4-6.46,1.41-4.57,3.77-8.85,5.86-13.13,1-2.14,2-4.29,3-6.46m1.62-3.91c-2.94,3.5-6,6.85-9.24,10.12a166.41,166.41,0,0,1-15.6,14.68c-2,1.56-4.45,3.49-7,3.49a4.93,4.93,0,0,1-2.5-.69,24,24,0,0,1-3.76-3.07l-2.94-2.67c1.53,3,3.28,5.92,4.74,9q1.35,2.85,2.5,5.81c12.26-11,22.41-23.74,33.46-35.85l.33-.81"/><path class="cls-15" d="M309.17,441.37a62.6,62.6,0,0,0-11.24,4,84.24,84.24,0,0,0-18.83,11.08c-7.73,6.16-14.56,13.35-22.25,19.57a81,81,0,0,1-12.5,8.62c-2.12,1.13-5,2.68-7.58,2.68a5.76,5.76,0,0,1-1.18-.11,2.81,2.81,0,0,1-2.31-2.91,24.52,24.52,0,0,0-1.67,3.75c-2.21,6.4,1.39,10.88,6.34,14.66a1.41,1.41,0,0,1,.48.7h0l.57-.75a.42.42,0,0,1,0-.64q19-17.46,37.94-35.09a219.65,219.65,0,0,1,29-23.44c1.08-.71,2.17-1.41,3.28-2.11"/><path class="cls-15" d="M302.64,382.86c0,.7,0,1.41-.05,2.11-.47,8.67-3.19,17-6.59,24.87,4.41-2.4,9-5.5,9.84-10.73s-1.43-11.29-3.2-16.25"/><path class="cls-15" d="M292.05,331.55c0,.09-.06.18-.09.25a34.65,34.65,0,0,0-2,8.09,30.92,30.92,0,0,0,2.16,17.29,38,38,0,0,0,2.36,4.23c-2.41-7-4.22-14.23-4.32-21.82a.26.26,0,0,1,.27-.24.2.2,0,0,1,.21.18c1.14,8.05,3.77,15.52,6.73,22.87-.69-4.83-1.18-9.7-1.79-14.55-.71-5.66-1.45-11.18-3.56-16.3"/><path class="cls-15" d="M320,428.26a26.17,26.17,0,0,0-2.62.14,1.47,1.47,0,0,1-1.45,1,1.3,1.3,0,0,1-1.16-.6l-.95.17a4.9,4.9,0,0,1,1.71,1.76c1.13,2,1,4.25.81,6.43,1.7-.94,3.44-1.84,5.19-2.68a27.49,27.49,0,0,0,5-4.34c-1.56-1.36-3.91-1.84-6.52-1.84m-17.56-15.05a7.17,7.17,0,0,1,2.45,2.88c1.21,2.84-.6,6-2.27,8.19a37.68,37.68,0,0,1-9.07,8.42,137.67,137.67,0,0,1,17.65-6c.92-.22,2-.47,3.19-.69-.15-3.06,0-6.44-2.15-8.61-2.58-2.63-6.13-3.74-9.8-4.23"/><path class="cls-16" d="M238.31,76.82v0c.32.89.69,1.76,1.09,2.62,3.51-.44,7-.88,10.53-1.49-3.8-.8-7.74-.69-11.63-1.15m-4.22-6.26a7.3,7.3,0,0,1,1,1.93c.8,2.46-2,5.82-4.55,8.44A49.48,49.48,0,0,0,237,76.5a1,1,0,0,1,.34-.17.82.82,0,0,1-.07-.62l1-4.22c-1.42-.22-2.8-.61-4.2-.93"/><path class="cls-16" d="M240.55,95l-.06,0c-1.46,1-3,2-4.43,3.06,1.62-.45,3.24-.88,4.83-1.4l.22,0a.83.83,0,0,1,.74.58,6.06,6.06,0,0,1,.23.63c2-.53,4-1.07,6-1.8A19.94,19.94,0,0,0,240.55,95"/><path class="cls-16" d="M154.15,143.17a63.62,63.62,0,0,0-13.65,23.51c4.67-7.3,10.15-13.77,15.67-20.67a7.33,7.33,0,0,1-2-2.84"/><path class="cls-16" d="M213.17,76.2a69.54,69.54,0,0,0-20.25,13.91c-4.4,4.36-8,9.41-12,14a1.12,1.12,0,0,1,0,.57c-2.61,8.76.61,19.6,4.45,27.68q5.1-4.28,10.12-8.63c6.53-5.67,12.72-11.84,19.46-17.26l-.08-.21a.89.89,0,0,1,.07-.8c-.54-2.79-1.06-5.59-1.49-8.4A.93.93,0,0,1,214,96c2.37-.91,4.8-1.64,7.24-2.33-2.51-.26-5-.42-7.56-.62-.33,0-.74-.23-.79-.6a52.39,52.39,0,0,1,.28-16.26"/><path class="cls-4" d="M252.58,172.53a13.11,13.11,0,0,0-4.86,1.24,80.94,80.94,0,0,0-8.29,4.49c1.58,4.56,3.89,8.27,8.65,8.27a11.73,11.73,0,0,0,2.85-.38,26.61,26.61,0,0,0,6.79-3c1.89-1.09,1.94-1.32,1.32-3.38-.75-2.51-1.72-5.77-4.38-6.89a3.21,3.21,0,0,1,.93,2.56,14.5,14.5,0,0,1-2.83,7.49,6.64,6.64,0,0,1-4.6,2.65,2.61,2.61,0,0,1-1.62-.52c-1.86-1.4-.67-4.34.16-6a13.56,13.56,0,0,1,4.62-5.51.83.83,0,0,1,.12-.16,3.22,3.22,0,0,1,1.36-.92h-.22"/><path class="cls-4" d="M213.64,157.72a1.27,1.27,0,0,1,.52-.31,8.4,8.4,0,0,1,2.26-.4,2.11,2.11,0,0,1,2.24,1.37c.47,1.33-.6,2.81-1.38,3.79A18,18,0,0,1,207.9,168a5.78,5.78,0,0,1-1.07.09c-2,0-4.66-.85-4.22-3.14s3.37-3.78,5.14-4.76a21.23,21.23,0,0,1,5.89-2.51M202,151.55c-1.87,5.64-3.17,15.59,2.12,19.34,3.26,2.31,8.36,1.82,12.33,2.06a53.35,53.35,0,0,0,3.63-13.06.86.86,0,0,1,.12-.34c-3.09-6.18-11.3-7.08-18.2-8"/><path class="cls-17" d="M215.52,134.56a47.47,47.47,0,0,1-4.42,4.32c4.57,3.65,8.47,8,12.66,12.09,1.66,1.61,6.13,6.78,8.41,6.78h.18c1.1-.15,3.48-2.15,5.22-3.54-8-5.47-16-12.11-22-19.64"/><path class="cls-17" d="M251,159.33c-.43,1.21-.88,2.4-1.36,3.58a84,84,0,0,1,13.22,1.65c1.34.29,2.67.61,4,1,.8.23,3.6,1.6,4.48,1.6h.06c1.47-.14,2.54-2.61,3.29-4.38A151.73,151.73,0,0,1,251,159.33"/><path class="cls-18" d="M253.33,174.37h0a1.14,1.14,0,0,1-.34.4,13.43,13.43,0,0,0-4,5.51,9,9,0,0,0-.73,2.52v0a5.45,5.45,0,0,0,.58-.22c2-.8,2.9-3.08,3.65-4.93a14,14,0,0,0,.86-3,.58.58,0,0,0,0-.36"/><path class="cls-18" d="M216.2,159.41c-.42.11-1,.1-1.43.18l-.28,0a1.06,1.06,0,0,1-.31,0,21.87,21.87,0,0,0-4.84,2.34c-.72.42-4.36,2.52-4.44,3.42h0c.07,0,.24.12.36.15a6.7,6.7,0,0,0,1.59.27,2.43,2.43,0,0,0,.38,0,12,12,0,0,0,4.64-2.21,14.06,14.06,0,0,0,3.58-2.93,10.72,10.72,0,0,0,.71-1.17"/><path class="cls-19" d="M215.82,108.73c-11.67,13.52-26.39,24.92-40.14,36.17-6.92,5.66-13.85,11.31-20.67,17.09-5.94,5-12,12.5-19.27,15.59l-.22.08c.49,2.64,1,5.22,1.56,7.75C149,172.07,163.16,161,177.18,150c14.41-11.27,28.56-22.62,41.62-35.44a.71.71,0,0,1,.08-.54,37.52,37.52,0,0,1-3.06-5.33"/><path class="cls-19" d="M223.85,120c14.78,22.13,40.94,28.38,66.64,31.12a34.24,34.24,0,0,1-4.19-8.05,102.89,102.89,0,0,1-41.48-9.13c-7.42-3.35-15-7.94-21-13.94"/><path class="cls-19" d="M221.47,164.61a48.46,48.46,0,0,1-6.53,16.9,91.47,91.47,0,0,1-6.25,9.13c-1,1.25-3.37,3.19-3.2,4.89.13,1.23,2,2.94,3.49,4.17h.07a149.66,149.66,0,0,0,8.41-18.18c1.92-5.2,4.31-11.27,4-16.92"/><path class="cls-20" d="M249.19,156.45a1.43,1.43,0,0,1,2.55.39,227.17,227.17,0,0,0,24.17,4.41.8.8,0,0,1,.68,1.18,61.52,61.52,0,0,0-3.18,6.34.88.88,0,0,1-.76.59.52.52,0,0,1-.21,0,82.16,82.16,0,0,0-23.54-3.72h-1.3a1.42,1.42,0,0,1-1.17-2.1c.72-1.67,1.38-3.35,2-5a1.41,1.41,0,0,1,.76-2m-48.94-5.53a1.06,1.06,0,0,1,.61-1.62,22,22,0,0,1,4.19-.39c7.93,0,16.75,3.94,18.89,11.89,1.61,6-.51,12.56-2.44,18.21a102.66,102.66,0,0,1-10.1,21.31c5.14,1.26,10.33,2.24,15.51,3.37,3-8.65,6.76-17,10.16-25.51a1.21,1.21,0,0,1,.4-1.75c4.31-2.61,9.39-6.86,14.77-6.86a10,10,0,0,1,1.44.1c6,.9,7.48,7.38,8.3,12.48a1.1,1.1,0,0,1-.49,1.19c-3.92,2.45-8.7,5.2-13.53,5.2a11.5,11.5,0,0,1-2.4-.24c-4.21-.87-6.1-4.08-7.38-7.69-3,8.36-6.78,16.43-9.09,25a1.39,1.39,0,0,1-1.2,1h-.1a107.72,107.72,0,0,1-18.24-4.14h0a.84.84,0,0,1-.47-.15l-.65-.21a1.19,1.19,0,0,1-.85-1,26.8,26.8,0,0,1-4.63-5.69,1.08,1.08,0,0,1,.17-1.27,90.92,90.92,0,0,0,12.63-19.56,48.55,48.55,0,0,1-6.07.52c-3.16,0-6.21-.66-8.53-3.08-5.39-5.64-2.62-14.51-.9-21.15m14-18c-.47-.9.5-1.91,1.4-1.91a1.11,1.11,0,0,1,.87.42c7,8.62,16.73,13.81,24.12,21.83a1.28,1.28,0,0,1-.25,2,24.73,24.73,0,0,0-6.89,5.17,1.11,1.11,0,0,1-.82.33,1.14,1.14,0,0,1-.58-.15c-9.11-5.52-15.27-14.39-23.61-20.85a1.14,1.14,0,0,1,0-1.63c2-1.68,3.94-3.35,5.76-5.19m5-17.25c-12,13.47-26.59,24.58-40.75,35.66-14.34,11.23-28.38,22.7-40.94,35.91a43.75,43.75,0,0,0,4.34,10.9,54.86,54.86,0,0,0,48,27.14c1.25,0,2.51,0,3.78-.11a8.61,8.61,0,0,1-1.19-.94c-3.09-2.84-3.37-7.58-2.26-12a19.62,19.62,0,0,1-8.88,5.71,13.18,13.18,0,0,1-3.29.42c-3.26,0-6.54-1.26-8.06-4.3-2.48-5-.24-11.86,3.31-17.22a30.48,30.48,0,0,1-11.08,2.21,24.92,24.92,0,0,1-3.35-.23c-4.67-.65-10.79-3.68-10.45-9.21.3-4.91,5.13-8.77,8.78-11.4,4.26-3.07,9.41-6.14,14.63-7.26a22,22,0,0,1,.81-3.32,1.31,1.31,0,0,1,1.27-.95,1.33,1.33,0,0,1,1.34,1.67c-1.8,7.74.92,15.34,5.65,21.82a1.74,1.74,0,0,1,.68.9A52.91,52.91,0,0,0,194.75,203h.09a1.27,1.27,0,0,1,1.14.77c.66.4,1.31.77,2,1.12a60.91,60.91,0,0,0,16.82,6,1.28,1.28,0,0,1,1-.47,1.52,1.52,0,0,1,1.35.85,39,39,0,0,0,5.24.38,21.4,21.4,0,0,0,11-2.6c9.06-9.4,20.14-16.71,30-25.25,10.55-9.16,19.55-19.85,27.83-31.07-.74,0-1.49,0-2.24,0-26.19,0-59-11.61-69.63-37.08"/><path class="cls-21" d="M178,108a58.34,58.34,0,0,0-5.65,8.13c6.65,3.11,5.62,12.06,2.9,18.31A28.14,28.14,0,0,1,177.4,139l6.48-5.38A49.29,49.29,0,0,1,178,108"/><path class="cls-2" d="M347.27,430.84a46.1,46.1,0,0,0-13.51,2.36c-11.41,3.54-22,9.89-31.68,16.75-22.35,15.78-40.13,37.11-62.61,52.73a.35.35,0,0,1-.21.07.39.39,0,0,1-.25-.1l-.57.75a1,1,0,0,1,.31,1.39c-4.58,7.89-5.08,16.88.58,23.18-2.9-10.59,6.29-23.13,14.47-28.65,5.81-3.92,12.36-6.16,18.86-8.61,8.27-3.11,15.42-8.13,21.86-14.11,11.65-10.81,21.87-23.55,35.91-31.47a55.67,55.67,0,0,1,27.06-7.51,44,44,0,0,1,10.26,1.19c-5.35-4-11.34-7.34-18.11-7.87-.79-.07-1.58-.1-2.37-.1"/><path class="cls-22" d="M359.36,439.62a53.73,53.73,0,0,0-30.23,9.3c-12.18,8-21.49,19.36-32,29.29A76.81,76.81,0,0,1,282,489.67c-6,3.34-12.57,5.09-18.77,7.94-5.71,2.62-11.2,6-15.19,10.94-4.55,5.65-8.37,14.94-5.69,22.1.31.22.62.43.95.64a1.13,1.13,0,0,1,.32,0l.26,0a27.43,27.43,0,0,0,6.11.67c12.54,0,25.33-8,34.75-15.27,4.91-3.82,9.67-7.77,15.41-10.31,6.41-2.83,13.32-4.11,20-6.26,13.64-4.4,26-13.48,35.57-24a81.37,81.37,0,0,0,11.73-16.51c2.8-5.26,7.66-12.84,2.8-18.19a1.17,1.17,0,0,1-.31-.84,62.82,62.82,0,0,0-10.53-.92"/><path class="cls-6" d="M261.4,75.33s-.07,0,0,0,0,0,.12,0a.32.32,0,0,0,.13,0,.51.51,0,0,0-.2,0M318.9,33C308,36.68,298,42.62,288.34,49c3.74,5.19,7.45,10,8.47,16.54a1.12,1.12,0,0,1-1.07,1.36,1.13,1.13,0,0,1-.93-.51C291.76,62,287.11,58.45,283,55c-4.69,4.43-9.65,8.65-14.12,13.29,5.72,3.6,12.61,8.47,13.76,15.42a1.24,1.24,0,0,1-1.05,1.41,1,1,0,0,1-.54-.19,56.94,56.94,0,0,0-10-5.31c-2.82-1.31-6.64-2.27-9.18-4.06l-.05,0c-.2.32-.39.66-.47.83a48.15,48.15,0,0,1-3,4.83c-2.72,4.57-5.6,9.51-7,14.68a109.79,109.79,0,0,1,20.15,5h0a1.08,1.08,0,0,1-.37,2.12H271c-7-1.06-14.13-.77-21.11-1.58h-.23a2.53,2.53,0,0,0-.67.09l-.13,0,0,.15c-.09,1.35-.41,2.73-.59,4.08-1.1,8.63-2.15,18.26-.06,26.87a94,94,0,0,0,11.56,4c4.63-4.37,10.06-7.7,15-11.77a134.41,134.41,0,0,0,15-14.89,58,58,0,0,0-9.45-2.24,1,1,0,0,1,0-1.87,85.48,85.48,0,0,1,11.19-1c.35,0,1.46-.09,2.26-.09a5.48,5.48,0,0,1,.64,0c.17-.38.75-1.15.92-1.44a98.57,98.57,0,0,0,5-9.07c.13-.29.27-.55.4-.8a.87.87,0,0,1,.41-.78c.64-1.28.82-2.07-1-2.81-2.75-1.14-6.3-1.34-9.22-1.78-1-.14-.87-1.64,0-1.86a49.17,49.17,0,0,1,8.21-1.14c1-.07,2-.19,3-.19h.23a4.36,4.36,0,0,0,.74-.09,6,6,0,0,1,.68-.08c.12,0,.18,0,.15.09,1.15-1.14,2.14-3.56,2.88-4.82s1.74-2.21,1-3.21c-.33-.42-1.67-.54-3.18-.54-1.95,0-4.2.2-5,.2h0a1,1,0,0,1-.49-1.83c3.42-2.24,7.3-2.23,10.87-3.81l.11,0a9.11,9.11,0,0,0,.29-1c.45-1.68,1.16-3.34,1.73-5C315.6,54.53,318.59,44,318.9,33"/><path class="cls-10" d="M169.63,118.1a11.62,11.62,0,0,0-2,.22c-4.83,1-8.66,5.84-10.12,10.28a24.39,24.39,0,0,0-1.13,11.4c.57,3.35,2.33,4.65,4.65,4.65a11.09,11.09,0,0,0,4.43-1.14.85.85,0,0,1,.33-.07.67.67,0,0,1,.35,1.23,11.29,11.29,0,0,1-6.46,2.56,5.86,5.86,0,0,1-1.78-.27c-6,8.08-12.4,15.58-17.71,24.09,4.81-4,9.24-8.69,13.89-12.69,6.78-5.82,13.72-11.46,20.61-17.15l1.34-1.1c-.43-1.45-.87-2.88-1.37-4.31a19.45,19.45,0,0,1-1.27,2.19.27.27,0,0,1-.24.14.29.29,0,0,1-.26-.44,19.74,19.74,0,0,0,1.3-3.2c-.05-.11-.09-.22-.13-.33a.43.43,0,0,1,.4-.57c1.78-6.31,2.09-15.49-4.83-15.49"/><path class="cls-10" d="M133.5,178.93c-1.78,1.68-3.57,3.34-5.22,5.18-1.81,2-3.38,4.5-5.23,6.55.4,4.68-1,9.78,3.93,12.71a9.17,9.17,0,0,0,4.74,1.25,19.39,19.39,0,0,0,8.86-2.7c-4.59-7-7.56-15-7.08-23"/><path class="cls-23" d="M63.81,147.61a99.69,99.69,0,0,0-18.3,21.59A64.23,64.23,0,0,0,38.86,182a16.1,16.1,0,0,0-.81,3.39c9-3.18,17.24-11.15,23.82-17.63,2.34-2.3,4.64-4.71,6.81-7.25a70.13,70.13,0,0,1-4.87-12.86"/><path class="cls-24" d="M179.16,193.37c-.32.34-.64.7-.95,1.07l.2-.12,1-.63-.24-.32m1.75-3.17.68.9a1.74,1.74,0,0,0-.68-.9M171.84,171c-5.22,1.12-10.37,4.19-14.63,7.26-3.65,2.63-8.48,6.49-8.78,11.4-.34,5.53,5.78,8.56,10.45,9.21a24.92,24.92,0,0,0,3.35.23,30.48,30.48,0,0,0,11.08-2.21,28.35,28.35,0,0,1,4.48-5.33l-.11-.16c-.35.22-.7.43-1.06.63a29.7,29.7,0,0,1-14.56,4.19c-.48,0-1,0-1.44,0-5.24-.33-11.76-3.67-8.2-9.52,3.73-6.13,12.26-11.08,19.19-13.46,0-.74.12-1.47.23-2.2"/><path class="cls-24" d="M194.84,203h-.09c.41.27.82.53,1.23.77a1.27,1.27,0,0,0-1.14-.77m-17.05-11.48a28.35,28.35,0,0,0-4.48,5.33c-3.55,5.36-5.79,12.25-3.31,17.22,1.52,3,4.8,4.3,8.06,4.3a13.18,13.18,0,0,0,3.29-.42,19.62,19.62,0,0,0,8.88-5.71,22.13,22.13,0,0,1,2.75-6.41l-.74-.48c-.35.4-.69.8-1,1.21-2.38,2.82-4.73,5.7-8,7.52a11,11,0,0,1-5.24,1.39c-2.92,0-5.57-1.38-6-4.84-.65-5.3,2.5-11.77,6.22-16.21.31-.37.63-.73.95-1.07-.48-.6-.93-1.21-1.37-1.83"/><path class="cls-24" d="M233.2,211.51a19.35,19.35,0,0,1-1.75.91v0a49.93,49.93,0,0,1-4.9,9.74c-1.29,1.93-4.4,5.9-7.33,5.9a3.16,3.16,0,0,1-1.29-.28c-3.63-1.69-3.24-8.08-2-12.37.13-.45.26-.87.4-1.26-.45-.05-.89-.11-1.34-.18a28.5,28.5,0,0,1-2.61,3.75c-.83,5.14,0,11,4.37,12.92a5.43,5.43,0,0,0,2.2.46c3,0,5.93-2.37,7.78-4.52,3.7-4.32,4.94-9.78,6.5-15.1m-17.45-1.1a1.28,1.28,0,0,0-1,.47c.78.14,1.56.27,2.34.38a1.52,1.52,0,0,0-1.35-.85"/><path class="cls-18" d="M211.1,138.88a47.47,47.47,0,0,0,4.42-4.32c6.08,7.53,14.06,14.17,22,19.64-1.74,1.39-4.12,3.39-5.22,3.54h-.18c-2.28,0-6.75-5.17-8.41-6.78-4.19-4.09-8.09-8.44-12.66-12.09m4.55-7.87c-.9,0-1.87,1-1.4,1.91-1.82,1.84-3.78,3.51-5.76,5.19a1.14,1.14,0,0,0,0,1.63c8.34,6.46,14.5,15.33,23.61,20.85a1.14,1.14,0,0,0,.58.15,1.11,1.11,0,0,0,.82-.33,24.73,24.73,0,0,1,6.89-5.17,1.28,1.28,0,0,0,.25-2c-7.39-8-17.15-13.21-24.12-21.83a1.11,1.11,0,0,0-.87-.42"/><path class="cls-18" d="M249.68,162.91c.48-1.18.93-2.37,1.36-3.58a151.73,151.73,0,0,0,23.68,3.45c-.75,1.77-1.82,4.24-3.29,4.38h-.06c-.88,0-3.68-1.37-4.48-1.6-1.32-.39-2.65-.71-4-1a84,84,0,0,0-13.22-1.65m.68-7.08a1.36,1.36,0,0,0-1.17.62,1.41,1.41,0,0,0-.76,2c-.62,1.7-1.28,3.38-2,5a1.42,1.42,0,0,0,1.17,2.1h1.3a82.16,82.16,0,0,1,23.54,3.72.52.52,0,0,0,.21,0,.88.88,0,0,0,.76-.59,61.52,61.52,0,0,1,3.18-6.34.8.8,0,0,0-.68-1.18,227.17,227.17,0,0,1-24.17-4.41,1.37,1.37,0,0,0-1.38-1"/><path class="cls-18" d="M253.32,174.37h0a.58.58,0,0,1,0,.36,14,14,0,0,1-.86,3c-.75,1.85-1.69,4.13-3.65,4.93a5.45,5.45,0,0,1-.58.22v0a9,9,0,0,1,.73-2.52,13.43,13.43,0,0,1,4-5.51,1.14,1.14,0,0,0,.34-.4m-.52-1.84a3.22,3.22,0,0,0-1.36.92.83.83,0,0,0-.12.16,13.56,13.56,0,0,0-4.62,5.51c-.83,1.64-2,4.58-.16,6a2.61,2.61,0,0,0,1.62.52,6.64,6.64,0,0,0,4.6-2.65,14.5,14.5,0,0,0,2.83-7.49,3.21,3.21,0,0,0-.93-2.56l-.34-.13a5.63,5.63,0,0,0-1.52-.26"/><path class="cls-18" d="M214.49,159.62l.28,0c.38-.08,1-.07,1.43-.18a10.72,10.72,0,0,1-.71,1.17,14.06,14.06,0,0,1-3.58,2.93,12,12,0,0,1-4.64,2.21,2.43,2.43,0,0,1-.38,0,6.7,6.7,0,0,1-1.59-.27c-.12,0-.29-.15-.36-.15h0c.08-.9,3.72-3,4.44-3.42a21.87,21.87,0,0,1,4.84-2.34,1.06,1.06,0,0,0,.31,0m1.93-2.61a8.4,8.4,0,0,0-2.26.4,1.27,1.27,0,0,0-.52.31,21.23,21.23,0,0,0-5.89,2.51c-1.77,1-4.71,2.55-5.14,4.76s2.21,3.14,4.22,3.14a5.78,5.78,0,0,0,1.07-.09,18,18,0,0,0,9.38-5.87c.78-1,1.85-2.46,1.38-3.79a2.11,2.11,0,0,0-2.24-1.37"/><path class="cls-25" d="M219.68,115.16l-.45.51c10.68,25.47,43.44,37.08,69.63,37.08.75,0,1.5,0,2.24,0l.31-.41c-.32-.39-.63-.78-.92-1.19-25.7-2.74-51.86-9-66.64-31.12a43.47,43.47,0,0,1-4.17-4.84m-.8-1.1a.71.71,0,0,0-.08.54l.28-.27-.2-.27"/><path class="cls-25" d="M219.08,114.33l-.28.27c-13.06,12.82-27.21,24.17-41.62,35.44-14,11-28.22,22-40.1,35.37.14.61.3,1.22.46,1.83,12.56-13.21,26.6-24.68,40.94-35.91,14.16-11.08,28.74-22.19,40.75-35.66l.45-.51c-.21-.27-.41-.55-.6-.83"/><path class="cls-26" d="M174.19,134.49a19.74,19.74,0,0,1-1.3,3.2.29.29,0,0,0,.26.44.27.27,0,0,0,.24-.14,19.45,19.45,0,0,0,1.27-2.19c-.15-.43-.31-.87-.47-1.31M169,115.38c-5.5,0-11.12,5.32-13.26,9.8s-3.41,10.47-2.33,15.5l.42-.41a1.06,1.06,0,0,1,.75-.32,1.14,1.14,0,0,1,.83,1.91c-.41.43-.82.87-1.22,1.31a7.33,7.33,0,0,0,2,2.84l1-1.29a.75.75,0,0,1,.6-.3c.67,0,1.37.81.9,1.45l-.8,1.09a5.86,5.86,0,0,0,1.78.27,11.29,11.29,0,0,0,6.46-2.56.67.67,0,0,0-.35-1.23.85.85,0,0,0-.33.07,11.09,11.09,0,0,1-4.43,1.14c-2.32,0-4.08-1.3-4.65-4.65a24.39,24.39,0,0,1,1.13-11.4c1.46-4.44,5.29-9.28,10.12-10.28a11.62,11.62,0,0,1,2-.22c6.92,0,6.61,9.18,4.83,15.49h0a.44.44,0,0,1,.39.21l.39.67c2.72-6.25,3.75-15.2-2.9-18.31l-.26.45a.94.94,0,0,1-.83.51,1.06,1.06,0,0,1-1-1.55l0-.06a7.58,7.58,0,0,0-1.42-.13"/><path class="cls-18" d="M179,103.34a1.06,1.06,0,0,0-.24.19,53.21,53.21,0,0,0-8.41,12l0,.06a1.06,1.06,0,0,0,1,1.55.94.94,0,0,0,.83-.51l.26-.45A58.34,58.34,0,0,1,178,108a49.29,49.29,0,0,0,5.84,25.57l1.42-1.19c-3.84-8.08-7.06-18.92-4.45-27.68a1.12,1.12,0,0,0,0-.57c-.54.61-1.08,1.21-1.63,1.8a.72.72,0,0,1-.55.25.84.84,0,0,1-.76-1.25c.36-.54.72-1.09,1.09-1.62"/><path class="cls-18" d="M174.51,133.59h0a.43.43,0,0,0-.4.57c0,.11.08.22.13.33.16.44.32.88.47,1.31.5,1.43.94,2.86,1.37,4.31L177.4,139a28.14,28.14,0,0,0-2.11-4.51l-.39-.67a.44.44,0,0,0-.39-.21"/><path class="cls-27" d="M270.72,72.05c0,.39-.07.78-.11,1.17a32.78,32.78,0,0,1-.44,3.41l1.26.54a21.51,21.51,0,0,0,.44-4.31c-.38-.28-.77-.55-1.15-.81"/><path class="cls-28" d="M239.43,81.23l-.69.1a.59.59,0,0,0,.23,0,.87.87,0,0,0,.46-.15M219.08,56.55a.75.75,0,0,0-.68.49,123.46,123.46,0,0,0-4.88,17.17l.2,0c.84,0,1.05,1.34.16,1.71l-.71.31a52.39,52.39,0,0,0-.28,16.26c.05.37.46.57.79.6,2.53.2,5,.36,7.56.62-2.44.69-4.87,1.42-7.24,2.33a.93.93,0,0,0-.62,1.1c.43,2.81,1,5.61,1.49,8.4a1.23,1.23,0,0,1,1-.52l.22,0c-.45-2.61-1.28-6.29.06-7.84s8-2.28,10.19-2.88c.86-.24,1-1.73,0-1.88-3-.44-7.22,0-10-.93-3.68-1.28-2.62-7.8-2.3-11.12.72-7.48,2.94-14.73,5.26-21.85,3.41,3.51,7.31,6.48,10.71,10,2.43,2.5,4.37,3.82,2.25,7.43a40.05,40.05,0,0,1-6,7.08.79.79,0,0,0,.47,1.29.61.61,0,0,0,.25-.06,36.6,36.6,0,0,0,3.41-1.6,52.2,52.2,0,0,0,6.79-4.36q.27.69.57,1.38l1.61-.2c-.4-.86-.77-1.73-1.09-2.62v0l-.17,0a1,1,0,0,1-.77-.47,1,1,0,0,0-.34.17,49.48,49.48,0,0,1-6.48,4.43c2.58-2.62,5.35-6,4.55-8.44a7.3,7.3,0,0,0-1-1.93,20.42,20.42,0,0,0-2.07-.39c-.79-.1-.86-1.3-.05-1.3H232l.74.06c-1.33-1.42-2.9-2.72-4.06-3.77-3.07-2.8-6.32-5.37-9.17-8.41a.6.6,0,0,0-.45-.2"/><path class="cls-28" d="M242.17,99.55l-.57.22a.9.9,0,0,0,.57-.22M240.38,95H238.2a38.5,38.5,0,0,0-6,4.33.77.77,0,0,0,.52,1.29.76.76,0,0,0,.21,0c1.16-.36,2.33-.69,3.5-1a1,1,0,0,1,.48-.32c1.7-.52,3.42-.95,5.14-1.39a6.06,6.06,0,0,0-.23-.63.83.83,0,0,0-.74-.58l-.22,0c-1.59.52-3.21,1-4.83,1.4,1.45-1.06,3-2,4.43-3.06l.06,0h-.17"/><path class="cls-28" d="M317.05,123.58l-.45.07a.83.83,0,0,0-.76.86c.41-.3.81-.61,1.21-.93m8.28-.59c-1.57,0-3.15.06-4.72.19a29.2,29.2,0,0,1-2.71,2.38,64.11,64.11,0,0,1,7.43-.59l1.41,0c1.89,0,3.77.09,5.66.26-3.69,4.59-8.18,8.34-12.68,12.13-2.67,2.26-4.48,4.21-8.07,4.21h-.43c-3.57-.15-7.22-1.18-10.75-1.73h-.18a1,1,0,0,0-.6,1.85c2,1.14,4.19,1.83,5.7,3.54-5,1.23-10.08,1.06-15.22,1.38.29.5.58,1,.89,1.47,1.79.14,3.59.23,5.38.23a35.67,35.67,0,0,0,10.88-1.51,1,1,0,0,0,.61-1.49A8.07,8.07,0,0,0,306,143a27.51,27.51,0,0,0,5.42.67,9.81,9.81,0,0,0,6.26-1.92c.83-.66,1.67-1.32,2.51-2a4.24,4.24,0,0,1,3.06-2.6l.11,0a65.29,65.29,0,0,0,11.52-12.24c.43-.63-.17-1.28-.79-1.36a69.69,69.69,0,0,0-8.77-.58"/><path class="cls-28" d="M313.05,128.73c-.63.35-1.26.68-1.9,1-.08.31-.16.62-.25.91s-.17.55-.27.82c0-.48-.06-1-.11-1.42l-1.4.65a29.2,29.2,0,0,0,.36,3.62.64.64,0,0,0,.1.24.69.69,0,0,0,.59.29.81.81,0,0,0,.68-.35,7.1,7.1,0,0,0,.41-.7,14.89,14.89,0,0,0,1-2.37,13.46,13.46,0,0,0,.79-2.69"/><path class="cls-18" d="M213.72,74.18l-.2,0-.1,0c-15.14,5-25.71,16.24-34.39,29.1-.37.53-.73,1.08-1.09,1.62a.84.84,0,0,0,.76,1.25.72.72,0,0,0,.55-.25c.55-.59,1.09-1.19,1.63-1.8,4.06-4.64,7.64-9.69,12-14A69.54,69.54,0,0,1,213.17,76.2l.71-.31c.89-.37.68-1.71-.16-1.71"/><path class="cls-18" d="M232,68.87c-.81,0-.74,1.2.05,1.3a20.42,20.42,0,0,1,2.07.39c1.4.32,2.78.71,4.2.93.13-.54.25-1.08.38-1.63-2-.19-3.92-.74-5.91-.93l-.74-.06H232"/><path class="cls-18" d="M154.54,140a1.06,1.06,0,0,0-.75.32l-.42.41c-8.67,8.49-17.25,20.81-17.13,33.41l.1-.07a.9.9,0,0,1,.11-.34c1.26-2.44,2.62-4.76,4.05-7a63.62,63.62,0,0,1,13.65-23.51c.4-.44.81-.88,1.22-1.31a1.14,1.14,0,0,0-.83-1.91"/><path class="cls-18" d="M157.8,144.42a.75.75,0,0,0-.6.3l-1,1.29c-5.52,6.9-11,13.37-15.67,20.67-1.43,2.24-2.79,4.56-4.05,7a.9.9,0,0,0-.11.34c1.32-.93,2.6-1.93,3.85-3,5.31-8.51,11.72-16,17.71-24.09l.8-1.09c.47-.64-.23-1.45-.9-1.45"/><path class="cls-26" d="M119.74,191.22a1.13,1.13,0,0,0,.59,1.1,9.17,9.17,0,0,1,.27-1l-.86-.07m14-15c-2.71,1.5-5,4.06-7.11,6.26s-4.57,4.48-6.14,7.06l.74.19a.79.79,0,0,1,.67-.37,1.14,1.14,0,0,1,1.09,1l0,.29c1.85-2,3.42-4.53,5.23-6.55,1.65-1.84,3.44-3.5,5.22-5.18.05-.81.13-1.62.26-2.43a.13.13,0,0,1,0-.06,1.47,1.47,0,0,1,0-.21"/><path class="cls-29" d="M121.93,189.37a.79.79,0,0,0-.67.37l.72.17a.74.74,0,0,1-.17,1.44h0c-.4,0-.8,0-1.19-.06a9.17,9.17,0,0,0-.27,1,13.58,13.58,0,0,0,2.69,11,9.4,9.4,0,0,0,2,1.85,10.87,10.87,0,0,0,6.14,1.8,20.57,20.57,0,0,0,10.48-3.47c-.38-.53-.74-1.07-1.1-1.61a19.39,19.39,0,0,1-8.86,2.7,9.17,9.17,0,0,1-4.74-1.25c-4.91-2.93-3.53-8-3.93-12.71l0-.29a1.14,1.14,0,0,0-1.09-1"/><path class="cls-26" d="M110,52.12c-1.08,1.17-2.24,2.25-3.42,3.31a54.81,54.81,0,0,0-6.29,6.18,74.24,74.24,0,0,0-5.78,8.67h0A112.71,112.71,0,0,0,84.33,92.39a106.75,106.75,0,0,0-3.9,49c.18-.5.36-1,.52-1.5a.69.69,0,0,1,.68-.49.67.67,0,0,1,.69.86l0,.06h.06a1.28,1.28,0,0,1,1.3,1A105.08,105.08,0,0,1,87.91,92.5,109.11,109.11,0,0,1,97.8,71.26a56.29,56.29,0,0,1,7.23-10,73.84,73.84,0,0,0,6-6.58A11.16,11.16,0,0,1,110,52.12m1.81,0c.09.22.19.44.29.64a1.14,1.14,0,0,0-.29-.64"/><path class="cls-29" d="M82.36,140.3H82.3c-.41,1.36-.88,2.7-1.39,4,4,20.67,15.62,44.76,38.83,46.89l.86.07c.39,0,.79.05,1.19.06h0a.74.74,0,0,0,.17-1.44l-.72-.17-.74-.19c-10.69-2.72-19.51-8.07-25.82-17.44-6.14-9.12-9.28-19.87-11-30.62a1.41,1.41,0,0,0-1.35-1.19"/><path class="cls-26" d="M110.35,46.94a.72.72,0,0,0-.73.65s0,.1,0,.15a12,12,0,0,0,.34,4.38A11.16,11.16,0,0,0,111,54.65c1.93,3.38,5.41,5.8,8.35,9.26,3.79,4.45,5.28,13.8,11.73,15.27a6.63,6.63,0,0,0,1.43.17c3.74,0,5.92-3.66,6.07-7.38.31-7.48-6.57-13.23-11.65-17.68l0,0c-.11.3-.22.61-.32.93a.72.72,0,0,1-.71.54.83.83,0,0,1-.46-.14l.09.11c3.87,3.71,8.88,7.86,10.25,13.27a9.65,9.65,0,0,1,.2,3.46c-.28,2.15-1.36,4.07-3.66,4.07l-.52,0c-2.77-.32-4.35-4.07-5.47-6.21C124.58,67,123,63.69,120.25,61c-1.74-1.72-3.63-3.1-5.25-4.61a13.66,13.66,0,0,1-3-3.67c-.1-.2-.2-.42-.29-.64a10.28,10.28,0,0,1-.78-4.52.6.6,0,0,0-.63-.65"/><path class="cls-26" d="M108.21,35.5,106,37.3c0,.34,0,.68,0,1a.92.92,0,0,0,1,1,1,1,0,0,0,1-1c0-.93.11-1.88.23-2.83M137.82,0a13.15,13.15,0,0,0-3.08.36c-7.36,1.9-14,8.14-18.66,13.81-5,6.06-8.93,13.23-9.9,21.06l1.16-.86a.57.57,0,0,1,.35-.12.76.76,0,0,1,.65.43c2.17-13.18,13.41-27.41,25.71-31.74a15.23,15.23,0,0,1,4.19-.79,4.4,4.4,0,0,1,.65.05c.63.09,1,.36,1,.89-.1,1.35-3.69,3.83-4.6,4.75-3.34,3.36-6.47,7.09-6.84,12a16.24,16.24,0,0,1,2,1c4-5,9.73-8.54,15.74-10.66a31.49,31.49,0,0,1,9.7-2c2.75,0,5.23.74,6.45,3l.09.18c2.12,4.49-9.08,4.78-11.62,5.32a33.84,33.84,0,0,0-15.8,7.52.86.86,0,0,0-.16.18c.51.54,1,1.1,1.48,1.68a77.15,77.15,0,0,1,12.79-3.27,56.16,56.16,0,0,1,9.41-1.08,13.48,13.48,0,0,1,7.54,1.82,5,5,0,0,1,2.29,3.89,3.45,3.45,0,0,1-2.34,3.35,11.22,11.22,0,0,1-4.26.66c-1.65,0-3.33-.16-4.76-.17h-1.89c-4.93,0-10,.27-14.06,3.21a26.94,26.94,0,0,1,.83,2.6c6.66.68,14.86,1.28,20.36,5.39a9.66,9.66,0,0,1,3,3.42,5.3,5.3,0,0,1,.47,3.22c-.4,2.32-1.8,3.23-3.52,3.23a7.59,7.59,0,0,1-3.33-.91c-2.71-1.37-5.12-3.21-7.94-4.44a31.39,31.39,0,0,0-12.17-2.84c-4.53,0-8.63,1.48-11.29,5.25a15.79,15.79,0,0,0-2.37,5.45.71.71,0,0,0,.3.8.83.83,0,0,0,.46.14.72.72,0,0,0,.71-.54c.1-.32.21-.63.32-.93,2.18-5.88,6.57-8.05,11.55-8.05a27.21,27.21,0,0,1,10.76,2.63C153,50.54,157.88,55,162.45,55a6.31,6.31,0,0,0,3.79-1.24c5-3.64,1.32-10.84-2.67-13.61-5.2-3.61-12-4.65-18.33-5.31A19.78,19.78,0,0,1,153,33.59c1.16,0,2.33,0,3.5.09s2.34.08,3.5.08a21.81,21.81,0,0,0,6.68-.85c4.41-1.43,5.33-6.57,2.32-10-2.41-2.74-6.44-3.43-10.3-3.43a50,50,0,0,0-5.46.35A78.13,78.13,0,0,0,144,21.38c5.42-2.13,11.2-2.53,17.16-4.44,3.8-1.21,5.23-4.4,2.56-7.77-1.9-2.4-4.89-3.17-8-3.17a29,29,0,0,0-7.3,1.1,39.42,39.42,0,0,0-16.67,9,25.14,25.14,0,0,1,5.15-6.64c1.58-1.6,4.36-3.42,5.2-5.62,1.15-3-1.62-3.82-4.28-3.82"/><path class="cls-26" d="M126.14,19.06a.73.73,0,0,0-.3.07c-.52.24-.75,1.07-.11,1.34,8.25,3.49,11.6,11.29,14.9,19a.73.73,0,0,0,.68.48,1.06,1.06,0,0,0,1-1.19c-.11-.58-.24-1.15-.4-1.74a26.94,26.94,0,0,0-.83-2.6c-.29-.8-.63-1.6-1-2.39a30.08,30.08,0,0,0-3.72-6c-.47-.58-1-1.14-1.48-1.68s-1.09-1.07-1.66-1.56a18.53,18.53,0,0,0-2.74-2,16.24,16.24,0,0,0-2-1,15.82,15.82,0,0,0-2.14-.72l-.17,0"/><path class="cls-26" d="M123.54,36.42a1.15,1.15,0,0,0-1.11.78c-1.63,4.53-4,8.71-8.72,10.49-.36.14-.37.78.06.78h0c5.65-.64,9.24-5.53,10.8-10.67a1.06,1.06,0,0,0-1.08-1.38"/><path class="cls-26" d="M107.69,34.25a.57.57,0,0,0-.35.12l-1.16.86C97.54,41.7,89.37,48.72,83.12,57.62c-7.05,10-12.25,21.6-16.06,33.22-5.76,17.57-8.12,37-3.69,55.08l.73-.54a.68.68,0,0,1,.37-.12c.58,0,1.07.85.54,1.3l-1.2,1.05a70.13,70.13,0,0,0,4.87,12.86L70,158.91c-3.78-10.61-6.24-21.41-6.32-32.77-.08-11.72,2.44-23.46,6.08-34.57a135.71,135.71,0,0,1,14.59-31.2C90.11,51.42,97.81,44,106,37.3l2.21-1.8h0a.62.62,0,0,0,.12-.82.76.76,0,0,0-.65-.43"/><path class="cls-29" d="M35.54,186.1l-.09,0a.7.7,0,0,0,.12,1.36,10.52,10.52,0,0,1,0-1.38m46.09-46.71a.69.69,0,0,0-.68.49c-.16.5-.34,1-.52,1.5a57.45,57.45,0,0,1-7.17,13.25c-1,1.46-2.14,2.89-3.27,4.28l-1.31,1.56c-2.17,2.54-4.47,4.95-6.81,7.25-6.58,6.48-14.79,14.45-23.82,17.63a12.41,12.41,0,0,0-.09,1.71,31.69,31.69,0,0,0,7.39-2.9c6.89-3.69,13.13-9.6,18.35-14.61a70.9,70.9,0,0,0,17.21-25.22c.51-1.32,1-2.66,1.39-4l0-.06a.67.67,0,0,0-.69-.86"/><path class="cls-29" d="M64.47,145.26a.68.68,0,0,0-.37.12l-.73.54c-8.73,6.45-15.4,14.7-21,23.94-2.66,4.35-5.5,9.22-6.54,14.27a12.31,12.31,0,0,0-.24,2,10.52,10.52,0,0,0,0,1.38,21.67,21.67,0,0,0,3,8.6c5.33,9.8,12.13,18.31,20.46,24.5a1.08,1.08,0,0,1,1.14-.92,1.3,1.3,0,0,1,1.35,1.2c0,.51.07,1,.08,1.52a52.55,52.55,0,0,0,20.63,8.1,57.41,57.41,0,0,0,7.88.71h0c.81,0,.75-1.16,0-1.26q-2.3-.28-4.53-.66c-9-1.52-17.29-4.26-24.91-9.81-8.17-6-14.07-13.83-19.15-22.47-2-3.47-3.48-6.49-3.54-9.93a12.41,12.41,0,0,1,.09-1.71,16.1,16.1,0,0,1,.81-3.39,64.23,64.23,0,0,1,6.65-12.76,99.69,99.69,0,0,1,18.3-21.59l1.2-1.05c.53-.45,0-1.3-.54-1.3"/><path class="cls-29" d="M57.62,369.74H57.3c-.08.88-.15,1.75-.2,2.61l1.42,0a1.36,1.36,0,0,0,1.16-1.92c-.15.38-.3.75-.44,1.12a1,1,0,0,1-1,.7,1,1,0,0,1-1-1.23c.1-.43.21-.85.33-1.27m2.53-150.08a1.08,1.08,0,0,0-1.14.92,1.31,1.31,0,0,0,0,.28c.54,7-1.78,14.09-3.4,20.85-1.72,7.13-4.13,14.07-6.4,21-1.46,4.5-4.69,10.64-4,15.51.66,4.54,5,7.6,8.34,10.38-5.31,6.1-13.85,12.58-11.7,21.44,1.19,4.9,4.33,9.07,5.52,14,1.67,6.82.47,14.52-1.33,21.2-1.56,5.82-8.34,14.66-5.48,20.88,2.23,4.83,9.62,6,15.1,6.2a26.45,26.45,0,0,1,.89-2.59,30.85,30.85,0,0,1-7.48-.94c-4.93-1.28-7.43-3.65-6.06-8.83.94-3.52,2.62-6.79,4-10.15a50.34,50.34,0,0,0,2.94-12,37.53,37.53,0,0,0-3.53-22.64c-2.47-5.28-3.55-9.69.06-14.77,2.83-4,6.58-7.27,9.66-11.06a1.23,1.23,0,0,0,0-1.72c-1.76-1.53-3.71-2.92-5.31-4.62-3.13-3.32-3.31-6.29-1.94-10.36,2-5.94,3.87-11.93,5.75-17.9,1.79-5.7,3.22-11.43,4.58-17.24,1.17-5,2.49-10,2.36-15.13,0-.5,0-1-.08-1.52a1.3,1.3,0,0,0-1.35-1.2"/><path class="cls-18" d="M161.33,303.54a97.67,97.67,0,0,0-24.7,5.73c-12.37,4.45-24.29,10.8-35,16.91A144.37,144.37,0,0,0,75.28,345a92.7,92.7,0,0,0-9.75,10.2,41.74,41.74,0,0,0-7.91,14.5c-.12.42-.23.84-.33,1.27a1,1,0,0,0,1,1.23,1,1,0,0,0,1-.7c.14-.37.29-.74.44-1.12,7.76-19.2,28.23-33.15,45.64-42.81,18.65-10.34,37.69-19,58.79-22.31l-2.11.17h-.11c-1.07,0-1.22-1.31-.56-1.93"/><path class="cls-29" d="M166.26,305.13l-1.68.14a1.22,1.22,0,0,0,.71.22,1.55,1.55,0,0,0,1-.36M151,293.33a58.27,58.27,0,0,0-9.73,1.18c-1.74.34-3.41.71-4.93,1.06-17.35,3.92-33.68,12-49.2,20.46a.34.34,0,0,0,.19.64.45.45,0,0,0,.16,0c13.39-6.25,26.7-12.79,41-16.77a92.07,92.07,0,0,1,19.42-3.37c.76-.05,1.52-.08,2.28-.1l1.5,0c5.6,0,10,1.1,11.95,6.64l2.8-.36c-1.72-6.62-6.92-8.91-12.94-9.27-.11.44-.24.91-.39,1.39a1.12,1.12,0,0,1-1.1.83,1.18,1.18,0,0,1-1.19-1.46c.06-.26.12-.53.19-.81"/><path class="cls-29" d="M144.7,283a39.71,39.71,0,0,0-8,1,103,103,0,0,0-19.94,6.72c-.3.14-.14.61.15.61l.1,0a120.37,120.37,0,0,1,18.18-5c1-.16,2-.31,3-.43a38.44,38.44,0,0,1,4.9-.35c.63,0,1.25,0,1.87.07,1.77.12,5.09.54,6.16,2.32.92,1.51.37,3.67-.06,5.4-.07.28-.13.55-.19.81A1.18,1.18,0,0,0,152,295.6a1.12,1.12,0,0,0,1.1-.83c.15-.48.28-.95.39-1.39,1.28-5.18-.19-8.05-3.19-9.39-.1.35-.2.7-.28,1.06a1,1,0,0,1-.94.78,1.16,1.16,0,0,1-1.15-1.36c.06-.39.14-.77.22-1.15a18.2,18.2,0,0,0-3.49-.31"/><path class="cls-29" d="M171.35,242.16a.49.49,0,0,0-.53.42,27,27,0,0,1-2,6.94,42.49,42.49,0,0,1-4.56,7.87c-1.57,2.21-3.28,4.34-5,6.48-4.74,5.93-9.47,11.88-11.09,19.45-.08.38-.16.76-.22,1.15a1.16,1.16,0,0,0,1.15,1.36,1,1,0,0,0,.94-.78c.08-.36.18-.71.28-1.06,1.91-6.66,5.93-12.09,10-17.46l-.78-.57a1.33,1.33,0,0,1,.6-2.4,1.21,1.21,0,0,1,.68.22l1.07.68c4-5.27,7.71-10.63,9.33-17.18a29.67,29.67,0,0,0,.74-4.54.58.58,0,0,0-.63-.58"/><path class="cls-29" d="M160.16,263.56a1.33,1.33,0,0,0-.6,2.4l.78.57c8,5.68,17.64,9.17,26.93,12.05,8.17,2.54,17.65,5.55,26.6,5.55a33.69,33.69,0,0,0,6-.51,1.08,1.08,0,0,0,.39-1.93l-.64,1.29a.79.79,0,0,1-.74.45c-.59,0-1.21-.52-1-1.16l.42-1c-19.42-1.63-39.77-6.36-56.49-16.82l-1.07-.68a1.21,1.21,0,0,0-.68-.22"/><path class="cls-29" d="M230.57,237c.52,14.47-5.13,27.62-10.67,40.68-.5,1.19-1,2.38-1.5,3.57l-.42,1c-.26.64.36,1.16,1,1.16a.79.79,0,0,0,.74-.45l.64-1.29c4.69-9.44,9.34-19.54,11.54-30l-1.08-.22a1.08,1.08,0,0,1,.19-2.11h.09l1.23.1a55.5,55.5,0,0,0,.88-11c0-.41,0-.81,0-1.22l-.87-.06h-.19l-1.49-.15"/><path class="cls-26" d="M316.46,194c-2.46,7.81-5.84,14.31-11.92,20s-13.7,9.85-21.47,12.91a114,114,0,0,1-41.75,7.63q-4.57,0-9.13-.33c1.7.28,1.72,2.93.06,3l.87.06c2.86.2,5.75.3,8.63.3a114.72,114.72,0,0,0,45.34-9.05c13.49-5.82,28-16.33,31.47-31.4.16-.68.3-1.37.41-2.06a8.53,8.53,0,0,1-2.51-1"/><path class="cls-29" d="M197.62,226.81c-.7.2-1.41.38-2.12.54,2.2,2.91,7.24,3.79,10.4,4.76A130.36,130.36,0,0,0,230.57,237l1.49.15h.19c1.66,0,1.64-2.68-.06-3h-.13a141.15,141.15,0,0,1-20.92-3.48c-3-.73-10.07-1.65-13.52-3.93"/><path class="cls-30" d="M133.77,176.44a.13.13,0,0,0,0,.06c-.13.81-.21,1.62-.26,2.43-.48,8,2.49,16,7.08,23,.36.54.72,1.08,1.1,1.61a60.39,60.39,0,0,0,12.59,13c9,6.83,21.08,11.74,32.8,11.74.91,0,1.81,0,2.71-.08a36.68,36.68,0,0,0,5.72-.83c.71-.16,1.42-.34,2.12-.54l.91-.28h-.32a8,8,0,0,1-4.53-1.36c-1.27.07-2.53.11-3.78.11a54.86,54.86,0,0,1-48-27.14,43.75,43.75,0,0,1-4.34-10.9c-.16-.61-.32-1.22-.46-1.83-.6-2.53-1.07-5.11-1.56-7.75a1.65,1.65,0,0,1-.38.05,1.38,1.38,0,0,1-1.37-1.27"/><path class="cls-24" d="M193,205.85a22.13,22.13,0,0,0-2.75,6.41c-1.11,4.39-.83,9.13,2.26,12a8.61,8.61,0,0,0,1.19.94,8,8,0,0,0,4.53,1.36h.32c5-.19,10.3-4.45,13.82-8.78A28.5,28.5,0,0,0,215,214c-.68-.1-1.35-.21-2-.34-.37.44-.75.87-1.13,1.3A32.42,32.42,0,0,1,205,220.9a14.45,14.45,0,0,1-6.92,2.3,4.9,4.9,0,0,1-3.86-1.59c-2.77-3.19-1.51-8.63.31-12.76.25-.55.5-1.09.76-1.59-.77-.43-1.55-.91-2.34-1.41"/><path class="cls-26" d="M338.46,209.66c-10.73,16.42-29.64,28.28-47.89,34.62-13,4.51-26.19,6-39.57,6-6.21,0-12.45-.33-18.72-.85l-1.23-.1H231a1.08,1.08,0,0,0-.19,2.11l1.08.22a114,114,0,0,0,21.06,1.93,118.11,118.11,0,0,0,40.84-7.2c18.32-6.83,37.34-19.09,47.17-36.44a1,1,0,0,0,.11-.27c-.34,0-.68.05-1,.05a11.42,11.42,0,0,1-1.55-.11"/><path class="cls-26" d="M323.2,178.75l-.38.55a1,1,0,0,1-.41.35,1.2,1.2,0,0,0,.79-.9m-15-15c-3.82,0-7.68,2.05-6,6.66,1.19,3.31,4.82,5.07,6.33,8.22,1.37,2.85,1.86,6.09,3.08,9a13,13,0,0,0,4.87,6.34,8.53,8.53,0,0,0,2.51,1,9.34,9.34,0,0,0,2,.21h.26a13.66,13.66,0,0,0,1.94-.21c.63-.12.44-1-.15-1.08-10.3-.45-8.77-11.46-13-18a28.17,28.17,0,0,0-3.2-3.53c-1.45-1.57-4.53-4.36.23-6.15a2.57,2.57,0,0,1,.85-.13,12,12,0,0,1,3,.63c6.06,1.68,7.74,7.32,10.14,12.42a1,1,0,0,0,.9.57l.2,0h-.09a.92.92,0,0,1-.8-1.33q.54-1.14,1.11-2.25c-2.26-5.9-5.55-11-12.35-12.19a11.12,11.12,0,0,0-1.83-.16"/><path class="cls-26" d="M341.73,133.18c-3,0-5.32,2.29-5.73,5.91-.51,4.53,1.83,8.75,2.73,13.06a29.5,29.5,0,0,1,.14,11.16,67.19,67.19,0,0,0-5.29-17.64c-1.47-3.45-4.45-8.7-8.77-8.7a5.61,5.61,0,0,0-1.44.2l-.11,0a4.24,4.24,0,0,0-3.06,2.6c-.91,2.39.19,5.73,1.22,8.09,1.92,4.39,4.45,8.68,5.17,13.48.86,5.8-1.79,10-4.21,14.78q-.57,1.11-1.11,2.25a.92.92,0,0,0,.8,1.33h.09a.78.78,0,0,0,.25-.07,1,1,0,0,0,.41-.35l.38-.55c3.43-5,6.62-9.62,6.24-16-.33-5.63-3.25-10.74-5.58-15.74a12.48,12.48,0,0,1-1.45-3.61,3.4,3.4,0,0,1,.38-2,2.81,2.81,0,0,1,2.54-1.35,4.56,4.56,0,0,1,2.76,1c2.25,1.75,3.42,5.48,4.32,8,2.35,6.67,4.68,13.12,4.43,20.26.87.06,1.73.16,2.58.29a32.44,32.44,0,0,0,2.12-14.54,39.16,39.16,0,0,0-1.89-8.32,24.2,24.2,0,0,1-1.28-6.05,4.59,4.59,0,0,1,1.22-3.23,4.1,4.1,0,0,1,3-1.33,4.28,4.28,0,0,1,2.77,1.06c4.2,3.5,4.39,10.5,4.35,15.51-.05,6.52.1,13.06-1.61,19.4a.5.5,0,0,0,0,.12c.61.28,1.22.58,1.82.89a.72.72,0,0,0,.14-.19,81.28,81.28,0,0,0,6.26-12.3c.82-2.1,1.52-4.23,2.15-6.4.2-.7.62-3,1.17-3.44a1.61,1.61,0,0,1,.81-.3h.11c1.5,0,3.06,2.08,3.36,3.11,2.35,8.09-2.06,18-6.31,24.8.7.6,1.38,1.23,2,1.87a24.61,24.61,0,0,0,5.74-5.29c.74-.94,2.46-4.12,4.27-5.81a3.29,3.29,0,0,1,2.08-1.09,1.51,1.51,0,0,1,.68.16c2.77,1.42-3.28,12-4.45,14.08-4.31,7.65-16.8,24.89-27.86,24.89a9.82,9.82,0,0,1-1.21-.07,11.1,11.1,0,0,1-7.18-4.15.86.86,0,0,0-.65-.3c-.72,0-1.48.83-.95,1.53.17.23.34.45.52.67a12.23,12.23,0,0,0,7.82,4.77,11.42,11.42,0,0,0,1.55.11c.34,0,.68,0,1-.05,11.93-1,25.33-19,29.7-27.33,1.67-3.16,7.62-13,3.54-16.12a3.12,3.12,0,0,0-1.95-.63,6.42,6.42,0,0,0-3.77,1.48,35.17,35.17,0,0,0-5.56,6.43,41.41,41.41,0,0,0,3.21-10c.8-4.37,1.48-10.65-1.87-14.23a4.77,4.77,0,0,0-3.39-1.76c-1.57,0-3,1.14-3.83,3.16-1.27,3-1.82,6.28-3,9.31q-1.12,2.94-2.5,5.74a80,80,0,0,0,.42-17c-.39-5.35-1.73-12-7-14.66a7.38,7.38,0,0,0-3.33-.87"/><path class="cls-26" d="M335,169.25a1.08,1.08,0,0,0-.38.06,1,1,0,0,0,.39,1.91c9.39.76,16.36,5.35,23.46,11.13a1.22,1.22,0,0,0,.77.29,1.12,1.12,0,0,0,.85-1.91l-.46-.46c-.67-.64-1.35-1.27-2-1.87-1-.89-2.11-1.73-3.21-2.51a39.15,39.15,0,0,0-4.48-2.77c-.6-.31-1.21-.61-1.82-.89-.91-.42-1.84-.79-2.78-1.13a32.58,32.58,0,0,0-5.89-1.49c-.85-.13-1.71-.23-2.58-.29-.6,0-1.2-.07-1.81-.07h0"/><path class="cls-26" d="M337.6,184.53l-.19,0c-4.14,1.54-6.46,5.17-7.64,9.26a.72.72,0,0,0,.73.94.76.76,0,0,0,.74-.53c1.28-3.55,3.18-6.78,6.63-8.57a.62.62,0,0,0-.27-1.13"/><path class="cls-18" d="M213.27,299.14c-15.65,0-31.38,1.56-46.8,3.51l-2.8.36-1.67.22a1.14,1.14,0,0,0-.67.31c-.66.62-.51,1.93.56,1.93H162l2.11-.17.47,0,1.68-.14c15.87-1.26,31.76-2.75,47.58-2.75,14.83,0,29.59,1.31,44.21,5.36,11.45,3.17,23.81,8,30.89,18.1a28.94,28.94,0,0,1,3.11,5.71c2.11,5.12,2.85,10.64,3.56,16.3.61,4.85,1.1,9.72,1.79,14.55,1.43,3.56,2.93,7.1,4.38,10.65a1.24,1.24,0,0,0,0-.47c-1.65-10.14-2.53-20.36-3.9-30.53-.87-6.44-2.53-12.42-6.28-17.78-6.78-9.71-18-15-29-18.38-16-5-32.64-6.75-49.35-6.75"/><path class="cls-18" d="M293.64,411.22a1.41,1.41,0,0,0,1.19,2.13,1.32,1.32,0,0,0,.64-.16l.78-.4-1.47,0a1.21,1.21,0,0,1-1.14-1.54m-3.18-71.87a.26.26,0,0,0-.27.24c.1,7.59,1.91,14.78,4.32,21.82s5.54,14.18,8.08,21.3l.05.15c1.77,5,4.1,10.91,3.2,16.25s-5.43,8.33-9.84,10.73l-.87.47q1.2,0,2.43,0c1,0,2,0,2.95.07a18,18,0,0,0,7.09-7.72c1.79-4.21,1-8.88-.12-13.16a131.64,131.64,0,0,0-5.7-16.42c-1.45-3.55-2.95-7.09-4.38-10.65-3-7.35-5.59-14.82-6.73-22.87a.2.2,0,0,0-.21-.18"/><path class="cls-18" d="M317.41,428.4q-1.31.14-2.61.36a1.3,1.3,0,0,0,1.16.6,1.47,1.47,0,0,0,1.45-1m-19.85-18.12q-1.23,0-2.43,0h-.35a1.14,1.14,0,0,0-1.14.9,1.21,1.21,0,0,0,1.14,1.54l1.47,0a60.54,60.54,0,0,1,6.22.42c3.67.49,7.22,1.6,9.8,4.23,2.13,2.17,2,5.55,2.15,8.61.93-.18,1.93-.35,2.94-.47-.11-3.88-.25-7.78-3.33-10.58-3.75-3.4-8.62-4.41-13.52-4.65-1-.05-2-.07-2.95-.07"/><path class="cls-18" d="M321.23,425.32a31.18,31.18,0,0,0-3.87.26c-1,.12-2,.29-2.94.47-1.18.22-2.27.47-3.19.69a137.67,137.67,0,0,0-17.65,6c-3.63,1.4-7.27,2.79-11,3.95a.5.5,0,0,0,.13,1h.13c7.7-1.82,15.13-4.7,22.8-6.67,1.86-.48,4.92-1.38,8.21-2l.95-.17q1.31-.22,2.61-.36a26.17,26.17,0,0,1,2.62-.14c2.61,0,5,.48,6.52,1.84a5.21,5.21,0,0,1,1.25,1.63c1-.4,2.05-.77,3.08-1.12-1.22-4.12-5.3-5.29-9.65-5.29"/><path class="cls-18" d="M346.28,427.72a36.27,36.27,0,0,0-5.7.46,61.73,61.73,0,0,0-9.7,2.43c-1,.35-2.06.72-3.08,1.12-2.11.81-4.19,1.73-6.24,2.71-1.75.84-3.49,1.74-5.19,2.68-2.46,1.35-4.86,2.78-7.2,4.25-1.11.7-2.2,1.4-3.28,2.11a219.65,219.65,0,0,0-29,23.44Q258,484.55,239,502a.42.42,0,0,0,0,.64.39.39,0,0,0,.25.1.35.35,0,0,0,.21-.07C262,487.06,279.73,465.73,302.08,450c9.71-6.86,20.27-13.21,31.68-16.75a46.1,46.1,0,0,1,13.51-2.36c.79,0,1.58,0,2.37.1,6.77.53,12.76,3.86,18.11,7.87.87.2,1.74.44,2.6.7a1,1,0,0,1,1.35-.07,9,9,0,0,1,2,2.1,1.39,1.39,0,0,0,0-2.19c-8.31-6.91-17.05-11.63-27.4-11.63"/><path class="cls-18" d="M357.49,437.62a55.67,55.67,0,0,0-27.06,7.51c-14,7.92-24.26,20.66-35.91,31.47-6.44,6-13.59,11-21.86,14.11-6.5,2.45-13.05,4.69-18.86,8.61-8.18,5.52-17.37,18.06-14.47,28.65a18.25,18.25,0,0,0,3,2.68c-2.68-7.16,1.14-16.45,5.69-22.1,4-4.94,9.48-8.32,15.19-10.94,6.2-2.85,12.78-4.6,18.77-7.94a76.81,76.81,0,0,0,15.15-11.46c10.5-9.93,19.81-21.29,32-29.29a53.73,53.73,0,0,1,30.23-9.3,62.82,62.82,0,0,1,10.53.92,1.51,1.51,0,0,1,.46-1c-.86-.26-1.73-.5-2.6-.7a44,44,0,0,0-10.26-1.19"/><path class="cls-18" d="M238.43,503.39a1.29,1.29,0,0,1-1.07,1.66,1.23,1.23,0,0,1-.66-.22l-.38-.27c-6.14,10.14-5.59,23.56,6.14,29.31a1.45,1.45,0,0,0,.62.15,1.34,1.34,0,0,0,1.08-.57l-.83-.22a1,1,0,0,1,0-1.94c-.33-.21-.64-.42-.95-.64a18.25,18.25,0,0,1-3-2.68c-5.66-6.3-5.16-15.29-.58-23.18a1,1,0,0,0-.31-1.39h0"/><path class="cls-18" d="M371.06,439.21a1.06,1.06,0,0,0-.71.3,1.51,1.51,0,0,0-.46,1,1.17,1.17,0,0,0,.31.84c4.86,5.35,0,12.93-2.8,18.19a81.37,81.37,0,0,1-11.73,16.51c-9.56,10.54-21.93,19.62-35.57,24-6.64,2.15-13.55,3.43-20,6.26-5.74,2.54-10.5,6.49-15.41,10.31-9.42,7.31-22.21,15.27-34.75,15.27a27.43,27.43,0,0,1-6.11-.67l-.26,0a1.13,1.13,0,0,0-.32,0,1,1,0,0,0,0,1.94l.83.22a27.78,27.78,0,0,0,6.94.86c11.74,0,23.52-6.8,32.69-13.4,7.19-5.17,13.37-10.68,21.91-13.6,8.13-2.77,16.5-4.29,24.26-8.11a94,94,0,0,0,34.56-29.48c4.28-6,14.54-20.3,9.19-28.18a9,9,0,0,0-2-2.1,1.07,1.07,0,0,0-.64-.23"/><path class="cls-18" d="M255.63,442.57a.78.78,0,0,0-.78.61,62.82,62.82,0,0,1-7.95,16.11c-1.23,1.87-2.51,3.7-3.82,5.52.25.42.54.86.84,1.3.5.72-.16,1.34-.84,1.34a1,1,0,0,1-.62-.21c-.25-.2-.48-.4-.71-.61-3.44,4.71-7,9.38-10,14.35-2.26,3.71-4.5,8-3.9,12.51.67,5,4.58,8.37,8.48,11.07l.38.27a1.23,1.23,0,0,0,.66.22,1.29,1.29,0,0,0,1.07-1.66,1.41,1.41,0,0,0-.48-.7c-4.95-3.78-8.55-8.26-6.34-14.66a24.52,24.52,0,0,1,1.67-3.75c1.93-3.58,4.59-6.89,6.81-10.16,6.55-9.61,13.89-18.88,16.41-30.49a.86.86,0,0,0-.87-1.06"/><path class="cls-18" d="M237.73,381.16a17.09,17.09,0,0,1-3,1.93c-2.89,7.19-5.27,15-4.1,22.71.71,4.68,3,8.74,4.23,13.25,1.17,4.12.31,7.3-1.15,11.2-1.23,3.3-3,6.9-2.51,10.54.37,2.63,2.16,4.15,3.61,6.21,4.46,6.33,1,14.13,6.9,19.63.23.21.46.41.71.61a1,1,0,0,0,.62.21c.68,0,1.34-.62.84-1.34-.3-.44-.59-.88-.84-1.3a18.71,18.71,0,0,1-2.81-9.64,18.49,18.49,0,0,0-2-8.27c-1.45-2.56-4.12-4.38-4.15-7.53,0-4.2,2.79-8.29,3.86-12.27,1.82-6.82-2-12.48-3.83-18.89-2.66-9.52,1.25-18,3.6-27"/><path class="cls-18" d="M208.92,376c-6.31,0-12.59,1.78-18.69,3.1a106.79,106.79,0,0,1-19.94,2.11c-1.55.05-3.12.09-4.69.09a43.82,43.82,0,0,1-8.57-.71l-3.11,1,.21.65c3.43,2,8.89,1.87,12.34,2,1.28,0,2.58,0,3.89,0a95.62,95.62,0,0,0,17.6-1.45c6.86-1.29,13.92-3.53,20.87-3.53a24.73,24.73,0,0,1,9.95,1.93c4,1.73,7.4,3.15,10.75,3.15a11.37,11.37,0,0,0,5.24-1.29,17.09,17.09,0,0,0,3-1.93l.33-.27c.75-.62.06-1.8-.76-1.8a.86.86,0,0,0-.5.17,11.72,11.72,0,0,1-6.83,2.49,17.41,17.41,0,0,1-7.22-2.06c-3.33-1.54-6.49-3-10.17-3.49a29.94,29.94,0,0,0-3.66-.21"/><path class="cls-18" d="M187.09,338.12a.45.45,0,0,0-.33.16c-.5.53-1,1.07-1.49,1.61-11.05,12.11-21.2,24.87-33.46,35.85.32.8.62,1.61.92,2.42h.16a1.46,1.46,0,0,0,1-.37c11.8-9.92,20.26-23.07,30.13-34.81q1.71-2,3.48-4a.52.52,0,0,0-.37-.86"/><path class="cls-18" d="M216.06,351.4l-.12,0c-13.28,5.66-26.21,11.91-39.4,17.61-7.79,3.37-15.66,6.54-23.75,9.3.4,1.08.77,2.18,1.13,3.28l3.11-1a273.86,273.86,0,0,0,38.26-16.81c7.13-3.76,14.12-7.75,20.93-11.87a.27.27,0,0,0-.16-.5"/><path class="cls-18" d="M57,369.41a.4.4,0,0,0-.38.24l0,.1a26.45,26.45,0,0,0-.89,2.59c-2.41,8.5-.33,17.34,4.29,24.91s11.6,15.39,19.22,20.28l.25-.36a.9.9,0,0,1,.73-.39.82.82,0,0,1,.8,1c0,.24-.09.48-.14.72l.15.08a1.17,1.17,0,0,0,.6.17,1.22,1.22,0,0,0,.83-2c-3.54-4-7.6-7.35-11.4-11a53.46,53.46,0,0,1-7.73-8.85c-5.13-7.64-6.65-15.69-6.18-24.56,0-.86.12-1.73.2-2.61h0a.29.29,0,0,0-.31-.33"/><path class="cls-18" d="M80.17,416.78a.9.9,0,0,0-.73.39l-.25.36c-2.07,3.13-2.74,7.75-3.4,11.31a82.78,82.78,0,0,0-1.52,16.62c.12,7.78,1.3,18.56,9.18,22.26.3-.62.59-1.28.87-2a1.67,1.67,0,0,1,.49-.65c-7.26-4.21-7.63-15.58-7.53-22.95.11-8.21,1.91-15.7,3.55-23.6,0-.24.09-.48.14-.72a.82.82,0,0,0-.8-1"/><path class="cls-18" d="M82.29,487.09a.85.85,0,0,0-.44.13c-7.28,4.47-15.21,6.86-23.29,9.07-2.54.69-5.09,1.37-7.64,2.08-2,.55-3.93,1.12-5.86,1.72-.58.79-1.17,1.58-1.77,2.35a.48.48,0,0,1-.38.2.66.66,0,0,1-.54-.91l.47-.94a103.25,103.25,0,0,0-18.73,8c-6.41,3.58-13.48,7.9-17,14.58-4.21,7.88.47,15.36,1.33,23.39.78,0,1.44,1.15.72,1.75l-.22.18a1.42,1.42,0,0,0,1,.38,1.2,1.2,0,0,0,1.26-1.28c-.22-8.34-5.53-16.63-.33-24.37,4.39-6.53,12.24-10.53,19-14.07,8.66-4.51,18.25-6.63,27.54-9.41a112,112,0,0,0,16.56-6.32,79.81,79.81,0,0,0,8.76-4.91.87.87,0,0,0-.41-1.59"/><path class="cls-18" d="M86,464.69a2,2,0,0,0-1.17.39,1.67,1.67,0,0,0-.49.65c-.28.71-.57,1.37-.87,2-2,4.14-4.49,6.45-9.42,8-4,1.23-8.18,1.77-12.07,3.37-9.46,3.87-14.74,13-19.12,21.74l-.47.94a.66.66,0,0,0,.54.91.48.48,0,0,0,.38-.2c.6-.77,1.19-1.56,1.77-2.35,3.2-4.39,6.14-9,10.11-12.77,4.31-4,9.45-5.77,15-7.1,7-1.66,14.34-4.18,16.54-11.24a15.19,15.19,0,0,0,.57-2.84,1.22,1.22,0,0,0-.57-1.26,1.55,1.55,0,0,0-.78-.19"/><path class="cls-18" d="M92.07,568.76c-.32.51-.64,1-.94,1.46a1.27,1.27,0,0,1-.85.58l0,.19a1.67,1.67,0,0,0,.44.06c1.13,0,2.23-1.11,1.39-2.27v0m-83.69-22a.86.86,0,0,0-.49.16c-2.57,1.82-4.7,4.13-7.22,6a1.41,1.41,0,0,0-.5,1.88c1.85,3.78,4.8,5.27,8.72,6.37a27.07,27.07,0,0,1,6.36,2.65l.64-.45a1,1,0,0,1,.53-.17,1.11,1.11,0,0,1,.75,1.84h0a48.59,48.59,0,0,1,5.18,4.24c4.68,4.29,8.83,6.78,14.13,6.78a21.65,21.65,0,0,0,5.64-.82c6.76-1.84,15.4-6.85,23.83-9.63a33.43,33.43,0,0,1,10.25-1.92,15.29,15.29,0,0,1,11.9,5.14l.05-.1a1.06,1.06,0,0,1,1-.65,1.1,1.1,0,0,1,.31,0c.29-.46.6-1,.91-1.47a17.87,17.87,0,0,0-13.77-5.89,34.24,34.24,0,0,0-8.87,1.33,122.14,122.14,0,0,0-15.72,6c-3.8,1.64-7.66,3.43-11.49,4.26a19.34,19.34,0,0,1-4.11.47,14,14,0,0,1-9.12-3.3c-3.68-3-6.83-6.75-11.07-9-4.51-2.38-9.92-1.94-13-6.24,1.95-1.86,3.7-3.92,5.75-5.66l.22-.18c.72-.6.06-1.74-.72-1.75h0"/><path class="cls-18" d="M80.64,549.82c-12,0-25.2,3.65-36,8.59-.65.3-.3,1.33.33,1.33a.52.52,0,0,0,.21,0A121.89,121.89,0,0,1,76.5,553l1.44-.11c1.32-.09,2.73-.18,4.15-.18,3.06,0,6.19.4,8.53,2,4.24,2.8,2,8.08-.28,11.95-.31.52-.62,1-.91,1.47a1.42,1.42,0,0,1,1,1.59c-.07.36-.13.73-.19,1.1a1.27,1.27,0,0,0,.85-.58c.3-.46.62-1,.94-1.46,2.47-4,5.11-9.28,2.87-13.63l-.51.56a1.06,1.06,0,0,1-.82.37c-.9,0-1.81-1-1.16-1.9l.87-1.15c-2.77-2.55-7.29-3.06-10.93-3.17H80.64"/><path class="cls-18" d="M138.53,501.78a100.4,100.4,0,0,1-6.27,8,.91.91,0,0,1-.68.35,1.1,1.1,0,0,1-1-.81,109.44,109.44,0,0,1-7.6,10.22C113.44,531,102.42,541.17,93.32,553l-.87,1.15c-.65.87.26,1.9,1.16,1.9a1.06,1.06,0,0,0,.82-.37l.51-.56c11-12.14,23.3-23.36,33.29-36.37a85.25,85.25,0,0,0,10.3-17m5.74-27.15a.76.76,0,0,0-.76.66c-.14,1.12-.31,2.23-.5,3.33a79.91,79.91,0,0,1-10.14,27.06,109.57,109.57,0,0,0,9.8-15.59,70.38,70.38,0,0,0,2.21-14.8.59.59,0,0,0-.6-.66h0"/><path class="cls-18" d="M137.2,347.92a.72.72,0,0,0-.73.9c4.9,13.69,12.26,26.24,16.13,40.33a141.49,141.49,0,0,1,4.83,39.17c0,.62,0,1.23,0,1.85-.54,20.67-5.17,41.55-14.72,59.92a109.57,109.57,0,0,1-9.8,15.59c-.67.89-1.36,1.78-2.07,2.65a1.12,1.12,0,0,0,.78,1.81.91.91,0,0,0,.68-.35,100.4,100.4,0,0,0,6.27-8c14.31-20.29,21.13-45.58,22.06-70.21a146.57,146.57,0,0,0-4.53-42.64q-.87-3.36-1.93-6.66l-.21-.65c-.36-1.1-.73-2.2-1.13-3.28l-.06-.18c-.3-.81-.6-1.62-.92-2.42q-1.16-3-2.5-5.81c-1.46-3.07-3.21-6-4.74-9-.24-.47-.47-.94-.7-1.42-1.87-3.95-3.28-8.08-6.2-11.39a.6.6,0,0,0-.47-.21"/><path class="cls-18" d="M91.18,604a56,56,0,0,0-14.58,2.1A75.47,75.47,0,0,0,68.23,609c-.44.17-.46.95.07.95h.06c1.39-.14,2.77-.32,4.16-.5l.12,0c2.48-.33,5-.71,7.42-1a82.34,82.34,0,0,1,10.77-.85A32.64,32.64,0,0,1,108.31,612c2.92,1.76,9.89,8.08,10.2,12.66l1.85,0c-.67-8.1-7.27-14.4-14.85-17.76a31.75,31.75,0,0,0-5.37-1.82c.09.42.16.84.21,1.28a.8.8,0,0,1-.87.91,1,1,0,0,1-1-.65,11.55,11.55,0,0,0-.9-2.05,40.38,40.38,0,0,0-6.42-.5M16.42,563.19a1,1,0,0,0-.53.17l-.64.45c-8.9,6.75-5.61,21.23.14,28.78,4.75,6.23,10.78,11.26,14.75,18.14a38.45,38.45,0,0,1,4.57,11.64,54.75,54.75,0,0,1,.6,6.89l3.57-.37c-.06-.8-.1-1.62-.14-2.45a33.92,33.92,0,0,0-.4-4.43,43.77,43.77,0,0,0-8.14-17.88C25.7,598,19.31,593.2,15.58,586.52c-3.52-6.3-3.72-16.06,1.59-21.49h0a1.11,1.11,0,0,0-.75-1.84"/><path class="cls-18" d="M89.12,568.07a1.06,1.06,0,0,0-1,.65l-.05.1c-2.88,5.87-1.71,13.63-.11,19.76a27.05,27.05,0,0,0,3.82,8.69c1.82,2.6,4.26,4.56,5.79,7.27a11.55,11.55,0,0,1,.9,2.05,1,1,0,0,0,1,.65.8.8,0,0,0,.87-.91c0-.44-.12-.86-.21-1.28-1.09-4.67-5-7.67-7-12-3-6.45-3.95-14.92-2.88-22l0-.19c.06-.37.12-.74.19-1.1a1.42,1.42,0,0,0-1-1.59,1.1,1.1,0,0,0-.31,0"/><path class="cls-30" d="M214.88,106.52c-6.74,5.42-12.93,11.59-19.46,17.26q-5,4.36-10.12,8.63l-1.42,1.19L177.4,139,176,140.11l-1.34,1.1c-6.89,5.69-13.83,11.33-20.61,17.15-4.65,4-9.08,8.68-13.89,12.69-1.25,1-2.53,2-3.85,3l-.1.07c-.6.42-1.21.83-1.82,1.22a1.3,1.3,0,0,0-.65.92,1.47,1.47,0,0,0,0,.21,1.38,1.38,0,0,0,1.37,1.27,1.65,1.65,0,0,0,.38-.05l.22-.08C143,174.49,149.07,167,155,162c6.82-5.78,13.75-11.43,20.67-17.09,13.75-11.25,28.47-22.65,40.14-36.17-.34-.73-.65-1.46-.94-2.21m2-.71.42.75a1,1,0,0,0-.42-.75"/><path class="cls-30" d="M293.54,151.73a.76.76,0,0,1-.13.35l-.63.88a1.06,1.06,0,0,0,.76-1.23m-5.64-9.82a1.08,1.08,0,0,1-1.12,1.16h-.48a34.24,34.24,0,0,0,4.19,8.05c.29.41.6.8.92,1.19.24-.33.48-.65.71-1a.76.76,0,0,1,.63-.32.86.86,0,0,1,.39.09c-.73-1-1.43-2-2.08-3.06-.31-.48-.6-1-.89-1.47a36.67,36.67,0,0,1-2.24-4.58l0-.08m-1.15-1.16h0a1.82,1.82,0,0,1,.35.06,1.22,1.22,0,0,0-.38-.07"/><path class="cls-30" d="M173.92,166.71a1.31,1.31,0,0,0-1.27.95,22,22,0,0,0-.81,3.32c-.11.73-.19,1.46-.23,2.2,0,.44,0,.89,0,1.34,0,5.89,2.47,11.68,6.1,16.86l.11.16c.44.62.89,1.23,1.37,1.83l.24.32a57.06,57.06,0,0,0,12.84,11.68l.74.48c.79.5,1.57,1,2.34,1.41l.94.52a60.18,60.18,0,0,0,16.67,5.88c.68.13,1.35.24,2,.34.45.07.89.13,1.34.18a40.22,40.22,0,0,0,4.63.28,25.36,25.36,0,0,0,10.52-2,19.35,19.35,0,0,0,1.75-.91,17.32,17.32,0,0,0,3.64-2.9,1,1,0,0,0,.21-.34c-1.06.75-2.12,1.5-3.19,2.24a.62.62,0,0,1-.37.13.77.77,0,0,1-.51-1.27l.32-.33a21.4,21.4,0,0,1-11,2.6,39,39,0,0,1-5.24-.38c-.78-.11-1.56-.24-2.34-.38a60.91,60.91,0,0,1-16.82-6c-.65-.35-1.3-.72-2-1.12-.41-.24-.82-.5-1.23-.77a52.91,52.91,0,0,1-13.16-11.92l-.68-.9c-4.73-6.48-7.45-14.08-5.65-21.82a1.33,1.33,0,0,0-1.34-1.67"/><path class="cls-30" d="M292.75,151a.76.76,0,0,0-.63.32c-.23.33-.47.65-.71,1l-.31.41c-8.28,11.22-17.28,21.91-27.83,31.07-9.83,8.54-20.91,15.85-30,25.25l-.32.33a.77.77,0,0,0,.51,1.27.62.62,0,0,0,.37-.13c1.07-.74,2.13-1.49,3.19-2.24a290.59,290.59,0,0,0,28.82-23.1c10.35-9.59,18.8-20.73,26.91-32.21l.63-.88a.76.76,0,0,0,.13-.35.67.67,0,0,0-.4-.63.86.86,0,0,0-.39-.09"/><path class="cls-30" d="M239.43,178.26a80.94,80.94,0,0,1,8.29-4.49,13.11,13.11,0,0,1,4.86-1.24h.22a5.63,5.63,0,0,1,1.52.26l.34.13c2.66,1.12,3.63,4.38,4.38,6.89.62,2.06.57,2.29-1.32,3.38a26.61,26.61,0,0,1-6.79,3,11.73,11.73,0,0,1-2.85.38c-4.76,0-7.07-3.71-8.65-8.27m12.81-8.69c-5.38,0-10.46,4.25-14.77,6.86a1.21,1.21,0,0,0-.4,1.75c.15-.38.3-.77.46-1.16a.92.92,0,0,1,.89-.6.8.8,0,0,1,.83,1.08c-.34,1-.7,2.08-1.07,3.11,1.28,3.61,3.17,6.82,7.38,7.69a11.5,11.5,0,0,0,2.4.24c4.83,0,9.61-2.75,13.53-5.2a1.1,1.1,0,0,0,.49-1.19c-.82-5.1-2.28-11.58-8.3-12.48a10,10,0,0,0-1.44-.1"/><path class="cls-30" d="M205.05,148.91a22,22,0,0,0-4.19.39,1.06,1.06,0,0,0-.61,1.62c-1.72,6.64-4.49,15.51.9,21.15,2.32,2.42,5.37,3.08,8.53,3.08a48.55,48.55,0,0,0,6.07-.52c.26-.56.5-1.12.73-1.68-4-.24-9.07.25-12.33-2.06-5.29-3.75-4-13.7-2.12-19.34,6.9.92,15.11,1.82,18.2,8a.8.8,0,0,1,.68-.32.94.94,0,0,1,1,.9,34.86,34.86,0,0,1-.44,4.48c.3,5.65-2.09,11.72-4,16.92a149.66,149.66,0,0,1-8.41,18.18h0c.77.21,1.55.41,2.32.6A102.66,102.66,0,0,0,221.5,179c1.93-5.65,4.05-12.22,2.44-18.21-2.14-8-11-11.89-18.89-11.89"/><path class="cls-30" d="M209.08,202.32a.84.84,0,0,0,.47.15h0l-.47-.15m11.83-43.09a.8.8,0,0,0-.68.32.86.86,0,0,0-.12.34A53.35,53.35,0,0,1,216.48,173c-.23.56-.47,1.12-.73,1.68a90.92,90.92,0,0,1-12.63,19.56,1.08,1.08,0,0,0-.17,1.27,26.8,26.8,0,0,0,4.63,5.69,1.24,1.24,0,0,1,1.15-1.48l.25,0c-1.47-1.23-3.36-2.94-3.49-4.17-.17-1.7,2.23-3.64,3.2-4.89a91.47,91.47,0,0,0,6.25-9.13,48.46,48.46,0,0,0,6.53-16.9,34.86,34.86,0,0,0,.44-4.48.94.94,0,0,0-1-.9"/><path class="cls-30" d="M238.42,176.42a.92.92,0,0,0-.89.6c-.16.39-.31.78-.46,1.16-3.4,8.51-7.12,16.86-10.16,25.51-5.18-1.13-10.37-2.11-15.51-3.37-.77-.19-1.55-.39-2.32-.6H209l-.25,0a1.24,1.24,0,0,0-1.15,1.48,1.19,1.19,0,0,0,.85,1l.65.21.47.15a107.72,107.72,0,0,0,18.24,4.14h.1a1.39,1.39,0,0,0,1.2-1c2.31-8.58,6.1-16.65,9.09-25,.37-1,.73-2.07,1.07-3.11a.8.8,0,0,0-.83-1.08"/><path class="cls-27" d="M260.1,20.62a.69.69,0,0,0-.65.42c-2.68,5.55-6.8,10.22-9.32,15.86-3,6.68-5.84,13.41-8.86,20.07a.89.89,0,0,0,.52,1.28A45.75,45.75,0,0,1,250.84,61a44.37,44.37,0,0,0-7.26-.84,18,18,0,0,0-2.3.14.86.86,0,0,0-.81.62c-.49,3-1.12,6-1.8,9-.13.55-.25,1.09-.38,1.63l-1,4.22a.82.82,0,0,0,.07.62,1,1,0,0,0,.77.47l.17,0c3.89.46,7.83.35,11.63,1.15-3.49.61-7,1-10.53,1.49l-1.61.2h0a1,1,0,0,0-.9.91c-.58,4.41-1.54,9.32-.85,13.75a.86.86,0,0,0,.83.64h3.71a19.94,19.94,0,0,1,7.55,1.08c-2,.73-4,1.27-6,1.8-1.72.44-3.44.87-5.14,1.39a1,1,0,0,0-.48.32,1.1,1.1,0,0,0-.21.91c1.51,9.69,2.23,19.74,5.44,29.07l1.5.78c-1.8-7.6-2.8-15.27-3.86-23-.17-1.24-.51-2.6-.56-3.84-.09-2.7-.2-2.29,1.94-3.31.29-.14.59-.27.89-.39l.57-.22c2.27-.84,4.71-1.27,7-2.19a1.12,1.12,0,0,1-.13-.86c.12-.52.25-1,.4-1.56-.24-.12-.47-.22-.71-.32a15.21,15.21,0,0,0-2.71-.83c-.3-.06-.6-.12-.92-.16a5.6,5.6,0,0,0-.91,0l-1.49,0c-.54,0-1.12,0-1.68,0-1.42,0-2.74-.1-3.17-.55-1.61-1.71.65-8.64.62-10.93a5.78,5.78,0,0,1,0-.79l.24,0,.69-.1c1.07-.15,2.16-.24,3.23-.39,3.14-.42,6.31-.81,9.43-1.42.62-.12,1.24-.24,1.85-.38,1-.22.76-1.45,0-1.76l-.83-.31c-4.48-1.57-9.21-1.35-13.91-1.79.5-2.12,1-4.23,1.47-6.36.4-1.79.37-5,1.74-6.34a4.27,4.27,0,0,1,3-.89c3.1,0,7.35,1.46,9.77,1.66h.08c.82,0,.95-1.15.34-1.56-3.76-2.56-8-3.84-12.34-4.89,2.9-6.29,5.62-12.66,8.44-19,2.32-5.23,6.16-9.55,8.65-14.67,4.72,6.82,7.06,15,8.63,23.08.33,1.72,1.26,4.19,1,5.94-.13,1,.63.1-.86,1.18-2.41,1.74-5.3,2.91-7.78,4.56a1,1,0,0,0,.43,1.75,1,1,0,0,0,.29,0c1.66-.49,4.93-2,7-2a2.93,2.93,0,0,1,1,.15c1.52.58,1.13.57.95,2.39-.11,1.12-.26,2.23-.38,3.35l2-1.88A27.4,27.4,0,0,0,273,56.3a1,1,0,0,0-.83-.92H272a36.77,36.77,0,0,0-4,.68c1.16-.65,2.33-1.29,3.5-1.92a.9.9,0,0,0,.46-.81c-1.46-11.19-4.11-23.18-11.12-32.29a1.09,1.09,0,0,0-.82-.42"/><path class="cls-28" d="M261.47,75.4c-.07,0-.11,0-.12,0s0,0,0,0a.51.51,0,0,1,.2,0,.32.32,0,0,1-.13,0m58.27-45a1.23,1.23,0,0,0-.36.06c-11.94,3.87-22.74,10.35-33.15,17.26a1.11,1.11,0,0,0-.4,1.5c2.83,4,5.78,7.67,7.53,12.05-3-3.07-6.46-5.79-9.62-8.48a1.21,1.21,0,0,0-.79-.31,1.06,1.06,0,0,0-.74.31c-3.12,3-6.38,5.85-9.54,8.8l-2,1.88c-1.45,1.39-2.87,2.81-4.24,4.28a1.09,1.09,0,0,0,.22,1.69c1.28.8,2.67,1.66,4.06,2.61.38.26.77.53,1.15.81,3.23,2.33,6.3,5.13,7.84,8.56a65.17,65.17,0,0,0-8.28-4.25l-1.26-.54c-2.82-1.21-5.67-2.31-8.38-3.45a.72.72,0,0,0-.29-.06,1.21,1.21,0,0,0-.94.56c-4.16,6.52-9,13.58-11.1,21.12l0,.14c-.15.52-.28,1-.4,1.56a1.12,1.12,0,0,0,.13.86,1.28,1.28,0,0,0,.92.52c2.39.29,4.75.7,7.08,1.2-1,0-1.94-.08-2.9-.08a36.87,36.87,0,0,0-6.59.55,1.06,1.06,0,0,0-.64.47.74.74,0,0,0-.1.27c-1.66,10-3.1,21.54-.48,31.59.57.26,1.15.52,1.74.77-2.09-8.61-1-18.24.06-26.87.18-1.35.5-2.73.59-4.08l0-.15.13,0a2.53,2.53,0,0,1,.67-.09h.23c7,.81,14.07.52,21.11,1.58h.21a1.08,1.08,0,0,0,.37-2.12h0a109.79,109.79,0,0,0-20.15-5c1.41-5.17,4.29-10.11,7-14.68a48.15,48.15,0,0,0,3-4.83c.08-.17.27-.51.47-.83l.05,0c2.54,1.79,6.36,2.75,9.18,4.06a56.94,56.94,0,0,1,10,5.31,1,1,0,0,0,.54.19,1.24,1.24,0,0,0,1.05-1.41c-1.15-7-8-11.82-13.76-15.42,4.47-4.64,9.43-8.86,14.12-13.29,4.09,3.44,8.74,7,11.79,11.34a1.13,1.13,0,0,0,.93.51,1.12,1.12,0,0,0,1.07-1.36c-1-6.53-4.73-11.35-8.47-16.54C298,42.62,308,36.68,318.9,33l0-1.16a1,1,0,0,1,1-1,1.08,1.08,0,0,1,.7.24,1,1,0,0,0-.92-.66"/><path class="cls-27" d="M301.07,92.79a.87.87,0,0,0-.41.78c.15-.28.29-.54.41-.78M354.46,78a.76.76,0,0,0-.21,0c-3.3.87-6.61,1.69-9.92,2.51-3.51.87-7.63,1.31-10.95,2.73-1.89.8-1.69.84-2.63,3s-2,4.65-3.06,7a30.6,30.6,0,0,0,.41-8.13.86.86,0,0,0-.79-.82.62.62,0,0,0-.23,0c-3.21,1-9.86,1.42-11.62,4.32-1.27,2.1-1.6,5.62-2.29,8-.48,1.65-1,3.3-1.46,4.94.19-3.85.89-7.68,1.2-11.55a.86.86,0,0,0-.85-.85.6.6,0,0,0-.22,0c-2.82,1-5.7,1.84-8.54,2.8a21.34,21.34,0,0,1-.8,2.09c1.9-.66,3.83-1.26,5.74-1.88l2.89-1c-.47,5.13-1.5,10.18-1,15.36a.88.88,0,0,0,.87.81.84.84,0,0,0,.78-.59c1.85-5.35,3.6-10.87,4.93-16.37.07-.3.14-.89.28-1.33h.07a14.8,14.8,0,0,0,1.49-.51c2.7-.69,5.35-1.61,8-2.44.23,4-.77,8-1.18,12a.77.77,0,0,0,.83.79.76.76,0,0,0,.69-.38c1.78-3.44,3.31-7,4.84-10.57a16.86,16.86,0,0,1,1.2-3l.25-.11a8.43,8.43,0,0,1,1.87-.41c6-1.36,12-2.89,18-4.41a136.59,136.59,0,0,1-12,23.79,33.7,33.7,0,0,1-2.88,4.62l-.1.12c-.53,0-1.17-.16-1.59-.2-4.72-.37-9.45-.66-14.14-1.26h-.16c-1.1,0-1,1.66-.12,2A104.37,104.37,0,0,0,332.63,113a45.24,45.24,0,0,1-5.62,3,23.66,23.66,0,0,1-3.36,1.54,4,4,0,0,0-.64.21c-4.47-.36-9.57-2.94-13.93-4a1.07,1.07,0,0,0-.25,0,1.06,1.06,0,0,0-.56,2c3.59,2,6.9,4.45,10.5,6.43-.55.53-1.13,1-1.72,1.51-.4.32-.8.63-1.21.93-5.36,3.89-12,6.15-18.1,8.42-8.37,3.12-16.82,5.61-25.69,6.42,2.52.4,5,.71,7.54,1a110.65,110.65,0,0,0,19.93-5.79c3.16-1.17,6.44-2.38,9.6-3.82l1.4-.65.63-.31c.64-.32,1.27-.65,1.9-1a37.44,37.44,0,0,0,4.85-3.17,29.2,29.2,0,0,0,2.71-2.38c.21-.21.42-.43.62-.65a1,1,0,0,0-.21-1.63,62.81,62.81,0,0,1-5.61-3.29l2.6.75c1.41.41,3.52,1.48,5.11,1.48h.23c1.51-.11,3.37-1.46,4.69-2.1a38.71,38.71,0,0,0,7.59-4.45,1,1,0,0,0-.45-1.71q-2.62-.73-5.2-1.6c2.91.22,5.82.39,8.73.57h.05a1,1,0,0,0,.79-.48c6.22-10.12,11.86-19.71,15.77-31a.88.88,0,0,0-.86-1.11"/><path class="cls-28" d="M320,30.82a1,1,0,0,0-1,1l0,1.16c-.31,11-3.3,21.56-6.84,31.92-.57,1.64-1.28,3.3-1.73,5a9.11,9.11,0,0,1-.29,1l-.11,0c-3.57,1.58-7.45,1.57-10.87,3.81a1,1,0,0,0,.49,1.83h0c.77,0,3-.2,5-.2,1.51,0,2.85.12,3.18.54.77,1-.29,2.06-1,3.21s-1.73,3.68-2.88,4.82c0-.07,0-.09-.15-.09a6,6,0,0,0-.68.08,4.36,4.36,0,0,1-.74.09h-.23c-1,0-2,.12-3,.19a49.17,49.17,0,0,0-8.21,1.14c-.87.22-1,1.72,0,1.86,2.92.44,6.47.64,9.22,1.78,1.79.74,1.61,1.53,1,2.81-.12.24-.26.5-.41.78s-.27.51-.4.8a98.57,98.57,0,0,1-5,9.07c-.17.29-.75,1.06-.92,1.44a5.48,5.48,0,0,0-.64,0c-.8,0-1.91.07-2.26.09a85.48,85.48,0,0,0-11.19,1,1,1,0,0,0,0,1.87,58,58,0,0,1,9.45,2.24,134.41,134.41,0,0,1-15,14.89c-4.9,4.07-10.33,7.4-15,11.77l1.82.49c4.67-3.85,9.82-7.06,14.49-10.91a132.46,132.46,0,0,0,16-16,1.06,1.06,0,0,0,.26-.84.36.36,0,0,0,0-.1,1,1,0,0,0-.67-.7c-1.65-.59-3.29-1.09-4.95-1.51,2.18-.15,4.37-.22,6.55-.35,1.7-.11,1.76-.06,2.84-1.12,2.05-2,3.53-5.94,4.84-8.47.51-1,1.06-2,1.55-3.1a21.34,21.34,0,0,0,.8-2.09,11.2,11.2,0,0,0,.46-2.26,1,1,0,0,0-.69-.91Q300,88,296.89,87.33c1.47-.14,2.95-.22,4.43-.31h1.59a3.8,3.8,0,0,0,1.87-.35c2.47-1.52,5-7.36,5.79-10a1,1,0,0,0-.69-1.21,27.35,27.35,0,0,0-6.23-.83A39.39,39.39,0,0,1,311,72.73a1,1,0,0,0,.69-.69c4.63-13,9.1-26.26,9.32-40.23a1,1,0,0,0-.32-.75,1.08,1.08,0,0,0-.7-.24"/><path class="cls-30" d="M215.88,105a1.23,1.23,0,0,0-1,.52.89.89,0,0,0-.07.8l.08.21c.29.75.6,1.48.94,2.21a37.52,37.52,0,0,0,3.06,5.33l.2.27c.19.28.39.56.6.83a43.47,43.47,0,0,0,4.17,4.84c5.94,6,13.55,10.59,21,13.94a102.89,102.89,0,0,0,41.48,9.13h.48a1.08,1.08,0,0,0,1.12-1.16,1.14,1.14,0,0,0-.77-1.09,1.82,1.82,0,0,0-.35-.06h-.12q-3.5-.13-7.07-.46c-2.5-.24-5-.55-7.54-1-1.5-.24-3-.51-4.51-.81-2-.4-4-.86-6-1.37l-1.82-.49a94,94,0,0,1-11.56-4c-.59-.25-1.17-.51-1.74-.77l-1-.45c-.76-.36-1.52-.73-2.27-1.11l-1.5-.78c-2-1.09-4-2.26-5.9-3.53a57.24,57.24,0,0,1-18.46-19.45l-.42-.75c-.06-.1-.11-.21-.17-.32a1,1,0,0,0-.64-.48l-.22,0"/><path class="cls-31" d="M326.47,638.36c0,.12.1.2.18.2a.23.23,0,0,0,.14-.07s-.15-.08-.32-.13"/><path class="cls-3" d="M85,632.49c-14.66.59-29.3,1.49-43.89,2.94a7.8,7.8,0,0,0,3.84,2.1,33.94,33.94,0,0,0,8.63,1.05c10.4,0,21.22-3.88,31.42-6.09"/><path class="cls-18" d="M111.21,631.72c-8.74.18-17.47.42-26.2.77-10.2,2.21-21,6.09-31.42,6.09A33.94,33.94,0,0,1,45,637.53a7.8,7.8,0,0,1-3.84-2.1c-1.1.1-2.19.22-3.28.33l-.92.1a11,11,0,0,0,6.45,4.95c4.24.33,8.49.59,12.74.81a92.66,92.66,0,0,0,10.23-1.74c8.35-1.82,16.5-4.33,25-5.65,6.61-1,13.27-1.67,19.91-2.51"/><path class="cls-1" d="M208.57,653.35c-.1,0-.1.08-.07.08s.06,0,.07-.08m0-2.47c-.08,0-.09.07.18.2,0-.13-.11-.2-.18-.2M358,648.44c-.12,0-.14.08-.11.21.22-.11.32-.18.17-.21H358M17.74,637a.22.22,0,0,0-.16.1h0l.33.06c-.06-.09-.11-.15-.18-.15"/><path class="cls-2" d="M94.69,625.12c-16.76.51-33.5,1.43-50.11,3.17.53.24,1.06.49,1.57.76,2.5,1.28,4.86,2.88,7.6,3.61a17.93,17.93,0,0,0,4.55.54,38.32,38.32,0,0,0,5.15-.41,153.37,153.37,0,0,0,16-3.3c4.91-1.22,9.84-2.49,14.63-4.15l.61-.22"/><path class="cls-3" d="M118.51,624.65c-7.94.09-15.88.23-23.82.47l-.61.22c-4.79,1.66-9.72,2.93-14.63,4.15a153.37,153.37,0,0,1-16,3.3,38.32,38.32,0,0,1-5.15.41,17.93,17.93,0,0,1-4.55-.54c-2.74-.73-5.1-2.33-7.6-3.61-.51-.27-1-.52-1.57-.76l-2.45.26-3.25.34c.19,2.52.64,4.86,2.24,6.54C55.71,634,70.35,633.08,85,632.49c1.93-.41,3.83-.77,5.71-1,4.09-.57,8.21-1,12.32-1.38,3.79-.37,8.53,0,12.13-1.25,2.56-.88,3.46-2.4,3.34-4.18"/><path class="cls-18" d="M43.37,640.81a25.16,25.16,0,0,0,7.82,1.08c1.63,0,3.29-.11,4.92-.27-4.25-.22-8.5-.48-12.74-.81m-4.49-11.92-3.57.37c.06.83.13,1.65.25,2.47a11.82,11.82,0,0,0,1.36,4.13l.92-.1c1.09-.11,2.18-.23,3.28-.33-1.6-1.68-2-4-2.24-6.54m81.48-4.26-1.85,0c.12,1.78-.78,3.3-3.34,4.18-3.6,1.23-8.34.88-12.13,1.25-4.11.41-8.23.81-12.32,1.38-1.88.26-3.78.62-5.71,1,8.73-.35,17.46-.59,26.2-.77,2.66-.34,5.32-.7,8-1.14a1.12,1.12,0,0,0,.79-.8,17.24,17.24,0,0,0,.38-5.15"/></g></g></svg>