<svg xmlns="http://www.w3.org/2000/svg" viewBox="0 0 432.1 627.62"><defs><style>.cls-1{fill:#90a2b2;}.cls-2{fill:#f7fbff;}.cls-3{fill:#eaf4ff;}.cls-4{fill:#d8e6f2;}.cls-5{fill:#2c6192;}.cls-6{fill:#cddcea;}.cls-7{fill:#bbccdc;}.cls-8{fill:#507aa1;}.cls-9{fill:#346695;}.cls-10{fill:#acc1d4;}.cls-11{fill:#6f92b2;}.cls-12{fill:#5e84a8;}.cls-13{fill:#c3d4e3;}.cls-14{fill:#3e6d99;}.cls-15{fill:#0a4783;}.cls-16{fill:#45729c;}.cls-17{fill:#235b8f;}.cls-18{fill:#20598e;}.cls-19{fill:#eef6ff;}.cls-20{fill:#5880a5;}.cls-21{fill:#d4e2ef;}.cls-22{fill:#c5d5e4;}.cls-23{fill:#cbdae8;}.cls-24{fill:#bacbdc;}.cls-25{fill:#6a8eaf;}.cls-26{fill:#6e90b1;}.cls-27{fill:#7b9bb9;}.cls-28{fill:#5f85a9;}.cls-29{fill:#96b1ca;}.cls-30{fill:#88a6c2;}.cls-31{fill:#4e78a0;}</style></defs><g id="Layer_2" data-name="Layer 2"><g id="Layer_2-2" data-name="Layer 2"><path class="cls-1" d="M18.49,576.44a7.78,7.78,0,0,0-4.5,5.27c-2.47,9.72,7.91,17.24,15.09,21.35,11.3,6.44,24.14,10.16,36.77,12.94a239.53,239.53,0,0,0,46,5.45q3,.07,6,.08c11.68,0,23.47-.87,34.81-3.64,8.45-2.06,19.7-5.5,24-13.9,2.62-5.12,1.33-10-1.52-14.27a30.87,30.87,0,0,1-7.48,5.38c-3.61,1.87-7.43,3.29-11.09,5a90.19,90.19,0,0,0-10.27,6.33c-7.31,4.8-14.89,9.49-23.53,11.43a65.53,65.53,0,0,1-14.2,1.51,67.41,67.41,0,0,1-14.63-1.57c-7.17-1.61-16.21-6.12-15.8-14.33a52.61,52.61,0,0,1-5.66-4.64A52.75,52.75,0,0,1,51,603.53a43.79,43.79,0,0,1-20.76-5c-5.88-3.17-10.82-7.19-12-14.07a20.3,20.3,0,0,1,.25-8"/><path class="cls-1" d="M19.76,569.74a18.66,18.66,0,0,0-5.85,2.39c-10.17,6.42-6.46,19.94.28,27.21,8.53,9.2,21.44,14.24,33.11,18a223.29,223.29,0,0,0,48.14,9.27c7.21.65,14.48,1,21.74,1a181.1,181.1,0,0,0,26.94-1.91c11.42-1.72,24.34-4.72,33.08-12.8,7.77-7.17,8.76-17.75,2.61-26.33-.36-.51-.74-1-1.13-1.5a20.27,20.27,0,0,1-3.54,4.64c2.85,4.24,4.14,9.15,1.52,14.27-4.3,8.4-15.55,11.84-24,13.9-11.34,2.77-23.13,3.64-34.81,3.64q-3,0-6-.08a239.53,239.53,0,0,1-46-5.45c-12.63-2.78-25.47-6.5-36.77-12.94C21.9,599,11.52,591.43,14,581.71a7.78,7.78,0,0,1,4.5-5.27,16.24,16.24,0,0,1,2.4-5.45c-.38-.41-.76-.83-1.13-1.25"/><path class="cls-2" d="M244.07,41.71c-1.28,1.41-8.19,4.06-9.29,4.63l-1.76.93c27.09,4.53,54.15,9.59,81.25,14.15q26.66,4.48,53.27,9.22c6.25,1.13,12.52,2.17,18.77,3.22,2.82.48,6.17.75,8.84,1.47l11.94-10-20.58-3L283.81,47.45q-18-2.61-35.93-5.2c-1.25-.18-2.57-.26-3.81-.54m-1.13-.22c-.06,0,0,0,.19.06a2.23,2.23,0,0,0,.55.07,5.1,5.1,0,0,0-.74-.13"/><path class="cls-3" d="M230.17,51.65a165.92,165.92,0,0,1,19,67.83c1.94,33.29-11.75,62.32-23.38,92.61q-.93,2.43-1.83,4.87c19.56-11.32,45.28-19.36,63.73-26.88,4.28-2,8.83-3.85,13.21-5.64a47.64,47.64,0,0,1-14.2-2.43c-4.67-1.73-8.41-5.15-8.17-10.45.17-3.75,1.95-7.61,3.37-11,.95-2.3,2-4.58,3.11-6.8a4.49,4.49,0,0,1-1.5-2.23,4.89,4.89,0,0,1-.18-1.5c-2.36,0-3.53-3.29-1.84-4.88,12.25-11.53,31.57-21.79,49.25-21.79a42.62,42.62,0,0,1,5.78.39l.87.13c15.05-4.94,29.76-9.93,44.51-16.34,7.53-3,14.33-4.53,21.88-7.19-.25-.72-.51-1.43-.78-2.14A126.08,126.08,0,0,0,397,84.85c-.25-.48-1.93-3.26-2.77-4.69l-.42,0c-1.35-.19-2.77-.49-4.15-.73-31-5.48-62.24-10.62-93.3-16.22-22-4-44.3-7.73-66.18-11.51"/><path class="cls-4" d="M412.09,67.33,398.94,78.4c1,1.54,1.87,3.41,2.67,4.92A112.15,112.15,0,0,1,413,116.26c5.06,28.4-4.92,54.81-14.4,81.14-11.16,31-22.45,63.67-21.28,97.09,1.15,32.71,13.35,63.05,24.41,93.4,4.83,13.24,9.51,26.68,11.88,40.61,2.43,14.31,1.62,28.77-1,43a209.61,209.61,0,0,1-13.51,44.72L401.8,514a66.12,66.12,0,0,0,5.4-4.45c.39-.4.17.17.79-1.28,5.41-12.63,10.47-25.19,13.95-38.54,4.71-18,7.1-36.92,3.77-55.4-3.06-16.94-9.43-33.16-15.39-49.24-6.76-18.21-13.45-36.56-17.32-55.64a167.14,167.14,0,0,1-1.56-57.86c2.92-19.91,8.9-39.21,15.51-58.17,5.77-16.59,12.37-33,16.63-50.1,6.27-25.17,2.61-53.77-11.49-75.94"/><path class="cls-3" d="M393.74,79.31c-.06.07,0,.15.12.23-.08-.14-.13-.22-.12-.23"/><path class="cls-5" d="M313.91,132c-1.12.39-2.23.8-3.33,1.24l3.33-1.24"/><path class="cls-6" d="M288.29,155.4c-2.89,5.11-5.53,10.62-5.9,15.94-.4,5.91,6.05,7.61,10.75,8.51A104.35,104.35,0,0,0,308,181.48c9.88-4.39,17.24-9.1,15.48-16.46-1.6-6.69-12.87-7.14-23.05-7.87a57.18,57.18,0,0,0-5,11.28c2.77,0,5.56-.18,8.34-.32,3.23-.16,6.47-.32,9.69-.32,2.19,0,4.38.07,6.57.27,1.61.15,2.22,2.66.4,3a45.15,45.15,0,0,1-9,.76c-1.77,0-3.55-.06-5.33-.11s-3.56-.11-5.33-.11a49.36,49.36,0,0,0-7.3.46l-.4,0a1.87,1.87,0,0,1-1.89-2.33,32,32,0,0,1,5.18-13,38.89,38.89,0,0,1-8-1.43"/><path class="cls-3" d="M406.55,157.94c-12.86,5.45-41.61,17.37-61.52,27.7a41.27,41.27,0,0,0-4,4.48c-3.79,5-7,10.6-10.33,16,.64.37,1.26.78,1.86,1.21,10,2.6,23.71-1.34,26.71,6.94.91,2.52-3.71,6.71-12,11.89,4.25,7.8,6,16.21,7,25,2.41,20.15,5.56,40,9.9,59.89,1,4.57,3.38,10.49,3,15.18-.31,3.57-5.75,5.95-9.39,7.3-1.61,7.58,1.46,14.08,3.47,21.43,1.58,5.8-.39,10.37-3.46,15a22.64,22.64,0,0,1-.37,3.17,18.22,18.22,0,0,1,3.28-.32c2.43,0,4.67.59,5.87,2.1,2.48-2.71,5.71-5.52,8.59-5.52a4.08,4.08,0,0,1,2.75,1.06c3.13,2.72,1.94,6.58-.43,10.28a11.23,11.23,0,0,1,3.73-.74,5.23,5.23,0,0,1,4.1,1.73q3.87-2,7.73-3.77c-2-5.15-3.94-10.27-5.74-15.34-5.25-14.79-9.74-29.78-12.46-45.26a163.27,163.27,0,0,1-1-48.05c3.76-31.23,16-60.19,25.83-89.79,2.34-7.06,4.87-14.27,6.77-21.59"/><path class="cls-6" d="M337,190c-8.75,5.05-14.12,9.35-12.59,11.74a11.63,11.63,0,0,0,3.14,3.29c3.08-5,6-10.23,9.45-15"/><path class="cls-7" d="M34.61,259.13c.41,11.09.68,22.1.1,33.21-.32,6.15-.76,12.3-1.4,18.42-.56,5.34-.85,11.2-2.43,16.4l.42.14a1.52,1.52,0,0,1,.72.52,54.23,54.23,0,0,1,6.77-13.63c-2.42-3-1.8-6.84-.13-10.18-1.65-1.89-2.6-4-1.64-6.66.67-1.83,2.06-3.29,3-5a31.46,31.46,0,0,0,3.12-8.69c1.58-7.35.38-14.92-1.2-22.37a21,21,0,0,1-7.33-2.19"/><path class="cls-3" d="M255.94,268.81c-15.93,6.37-31.05,12-43.09,16.11a237.88,237.88,0,0,0,4.17,32.9c3.3,17.16,8,34,12.06,51,3.72,15.64,7.45,31.8,5.72,48a103.3,103.3,0,0,1-20.14,50.64l19.15,5.91,5.94,1.84a350.77,350.77,0,0,0,43.86-3.32c-2.29-.35-4.58-.65-6.9-.9a193.17,193.17,0,0,1-23.08-3.44c-4-.94-11.15-1.9-12-7.05-.55-3.26,1.42-6.37,3.3-8.94a1.61,1.61,0,0,1,1.35-1.93c6.36-1.49,12.91-1.73,19.3-3.33a15.09,15.09,0,0,1-.74-9.81c1.68-5,6.82-4.93,11.17-6-2.59-3.54-8.12-5.4-8-10.46.13-5.51,7.19-8.48,9-13.38,2-5.38.93-12.84,1.11-19.68a4.59,4.59,0,0,1-.73.06c-5.83,0-8.82-11.63-9.57-16.2-.89-5.48-1.67-10.91-2.7-16.37-1.81-9.56-2.57-19.33-4.46-28.86a39.71,39.71,0,0,1-5.36-2.33c-2.78-1.45-3.38-2.15-4.15-5.39a37.85,37.85,0,0,1-.8-10.07,188.49,188.49,0,0,1,5.56-39"/><path class="cls-6" d="M141.57,282.22a1.72,1.72,0,0,0-1.29.44c-15.88,23.82,3.69,55.51-5.78,80.42l.25.17a1.2,1.2,0,0,1-.92,2.19,46.1,46.1,0,0,0-5.66-1.17,1.71,1.71,0,0,0,.74.36l.37,0a2.13,2.13,0,0,1-.37,0,3.85,3.85,0,0,0-.48,0c-6.94,0-4.3,12.13-8.15,14.05l-.44.07a1.65,1.65,0,0,1-1.56,1.07,1.43,1.43,0,0,1-1-.37c-2.54-2.33-5-4.79-7.63-7-.94-.77-5.21-4-7.07-4-.68,0-1,.44-.79,1.59,5.75,7.89,15,10.37,24.72,12.58,1.49-.15,3-.34,4.46-.59l.22,0a1.23,1.23,0,0,1,.73,2.27c-4,2.25-8.5,2.47-13.09,2.47h-3.35a32.75,32.75,0,0,0-10,1.12c-1.12.35-1.62.64-1.57.95,4.32.24,8.78.78,13.21.78a30.64,30.64,0,0,0,14.08-2.9c0,.2-.07.4-.1.59.44-.6.89-1.18,1.34-1.74a.93.93,0,0,1,.72-.39,1.28,1.28,0,0,1,1,1.73c-1.56,3.47-3.89,6.62-5.71,10a60.08,60.08,0,0,0-4,7.95,3.23,3.23,0,0,0,.73-.11,22.5,22.5,0,0,0,8.58-4.64,144.93,144.93,0,0,0,7.3-18.47c4.1-16.4,5.5-34,5.33-50.86-.09-9.07-.74-18.11-1.62-27.13-.69-7.1-2-14.19-2.69-21.3a4.35,4.35,0,0,0-.61,0"/><path class="cls-7" d="M128.91,364.63a2.13,2.13,0,0,0,.37,0l-.37,0m-2.19-.45a7.33,7.33,0,0,0-5.54,2.17c-2.67,2.73-3.88,8.13-1.56,11.3a1.2,1.2,0,0,1,.22,1.08l.44-.07c3.85-1.92,1.21-14.05,8.15-14.05a3.85,3.85,0,0,1,.48,0,1.71,1.71,0,0,1-.74-.36,11.88,11.88,0,0,0-1.45-.09"/><path class="cls-7" d="M131.28,386.66a30.64,30.64,0,0,1-14.08,2.9c-4.43,0-8.89-.54-13.21-.78.06.32.67.66,1.78,1.14,2.28,1,5.18,1.14,7.64,1.4,4.61.5,9.48.32,14,1.46l0,0a65.37,65.37,0,0,1,3.72-5.55c0-.19.07-.39.1-.59"/><path class="cls-7" d="M133.86,400a22.5,22.5,0,0,1-8.58,4.64,3.23,3.23,0,0,1-.73.11c-.8,2.2-1.13,4.2-.13,5.06a1.91,1.91,0,0,0,1.26.5c2.41,0,5.44-4.7,8.18-10.31"/><path class="cls-7" d="M101.82,370a5.75,5.75,0,0,0,.16.58c2,6.29,9.65,11.17,16.61,12.56,2.65-.13,5.3-.29,8-.56-9.73-2.21-19-4.69-24.72-12.58"/><path class="cls-7" d="M128.37,278.8c2.22,13.83,1.38,28.52,2.09,42.44.68,13.22,1.68,26.94-1.1,40a12.7,12.7,0,0,1,5.14,1.86c9.47-24.91-10.1-56.6,5.78-80.42a1.72,1.72,0,0,1,1.29-.44,4.35,4.35,0,0,1,.61,0c-.11-1.05-.21-2.1-.29-3.15h-1.54c-1.78,0-3.52-.05-5.21-.1-2-.07-4.35-.09-6.77-.22"/><path class="cls-8" d="M50,331.72c-2.86,0-6.24,1.15-10.73,4.55a44.1,44.1,0,0,0-6,5.59c-.72,13.55,2.29,27.47,6.58,40.26a1.87,1.87,0,0,1-1.93,2.36,1.71,1.71,0,0,1-.86-.21c.84,19.08-1.33,38.17-4.09,57.07-2.59,17.78-5.22,35.66-8.22,53.39,0,4.34.19,8.65.54,12.93,0,15,30,24,20,33a2.35,2.35,0,0,1-1.74.59A22.79,22.79,0,0,1,38.17,540a24.27,24.27,0,0,0-6.61-1.22,8.18,8.18,0,0,0-7.28,3.85c-1,2-3,5-2,8,5,8,14,12,22,17a8.62,8.62,0,0,0,4.87,1.25c1.63,0,3.13-.25,4.13-.25a11.06,11.06,0,0,0,5.45-1.94C61.05,560,66.17,553.9,69.82,548c-9.58-1.88-7.4-15.58-6.8-23.17.68-8.52.12-17.11-.63-25.7,0-.16-.07-.32-.11-.48-3-10-6-20-8-30-2-8,6-14,5-21,0-5-4-10-3-15,2-6,7-13,7-19-1.72-17.15-8.58-35-3.57-52.39a43.51,43.51,0,0,1,1.9-9.07,1.68,1.68,0,0,1,1.65-1.2,1.62,1.62,0,0,1,1.68,2.12C61.5,364,62.72,377.7,67.29,388a36.83,36.83,0,0,0,5,7.9c1.46,1.84,1.43,2.07,1.09,4.62,2.67,3.69,5.62,7.34,8.69,11-16,9-9.75,36.09-11.75,51.09-2,14-3,28,0,43,1,5,0,10,4,13a6.07,6.07,0,0,0,2.79.66c2.41,0,4.83-1.32,7.25-2.63.21-.43.43-.86.65-1.29a1.3,1.3,0,0,1,1.2-.75,1.55,1.55,0,0,1,1.57,1.92,188.72,188.72,0,0,1-11.2,28.75,91.34,91.34,0,0,0-.92,9.28c-.36,7.06,2.12,13.29,6.7,13.34,16.21.19,31.55,7.72-2.49,11.69-4.4.51-5,7.28,2.49,8.53a22.45,22.45,0,0,0,5.9.73c14.23,0,31.69-11,43.06-16.23,1,0,2-3,2-4a2,2,0,0,0-2-.93,10.11,10.11,0,0,0-1.36.12,9.09,9.09,0,0,1-1.12.11c-.33,0-.53-.07-.53-.3-3.25-7.29,6.65-13.27,14.78-18.47v-.05a34.22,34.22,0,0,0,1.06-13.69c-1.27-8.93-6.66-15.71-10.13-23.75a2.34,2.34,0,0,1,1.88-3.2,1.75,1.75,0,0,1,1.35.71c.11.12.22.26.33.39-1.33-18-4.72-35.86-3.65-54l.18-2.71c-2.14-12.54-3.07-25.22-.81-38.22-4.67,0-8.13,4.24-12.26,4.24a6.6,6.6,0,0,1-3.74-1.24c-7-4,6-12,1-16-4-4-11-1-16-6-1.12-1.11-.68-2.22.09-3.33-1.86-1.16-2.76-2.75-2-4.95.57-1.67,2.22-2.57,4.13-3.07a14.52,14.52,0,0,1-4.71-11.05A8,8,0,0,1,98.7,369c.16-2.64,1.3-3.67,3-3.67,3.6,0,9.67,4.8,13.75,8.38a14.08,14.08,0,0,1,3.32-9,9.5,9.5,0,0,1,2.61-2.11,47.16,47.16,0,0,0-.13-22.51c-9.76-2.33-25.93-4.05-39.37-4.05a99.43,99.43,0,0,0-13.07.73,15.74,15.74,0,0,1-2,.13c-3.51,0-6.19-1.29-8.74-2.58s-5-2.59-8-2.59"/><path class="cls-9" d="M41,315.4a1.46,1.46,0,0,1-.29,0H40.6a60.06,60.06,0,0,0-7.34,26.44,44.1,44.1,0,0,1,6-5.59c4.49-3.4,7.87-4.55,10.73-4.55,3,0,5.45,1.29,8,2.59s5.23,2.58,8.74,2.58a15.74,15.74,0,0,0,2-.13A99.43,99.43,0,0,1,81.84,336c13.44,0,29.61,1.72,39.37,4.05a47.16,47.16,0,0,1,.13,22.51,12.57,12.57,0,0,1,6.09-1.5,234.49,234.49,0,0,0,.2-32.68,1.7,1.7,0,0,1-.44.24,109.39,109.39,0,0,1-33.63,5.4c-19.27,0-38.45-5.47-52.55-18.65"/><path class="cls-9" d="M76.54,545.32l-.3.59c-2.22,4.32-5,8.34-7.58,12.43s-6.12,8.82-6.65,13.84c-.86,8.13,5.54,15.64,11.05,20.87,4.64,4.38,10.31,10.32,17.07,10.32a10.75,10.75,0,0,0,1.68-.13c6.82-1,12.87-5.86,18.3-9.78s10.35-7.71,16.47-10.25c4.15-1.73,8.5-2.91,12.65-4.61,3.23-1.32,8.32-3.16,10.37-6.14,1.9-2.77-3-6.88-4.66-9.16a14.32,14.32,0,0,1-3-6.36c-.33-2.62.41-5.21,1.09-7.75-8.13,5.2-18,11.18-14.78,18.47,0,.23.2.3.53.3a9.09,9.09,0,0,0,1.12-.11,10.11,10.11,0,0,1,1.36-.12,2,2,0,0,1,2,.93c0,1-1,4-2,4-11.37,5.25-28.83,16.23-43.06,16.23a22.45,22.45,0,0,1-5.9-.73c-7.51-1.25-6.89-8-2.49-8.53,34-4,18.7-11.5,2.49-11.69-4.58-.05-7.06-6.28-6.7-13.34a91.34,91.34,0,0,1,.92-9.28m-51.8-50.59c-.28,1.67-.57,3.33-.86,5-.94,5.38-3,11.21-2,16.71.64,3.53,2.92,6.28,4.53,9.4,2.3,4.48,3.25,8.93.25,13.27-2.89,4.16-8.34,6.71-9.57,11.95-1.57,6.67,3.76,13.85,8.17,18.21,9.47,9.35,23,15,36.25,16.78-2.69-4.35-4.45-9.22-3.9-14.44a22.28,22.28,0,0,1,1.12-4.88,11.06,11.06,0,0,1-5.45,1.94c-1,0-2.5.25-4.13.25a8.62,8.62,0,0,1-4.87-1.25c-8-5-17-9-22-17-1-3,1-6,2-8a8.18,8.18,0,0,1,7.28-3.85A24.27,24.27,0,0,1,38.17,540a22.79,22.79,0,0,0,5.37,1.22,2.35,2.35,0,0,0,1.74-.59c10-9-20-18-20-33-.35-4.28-.51-8.59-.54-12.93m48.6-94.17h0c-1,7.88-2.37,15.72-3.65,23.56-2.67,16.44-5.18,33-5,49.68.2,16,2.88,31.86,2.64,47.85-.06,4.54-1,9-1.16,13.55-.18,5.29,1.7,7.45,5.55,9.46,4.88-9,8.07-18.8,12.57-28-2.42,1.31-4.84,2.63-7.25,2.63a6.07,6.07,0,0,1-2.79-.66c-4-3-3-8-4-13-3-15-2-29,0-43,2-15-4.25-42.09,11.75-51.09-3.07-3.67-6-7.32-8.69-11M59.71,361.27c-5,17.36,1.85,35.24,3.57,52.39,0,6-5,13-7,19-1,5,3,10,3,15,1,7-7,13-5,21,2,10,5,20,8,30,0,.16.07.32.11.48-.73-8.46-1.65-16.92-1.73-25.33-.18-17.37,2.61-34.56,5.44-51.65.73-4.39,1.48-8.78,2.19-13.18.54-3.41,2.26-8.38.49-11.33-2.93-4.84-5.63-9-7.14-14.58a61.14,61.14,0,0,1-1.93-21.8"/><path class="cls-9" d="M102.37,392.33c-.77,1.11-1.21,2.22-.09,3.33,5,5,12,2,16,6,5,4-8,12-1,16A6.6,6.6,0,0,0,121,418.9c4.13,0,7.59-4.24,12.26-4.24-2.26,13-1.33,25.68.81,38.22.72-9.84,2.11-19.62,3.14-29.43.84-8.08,1-16.05,1.07-24.08a39.77,39.77,0,0,1-7.9,10.69,7.44,7.44,0,0,1-4.86,2.31c-2.62,0-4.37-2.4-3.45-6.7a41.65,41.65,0,0,1,4.07-10.56c-1.28.06-3.28.13-5.62.13-6,0-14.24-.47-18.17-2.91"/><path class="cls-8" d="M99.79,373.26a14.52,14.52,0,0,0,4.71,11.05,34.67,34.67,0,0,1,6.64-.74,28.55,28.55,0,0,1-4.63-3c-2.16-1.71-5.14-4.34-6.72-7.29"/><path class="cls-6" d="M274,332.16c-9.73,12.34,1.4,34.14,3.32,49.5a1.57,1.57,0,0,0,.29.8,6.51,6.51,0,0,0,.93.13c.57-3.92,2-7.4,5.19-9.82a23.14,23.14,0,0,1-4.35-5.33c-2.7-4.79.06-7.69,4.09-9.17-3.18-2.28-7.16-3.87-7.6-8.37-.16-1.61.43-3,.82-4.52,1.08-4.22.14-7.27-1.67-11.07-.35-.72-.69-1.44-1-2.15"/><path class="cls-7" d="M263.74,326.51c1.75,7,2.92,14.09,4.2,21.18.95,5.2,2.24,10.33,2.87,15.57a91.11,91.11,0,0,0,1.95,12.18c.92,3.51,1.92,6.37,4.81,7a1.57,1.57,0,0,1-.29-.8c-1.92-15.36-13-37.16-3.32-49.5-.65-1.36-1.28-2.7-1.89-4.05a60.15,60.15,0,0,1-8.33-1.6"/><path class="cls-6" d="M28.43,329.8c.1,6.55-.56,13.91-7.17,13.91h-.09a1.81,1.81,0,0,1-1.6,2.3,1.62,1.62,0,0,1-1.16-.54,5.1,5.1,0,0,1-.56-.67c-1.69-2-3.49-3.88-5.35-5.7-1.16-1.13-5.46-6-7.59-6a1.24,1.24,0,0,0-.33,0,1.42,1.42,0,0,0-1,.86c4.57,5.89,11.25,10.14,16.72,15.61l-.29.14a2,2,0,0,1-1.43,3.12h-.07a47.56,47.56,0,0,1-5.2-.6,33.88,33.88,0,0,0-5-.94,2.42,2.42,0,0,0-1.11.21c-.67.36-1,.72-1.09,1.05C9.79,354,14,354,17.76,354.35a12.71,12.71,0,0,0,4.14-4,2,2,0,0,1,1.69-.84c1.2,0,2.37.92,1.83,2.32a111.75,111.75,0,0,0-4,10.89,6.69,6.69,0,0,0,1.47.18c3.62,0,4.61-3.73,5.79-7.53a72,72,0,0,1,2.54-25.12,1.09,1.09,0,0,1-.26,0,1.56,1.56,0,0,1-.5-.09,7.21,7.21,0,0,0-2.07-.38"/><path class="cls-7" d="M28.22,329.79c-2.84,0-5.12,1.89-6.66,4.53-1.09,1.86-2.47,6.06-1.13,8.23l.39.5h0a1.7,1.7,0,0,1,.35.66h.09c6.61,0,7.27-7.36,7.17-13.91h-.21"/><path class="cls-7" d="M6.11,352.64c-.4,1.7,5.82,2.92,7,2.92h0a9.59,9.59,0,0,0,4.68-1.21c-3.76-.36-8-.4-11.65-1.71"/><path class="cls-7" d="M28.72,355.36c-1.18,3.8-2.17,7.53-5.79,7.53a6.69,6.69,0,0,1-1.47-.18,19.61,19.61,0,0,0-.78,8.36,1.43,1.43,0,0,1,0,.65,2.4,2.4,0,0,1,.48-.36,12,12,0,0,0,2.61-2.9,75.22,75.22,0,0,0,5.45-8.31c-.21-1.59-.37-3.19-.48-4.79"/><path class="cls-7" d="M3.56,334.05c-.87,2.43,5.34,8.47,6.38,9.33a44,44,0,0,0,9.5,6,1.54,1.54,0,0,1,.55.4l.29-.14c-5.47-5.47-12.15-9.72-16.72-15.61"/><path class="cls-10" d="M354.52,334.67c-.44.13-.88.26-1.34.38a45.35,45.35,0,0,1,1,4.43,18,18,0,0,1,.3-4.81"/><path class="cls-6" d="M350.26,343.32c-8.82,10.56,2.27,32.71,5,47.34a11.57,11.57,0,0,0,2.42,6.52c3.47-2,7-4,10.48-6-1.31-.13-2.53-1.59-1.59-2.87l.3-.39h0l0,0c1.14-1.39,3.49-3.75,5.48-6.2a17.65,17.65,0,0,0,1.07-7.43,21.91,21.91,0,0,0-3.19,2.94,45.07,45.07,0,0,0-3.68,4.12,1.58,1.58,0,0,1-1.28.64,2.17,2.17,0,0,1-2.1-2.61c.66-2.1-.57-2.74-2.29-2.74a19,19,0,0,0-5.78,1.3,1.54,1.54,0,0,1-.55.11,2,2,0,0,1-1.89-2.54c2.83-7.32.11-15.71-.94-23.19-.41-3-1-6-1.5-9"/><path class="cls-7" d="M349.26,335.91a29.43,29.43,0,0,1-4.67.39,21.7,21.7,0,0,1-2.8-.17c1.8,10.28,2.7,20.68,4.38,31,1.6,9.75,3.56,23,10.5,30.67l1-.6a11.57,11.57,0,0,1-2.42-6.52c-2.75-14.63-13.84-36.78-5-47.34-.42-2.48-.79-4.95-1-7.41"/><path class="cls-7" d="M374.65,373.82a2.41,2.41,0,0,0-1.19.43,17.65,17.65,0,0,1-1.07,7.43c2.21-2.69,4-5.48,3.22-7.15a1,1,0,0,0-1-.71"/><path class="cls-10" d="M354.89,343.75c.49,3.7.79,7.44,1.3,11s1.22,7,1.54,10.47a12.64,12.64,0,0,0,1.3-8.87c-.69-3-2-5.86-3-8.78-.43-1.26-.81-2.53-1.11-3.81"/><path class="cls-8" d="M286.12,374.84c-3.18,3.81-3.4,10.15-3.27,14.73.18,6.22.85,12.6-1.3,18.59a17.87,17.87,0,0,1-3.3,5.82,16.43,16.43,0,0,1-1.46,1.39c.11,1.44.27,2.87.49,4.29,1,8,12,12,18,19a10.21,10.21,0,0,1-2.31.25c-2.83,0-5.56-1.05-8.23-2.1a29.8,29.8,0,0,0-6.29-2c-2.73.62-5.95.88-7.62,2.63a3.68,3.68,0,0,0-.94,1.61,6.42,6.42,0,0,0,1.39,4.59,8.36,8.36,0,0,0,1.75.8,35.51,35.51,0,0,1,6.59-.69A24.52,24.52,0,0,1,283,444a41.14,41.14,0,0,1,11.36,3.42,14.74,14.74,0,0,0,7.1-7.49c-.14-.26-.28-.53-.4-.79-1.4-3.08-1.16-5.32.64-8.17a28.64,28.64,0,0,0,3.2-6.76c.45-5.21.6-10.62,1-15.58a51.23,51.23,0,0,1,.61-11.12,1.32,1.32,0,0,1,1.38-1.08,1.49,1.49,0,0,1,1.6,1.48c-.25,6.69,1.14,13.29,1,20,0,1.06-.08,2.14-.19,3.21,2.88,5.89,7.18,11.35,11.94,16.57-4,0-8-3.84-10.47-3.84a1.73,1.73,0,0,0-1.53.84c-7,10,11,10,17,16a9.79,9.79,0,0,1-4.49,1,25.78,25.78,0,0,1-4.39-.5,25,25,0,0,0-4.2-.5,7.38,7.38,0,0,0-3.92,1c-1.5.5-1.25,3,.11,5.35a33.26,33.26,0,0,1,4.26-.27,51.57,51.57,0,0,1,16.14,2.91c14-6.58,16-14.64.06-25.25-18.86-13.48-12.58-16.18,8.08-27,3.64-1.82,7.36-3.82,11.13-5.93a29.14,29.14,0,0,1-1.42-11.12,68.23,68.23,0,0,1-2.43-6.9c-.11-.4-.23-.8-.34-1.21-6.33,4.16-15.18,5.29-22.53,5.29h-.86a59.57,59.57,0,0,1-28-7.31,65.74,65.74,0,0,1-8.4-5.42"/><path class="cls-9" d="M301.49,439.93a14.74,14.74,0,0,1-7.1,7.49c.85.4,1.69.83,2.51,1.28.52.29,1,.6,1.51.92a31.72,31.72,0,0,0,3.88-2.68c2.3-2.21.45-4.65-.8-7m8.85-18.84a25.37,25.37,0,0,1-.94,4.85c-.91,3-2.69,5.1-4.08,7.81-2.08,4.06,4.11,8.24,2.68,13-.82,2.71-3.34,4.46-5.95,5.69,1.87,1.65,3.63,3.42,5.55,5.05a28,28,0,0,1,2.79-.5c-1.36-2.37-1.61-4.85-.11-5.35a7.38,7.38,0,0,1,3.92-1,25,25,0,0,1,4.2.5,25.78,25.78,0,0,0,4.39.5,9.79,9.79,0,0,0,4.49-1c-6-6-24-6-17-16a1.73,1.73,0,0,1,1.53-.84c2.47,0,6.47,3.84,10.47,3.84-4.76-5.22-9.06-10.68-11.94-16.57M306,408.63c-.42,5-.57,10.37-1,15.58a31.86,31.86,0,0,0,1.19-11c-.06-1.54-.13-3.08-.17-4.61"/><path class="cls-9" d="M348.64,390.39a29.14,29.14,0,0,0,1.42,11.12c1.22-.67,2.44-1.36,3.67-2.06a40,40,0,0,1-5.09-9.06"/><path class="cls-9" d="M269.89,439.07c-.5,1.81.49,3.84,1.05,5.83l2.09-.44a8.36,8.36,0,0,1-1.75-.8,6.42,6.42,0,0,1-1.39-4.59m6.9-23.7c-1.76,1.52-3.81,3.14-3.32,5.23.55,2.34,3.54,3.69,5.17,5.29a12.16,12.16,0,0,1,3.33,5.35,2.54,2.54,0,0,1-1.17,2.86,11.78,11.78,0,0,1-2.35.73,29.8,29.8,0,0,1,6.29,2c2.67,1.05,5.4,2.1,8.23,2.1a10.21,10.21,0,0,0,2.31-.25c-6-7-17-11-18-19-.22-1.42-.38-2.85-.49-4.29"/><path class="cls-6" d="M380.54,384a11.17,11.17,0,0,0-3.33,1.19,27,27,0,0,0-7,4.84c3.41-1.94,6.84-3.86,10.27-5.69l0-.34"/><path class="cls-7" d="M381,383.92l-.45,0,0,.34.67-.36H381"/><path class="cls-11" d="M303.05,466.07a.4.4,0,0,0,0,.15l0-.15M279.8,447.69c-6,0-11.91,2.78-17.76,4-2.11.44-4.35.92-6.62,1.27a28.27,28.27,0,0,1,2.92-.14A41,41,0,0,1,272,455.35c6.81,2.51,12.61,6.55,19.1,9.4,4.43-.12,8.66-2.11,13.31-2.94a15.34,15.34,0,0,1,1-1.93c-3.41-2.3-6.16-5.44-9.78-7.5a33.57,33.57,0,0,0-15.53-4.69h-.31"/><path class="cls-12" d="M304.39,461.81c-4.65.83-8.88,2.82-13.31,2.94a40.12,40.12,0,0,0,7.34,2.49,1.43,1.43,0,0,1,1,1.85q1.62-.33,3.24-.69c.09-.72.21-1.46.37-2.18a.4.4,0,0,1,0-.15,21.81,21.81,0,0,1,1.34-4.26"/><path class="cls-11" d="M253.71,453.21a34,34,0,0,1-4.13.27c-.8,0-1.6,0-2.38-.11-.2.3-.4.62-.59.93a26.91,26.91,0,0,1,5-.62c.67-.19,1.37-.34,2.07-.47"/><path class="cls-12" d="M251.64,453.68a26.91,26.91,0,0,0-5,.62,9.87,9.87,0,0,0-1,2.05c-1.32,3.94,1.21,5.11,4.68,6.13,6.19,1.83,12.74,2.61,19.13,3.32s13.23,1.06,19.88,2.05c-4.77-2.12-9.18-5.26-13.74-7.65a36.79,36.79,0,0,0-14.91-4.29c-.51,0-1-.05-1.51-.05-4.13,0-8,1-12.13,1.54h-.11c-.71,0-.75-1-.26-1.37a15.34,15.34,0,0,1,5-2.35"/><path class="cls-11" d="M313.66,460.66a30.07,30.07,0,0,0-5.37.46,49.11,49.11,0,0,0-1.73,5,1.61,1.61,0,0,1,.72-.22c2.34-.17,4.78-.39,7.23-.51,2.5-.71,5-1.47,7.36-2.27,1-.33,1.95-.66,2.87-1a45.68,45.68,0,0,0-11.08-1.48"/><path class="cls-11" d="M151.47,564.6c3.47,5,4.7,8.77-1.21,13-8.1,5.87-18.21,7.06-26.82,11.88a53.84,53.84,0,0,0-5,3.29,18,18,0,0,0-.12,10.85c1.68,3.37,4.07,6.74,7.77,8.32.55-.19,1.1-.4,1.64-.62,6.76-2.7,12.73-7,18.74-11,5.13-3.44,10.51-5.76,16.09-8.35,4.73-2.21,11.78-5.52,12.8-11.33.72-4.06-2.78-7.26-5.8-9.34a40.93,40.93,0,0,0-18.05-6.74"/><path class="cls-12" d="M118.4,592.81c-8.53,6.15-18,15.05-28.2,15.05a17.5,17.5,0,0,1-5.32-.83,22.85,22.85,0,0,1-2.3-.91c3.38,6.76,12.9,8,20.39,8.36,1.73.1,3.46.15,5.21.15A54.46,54.46,0,0,0,126.05,612c-3.7-1.58-6.09-5-7.77-8.32a18,18,0,0,1,.12-10.85"/><path class="cls-12" d="M23.87,573.89c-1.55,4.05-2,8.5-.2,12.62,2.27,5.13,9.4,8.34,14.44,10a35.58,35.58,0,0,0,11.08,1.71c6.52,0,12.91-1.56,19.44-3.21-1-1.06-1.91-2.1-2.76-3.08-.56-.66-1.12-1.33-1.66-2h-.85c-14,0-29-6.56-39.49-16"/><path class="cls-6" d="M93.27,144c-4.81,1.05-8.53,4.32-8,10.71l3,6A13,13,0,0,0,95.22,164c.9-.26,1.75-.55,2.52-.85a100.47,100.47,0,0,1,2.85-16.74c-2.44-.82-4.88-1.66-7.32-2.47"/><path class="cls-7" d="M75.69,141.11c1.24,6.34,1.88,13.08.9,19.38,2.17,3.56,6.23,4.77,10.48,4.77A30,30,0,0,0,95.22,164a13,13,0,0,1-6.94-3.35l-3-6c-.54-6.39,3.18-9.66,8-10.71l-4-1.32a1.81,1.81,0,0,1-1-.68c-1,.05-1.93.07-2.91.07a47.57,47.57,0,0,1-9.67-.91"/><path class="cls-7" d="M157.2,81.47c-3.14,5.56-2.67,11.1-1.4,18,1,5.58,1.56,10.86-.21,16.24a3.23,3.23,0,0,0,.46-.45c1.29-1.54,1.68-4.36,2-6.26,1-6.15.6-12.62.09-18.8-.25-2.93-.57-5.85-.94-8.76"/><path class="cls-6" d="M148.25,58.32c-3.44,0-6.15,1.5-6,6.34.11,4.28,1.11,9.42-.75,13.48a6.26,6.26,0,0,1-5.57,3.65A5.57,5.57,0,0,1,133,81c-3-1.81-4.15-6.27-7.25-8.37a6,6,0,0,0-1.19-.63c-2.5,3.93-5.6,7.83-6.29,12.68-.85,5.1.46,9.47,2.71,13.73a6.11,6.11,0,0,0,4.54,1.86,13.44,13.44,0,0,0,5.92-1.7,2.16,2.16,0,0,1,1-.27,2,2,0,0,1,1,3.69,15.76,15.76,0,0,1-6.47,3l-4.7,4.7c-7,11-11,22-7,34a10.27,10.27,0,0,0,1.67,3.79c4,1.07,8.6,2.28,12.81,2.28,5.14,0,9.65-1.8,11.6-7.87,1.53-4.78,1.48-10.06,3.75-14.58,3.41-6.78,8.33-12.63,7.69-20.66-.46-5.76-2.66-11.33-2.45-17.16a19.1,19.1,0,0,1,6.1-13.38c-.85-5.64-1.84-11.26-2.82-16.88a20,20,0,0,0-5.38-.88"/><path class="cls-7" d="M120,104c-3.92,7.62-7.6,15.4-12.06,22.73A69.55,69.55,0,0,1,101,136c-1.58,1.84-2.71,3.68-4.54,4.7,6.72,2,13.27,4.81,20,6.63l.48.13a10.27,10.27,0,0,1-1.67-3.79c-4-12,0-23,7-34L127,105a11.76,11.76,0,0,1-2.19.21A10.09,10.09,0,0,1,120,104m3.33-32.25c-2.75,0-4.22,3.8-5,6.75-1.36,5.34-1.41,11.84.79,17A9.43,9.43,0,0,0,121,98.39c-2.25-4.26-3.56-8.63-2.71-13.73.69-4.85,3.79-8.75,6.29-12.68a3.62,3.62,0,0,0-1.27-.25"/><path class="cls-5" d="M95.91,4.59C85.08,4.6,74.4,8,66.85,16.13,55.24,28.67,52.82,47.66,52.92,64a174.68,174.68,0,0,0,3.64,33.27c1.32,6.5,2.92,12.94,4.7,19.33,1.31,4.71,2.22,11,5.86,14.58,3.81,3.71,9.84,4.82,14.93,5.18,1.75.12,4,.36,6.14.36,2.44,0,4.82-.3,6.38-1.38,3-2.1,6-6.75,8-9.74,1.76-2.59,3.34-5.33,4.92-8,3.13-5.39,6.17-10.82,9.38-16.16a14.39,14.39,0,0,1-2-3.2c-3.4-7.16-4.4-31.83,7.85-31.83a10.49,10.49,0,0,1,2.1.22c3.54.72,6.29,3.61,8.43,6.32.87,1.09,1.8,3.49,2.85,3.49a1.15,1.15,0,0,0,.88-.61c1.17-1.68.43-5.87.35-7.81-.21-4.91-.35-10,4.25-13.14A11.23,11.23,0,0,1,148,53a26.33,26.33,0,0,1,8.81,1.87c-7.6-20.34-21.18-39.8-42.42-47.16A56.89,56.89,0,0,0,95.91,4.59"/><path class="cls-13" d="M267.92,264q-3.71,1.53-7.38,3a260.52,260.52,0,0,0-5.68,34.32,79.71,79.71,0,0,0-.88,11.28,6.73,6.73,0,0,0,5.6,2.77,11.67,11.67,0,0,0,3.7-.67c2-1,3-5,3-6v-.55a89.76,89.76,0,0,1-1-10.33A137.31,137.31,0,0,1,267.92,264m76.21-35.84c-16.43,9.74-43.9,22.38-71.34,33.82A103.61,103.61,0,0,0,271,281a79.07,79.07,0,0,0,7.45,33.8,71.77,71.77,0,0,0,9.26,14.14c2.76,3.38,16.38,13.5,5.34,13.5h-.73c-2.32,0-4.45.19-6,2.24-3,4,2,9,5,10,6.3,2.1,12.21,5.95,18.21,8.81,1.75.83,6.23,2.82,7,5.26,2,.21,4,.36,6.07.49a1.42,1.42,0,0,1,0,2.83c-1,.05-2.13.08-3.26.08-1.42,0-2.91-.05-4.43-.15a3.85,3.85,0,0,1-1.85.43,10.56,10.56,0,0,1-4.28-1.19c-5.54-1-10.88-3-14.39-6.7a10.64,10.64,0,0,0-2.41-.34,4,4,0,0,0-1.31.19c-1.09.4-1.61,1.43-1.11,3.45.61,2.41,3.61,3.68,5.65,4.55a130.58,130.58,0,0,0,13.09,4.25c3.93,1.21,7.9,2.31,11.75,3.76,1.38.52,4.65,2.69,7.24,4.07a41.24,41.24,0,0,0,9.06-1.9,49.91,49.91,0,0,0,3.92-18.94c.19-10.3-2.46-20.35-5.28-30.22-1.69-1.81-1.79-4.41-2.33-7.36q-.19-1-.36-2a153.64,153.64,0,0,1-4.09-15.17c-1.05-5.63-.5-11.2.33-16.83,1.54-10.53.16-21.23,2.26-31.72a25.5,25.5,0,0,1,.91-3c0-3.1-.08-6.19-.24-9.28a1.51,1.51,0,0,1,1.63-1.51,1.32,1.32,0,0,1,1.4,1.1c3.32,19.84-.59,40.16.08,60.12.06,1.77.14,3.54.25,5.31a27.51,27.51,0,0,0,10.52,11.64,22.08,22.08,0,0,0,13,3.88h.88l1.11-.61c2.67-1.54,3.27-1.19,2.68-4.13-.5-2.45-1-4.92-1.54-7.38-1.4-6.52-2.84-13-4.14-19.58-1.84-9.31-3.44-18.65-4.73-28.06-1.07-7.82-1.46-15.73-2.75-23.52a59.73,59.73,0,0,0-5.64-17.14"/><path class="cls-10" d="M308.71,371.22a10.56,10.56,0,0,0,4.28,1.19,3.85,3.85,0,0,0,1.85-.43,54,54,0,0,1-6.13-.76m-42.43-63.11v.55c0,1-1,5-3,6a11.67,11.67,0,0,1-3.7.67,6.73,6.73,0,0,1-5.6-2.77c.1,2.82.63,5.37,2,6.82,1.83,1.89,6.28,3.26,8.65,4a44,44,0,0,0,6,1.44,57.55,57.55,0,0,1-2.54-7.61,91.1,91.1,0,0,1-1.85-9.13m6.51-46.18-1.23.52v0c-2.57,10.86-3.15,22.46-3,33.58a86.27,86.27,0,0,0,2.78,20.29c1.66,6.38,4.66,11.7,7.28,17.65a17.26,17.26,0,0,1,.87,12.16c-1.59,6.31,4.74,7.77,8.21,11.74a1.57,1.57,0,0,1-.68,2.59c-3.75.69-7.55,2-4.64,6.18a27.94,27.94,0,0,0,5.51,5.35,55.48,55.48,0,0,0,35.19,12.59c1,0,2.06,0,3.08-.09l1.06-.07c-2.59-1.38-5.86-3.55-7.24-4.07-3.85-1.45-7.82-2.55-11.75-3.76a130.58,130.58,0,0,1-13.09-4.25c-2-.87-5-2.14-5.65-4.55-.5-2,0-3.05,1.11-3.45a4,4,0,0,1,1.31-.19,10.64,10.64,0,0,1,2.41.34,14.94,14.94,0,0,1-1.55-1.9.92.92,0,0,1,.8-1.37.71.71,0,0,1,.43.14c7.12,4.74,14.45,6.49,22.46,7.34-.74-2.44-5.22-4.43-7-5.26-6-2.86-11.91-6.71-18.21-8.81-3-1-8-6-5-10,1.54-2.05,3.67-2.24,6-2.24H293c11,0-2.58-10.12-5.34-13.5a71.77,71.77,0,0,1-9.26-14.14A79.07,79.07,0,0,1,271,281a103.61,103.61,0,0,1,1.84-19.06"/><path class="cls-10" d="M334.92,333.39c2.82,9.87,5.47,19.92,5.28,30.22a49.91,49.91,0,0,1-3.92,18.94c2.93-.93,5.78-2.11,8.79-3.33-3.48-14.3-3.85-29.22-6.24-43.71a15,15,0,0,1-1.87-.71,6.28,6.28,0,0,1-2-1.41M334.76,313a93.27,93.27,0,0,0,1.16,10.15c.68,3.84.61,7.91,4.89,8.88a17.86,17.86,0,0,0,4,.42,32.27,32.27,0,0,0,14.37-3.94h-.88a22.08,22.08,0,0,1-13-3.88A27.51,27.51,0,0,1,334.76,313m-3.12-55.74a25.5,25.5,0,0,0-.91,3c-2.1,10.49-.72,21.19-2.26,31.72-.83,5.63-1.38,11.2-.33,16.83A153.64,153.64,0,0,0,332.23,324c-.64-3.84-1.12-7.69-1.38-11.58-1.22-18.35.86-36.74.79-55.13"/><path class="cls-13" d="M70.17,161.29c-8.44,0-18.84,5.54-24.09,10.65-7.83,7.62-12.21,18.62-15.1,28.95a133.2,133.2,0,0,0-4.67,34.63c0,2-.2,4.36-.16,6.69a2.28,2.28,0,0,0,1.47.54,2.61,2.61,0,0,0,.66-.09c8.06-2.3,7.83-12.57,7.33-23.73-.09-1.51-.15-3-.19-4.52s-.1-2.74-.11-4.1c-.13-6.94.16-14.33,4.27-20.05a.8.8,0,0,1,.68-.36.76.76,0,0,1,.71,1.17c-4.51,7.23-3.25,18.26-2.62,26.44a299.58,299.58,0,0,0,4.52,33.22c1,5.38,2.55,10.84,3.56,16.35q1.37,4.31,2.85,8.58c2,5,1,12,3,17,3,12.86,15.31,13,26.7,15.83,11.72,2.89,7.78,6.83,1.23,6.83a16.85,16.85,0,0,1-4.66-.66c-4.14-1.18-11-2.28-16-3.78a73.49,73.49,0,0,1-8.16-2.78c7.89,7.61,19.33,9.11,29.89,10.39a1.58,1.58,0,0,1,1.42,1.29c2.66-.23,5.36-.53,8.06-.83a150.68,150.68,0,0,1,16.35-1.23,38.8,38.8,0,0,1,13.17,1.94,5.75,5.75,0,0,1,2.71,6.47c1.26-.18,2.52-.35,3.79-.51h.2a1.19,1.19,0,0,1,.51.1c-.08-1.49-.17-3-.26-4.47-.13-2.3-.24-4.61-.33-6.91-6.52-4.67-28.83-7.54-22.88-17.22,2.15-3.49,6.51-2.73,8-7,1.09-3.06-.7-7.23-.91-10.08-.54-7.31-.75-14.66-.78-22s.18-14.67.53-22c.11-2.41.62-5.47,1.07-8.63a59,59,0,0,1,.64-10.93,13.23,13.23,0,0,0-.34-1.79c.14.51.27,1,.4,1.51a1,1,0,0,1,1-.67,1.2,1.2,0,0,1,1.27,1.16c-.12,4.15.06,8.24.34,12.32,2.28,13.4,3.87,26.63,12,37.68,2.46,3.95,8.08,7.64,14.22,9.06A39.24,39.24,0,0,0,153.61,274c.06-22.44.91-45.27-8.18-66.32-8.84-20.44-25-34.18-45.69-41.68a23.53,23.53,0,0,1-11.22,2.7c-5.77,0-11.52-2-14-6.84a15.3,15.3,0,0,0-4.33-.58"/><path class="cls-10" d="M115.3,229c.44,6.25,1.12,12.46,1.33,18.79.15,4.47-.19,8.93-.22,13.39,0,3.27-.67,10.38,2.15,12.17,2.17,1.38,6.19,1.48,8.65,1.76a97.67,97.67,0,0,0,9.82.61c1,0,2,0,3,0h1.45c-6.14-1.42-11.76-5.11-14.22-9.06-8.11-11.05-9.7-24.28-12-37.68m-3.32-1.6c-.45,3.16-1,6.22-1.07,8.63-.35,7.33-.57,14.67-.53,22s.24,14.68.78,22c.21,2.85,2,7,.91,10.08-1.54,4.3-5.9,3.54-8,7-6,9.68,16.36,12.55,22.88,17.22-.21-5.05-.36-10.1-.53-15.15-.24-6.83-.93-13.76-.83-20.6a22.92,22.92,0,0,1-9.28-2.57c-2.84-1.71-2.74-6.11-3-9.21-.44-5.18.07-10.37.12-15.54.07-8-1.2-15.93-1.4-23.88m.3-12.72a13.23,13.23,0,0,1,.34,1.79l0-.1a1.16,1.16,0,0,1,0-.18c-.13-.5-.26-1-.4-1.51"/><path class="cls-10" d="M46.43,267.08a51.09,51.09,0,0,1,1,12.5,37.65,37.65,0,0,1-2.93,12.27c-1.58,3.76-5.45,6.84-1.69,10.32a2.13,2.13,0,0,1,.33,2.56,8.57,8.57,0,0,0-.79,7.84c10.73,9.68,25.4,15.36,39.61,16.9a73.55,73.55,0,0,0,8.08.43c11.12,0,21.94-2.21,33-3.77a5.75,5.75,0,0,0-2.71-6.47,38.8,38.8,0,0,0-13.17-1.94A150.68,150.68,0,0,0,90.76,319c-2.7.3-5.4.6-8.06.83a1.42,1.42,0,0,1-1.42,1.73c-.79,0-1.58.05-2.38.05-11.66,0-24.27-3.91-30.84-14.05A1.05,1.05,0,0,1,49,306a.86.86,0,0,1,.67.31,24.93,24.93,0,0,0,1.72,1.83,73.49,73.49,0,0,0,8.16,2.78c5,1.5,11.86,2.6,16,3.78a16.85,16.85,0,0,0,4.66.66c6.55,0,10.49-3.94-1.23-6.83-11.39-2.81-23.74-3-26.7-15.83-2-5-1-12-3-17q-1.48-4.28-2.85-8.58M35.61,218.93c.5,11.16.73,21.43-7.33,23.73a2.61,2.61,0,0,1-.66.09,2.28,2.28,0,0,1-1.47-.54c.07,3,.51,5.9,2.21,7.91,3.63,4.32,7.58,7.54,13,8.59-.73-3.35-1.49-6.66-2-9.92a271.51,271.51,0,0,1-3.73-29.86m-.3-8.62c0,1.36,0,2.73.11,4.1,0-.12,0-.23,0-.35,0-1.22-.07-2.48-.1-3.75"/><path class="cls-14" d="M153.63,59.2c1,5.62,2,11.24,2.82,16.88.34-.33.7-.66,1.06-1a1.82,1.82,0,0,1,1.21-.48,1.75,1.75,0,0,1,1.27,3,22.64,22.64,0,0,0-2.79,3.89c.37,2.91.69,5.83.94,8.76.51,6.18.94,12.65-.09,18.8-.32,1.9-.71,4.72-2,6.26a3.23,3.23,0,0,1-.46.45c-.14.42-.29.85-.46,1.27-.58,1.48-1.25,2.89-1.94,4.27a3.59,3.59,0,0,0,.47,0c3,0,6-3.12,7.23-5.69,2.84-5.71,2.45-13.29,2.18-19.46a215.16,215.16,0,0,0-4.83-35.34,43,43,0,0,0-4.61-1.62"/><path class="cls-14" d="M158.72,74.63a1.82,1.82,0,0,0-1.21.48c-.36.31-.72.64-1.06,1a19.1,19.1,0,0,0-6.1,13.38c-.21,5.83,2,11.4,2.45,17.16.64,8-4.28,13.88-7.69,20.66-2.27,4.52-2.22,9.8-3.75,14.58-2,6.07-6.46,7.87-11.6,7.87-4.21,0-8.83-1.21-12.81-2.28l-.48-.13c-6.76-1.82-13.31-4.61-20-6.63a6.35,6.35,0,0,1-2.31.75c-1.84.23-3.81.42-5.86.51a1.81,1.81,0,0,0,1,.68l4,1.32c2.44.81,4.88,1.65,7.32,2.47.16-.61.31-1.21.47-1.81a1.66,1.66,0,0,1,1.65-1.27,1.81,1.81,0,0,1,1.87,1.75c0,.87,0,1.75-.06,2.63,4.4,1.43,8.82,2.76,13.33,3.79a59.33,59.33,0,0,0,13,2c4.09,0,8-.9,10.74-3.68,3.53-3.55,4.33-9.16,5.3-13.86,1.12-5.49,3.88-9.87,6.28-14.65.69-1.38,1.36-2.79,1.94-4.27.17-.42.32-.85.46-1.27,1.77-5.38,1.24-10.66.21-16.24-1.27-6.93-1.74-12.47,1.4-18A22.64,22.64,0,0,1,160,77.58a1.75,1.75,0,0,0-1.27-3"/><path class="cls-15" d="M148,53a11.23,11.23,0,0,0-6.43,1.83c-4.6,3.12-4.46,8.23-4.25,13.14.08,1.94.82,6.13-.35,7.81a1.15,1.15,0,0,1-.88.61c-1,0-2-2.4-2.85-3.49-2.14-2.71-4.89-5.6-8.43-6.32a10.49,10.49,0,0,0-2.1-.22c-12.25,0-11.25,24.67-7.85,31.83a14.39,14.39,0,0,0,2,3.2c.34-.56.68-1.13,1-1.69a1.77,1.77,0,0,1,1.55-.93,1.94,1.94,0,0,1,1.74,2.85c-.4.77-.81,1.55-1.2,2.33a10.09,10.09,0,0,0,4.82,1.19A11.76,11.76,0,0,0,127,105a15.76,15.76,0,0,0,6.47-3,2,2,0,0,0-1-3.69,2.16,2.16,0,0,0-1,.27,13.44,13.44,0,0,1-5.92,1.7A6.11,6.11,0,0,1,121,98.39a9.43,9.43,0,0,1-1.88-2.93c-2.2-5.14-2.15-11.64-.79-17,.76-3,2.23-6.75,5-6.75a3.62,3.62,0,0,1,1.27.25,6,6,0,0,1,1.19.63c3.1,2.1,4.24,6.56,7.25,8.37a5.57,5.57,0,0,0,2.9.81,6.26,6.26,0,0,0,5.57-3.65c1.86-4.06.86-9.2.75-13.48-.13-4.84,2.58-6.34,6-6.34a20,20,0,0,1,5.38.88,43,43,0,0,1,4.61,1.62l.44.18a2.16,2.16,0,0,0,.79.17c2,0,3.27-3.23,1.57-4.48.17.49.33,1,.48,1.45a1.6,1.6,0,0,1-1.65,2.1,1.68,1.68,0,0,1-1.65-1.19c-.46-1.38-.94-2.77-1.46-4.15A26.33,26.33,0,0,0,148,53"/><path class="cls-14" d="M72.08,140.14c.82,6.2.77,12.51,1.62,18.68a12.87,12.87,0,0,1,1.94.51,1.35,1.35,0,0,1,1,1.16h0c1-6.3.34-13-.9-19.38a33,33,0,0,1-3.61-1"/><path class="cls-16" d="M76.59,160.49a1.35,1.35,0,0,1-1.23,1.59,1.53,1.53,0,0,1-.45-.08l-.41-.13c2.5,4.86,8.25,6.84,14,6.84A23.53,23.53,0,0,0,99.74,166l-.34-.12h-.14a1.5,1.5,0,0,1-1.6-1.57c0-.39,0-.78.08-1.17-.77.3-1.62.59-2.52.85a30,30,0,0,1-8.15,1.25c-4.25,0-8.31-1.21-10.48-4.77h0"/><path class="cls-14" d="M102.71,143.34a1.66,1.66,0,0,0-1.65,1.27c-.16.6-.31,1.2-.47,1.81a100.47,100.47,0,0,0-2.85,16.74c0,.39-.06.78-.08,1.17a1.5,1.5,0,0,0,1.6,1.57h.14l-.5-.18c-1.56-.55-1.11-2.85.28-2.85a1.45,1.45,0,0,1,.48.09l1.53.54c1.43-5,3-10.5,3.33-15.77.06-.88.08-1.76.06-2.63a1.81,1.81,0,0,0-1.87-1.75"/><path class="cls-16" d="M70.18,158.5c-8.48,0-18.53,5-24.32,9.61-9.52,7.58-14.78,20.57-18,31.92a133.75,133.75,0,0,0-4.81,40c.09,2.71-.31,6.53.57,9.1.75,2.18,3.19,3.88,4.83,5.46a29.38,29.38,0,0,0,3.71,3.08v-.73a1.07,1.07,0,0,1,1.14-1.12,1.14,1.14,0,0,1,1.19,1.12l.09,2.19a21,21,0,0,0,7.33,2.19c-.18-.87-.37-1.74-.56-2.61-5.44-1-9.39-4.27-13-8.59-1.7-2-2.14-4.93-2.21-7.91,0-2.33.15-4.7.16-6.69A133.2,133.2,0,0,1,31,200.89c2.89-10.33,7.27-21.33,15.1-28.95,5.25-5.11,15.65-10.65,24.09-10.65a15.3,15.3,0,0,1,4.33.58l.41.13a1.53,1.53,0,0,0,.45.08,1.42,1.42,0,0,0,.28-2.75,12.87,12.87,0,0,0-1.94-.51,18.44,18.44,0,0,0-3.52-.32"/><path class="cls-14" d="M28.1,326.74c-3.84,0-7.22,2.44-9.31,5.95a16.33,16.33,0,0,0-2,5.5c-3.58-4-8.54-8.79-12.41-8.79a4,4,0,0,0-3,1.26c-3.12,3.19-.47,8.44,1.75,11.22a35,35,0,0,0,6.65,6.23c-.66,0-1.32-.06-2-.06-4.57,0-8.36,1.19-6.27,6.06,1.56,3.61,7.38,5.22,10.83,5.43.25,0,.51,0,.76,0A12.26,12.26,0,0,0,19.13,358,51.35,51.35,0,0,0,17,367.62c-.25,2.26-.64,5.73,1.4,7.35a3.48,3.48,0,0,0,2.21.84c3.48,0,7.08-5.53,9.55-10.17q-.57-2.72-.93-5.49a75.22,75.22,0,0,1-5.45,8.31,12,12,0,0,1-2.61,2.9,2.4,2.4,0,0,0-.48.36,1.43,1.43,0,0,0,0-.65,19.61,19.61,0,0,1,.78-8.36,111.75,111.75,0,0,1,4-10.89c.54-1.4-.63-2.32-1.83-2.32a2,2,0,0,0-1.69.84,12.71,12.71,0,0,1-4.14,4,9.59,9.59,0,0,1-4.68,1.21h0c-1.13,0-7.35-1.22-6.95-2.92.08-.33.42-.69,1.09-1.05a2.42,2.42,0,0,1,1.11-.21,33.88,33.88,0,0,1,5,.94,47.56,47.56,0,0,0,5.2.6h.07A2,2,0,0,0,20,349.8a1.54,1.54,0,0,0-.55-.4,44,44,0,0,1-9.5-6c-1-.86-7.25-6.9-6.38-9.33a1.42,1.42,0,0,1,1-.86,1.24,1.24,0,0,1,.33,0c2.13,0,6.43,4.82,7.59,6,1.86,1.82,3.66,3.71,5.35,5.7a5.1,5.1,0,0,0,.56.67,1.62,1.62,0,0,0,1.16.54,1.81,1.81,0,0,0,1.6-2.3,1.7,1.7,0,0,0-.35-.66h0l-.39-.5c-1.34-2.17,0-6.37,1.13-8.23,1.54-2.64,3.82-4.53,6.66-4.53h.21a7.21,7.21,0,0,1,2.07.38,1.56,1.56,0,0,0,.5.09,1.09,1.09,0,0,0,.26,0c.24-.81.49-1.62.76-2.42a1.52,1.52,0,0,0-.72-.52l-.42-.14c-.13.42-.27.84-.42,1.25a1,1,0,0,1-1,.72,1,1,0,0,1-1-1c0-.47,0-.94,0-1.41H28.1"/><path class="cls-17" d="M38.79,314.19A54.23,54.23,0,0,0,32,327.82c-.27.8-.52,1.61-.76,2.42a72,72,0,0,0-2.54,25.12c.11,1.6.27,3.2.48,4.79q.36,2.78.93,5.49a72,72,0,0,0,3.29,11.3c0-1.05-.06-2.09-.1-3.13a1.28,1.28,0,0,1,1.35-1.42,1.57,1.57,0,0,1,1.6,1.42c.37,3.49.63,7,.78,10.46a1.71,1.71,0,0,0,.86.21,1.87,1.87,0,0,0,1.93-2.36c-4.29-12.79-7.3-26.71-6.58-40.26a60.06,60.06,0,0,1,7.34-26.44,1.69,1.69,0,0,1-1.11-.47,8.18,8.18,0,0,1-.7-.76"/><path class="cls-16" d="M40.26,189.9a.8.8,0,0,0-.68.36c-4.11,5.72-4.4,13.11-4.27,20.05,0,1.27.06,2.53.1,3.75,0,.12,0,.23,0,.35,0,1.5.1,3,.19,4.52a271.51,271.51,0,0,0,3.73,29.86c.55,3.26,1.31,6.57,2,9.92.19.87.38,1.74.56,2.61,1.58,7.45,2.78,15,1.2,22.37A31.46,31.46,0,0,1,40,292.38c-.94,1.68-2.33,3.14-3,5-1,2.65,0,4.77,1.64,6.66-1.67,3.34-2.29,7.18.13,10.18a8.18,8.18,0,0,0,.7.76,1.69,1.69,0,0,0,1.11.47h.12a1.46,1.46,0,0,0,.29,0c-.94-.87-1.86-1.78-2.75-2.73a1.46,1.46,0,0,1,1.07-2.44,1.34,1.34,0,0,1,1,.42c.65.66,1.33,1.29,2,1.92a8.57,8.57,0,0,1,.79-7.84,2.13,2.13,0,0,0-.33-2.56c-3.76-3.48.11-6.56,1.69-10.32a37.65,37.65,0,0,0,2.93-12.27,51.09,51.09,0,0,0-1-12.5c-1-5.51-2.53-11-3.56-16.35a299.58,299.58,0,0,1-4.52-33.22c-.63-8.18-1.89-19.21,2.62-26.44a.76.76,0,0,0-.71-1.17"/><path class="cls-16" d="M39.33,310.23a1.46,1.46,0,0,0-1.07,2.44c.89.95,1.81,1.86,2.75,2.73,14.1,13.18,33.28,18.65,52.55,18.65a109.39,109.39,0,0,0,33.63-5.4,1.7,1.7,0,0,0,.44-.24c0-.9-.1-1.8-.14-2.7a1.19,1.19,0,0,0-.51-.1h-.2c-1.27.16-2.53.33-3.79.51-11,1.56-21.87,3.77-33,3.77a73.55,73.55,0,0,1-8.08-.43c-14.21-1.54-28.88-7.22-39.61-16.9-.69-.63-1.37-1.26-2-1.92a1.34,1.34,0,0,0-1-.42"/><path class="cls-14" d="M125.54,278.58c-.1,6.84.59,13.77.83,20.6.17,5.05.32,10.1.53,15.15.09,2.3.2,4.61.33,6.91.09,1.49.18,3,.26,4.47,0,.9.09,1.8.14,2.7a234.49,234.49,0,0,1-.2,32.68h0a13.76,13.76,0,0,1,1.92.13c2.78-13,1.78-26.76,1.1-40-.71-13.92.13-28.61-2.09-42.44-.94-.05-1.89-.12-2.83-.22"/><path class="cls-17" d="M142.1,390.42a63.42,63.42,0,0,1-3.8,8.95c-.05,8-.23,16-1.07,24.08-1,9.81-2.42,19.59-3.14,29.43l-.18,2.71c-1.07,18.15,2.32,36,3.65,54a46.78,46.78,0,0,1,3.71,5.11c0-20.1-4.33-39.88-2.94-60.07,1.44-20.92,7.69-43.08,3.82-64a1.55,1.55,0,0,0-.05-.23"/><path class="cls-14" d="M144.52,279c-.88.05-1.75.08-2.63.1.08,1.05.18,2.1.29,3.15.73,7.11,2,14.2,2.69,21.3.88,9,1.53,18.06,1.62,27.13.17,16.86-1.23,34.46-5.33,50.86a144.93,144.93,0,0,1-7.3,18.47c-2.74,5.61-5.77,10.31-8.18,10.31a1.91,1.91,0,0,1-1.26-.5c-1-.86-.67-2.86.13-5.06a60.08,60.08,0,0,1,4-7.95c1.82-3.35,4.15-6.5,5.71-10a1.28,1.28,0,0,0-1-1.73.93.93,0,0,0-.72.39c-.45.56-.9,1.14-1.34,1.74a65.37,65.37,0,0,0-3.72,5.55,1.17,1.17,0,0,1-.36,2.27l-.94,0a41.65,41.65,0,0,0-4.07,10.56c-.92,4.3.83,6.7,3.45,6.7a7.44,7.44,0,0,0,4.86-2.31,39.77,39.77,0,0,0,7.9-10.69,63.42,63.42,0,0,0,3.8-8.95c.92-2.69,1.68-5.4,2.33-8a203.53,203.53,0,0,0,5.28-48A291.42,291.42,0,0,0,148,304.54c-.89-8.42-1.62-17.22-3.5-25.53"/><path class="cls-14" d="M131.22,382l-.22,0c-1.48.25-3,.44-4.46.59-2.65.27-5.3.43-8,.56a19,19,0,0,0,3.82.4,12.64,12.64,0,0,0,1.65-.09h.12c1.13,0,1.28,1.86.17,2.14a15.57,15.57,0,0,1-3.81.46,20.45,20.45,0,0,1-9.4-2.49,34.67,34.67,0,0,0-6.64.74c-1.91.5-3.56,1.4-4.13,3.07-.76,2.2.14,3.79,2,4.95,3.93,2.44,12.17,2.91,18.17,2.91,2.34,0,4.34-.07,5.62-.13l.94,0a1.17,1.17,0,0,0,.36-2.27l0,0c-4.52-1.14-9.39-1-14-1.46-2.46-.26-5.36-.41-7.64-1.4-1.11-.48-1.72-.82-1.78-1.14s.45-.6,1.57-.95a32.75,32.75,0,0,1,10-1.12h3.35c4.59,0,9.13-.22,13.09-2.47a1.23,1.23,0,0,0-.73-2.27"/><path class="cls-14" d="M127.44,361.09h0a12.57,12.57,0,0,0-6.09,1.5,9.5,9.5,0,0,0-2.61,2.11,14.08,14.08,0,0,0-3.32,9c-4.08-3.58-10.15-8.38-13.75-8.38-1.66,0-2.8,1-3,3.67a8,8,0,0,0,1.09,4.25c1.58,2.95,4.56,5.58,6.72,7.29a28.55,28.55,0,0,0,4.63,3,20.45,20.45,0,0,0,9.4,2.49,15.57,15.57,0,0,0,3.81-.46c1.11-.28,1-2.14-.17-2.14h-.12a12.64,12.64,0,0,1-1.65.09,19,19,0,0,1-3.82-.4c-7-1.39-14.62-6.27-16.61-12.56a5.75,5.75,0,0,1-.16-.58c-.25-1.15.11-1.59.79-1.59,1.86,0,6.13,3.26,7.07,4,2.67,2.19,5.09,4.65,7.63,7a1.43,1.43,0,0,0,1,.37,1.65,1.65,0,0,0,1.56-1.07,1.2,1.2,0,0,0-.22-1.08c-2.32-3.17-1.11-8.57,1.56-11.3a7.33,7.33,0,0,1,5.54-2.17,11.88,11.88,0,0,1,1.45.09,46.1,46.1,0,0,1,5.66,1.17,1.2,1.2,0,0,0,.92-2.19l-.25-.17a12.7,12.7,0,0,0-5.14-1.86,13.76,13.76,0,0,0-1.92-.13"/><path class="cls-14" d="M33.33,255.82a1.07,1.07,0,0,0-1.14,1.12v.73c.1,11.28.15,22.51-.52,33.77-.34,5.83-.83,11.63-1.41,17.44s-1.89,12-1.83,17.86c0,.47,0,.94,0,1.41a1,1,0,0,0,1,1,1,1,0,0,0,1-.72c.15-.41.29-.83.42-1.25,1.58-5.2,1.87-11.06,2.43-16.4.64-6.12,1.08-12.27,1.4-18.42.58-11.11.31-22.12-.1-33.21l-.09-2.19a1.14,1.14,0,0,0-1.19-1.12"/><path class="cls-18" d="M151.14,559.94a23.91,23.91,0,0,0-2.83.16c.68,1.1,1.52,2.2,2.4,3.43.26.36.52.72.76,1.07a40.93,40.93,0,0,1,18.05,6.74c3,2.08,6.52,5.28,5.8,9.34-1,5.81-8.07,9.12-12.8,11.33-5.58,2.59-11,4.91-16.09,8.35-6,4-12,8.3-18.74,11-.54.22-1.09.43-1.64.62a54.46,54.46,0,0,1-17.87,2.65c-1.75,0-3.48,0-5.21-.15-7.49-.41-17-1.6-20.39-8.36a30.34,30.34,0,0,1-4.44-2.6c-.41,8.21,8.63,12.72,15.8,14.33a67.41,67.41,0,0,0,14.63,1.57,65.53,65.53,0,0,0,14.2-1.51c8.64-1.94,16.22-6.63,23.53-11.43a90.19,90.19,0,0,1,10.27-6.33c3.66-1.76,7.48-3.18,11.09-5a30.87,30.87,0,0,0,7.48-5.38,20.27,20.27,0,0,0,3.54-4.64c2.34-4.33,2.41-9.29-2-14.14-5.71-6.35-16.4-11-25.58-11"/><path class="cls-18" d="M20.89,571a16.24,16.24,0,0,0-2.4,5.45,20.3,20.3,0,0,0-.25,8c1.14,6.88,6.08,10.9,12,14.07a43.79,43.79,0,0,0,20.76,5,52.75,52.75,0,0,0,21.52-4.65c-1.36-1.28-2.65-2.6-3.85-3.89-6.53,1.65-12.92,3.21-19.44,3.21a35.58,35.58,0,0,1-11.08-1.71c-5-1.64-12.17-4.85-14.44-10-1.83-4.12-1.35-8.57.2-12.62-.88-.79-1.72-1.6-2.53-2.43l-.45-.47"/><path class="cls-17" d="M34.67,372.39a1.28,1.28,0,0,0-1.35,1.42c0,1,.07,2.08.1,3.13.53,21.15-1.63,42.33-4.76,63.23s-6,41.94-10.19,62.53c-1.73,8.49-2.27,15.05,2.28,22.65,1.77,3,4.39,6.63,2.8,10.15-1.06,2.36-3.45,4-5.22,5.83-3.88,4-6.37,8.21-5.64,13.94.69,5.4,3.52,10.37,7.07,14.47.37.42.75.84,1.13,1.25l.45.47c.81.83,1.65,1.64,2.53,2.43,10.44,9.44,25.44,16,39.49,16h.85a45,45,0,0,1-2.7-3.85c-13.23-1.83-26.78-7.43-36.25-16.78-4.41-4.36-9.74-11.54-8.17-18.21,1.23-5.24,6.68-7.79,9.57-11.95,3-4.34,2.05-8.79-.25-13.27-1.61-3.12-3.89-5.87-4.53-9.4-1-5.5,1.06-11.33,2-16.71.29-1.66.58-3.32.86-5,3-17.73,5.63-35.61,8.22-53.39,2.76-18.9,4.93-38,4.09-57.07-.15-3.49-.41-7-.78-10.46a1.57,1.57,0,0,0-1.6-1.42"/><path class="cls-17" d="M63.26,351a1.68,1.68,0,0,0-1.65,1.2,43.51,43.51,0,0,0-1.9,9.07,61.14,61.14,0,0,0,1.93,21.8c1.51,5.59,4.21,9.74,7.14,14.58,1.77,3,0,7.92-.49,11.33-.71,4.4-1.46,8.79-2.19,13.18-2.83,17.09-5.62,34.28-5.44,51.65.08,8.41,1,16.87,1.73,25.33s1.31,17.18.63,25.7c-.6,7.59-2.78,21.29,6.8,23.17.29-.46.56-.92.83-1.38.38-.65.74-1.3,1.1-2-3.85-2-5.73-4.17-5.55-9.46.15-4.54,1.1-9,1.16-13.55.24-16-2.44-31.87-2.64-47.85-.21-16.7,2.3-33.24,5-49.68,1.28-7.84,2.6-15.68,3.65-23.56h0c.34-2.55.37-2.78-1.09-4.62a36.83,36.83,0,0,1-5-7.9C62.72,377.7,61.5,364,64.94,353.12A1.62,1.62,0,0,0,63.26,351"/><path class="cls-17" d="M135.88,508.5a2.34,2.34,0,0,0-1.88,3.2c3.47,8,8.86,14.82,10.13,23.75a34.22,34.22,0,0,1-1.06,13.69v.05c-.68,2.54-1.42,5.13-1.09,7.75a14.32,14.32,0,0,0,3,6.36c1.63,2.28,6.56,6.39,4.66,9.16-2,3-7.14,4.82-10.37,6.14-4.15,1.7-8.5,2.88-12.65,4.61-6.12,2.54-11.14,6.41-16.47,10.25s-11.48,8.78-18.3,9.78a10.75,10.75,0,0,1-1.68.13c-6.76,0-12.43-5.94-17.07-10.32-5.51-5.23-11.91-12.74-11.05-20.87.53-5,4-9.68,6.65-13.84s5.36-8.11,7.58-12.43l.3-.59a188.72,188.72,0,0,0,11.2-28.75,1.55,1.55,0,0,0-1.57-1.92,1.3,1.3,0,0,0-1.2.75c-.22.43-.44.86-.65,1.29-4.5,9.18-7.69,19-12.57,28-.36.66-.72,1.31-1.1,2-.27.46-.54.92-.83,1.38-3.65,5.89-8.77,12-11.09,18.71a22.28,22.28,0,0,0-1.12,4.88c-.55,5.22,1.21,10.09,3.9,14.44a45,45,0,0,0,2.7,3.85c.54.69,1.1,1.36,1.66,2,.85,1,1.77,2,2.76,3.08,1.2,1.29,2.49,2.61,3.85,3.89a52.61,52.61,0,0,0,5.66,4.64,30.34,30.34,0,0,0,4.44,2.6,22.85,22.85,0,0,0,2.3.91,17.5,17.5,0,0,0,5.32.83c10.25,0,19.67-8.9,28.2-15.05a53.84,53.84,0,0,1,5-3.29c8.61-4.82,18.72-6,26.82-11.88,5.91-4.27,4.68-8,1.21-13-.24-.35-.5-.71-.76-1.07-.88-1.23-1.72-2.33-2.4-3.43a8.94,8.94,0,0,1-1.38-7.16c1.12-5.25,2.5-10,2.16-15.44-.47-7.71-3.49-16-7.82-22.79a46.78,46.78,0,0,0-3.71-5.11c-.11-.13-.22-.27-.33-.39a1.75,1.75,0,0,0-1.35-.71"/><path class="cls-14" d="M296.33,156.83a32,32,0,0,0-5.18,13,1.87,1.87,0,0,0,1.89,2.33l.4,0a49.36,49.36,0,0,1,7.3-.46c1.77,0,3.55.05,5.33.11s3.56.11,5.33.11a45.15,45.15,0,0,0,9-.76c1.82-.37,1.21-2.88-.4-3-2.19-.2-4.38-.27-6.57-.27-3.22,0-6.46.16-9.69.32-2.78.14-5.57.28-8.34.32a57.18,57.18,0,0,1,5-11.28c-1.38-.1-2.74-.2-4.05-.32"/><path class="cls-14" d="M285.05,153.74c-1.13,2.22-2.16,4.5-3.11,6.8-1.42,3.41-3.2,7.27-3.37,11-.24,5.3,3.5,8.72,8.17,10.45a47.64,47.64,0,0,0,14.2,2.43c2.42-1,4.78-2,7-3a104.35,104.35,0,0,1-14.81-1.63c-4.7-.9-11.15-2.6-10.75-8.51.37-5.32,3-10.83,5.9-15.94a9.67,9.67,0,0,1-3.24-1.66"/><path class="cls-14" d="M345,185.64c-2.91,1.51-5.63,3-8.08,4.4-3.41,4.8-6.37,10-9.45,15l.49.33a1.71,1.71,0,0,1,.73-.18,1.43,1.43,0,0,1,.64.15c.47.23.92.48,1.37.74,3.31-5.39,6.54-11,10.33-16a41.27,41.27,0,0,1,4-4.48"/><path class="cls-14" d="M260.69,325.56c1.89,9.53,2.65,19.3,4.46,28.86,1,5.46,1.81,10.89,2.7,16.37.75,4.57,3.74,16.2,9.57,16.2a4.59,4.59,0,0,0,.73-.06,35.79,35.79,0,0,1,.35-4.34,6.51,6.51,0,0,1-.93-.13c-2.89-.65-3.89-3.51-4.81-7a91.11,91.11,0,0,1-1.95-12.18c-.63-5.24-1.92-10.37-2.87-15.57-1.28-7.09-2.45-14.19-4.2-21.18-1-.28-2-.59-3.05-.95"/><path class="cls-17" d="M283.69,372.77c-3.22,2.42-4.62,5.9-5.19,9.82a35.79,35.79,0,0,0-.35,4.34c-.18,6.84.91,14.3-1.11,19.68-1.85,4.9-8.91,7.87-9,13.38-.12,5.06,5.41,6.92,8,10.46-4.35,1.06-9.49,1-11.17,6a15.09,15.09,0,0,0,.74,9.81l.57-.14c1.6-.42,3.2-.84,4.8-1.21-.56-2-1.55-4-1.05-5.83a3.68,3.68,0,0,1,.94-1.61c1.67-1.75,4.89-2,7.62-2.63a11.78,11.78,0,0,0,2.35-.73,2.54,2.54,0,0,0,1.17-2.86,12.16,12.16,0,0,0-3.33-5.35c-1.63-1.6-4.62-2.95-5.17-5.29-.49-2.09,1.56-3.71,3.32-5.23a16.43,16.43,0,0,0,1.46-1.39,17.87,17.87,0,0,0,3.3-5.82c2.15-6,1.48-12.37,1.3-18.59-.13-4.58.09-10.92,3.27-14.73-.84-.66-1.66-1.35-2.43-2.07"/><path class="cls-16" d="M271.56,262.45l-3.64,1.5a137.31,137.31,0,0,0-2.61,33.83,89.76,89.76,0,0,0,1,10.33,91.1,91.1,0,0,0,1.85,9.13,57.55,57.55,0,0,0,2.54,7.61l2.76.48c1.58.27,1.27,2.91-.24,2.91H273l-1-.12c.61,1.35,1.24,2.69,1.89,4.05.33.71.67,1.43,1,2.15,1.81,3.8,2.75,6.85,1.67,11.07-.39,1.54-1,2.91-.82,4.52.44,4.5,4.42,6.09,7.6,8.37-4,1.48-6.79,4.38-4.09,9.17a23.14,23.14,0,0,0,4.35,5.33c.77.72,1.59,1.41,2.43,2.07a65.74,65.74,0,0,0,8.4,5.42,59.57,59.57,0,0,0,28,7.31h.86c7.35,0,16.2-1.13,22.53-5.29-.28-1-.55-2-.8-3.06-3,1.22-5.86,2.4-8.79,3.33a41.24,41.24,0,0,1-9.06,1.9l-1.06.07c-1,.06-2.05.09-3.08.09A55.48,55.48,0,0,1,287.89,372a27.94,27.94,0,0,1-5.51-5.35c-2.91-4.15.89-5.49,4.64-6.18a1.57,1.57,0,0,0,.68-2.59c-3.47-4-9.8-5.43-8.21-11.74a17.26,17.26,0,0,0-.87-12.16c-2.62-5.95-5.62-11.27-7.28-17.65a86.27,86.27,0,0,1-2.78-20.29c-.16-11.12.42-22.72,3-33.58v0"/><path class="cls-17" d="M307.94,396.43a1.32,1.32,0,0,0-1.38,1.08,51.23,51.23,0,0,0-.61,11.12c0,1.53.11,3.07.17,4.61a31.86,31.86,0,0,1-1.19,11,28.64,28.64,0,0,1-3.2,6.76c-1.8,2.85-2,5.09-.64,8.17.12.26.26.53.4.79,1.25,2.36,3.1,4.8.8,7a31.72,31.72,0,0,1-3.88,2.68,32.57,32.57,0,0,1,3.64,2.84c2.61-1.23,5.13-3,5.95-5.69,1.43-4.78-4.76-9-2.68-13,1.39-2.71,3.17-4.82,4.08-7.81a25.37,25.37,0,0,0,.94-4.85c.11-1.07.17-2.15.19-3.21.15-6.68-1.24-13.28-1-20a1.49,1.49,0,0,0-1.6-1.48"/><path class="cls-18" d="M279.62,443.77a35.51,35.51,0,0,0-6.59.69l-2.09.44c-1.6.37-3.2.79-4.8,1.21l-.57.14c-6.39,1.6-12.94,1.84-19.3,3.33a1.61,1.61,0,0,0-1.35,1.93l.61-.82a1.51,1.51,0,0,1,1.23-.63,1.35,1.35,0,0,1,1.26,2.08l-.82,1.23c.78.07,1.58.11,2.38.11a34,34,0,0,0,4.13-.27c.57-.09,1.14-.17,1.71-.23,2.27-.35,4.51-.83,6.62-1.27,5.85-1.24,11.72-4,17.76-4h.31a33.57,33.57,0,0,1,15.53,4.69c3.62,2.06,6.37,5.2,9.78,7.5l.32-.46a1.63,1.63,0,0,1,1.3-1.77l.56-.14c-1.92-1.63-3.68-3.4-5.55-5.05a32.57,32.57,0,0,0-3.64-2.84c-.49-.32-1-.63-1.51-.92-.82-.45-1.66-.88-2.51-1.28A41.14,41.14,0,0,0,283,444a24.52,24.52,0,0,0-3.41-.23"/><path class="cls-18" d="M246.76,450.06a1.51,1.51,0,0,0-1.23.63l-.61.82c-1.88,2.57-3.85,5.68-3.3,8.94.86,5.15,8,6.11,12,7.05a193.17,193.17,0,0,0,23.08,3.44c2.32.25,4.61.55,6.9.9q6.09-.88,12-2a28.19,28.19,0,0,1-6.28-2c-6.65-1-13.47-1.33-19.88-2.05s-12.94-1.49-19.13-3.32c-3.47-1-6-2.19-4.68-6.13a9.87,9.87,0,0,1,1-2.05c.19-.31.39-.63.59-.93l.82-1.23a1.35,1.35,0,0,0-1.26-2.08"/><path class="cls-18" d="M305.74,459.42l-.32.46a15.34,15.34,0,0,0-1,1.93,21.81,21.81,0,0,0-1.34,4.26l0,.15c-.16.72-.28,1.46-.37,2.18l3.19-.73a1.67,1.67,0,0,1,.72-1.53,49.11,49.11,0,0,1,1.73-5l-.28.06a3,3,0,0,1-.41,0,1.9,1.9,0,0,1-1.86-1.8"/><path class="cls-18" d="M314.65,456.74a33.26,33.26,0,0,0-4.26.27,28,28,0,0,0-2.79.5l-.56.14a1.63,1.63,0,0,0-1.3,1.77,1.9,1.9,0,0,0,1.86,1.8,3,3,0,0,0,.41,0l.28-.06a30.07,30.07,0,0,1,5.37-.46,45.68,45.68,0,0,1,11.08,1.48q3.31-1.22,6.05-2.49a51.57,51.57,0,0,0-16.14-2.91"/><path class="cls-18" d="M314.51,465.41c-2.45.12-4.89.34-7.23.51a1.61,1.61,0,0,0-.72.22,1.67,1.67,0,0,0-.72,1.53q4.43-1.05,8.67-2.26"/><path class="cls-18" d="M258.34,452.84a28.27,28.27,0,0,0-2.92.14c-.57.06-1.14.14-1.71.23s-1.4.28-2.07.47a15.34,15.34,0,0,0-5,2.35c-.49.35-.45,1.37.26,1.37H247c4.1-.54,8-1.54,12.13-1.54.5,0,1,0,1.51.05a36.79,36.79,0,0,1,14.91,4.29c4.56,2.39,9,5.53,13.74,7.65a28.19,28.19,0,0,0,6.28,2l3.81-.76a1.43,1.43,0,0,0-1-1.85,40.12,40.12,0,0,1-7.34-2.49c-6.49-2.85-12.29-6.89-19.1-9.4a41,41,0,0,0-13.64-2.51"/><path class="cls-14" d="M243.68,41.62a2.23,2.23,0,0,1-.55-.07c-.16,0-.25-.06-.19-.06a5.1,5.1,0,0,1,.74.13m.26-4.86q-.33,0-.63,0c-2.82.3-6.22,2.91-8.75,4.24l-10.17,5.33a2.09,2.09,0,0,0-1.21,1.9,2.59,2.59,0,0,1,2.56-2.19,2.09,2.09,0,0,1,.43,0h.07l1.5.27,5.28.88,1.76-.93c1.1-.57,8-3.22,9.29-4.63,1.24.28,2.56.36,3.81.54q18,2.58,35.93,5.2l102.7,14.86,20.58,3-11.94,10,.63.19a6.57,6.57,0,0,1,3.16,2.88l13.15-11.07c-.47-.72-.94-1.44-1.42-2.15-1.22-1.8.45-3.51,2.15-3.51a2.36,2.36,0,0,1,2,1.08L415,63a2.11,2.11,0,0,0-1.66-1.64L343.88,51.33Q297.3,44.6,250.74,37.85c-2-.29-4.79-1.09-6.8-1.09"/><path class="cls-14" d="M412.82,61.67c-1.7,0-3.37,1.71-2.15,3.51.48.71.95,1.43,1.42,2.15,14.1,22.17,17.76,50.77,11.49,75.94-4.26,17.07-10.86,33.51-16.63,50.1-6.61,19-12.59,38.26-15.51,58.17A167.14,167.14,0,0,0,393,309.4c3.87,19.08,10.56,37.43,17.32,55.64,6,16.08,12.33,32.3,15.39,49.24,3.33,18.48.94,37.37-3.77,55.4C418.46,483,413.4,495.59,408,508.22c-.62,1.45-.4.88-.79,1.28a66.12,66.12,0,0,1-5.4,4.45l-2.75,2.27c-1.43,3.31-3,6.58-4.57,9.78a2,2,0,0,1-.3.42q5-4.09,9.93-8.19c2.28-1.86,6-4.25,7.41-6.32,1.62-2.37,2.62-5.57,3.74-8.18,2.57-6,4.91-12.08,7-18.25,5.71-17.09,9.83-35.09,9.87-53.18,0-17.22-4.75-33.73-10.36-49.86-13.2-38-30-75.35-27.09-116.58,2.83-40.41,20.88-76.59,31.84-115,5.34-18.74,6.65-37.45,1.81-56.5-2.75-10.81-7-22-13.3-31.37l-.19-.27a2.36,2.36,0,0,0-2-1.08"/><path class="cls-16" d="M49,306a1.05,1.05,0,0,0-.94,1.55c6.57,10.14,19.18,14.05,30.84,14.05.8,0,1.59,0,2.38-.05a1.42,1.42,0,0,0,1.42-1.73,1.58,1.58,0,0,0-1.42-1.29c-10.56-1.28-22-2.78-29.89-10.39a24.93,24.93,0,0,1-1.72-1.83A.86.86,0,0,0,49,306"/><path class="cls-16" d="M99.18,162.86c-1.39,0-1.84,2.3-.28,2.85l.5.18.34.12c20.67,7.5,36.85,21.24,45.69,41.68,9.09,21.05,8.24,43.88,8.18,66.32a39.24,39.24,0,0,1-12.11,1.71h-1.45c-1,0-2,0-3,0a97.67,97.67,0,0,1-9.82-.61c-2.46-.28-6.48-.38-8.65-1.76-2.82-1.79-2.18-8.9-2.15-12.17,0-4.46.37-8.92.22-13.39-.21-6.33-.89-12.54-1.33-18.79-.28-4.08-.46-8.17-.34-12.32a1.2,1.2,0,0,0-1.27-1.16,1,1,0,0,0-1,.67,1.16,1.16,0,0,0,0,.18l0,.1a59,59,0,0,0-.64,10.93c.2,8,1.47,15.89,1.4,23.88,0,5.17-.56,10.36-.12,15.54.26,3.1.16,7.5,3,9.21a22.92,22.92,0,0,0,9.28,2.57c.94.1,1.89.17,2.83.22,2.42.13,4.77.15,6.77.22,1.69.05,3.43.1,5.21.1h1.54c.88,0,1.75-.05,2.63-.1a34.61,34.61,0,0,0,11.2-2.24,1.75,1.75,0,0,0,1.23-1.61c0-24.12.79-48.16-9.37-70.63-9.16-20.27-25.8-33.65-46.39-41L99.66,163a1.45,1.45,0,0,0-.48-.09"/><path class="cls-15" d="M330.78,123.34c-17.68,0-37,10.26-49.25,21.79-1.69,1.59-.52,4.87,1.84,4.88.27-6.89,15.81-12.6,27.21-16.8,1.1-.44,2.21-.85,3.33-1.24,2-.76,3.83-1.46,5.24-2.1,6.16-2.06,12.25-4,18.28-6l-.87-.13a42.62,42.62,0,0,0-5.78-.39"/><path class="cls-16" d="M260.54,267c-1.54.63-3.07,1.24-4.6,1.85a188.49,188.49,0,0,0-5.56,39,37.85,37.85,0,0,0,.8,10.07c.77,3.24,1.37,3.94,4.15,5.39a39.71,39.71,0,0,0,5.36,2.33c1,.36,2,.67,3.05.95a60.15,60.15,0,0,0,8.33,1.6l1,.12h.16c1.51,0,1.82-2.64.24-2.91l-2.76-.48a44,44,0,0,1-6-1.44c-2.37-.77-6.82-2.14-8.65-4-1.41-1.45-1.94-4-2-6.82a79.71,79.71,0,0,1,.88-11.28A260.52,260.52,0,0,1,260.54,267"/><path class="cls-16" d="M357.85,333.53l-1.54.55c-.58.2-1.18.4-1.79.59a18,18,0,0,0-.3,4.81c.27,1.41.48,2.84.67,4.27.3,1.28.68,2.55,1.11,3.81,1,2.92,2.34,5.77,3,8.78a12.64,12.64,0,0,1-1.3,8.87,33.13,33.13,0,0,1,.13,4.77c3.07-4.65,5-9.22,3.46-15-2-7.35-5.08-13.85-3.47-21.43"/><path class="cls-14" d="M338.83,335.51c2.39,14.49,2.76,29.41,6.24,43.71.25,1,.52,2,.8,3.06.11.41.23.81.34,1.21a68.23,68.23,0,0,0,2.43,6.9,40,40,0,0,0,5.09,9.06l2.94-1.67c-6.94-7.64-8.9-20.92-10.5-30.67-1.68-10.3-2.58-20.7-4.38-31a18.3,18.3,0,0,1-3-.62m14.35-.46a37.84,37.84,0,0,1-3.92.86c.21,2.46.58,4.93,1,7.41.51,3,1.09,6,1.5,9,1.05,7.48,3.77,15.87.94,23.19a2,2,0,0,0,1.89,2.54,1.54,1.54,0,0,0,.55-.11,19,19,0,0,1,5.78-1.3c1.72,0,2.95.64,2.29,2.74a2.17,2.17,0,0,0,2.1,2.61,1.58,1.58,0,0,0,1.28-.64,45.07,45.07,0,0,1,3.68-4.12,21.91,21.91,0,0,1,3.19-2.94,2.41,2.41,0,0,1,1.19-.43,1,1,0,0,1,1,.71c.77,1.67-1,4.46-3.22,7.15-2,2.45-4.34,4.81-5.48,6.2l0,0h0l-.3.39c-.94,1.28.28,2.74,1.59,2.87l2.06-1.18a27,27,0,0,1,7-4.84,11.17,11.17,0,0,1,3.33-1.19l.45,0h.19q2.1-1.12,4.2-2.19a5.23,5.23,0,0,0-4.1-1.73,11.23,11.23,0,0,0-3.73.74c2.37-3.7,3.56-7.56.43-10.28a4.08,4.08,0,0,0-2.75-1.06c-2.88,0-6.11,2.81-8.59,5.52-1.2-1.51-3.44-2.09-5.87-2.1a18.22,18.22,0,0,0-3.28.32,22.64,22.64,0,0,0,.37-3.17,33.13,33.13,0,0,0-.13-4.77c-.32-3.51-1.05-7-1.54-10.47s-.81-7.29-1.3-11c-.19-1.43-.4-2.86-.67-4.27a45.35,45.35,0,0,0-1-4.43"/><path class="cls-16" d="M347.34,226.15c-1,.64-2.09,1.29-3.21,2a59.73,59.73,0,0,1,5.64,17.14c1.29,7.79,1.68,15.7,2.75,23.52,1.29,9.41,2.89,18.75,4.73,28.06,1.3,6.55,2.74,13.06,4.14,19.58.53,2.46,1,4.93,1.54,7.38.59,2.94,0,2.59-2.68,4.13l-1.11.61a32.27,32.27,0,0,1-14.37,3.94,17.86,17.86,0,0,1-4-.42c-4.28-1-4.21-5-4.89-8.88A93.27,93.27,0,0,1,334.76,313c-.11-1.77-.19-3.54-.25-5.31-.67-20,3.24-40.28-.08-60.12a1.32,1.32,0,0,0-1.4-1.1A1.51,1.51,0,0,0,331.4,248c.16,3.09.23,6.18.24,9.28.07,18.39-2,36.78-.79,55.13.26,3.89.74,7.74,1.38,11.58q.16,1,.36,2c.54,3,.64,5.55,2.33,7.36a6.28,6.28,0,0,0,2,1.41,15,15,0,0,0,1.87.71,18.3,18.3,0,0,0,3,.62,21.7,21.7,0,0,0,2.8.17,29.43,29.43,0,0,0,4.67-.39,37.84,37.84,0,0,0,3.92-.86c.46-.12.9-.25,1.34-.38.61-.19,1.21-.39,1.79-.59l1.54-.55c3.64-1.35,9.08-3.73,9.39-7.3.42-4.69-2-10.61-3-15.18-4.34-19.84-7.49-39.74-9.9-59.89-1.06-8.8-2.79-17.21-7-25m-18.62-20.93a1.71,1.71,0,0,0-.73.18l.47.28a2.08,2.08,0,0,1,.8.43,16.7,16.7,0,0,0,3.33,1.21c-.6-.43-1.22-.84-1.86-1.21-.45-.26-.9-.51-1.37-.74a1.43,1.43,0,0,0-.64-.15"/><path class="cls-15" d="M95.27,0c-10,0-19.92,2.7-27.76,9C53,20.61,48.53,40.75,47.86,58.46a171.59,171.59,0,0,0,3,37c1.29,7.07,2.92,14.07,4.82,21,1.52,5.58,2.63,12.35,6.28,17a20.84,20.84,0,0,0,10.08,6.67,33,33,0,0,0,3.61,1,47.57,47.57,0,0,0,9.67.91c1,0,2,0,2.91-.07,2-.09,4-.28,5.86-.51a6.35,6.35,0,0,0,2.31-.75c1.83-1,3-2.86,4.54-4.7a69.55,69.55,0,0,0,6.93-9.28c4.46-7.33,8.14-15.11,12.06-22.73.39-.78.8-1.56,1.2-2.33a1.94,1.94,0,0,0-1.74-2.85,1.77,1.77,0,0,0-1.55.93c-.35.56-.69,1.13-1,1.69-3.21,5.34-6.25,10.77-9.38,16.16-1.58,2.71-3.16,5.45-4.92,8-2,3-5,7.64-8,9.74-1.56,1.08-3.94,1.38-6.38,1.38-2.17,0-4.39-.24-6.14-.36C77,136,70.93,134.91,67.12,131.2c-3.64-3.55-4.55-9.87-5.86-14.58-1.78-6.39-3.38-12.83-4.7-19.33A174.68,174.68,0,0,1,52.92,64c-.1-16.36,2.32-35.35,13.93-47.89C74.4,8,85.08,4.6,95.91,4.59a56.89,56.89,0,0,1,18.43,3.15c21.24,7.36,34.82,26.82,42.42,47.16.52,1.38,1,2.77,1.46,4.15a1.68,1.68,0,0,0,1.65,1.19,1.6,1.6,0,0,0,1.65-2.1c-.15-.48-.31-1-.48-1.45-7-20.59-19.56-41-39.72-50.7a60.89,60.89,0,0,0-26-6"/><path class="cls-16" d="M328.46,205.68c.26.15.53.3.8.43a2.08,2.08,0,0,0-.8-.43"/><path class="cls-16" d="M293.57,361.25a.92.92,0,0,0-.8,1.37,14.94,14.94,0,0,0,1.55,1.9c3.51,3.66,8.85,5.68,14.39,6.7a54,54,0,0,0,6.13.76c1.52.1,3,.15,4.43.15,1.13,0,2.23,0,3.26-.08a1.42,1.42,0,0,0,0-2.83c-2.07-.13-4.09-.28-6.07-.49-8-.85-15.34-2.6-22.46-7.34a.71.71,0,0,0-.43-.14"/><path class="cls-19" d="M403.82,100.33c-7.55,2.66-14.35,4.18-21.88,7.19-14.75,6.41-29.46,11.4-44.51,16.34,19.25,3.2,28,23,22.93,40.86a6.81,6.81,0,0,1,2.65,1.44c2.63,2.32,2.08,5.88-.42,8.05s-5.61,2.76-8.73,3.26c-2.85,2.81-6,5.35-8.83,8.17,19.91-10.33,48.66-22.25,61.52-27.7a91.28,91.28,0,0,0,2.82-16.24,101.57,101.57,0,0,0-5.55-41.37"/><path class="cls-20" d="M331.41,128.85a54.52,54.52,0,0,0-17.5,3.12l-3.33,1.24a82.14,82.14,0,0,0-18.74,10.68q3.53-.1,7.08-.11a140.65,140.65,0,0,1,33,3.48c3.35.81,7.57,1.91,8.95,5.49,1.11,2.87-.18,5.94-1.71,8.58a61.63,61.63,0,0,0,13,4.31,1.83,1.83,0,0,1,.45.15,12.2,12.2,0,0,1,3.63-1.24c.51-8.67,2.11-17.08-3-24.85-4.5-6.81-12.64-10.64-20.67-10.83l-1.07,0"/><path class="cls-21" d="M293.28,149.91a13.33,13.33,0,0,0-1.87.15c-1,1.71-2.08,3.5-3.12,5.34a38.89,38.89,0,0,0,8,1.43c.63-1,1.3-1.88,2-2.79.14-3-2.24-4.13-5.05-4.13"/><path class="cls-22" d="M298.31,149.5q-3.31,0-6.63.1c-.08.15-.17.31-.27.46a13.33,13.33,0,0,1,1.87-.15c2.81,0,5.19,1.1,5.05,4.13a54.46,54.46,0,0,1,4-4.5c-1.33,0-2.66,0-4,0"/><path class="cls-21" d="M310.5,151.82a27.26,27.26,0,0,0-7.39,1c-1,1.4-1.88,2.86-2.73,4.35,10.18.73,21.45,1.18,23.05,7.87,1.76,7.36-5.6,12.07-15.48,16.46,9.2.45,18.51.21,27.56,1.1a.51.51,0,0,1,.25.1.54.54,0,0,1,.3-.11l.28,0h0a.51.51,0,0,1,0,1h-.31a.58.58,0,0,1-.27-.09.33.33,0,0,1-.15.05c-1,.18-2.08.34-3.13.47-6.75,3.7-11.45,9.76-15.46,16.38a40.85,40.85,0,0,0-1.48,5.42,2.35,2.35,0,0,1-.17.51,2.21,2.21,0,0,1,0,.37c.09,2,.29,4.33,2.29,5.2a6.82,6.82,0,0,0,2.63.58,4.11,4.11,0,0,0,1.4-.23c2.36-.85,3.66-3.85,4.91-5.82h0l.83-1.33a11.63,11.63,0,0,1-3.14-3.29c-1.53-2.39,3.84-6.69,12.59-11.74.51-.72,1-1.44,1.57-2.14a63.9,63.9,0,0,1,11.64-11.24,1.71,1.71,0,0,1,1.56-2.35,29.93,29.93,0,0,0,6.24-1.05c1.56-.46,3.61-1.81,3.86-3.27a15.09,15.09,0,0,0-4.19-.57,16.73,16.73,0,0,0-7.57,1.8,5,5,0,0,0-.42,1,1,1,0,0,1-1,.79,1.11,1.11,0,0,1-1.13-1.39,7.78,7.78,0,0,1,1.44-2.89c-5.18-.07-9.93-2-14.75-4.13a2.58,2.58,0,0,1-.92-3.5c.56-1,1.23-2,1.73-2.94-8-3-16.2-6.36-24.48-6.36"/><path class="cls-22" d="M305.43,149.63c-.8,1-1.58,2.08-2.32,3.17a27.26,27.26,0,0,1,7.39-1c8.28,0,16.49,3.33,24.48,6.36,1-2,1.32-3.79-1.33-4.82-4.47-1.74-9.76-2.14-14.48-2.69s-9.15-.88-13.74-1"/><path class="cls-22" d="M332.51,184c-2.86.37-5.74.59-8.62.71-1.29,3.37-3.32,6.54-4.66,9.9-.77,1.92-1.53,3.82-2.18,5.77,4-6.62,8.71-12.68,15.46-16.38"/><path class="cls-22" d="M357.61,167a9.24,9.24,0,0,0-7.55,4.21,16.73,16.73,0,0,1,7.57-1.8,15.09,15.09,0,0,1,4.19.57c.13-.75-.22-1.54-1.38-2.25a5.43,5.43,0,0,0-2.83-.73"/><path class="cls-19" d="M300.94,184.44c-4.38,1.79-8.93,3.62-13.21,5.64C269.28,197.6,243.56,205.64,224,217c-5.21,14.23-9.37,28.89-10.75,44a169,169,0,0,0-.4,23.92c12-4.09,27.16-9.74,43.09-16.11q1.26-5,2.83-9.88c4.34-13.59,7.86-29,19.32-38.52,9.57-7.91,21.74-11.81,33.56-15a2.28,2.28,0,0,1,0-.68,54.54,54.54,0,0,1,4.15-11.55,46.72,46.72,0,0,1,4.6-8.37c-1,0-2,0-2.95,0-3.63,0-7.26-.1-10.89-.19-1.85,0-3.75-.1-5.66-.19M287.2,149.79c-1.22.06-2.43.13-3.65.21h-.18a4.89,4.89,0,0,0,.18,1.5,4.49,4.49,0,0,0,1.5,2.23c.68-1.34,1.39-2.66,2.15-4"/><path class="cls-23" d="M311.48,207.37c-9.79,4-20,7.61-28.62,13.88-11.73,8.56-15,22.13-19.33,35.31-1.14,3.48-2.12,6.94-3,10.4q3.68-1.48,7.38-3c.12-.57.25-1.14.39-1.7,2.06-8.67,5.65-18.49,11.76-25.33l.21-.26-.16.21q.79-.9,1.65-1.71a.67.67,0,0,1,.48-.18c.45,0,.92.37.71.87-2.42,5.86-5.5,11.18-8,16.83-.74,2.68-1.4,5.38-1.94,8.1-.08.39-.15.77-.22,1.15,27.44-11.44,54.91-24.08,71.34-33.82A62,62,0,0,0,329,208.91c-2.06,3.35-4.3,6.91-8.63,7.15-.23,0-.46,0-.68,0-5.31,0-7.9-3.7-8.21-8.71"/><path class="cls-24" d="M275,252.68a56.6,56.6,0,0,0-3.39,9.77l1.23-.52c.07-.38.14-.76.22-1.15.54-2.72,1.2-5.42,1.94-8.1m5.33-16-.21.26.05,0,.16-.21"/><path class="cls-25" d="M302.29,149.54a54.46,54.46,0,0,0-4,4.5c-.7.91-1.37,1.83-2,2.79,1.31.12,2.67.22,4.05.32.85-1.49,1.77-3,2.73-4.35.74-1.09,1.52-2.15,2.32-3.17-1.05,0-2.09-.07-3.14-.09"/><path class="cls-25" d="M336.37,182.55h0l-.28,0a.54.54,0,0,0-.3.11c.26.2.33.63,0,.79a.58.58,0,0,0,.27.09h.31a.51.51,0,0,0,0-1"/><path class="cls-25" d="M308,181.48c-2.23,1-4.59,2-7,3,1.91.09,3.81.14,5.66.19,3.63.09,7.26.19,10.89.19,1,0,2,0,2.95,0a14.37,14.37,0,0,1,2.3-2.43,1.09,1.09,0,0,1,.68-.24.91.91,0,0,1,.95,1.19q-.21.7-.48,1.38c2.88-.12,5.76-.34,8.62-.71,1.05-.13,2.09-.29,3.13-.47a.33.33,0,0,0,.15-.05c.3-.16.23-.59,0-.79a.51.51,0,0,0-.25-.1c-9.05-.89-18.36-.65-27.56-1.1M291.68,149.6c-1.49.05-3,.11-4.48.19-.76,1.29-1.47,2.61-2.15,4a9.67,9.67,0,0,0,3.24,1.66c1-1.84,2.11-3.63,3.12-5.34.1-.15.19-.31.27-.46"/><path class="cls-25" d="M327.5,205.07l-.83,1.33a1.66,1.66,0,0,1,.89-.71,2.49,2.49,0,0,1,.43-.29l-.49-.33m22.66-28.41a63.9,63.9,0,0,0-11.64,11.24c-.54.7-1.06,1.42-1.57,2.14,2.45-1.41,5.17-2.89,8.08-4.4,2.85-2.82,6-5.36,8.83-8.17l-1.68.27-.39,0a1.66,1.66,0,0,1-1.63-1.11"/><path class="cls-25" d="M323.42,182.13a1.09,1.09,0,0,0-.68.24,14.37,14.37,0,0,0-2.3,2.43,46.72,46.72,0,0,0-4.6,8.37,54.54,54.54,0,0,0-4.15,11.55,2.28,2.28,0,0,0,0,.68l.28-.07a2.08,2.08,0,0,1,3.47,1,2.35,2.35,0,0,0,.17-.51,40.85,40.85,0,0,1,1.48-5.42c.65-2,1.41-3.85,2.18-5.77,1.34-3.36,3.37-6.53,4.66-9.9q.27-.67.48-1.38a.91.91,0,0,0-.95-1.19"/><path class="cls-26" d="M282.25,235a.67.67,0,0,0-.48.18q-.86.81-1.65,1.71l-.05,0c-6.11,6.84-9.7,16.66-11.76,25.33-.14.56-.27,1.13-.39,1.7l3.64-1.5a56.6,56.6,0,0,1,3.39-9.77c2.51-5.65,5.59-11,8-16.83.21-.5-.26-.87-.71-.87"/><path class="cls-5" d="M310.58,133.21c-11.4,4.2-26.94,9.91-27.21,16.8h.18c1.22-.08,2.43-.15,3.65-.21,1.5-.08,3-.14,4.48-.19q3.31-.1,6.63-.1c1.32,0,2.65,0,4,0,1,0,2.09.05,3.14.09q6.88.24,13.74,1c4.72.55,10,1,14.48,2.69,2.65,1,2.34,2.87,1.33,4.82-.5,1-1.17,2-1.73,2.94a2.58,2.58,0,0,0,.92,3.5c4.82,2.15,9.57,4.06,14.75,4.13a11.32,11.32,0,0,1,3.62-3,1.83,1.83,0,0,0-.45-.15,61.63,61.63,0,0,1-13-4.31c1.53-2.64,2.82-5.71,1.71-8.58-1.38-3.58-5.6-4.68-8.95-5.49a140.65,140.65,0,0,0-33-3.48q-3.56,0-7.08.11a82.14,82.14,0,0,1,18.74-10.68m26.85-9.35c-6,2-12.12,4-18.28,6-1.41.64-3.21,1.34-5.24,2.1a54.52,54.52,0,0,1,17.5-3.12l1.07,0c8,.19,16.17,4,20.67,10.83,5.13,7.77,3.53,16.18,3,24.85a9.93,9.93,0,0,1,1.79-.16,8.38,8.38,0,0,1,2.4.33c5.1-17.9-3.68-37.66-22.93-40.86"/><path class="cls-25" d="M358,164.39a9.93,9.93,0,0,0-1.79.16,12.2,12.2,0,0,0-3.63,1.24,11.32,11.32,0,0,0-3.62,3,7.78,7.78,0,0,0-1.44,2.89,1.11,1.11,0,0,0,1.13,1.39,1,1,0,0,0,1-.79,5,5,0,0,1,.42-1,9.24,9.24,0,0,1,7.55-4.21,5.43,5.43,0,0,1,2.83.73c1.16.71,1.51,1.5,1.38,2.25-.25,1.46-2.3,2.81-3.86,3.27a29.93,29.93,0,0,1-6.24,1.05,1.71,1.71,0,0,0-1.56,2.35,1.66,1.66,0,0,0,1.63,1.11l.39,0,1.68-.27c3.12-.5,6.22-1.08,8.73-3.26s3.05-5.73.42-8.05a6.81,6.81,0,0,0-2.65-1.44,8.38,8.38,0,0,0-2.4-.33"/><path class="cls-26" d="M311.93,205.33l-.28.07c-11.82,3.2-24,7.1-33.56,15-11.46,9.48-15,24.93-19.32,38.52q-1.56,4.88-2.83,9.88c1.53-.61,3.06-1.22,4.6-1.85.87-3.46,1.85-6.92,3-10.4,4.3-13.18,7.6-26.75,19.33-35.31,8.58-6.27,18.83-9.85,28.62-13.88,0-.23,0-.47,0-.7a1.82,1.82,0,0,1,.47-1.34"/><path class="cls-19" d="M332.59,207.32c6.08,4.38,10.69,11.73,14.24,17.91.18.31.35.61.51.92,8.25-5.18,12.87-9.37,12-11.89-3-8.28-16.74-4.34-26.71-6.94"/><path class="cls-26" d="M329.26,206.11a1.45,1.45,0,0,1,.26,1.95l-.52.85a62,62,0,0,1,15.13,19.2c1.12-.67,2.2-1.32,3.21-2-.16-.31-.33-.61-.51-.92-3.55-6.18-8.16-13.53-14.24-17.91a16.7,16.7,0,0,1-3.33-1.21M328,205.4a2.49,2.49,0,0,0-.43.29,1.82,1.82,0,0,1,.46-.06,2.12,2.12,0,0,1,.44.05l-.47-.28"/><path class="cls-26" d="M313.38,204.74a2,2,0,0,0-1.45.59,1.82,1.82,0,0,0-.47,1.34c0,.23,0,.47,0,.7.31,5,2.9,8.71,8.21,8.71.22,0,.45,0,.68,0,4.33-.24,6.57-3.8,8.63-7.15l.52-.85a1.45,1.45,0,0,0-.26-1.95c-.27-.13-.54-.28-.8-.43a2.12,2.12,0,0,0-.44-.05,1.82,1.82,0,0,0-.46.06,1.66,1.66,0,0,0-.89.71h0c-1.25,2-2.55,5-4.91,5.82a4.11,4.11,0,0,1-1.4.23,6.82,6.82,0,0,1-2.63-.58c-2-.87-2.2-3.25-2.29-5.2a2.21,2.21,0,0,0,0-.37,2,2,0,0,0-2-1.56"/><path class="cls-19" d="M393.11,378q-3.86,1.77-7.73,3.77a6.39,6.39,0,0,1,1,1.51c4.12,8.47-10.59,18.24-16.75,21a13.12,13.12,0,0,1-5.38,1.25,10.37,10.37,0,0,1-2.75-.37c0,4.54.69,9.1-.11,13.6a16.4,16.4,0,0,1-2.38,6.33c-1.08,1.59-2.81,2.48-4,3.94-2.24,2.82-.05,3.6,1.43,6a25.6,25.6,0,0,1,2.6,6.06,21.79,21.79,0,0,1,0,12.94c-.42,1.23-2.48,3.67-2.29,4.79.23,1.34,3.3,3.61,4.3,4.54,2.35,2.19,5.87,4.46,6.07,8,.3,5.41-5.78,7.82-10.67,8.47.71,3.61,1.43,8.17-1.29,10.43a2.34,2.34,0,0,1-1.48.53,2,2,0,0,1-1-.27c-7.5-.14-15.15-2.72-22.24-4.9-7.47-2.3-14.93-4.71-22.38-7.07-2.41-.77-4.42-1.62-5.25-3.62-6.44-1-12.78-2.2-19.2-3.15a350.77,350.77,0,0,1-43.86,3.32l91.95,28.38,59.44,18.35c.4-.88.83-1.82,1.19-2.63,10.46-23,17.84-48.4,18-73.8.1-23.19-8.8-45.71-17.18-67.49"/><path class="cls-21" d="M380.51,384.29c-3.43,1.83-6.86,3.75-10.27,5.69l-.63.64a1.67,1.67,0,0,1-1.25.55h-.18c-3.52,2-7,4-10.48,6a10.64,10.64,0,0,0,2.58,2.48,16.34,16.34,0,0,1,4.17,1.88c3.36,0,6.77-1.72,9.8-4.05,2.32-4.53,5.81-8.34,6.26-13.2"/><path class="cls-22" d="M357.7,397.18l-1,.6c.14.16.29.31.44.47a11.68,11.68,0,0,0,2.24,1.84,1.83,1.83,0,0,1,.33,0,2,2,0,0,1,1.86,1,9.28,9.28,0,0,0,2.84.43h.07a16.34,16.34,0,0,0-4.17-1.88,10.64,10.64,0,0,1-2.58-2.48"/><path class="cls-22" d="M381.18,383.93l-.67.36c-.45,4.86-3.94,8.67-6.26,13.2a38.55,38.55,0,0,0,6.64-6.63c1-1.31,3.09-3.93,2.14-5.75a2.1,2.1,0,0,0-1.85-1.18"/><path class="cls-27" d="M350.06,401.51c-3.77,2.11-7.49,4.11-11.13,5.93-20.66,10.78-26.94,13.48-8.08,27,15.92,10.61,13.92,18.67-.06,25.25,1.48.5,2.92,1.05,4.29,1.62a48.37,48.37,0,0,1,11.57,7.21c1.53.13,3.08.18,4.63.18-1-8-11-6-13-13a15.88,15.88,0,0,0,8.31,2.71,10.44,10.44,0,0,0,6.76-2.47,18.28,18.28,0,0,0,1.48-2.75,14.47,14.47,0,0,0,.41-7.36,24.25,24.25,0,0,0-2.58-7.66c-.94-1.68-2.51-3-3.3-4.75a6.27,6.27,0,0,1-.45-1.37,11.55,11.55,0,0,1-3.63-2.35c-1-2-5-4-3-5,8-5,17-7,11-16a38.13,38.13,0,0,1-3.22-7.15"/><path class="cls-28" d="M353.73,399.45c-1.23.7-2.45,1.39-3.67,2.06a38.13,38.13,0,0,0,3.22,7.15c6,9-3,11-11,16-2,1,2,3,3,5a11.55,11.55,0,0,0,3.63,2.35,6.19,6.19,0,0,1,1.48-5.15c1.05-1.29,2.55-2.12,3.68-3.33,2.33-2.49,3.23-5.8,3.47-9.15.26-3.69-.08-7.34.2-11a19.22,19.22,0,0,1-4-3.91"/><path class="cls-28" d="M338.28,455.66c2,7,12,5,13,13-1.55,0-3.1-.05-4.63-.18,2.72,2.22,5.29,4.63,7.7,7,2.37-.61,5.74-1.17,6.63-2.53,1.72-2.62-4.52-7.05-6.08-8.91s-3-3.83-2.35-6.33a7.89,7.89,0,0,1,.8-1.84,10.44,10.44,0,0,1-6.76,2.47,15.88,15.88,0,0,1-8.31-2.71"/><path class="cls-29" d="M324.74,462.14c-.92.34-1.88.67-2.87,1-2.4.8-4.86,1.56-7.36,2.27,1-.05,2.06-.08,3.09-.08,4.79,0,9.52.66,13.63,3.21,6.3,3.9,10.17,10.74,17.72,12.57a1.54,1.54,0,0,1,1.09,2q1,.38,2,.69c-.06-1.64-.27-3.28-.43-4.91-5.32-4.15-9.74-9.32-15.77-12.54a50,50,0,0,0-11.08-4.2"/><path class="cls-30" d="M306,468.29c-.56,2.74-.63,5.31.69,6.31,1.53,1.17,4.8,1.25,6.66,1.76,2.61.72,5.21,1.5,7.8,2.28,5.45,1.64,10.85,3.45,16.34,4.94,4.71,1.29,9.53,2,14.28,3.13a19.91,19.91,0,0,0,.22-2.78v-.14q-1-.32-2-.69a1.53,1.53,0,0,1-1.49,1.18h0c-6.35-.11-10.63-5.31-14.95-9.32-5.58-5.2-11.77-6.41-18.53-6.41-2.51,0-5.11.17-7.77.36h-.13a1.22,1.22,0,0,1-1.12-.62"/><path class="cls-30" d="M302.65,468.4q-1.62.36-3.24.69a1.52,1.52,0,0,1-.49.78c1.18.34,2.35.73,3.5,1.16,0-.84.11-1.73.23-2.63"/><path class="cls-31" d="M357.74,403.36c-.28,3.68.06,7.33-.2,11-.24,3.35-1.14,6.66-3.47,9.15-1.13,1.21-2.63,2-3.68,3.33a6.19,6.19,0,0,0-1.48,5.15,6.27,6.27,0,0,0,.45,1.37c.79,1.74,2.36,3.07,3.3,4.75a24.25,24.25,0,0,1,2.58,7.66,14.47,14.47,0,0,1-.41,7.36,18.28,18.28,0,0,1-1.48,2.75,7.89,7.89,0,0,0-.8,1.84c-.63,2.5.8,4.48,2.35,6.33s7.8,6.29,6.08,8.91c-.89,1.36-4.26,1.92-6.63,2.53l.28.29a1.82,1.82,0,0,1,1.34,1.51c.13.76.31,1.63.5,2.58,4.89-.65,11-3.06,10.67-8.47-.2-3.58-3.72-5.85-6.07-8-1-.93-4.07-3.2-4.3-4.54-.19-1.12,1.87-3.56,2.29-4.79a21.79,21.79,0,0,0,0-12.94,25.6,25.6,0,0,0-2.6-6.06c-1.48-2.43-3.67-3.21-1.43-6,1.15-1.46,2.88-2.35,4-3.94a16.4,16.4,0,0,0,2.38-6.33c.8-4.5.09-9.06.11-13.6a12.15,12.15,0,0,1-3.76-1.79m1.94-3.29a1.83,1.83,0,0,0-.33,0,9.39,9.39,0,0,0,2.19,1,2,2,0,0,0-1.86-1"/><path class="cls-31" d="M295.6,469.85q-5.89,1.11-12,2c6.42,1,12.76,2.18,19.2,3.15a5.81,5.81,0,0,1-.42-2.16q0-.85,0-1.8c-1.15-.43-2.32-.82-3.5-1.16a1.25,1.25,0,0,1-.8.27H298a21.5,21.5,0,0,1-2.43-.29"/><path class="cls-31" d="M305.84,467.67l-3.19.73c-.12.9-.2,1.79-.23,2.63q0,.95,0,1.8a5.81,5.81,0,0,0,.42,2.16c.83,2,2.84,2.85,5.25,3.62,7.45,2.36,14.91,4.77,22.38,7.07,7.09,2.18,14.74,4.76,22.24,4.9a1.75,1.75,0,0,1-.82-1.14,7.83,7.83,0,0,1-.06-2.73c-4.75-1.1-9.57-1.84-14.28-3.13-5.49-1.49-10.89-3.3-16.34-4.94-2.59-.78-5.19-1.56-7.8-2.28-1.86-.51-5.13-.59-6.66-1.76-1.32-1-1.25-3.57-.69-6.31a1.66,1.66,0,0,1-.19-.62"/><path class="cls-31" d="M330.79,459.65q-2.73,1.28-6.05,2.49a50,50,0,0,1,11.08,4.2c6,3.22,10.45,8.39,15.77,12.54l-.09-1a2.17,2.17,0,0,1,2.37-2.23,2.42,2.42,0,0,1,.76.12l-.28-.29c-2.41-2.4-5-4.81-7.7-7a48.37,48.37,0,0,0-11.57-7.21c-1.37-.57-2.81-1.12-4.29-1.62"/><path class="cls-31" d="M353.87,475.68a2.17,2.17,0,0,0-2.37,2.23l.09,1c.16,1.63.37,3.27.43,4.91v.14a19.91,19.91,0,0,1-.22,2.78,7.83,7.83,0,0,0,.06,2.73,1.75,1.75,0,0,0,.82,1.14,2,2,0,0,0,1,.27,2.34,2.34,0,0,0,1.48-.53c2.72-2.26,2-6.82,1.29-10.43-.19-.95-.37-1.82-.5-2.58a1.82,1.82,0,0,0-1.34-1.51,2.42,2.42,0,0,0-.76-.12"/><path class="cls-31" d="M317.6,465.33c-1,0-2.06,0-3.09.08q-4.25,1.21-8.67,2.26a1.66,1.66,0,0,0,.19.62,1.22,1.22,0,0,0,1.12.62h.13c2.66-.19,5.26-.36,7.77-.36,6.76,0,12.95,1.21,18.53,6.41,4.32,4,8.6,9.21,14.95,9.32h0a1.62,1.62,0,0,0,.4-3.17c-7.55-1.83-11.42-8.67-17.72-12.57-4.11-2.55-8.84-3.21-13.63-3.21"/><path class="cls-31" d="M299.41,469.09l-3.81.76a21.5,21.5,0,0,0,2.43.29h.09a1.25,1.25,0,0,0,.8-.27,1.52,1.52,0,0,0,.49-.78"/><path class="cls-25" d="M370.24,390l-2.06,1.18h.18a1.67,1.67,0,0,0,1.25-.55l.63-.64m15.14-8.24q-2.1,1.06-4.2,2.19a2.1,2.1,0,0,1,1.85,1.18c1,1.82-1.12,4.44-2.14,5.75a38.55,38.55,0,0,1-6.64,6.63c-3,2.33-6.44,4-9.8,4.05h-.07a9.28,9.28,0,0,1-2.84-.43,9.39,9.39,0,0,1-2.19-1,11.68,11.68,0,0,1-2.24-1.84c-.15-.16-.3-.31-.44-.47l-2.94,1.67a19.22,19.22,0,0,0,4,3.91,12.15,12.15,0,0,0,3.76,1.79,10.37,10.37,0,0,0,2.75.37,13.12,13.12,0,0,0,5.38-1.25c6.16-2.78,20.87-12.55,16.75-21a6.39,6.39,0,0,0-1-1.51"/><path class="cls-14" d="M393.86,79.54c-.12-.08-.18-.16-.12-.23s0,.09.12.23M224,217q.9-2.44,1.83-4.87c11.63-30.29,25.32-59.32,23.38-92.61a165.92,165.92,0,0,0-19-67.83c21.88,3.78,44.22,7.54,66.18,11.51,31.06,5.6,62.34,10.74,93.3,16.22,1.38.24,2.8.54,4.15.73l.42,0c.84,1.43,2.52,4.21,2.77,4.69A126.08,126.08,0,0,1,403,98.19c.27.71.53,1.42.78,2.14a101.57,101.57,0,0,1,5.55,41.37,91.28,91.28,0,0,1-2.82,16.24c-1.9,7.32-4.43,14.53-6.77,21.59-9.83,29.6-22.07,58.56-25.83,89.79a163.27,163.27,0,0,0,1,48.05c2.72,15.48,7.21,30.47,12.46,45.26,1.8,5.07,3.76,10.19,5.74,15.34,8.38,21.78,17.28,44.3,17.18,67.49-.12,25.4-7.5,50.83-18,73.8-.36.81-.79,1.75-1.19,2.63L331.7,503.54l-91.95-28.38-5.94-1.84-19.15-5.91a103.3,103.3,0,0,0,20.14-50.64c1.73-16.16-2-32.32-5.72-48-4.05-17-8.76-33.83-12.06-51a237.88,237.88,0,0,1-4.17-32.9,169,169,0,0,1,.4-23.92c1.38-15.15,5.54-29.81,10.75-44m1.74-170.89a2.59,2.59,0,0,0-2.56,2.19,2.15,2.15,0,0,0,0,.66,1.92,1.92,0,0,0,.67,1.37c10.4,17.87,16.95,39.09,19.59,59.46a128,128,0,0,1-3.4,50.12c-3.94,14.6-9.94,28.53-15.57,42.53-5.86,14.56-11.28,29.38-14.16,44.86-3.26,17.52-3.14,35.47-1,53.12,4.09,33.09,16.33,64.54,20.46,97.56,3,23.84-5.45,50.58-21,69a2.43,2.43,0,0,0,1.06,4l61.34,18.93,97.89,30.22,22.58,7a2.1,2.1,0,0,0,.61.09,2.54,2.54,0,0,0,1.81-.77,2,2,0,0,0,.3-.42c1.61-3.2,3.14-6.47,4.57-9.78a209.61,209.61,0,0,0,13.51-44.72c2.64-14.23,3.45-28.69,1-43-2.37-13.93-7.05-27.37-11.88-40.61-11.06-30.35-23.26-60.69-24.41-93.4-1.17-33.42,10.12-66.1,21.28-97.09,9.48-26.33,19.46-52.74,14.4-81.14a112.15,112.15,0,0,0-11.36-32.94c-.8-1.51-1.66-3.38-2.67-4.92a6.57,6.57,0,0,0-3.16-2.88l-.63-.19c-2.67-.72-6-1-8.84-1.47-6.25-1-12.52-2.09-18.77-3.22Q341,65.86,314.27,61.42c-27.1-4.56-54.16-9.62-81.25-14.15l-5.28-.88-1.5-.27h-.07a2.09,2.09,0,0,0-.43,0"/></g></g></svg>