<svg xmlns="http://www.w3.org/2000/svg" viewBox="0 0 653.32 856.66"><defs><style>.cls-1{fill:#aabfd3;}.cls-2{fill:#cddcea;}.cls-3{fill:#bbccdc;}.cls-4{fill:#c3d4e3;}.cls-5{fill:#acc1d4;}.cls-6{fill:#5e84a8;}.cls-7{fill:#6f92b2;}.cls-8{fill:#507aa1;}.cls-9{fill:#346695;}.cls-10{fill:#dce9f6;}.cls-11{fill:#c3d3e2;}.cls-12{fill:#e4f0fc;}.cls-13{fill:#cfdeeb;}.cls-14{fill:#e0edf9;}.cls-15{fill:#d4e2ef;}.cls-16{fill:#2c6192;}.cls-17{fill:#0a4783;}.cls-18{fill:#45729c;}.cls-19{fill:#bbcbdb;}</style></defs><g id="Layer_2" data-name="Layer 2"><g id="Layer_2-2" data-name="Layer 2"><path class="cls-1" d="M89.85,88v0h0v0"/><path class="cls-2" d="M361.68,229.18h-.78c-7.27,12.94-11.86,26.37-15.07,41.14-.72,3.33-2.71,7.7,1.26,9.57,2.17,1,5.35.82,7.67.87h1.31c1.29,0,2.58,0,3.87-.06s2.58-.07,3.88-.07a44.91,44.91,0,0,1,5.8.33c2.09.27,2.24,3.38,0,3.38-3.28,0-9,.82-14.48.82-7.88,0-15.32-1.69-14.51-9.92.4-4.07,1.83-8.38,2.78-12.36a103.94,103.94,0,0,1,4.91-15.39,101.22,101.22,0,0,1,6.42-13,16.61,16.61,0,0,0-3.67-.34l-1.53,0-1.52,0c-.74,0-1.47,0-2.19-.09a20.29,20.29,0,0,1-5.23-1.13,15.68,15.68,0,0,1-6.49-2.15c-9.11,27.5-9.45,56.77-6,85.35.76,6.35.59,12.82,7.58,15.11,7.25,2.36,15,3.62,22.47,4.81,7.7,1.23,15.46,2.26,23.22,3,2,.19,3.9.27,5.8.27a112.62,112.62,0,0,0,17.53-1.73l.26,0c1.62,0,2.9,2.37,1.06,3.15l-1.08.44a26.32,26.32,0,0,1-2.45,4.37c-1.18,4.42-.32,9.59,1,13.72a30.88,30.88,0,0,0,4.9-1.35c6.25-2,5.84-8,5.71-13.52a1.88,1.88,0,0,1-.44-1.22c-.11-10.26-2.52-24.1,2.68-33.8a1.86,1.86,0,0,1,.1-.39c2.55-7.59,5.6-15,8.13-22.58a150.8,150.8,0,0,1,7.24-18.15,22.21,22.21,0,0,1-2.32.18h-.05c-2.07,0-2.59-3.46-.46-3.75,5.25-.71,9.76-2.49,12.28-7.45,1.62-3.19,3.05-9,1.68-13a6,6,0,0,0-2.56.51,15,15,0,0,0-4.3,3.83c-2.17,2.95-3.31,6.33-4.73,9.67a2.37,2.37,0,0,1-1.95,1.46,1.73,1.73,0,0,1-1.17.46h-.1c-3.19-.15-6.26-1.05-9.45-1.2a2.19,2.19,0,0,1-2.08-2.73c.87-4.68,1.68-9.37,2.34-14.08-.64-.06-1.28-.08-1.92-.08s-1.23,0-1.84,0-1.23,0-1.84,0a12.8,12.8,0,0,1-4.72-.73,2.29,2.29,0,0,1-1.57-2.77,76,76,0,0,0,2.35-9.43,111.76,111.76,0,0,1-17.56,2.94c-1.82.18-3.59.26-5.33.26a75,75,0,0,1-16.88-2.21,35.46,35.46,0,0,0-7.93-1"/><path class="cls-3" d="M404.93,341.16a39.15,39.15,0,0,1-7,1.92c0,1.19-.11,2.38-.17,3.58a1.75,1.75,0,0,1-.42,1.07c-.21,3.65-.53,9,2.66,11a4.37,4.37,0,0,0,2.36.59,9,9,0,0,0,1.15-.08c-1.31-4.13-2.17-9.3-1-13.72a26.32,26.32,0,0,0,2.45-4.37m34.36-100.39c-4.68,0-8.84,14.1-9.16,17.41a2.51,2.51,0,0,1-.75,1.56,2.37,2.37,0,0,0,1.95-1.46c1.42-3.34,2.56-6.72,4.73-9.67a15,15,0,0,1,4.3-3.83,6,6,0,0,1,2.56-.51,6.65,6.65,0,0,0-1-1.93,3.43,3.43,0,0,0-2.59-1.57m-79.19-14.4c-8.63.85-17.2,2-25.71,3.58-.09.28-.19.56-.28.84a15.68,15.68,0,0,0,6.49,2.15,20.29,20.29,0,0,0,5.23,1.13c.72.07,1.45.09,2.19.09l1.52,0,1.53,0a16.61,16.61,0,0,1,3.67.34,88.49,88.49,0,0,1,5.36-8.09m34.43-2c-8.47,0-17,.57-25.41,1.24q-3.22.26-6.45.55c-.61,1-1.2,2-1.77,3.07h.78a35.46,35.46,0,0,1,7.93,1,75,75,0,0,0,16.88,2.21c1.74,0,3.51-.08,5.33-.26a111.76,111.76,0,0,0,17.56-2.94c.31-1.39.66-2.77,1.09-4.13a151.49,151.49,0,0,0-15.94-.78"/><path class="cls-1" d="M394.33,343.56l-.79.08.79.05v-.13"/><path class="cls-4" d="M468.51,491.71l-.08,0-.28.47.08,0,.28-.47m-44.06-148q-3.51,0-7,.22a1.68,1.68,0,0,1-.27.45c.12,3.79.4,8.09-1.25,11.5s-5,4.56-8.51,5.48a22,22,0,0,1-5.36.91,6.62,6.62,0,0,1-4.9-1.87c-3.05-3.07-2.86-8.52-2.65-12.67a1.58,1.58,0,0,1-.29-1.07c0-.24,0-.48,0-.71-.76,0-1.52-.06-2.27-.06-16.33,0-32.55,8.14-46.24,16.17-14.45,8.48-28,18.41-42.94,26.06a2,2,0,0,1-.88.82l-.28.14c-.84,12.8,2.12,24.73,5,37,11-4.7,19.73-13.36,27.81-22,4.58-4.92,10.47-9.34,14.05-15,2.72-4.34,4.57-9.08,8.06-12.91a.63.63,0,0,1,.47-.2.8.8,0,0,1,.51.19l.18-.37a.43.43,0,0,1,.4-.25.51.51,0,0,1,.53.64A107.63,107.63,0,0,0,353,410.59a1.63,1.63,0,0,1,0,2.38,108.4,108.4,0,0,0,2,18.84,82.77,82.77,0,0,0,8.2,23.56c3.68,6.73,8.57,12.73,12.11,19.54a23,23,0,0,1,1.2,2.67c3.66,3.44,6.62,7.63,7.48,12.68.75,4.37-1.35,10.25,2.17,13.13l.46.13a64.69,64.69,0,0,0,17.12,2.13c9.39,0,18.91-1.59,27.87-3.42,3.4-.7,6.86-1.41,10.35-2.17h0c.81-.3,1.68-.55,2.6-.79C452,497,467,491.64,460,484.64l-.13-.15-.49,0c-.52,0-1,0-1.51.06-2.2.13-4.24.6-6.37.73-8.88,2.19-18,3.56-26.88,5.57l-.16,0a.67.67,0,0,1-.19-1.3c12.44-3.43,25.09-5.8,37.45-9.55a1.66,1.66,0,0,1-.59-1.46c.24-2.39.38-4.76.46-7.15-.76-2.34-1.86-4.77-2.33-6.93-.8-3.76-1.44-7.52-1.94-11.34-1-7.79-1.78-15.61-2.39-23.45s-2-16.8-6.48-23.57a52.69,52.69,0,0,0-5.87-7.07,26.08,26.08,0,0,0-2.25-1.41,1.87,1.87,0,0,1-.92-2c-.85-1-1.69-1.93-2.48-2.94-.46-.27-.93-.53-1.39-.81a.67.67,0,0,1-.18-1l-.26-.32a1.17,1.17,0,0,1,.82-1.93,1.18,1.18,0,0,1,.79.33,47.89,47.89,0,0,0,5.85,4.53c9.19,3.47,18.88,4.55,28.67,4.55,8.05,0,16.16-.73,24.13-1.47.47-1,.91-2.06,1.32-3.13l.45-1.16a1.69,1.69,0,0,1,.46-1.24c2-5.43,3.91-10.87,6.22-16.2a1.62,1.62,0,0,1-.48-.87c-21.63-19-50-30.23-78.86-30.23"/><path class="cls-5" d="M442.54,393.46A104.37,104.37,0,0,0,459.48,402c8.85,3.78,17.46,8,26.57,11.12,3.15-5.61,6.62-10.8,9.29-16.62-8,.74-16.08,1.47-24.13,1.47-9.79,0-19.48-1.08-28.67-4.55m-7.2-2.61a.67.67,0,0,0,.18,1c.46.28.93.54,1.39.81.79,1,1.63,2,2.48,2.94a1.87,1.87,0,0,0,.92,2,26.08,26.08,0,0,1,2.25,1.41,52.69,52.69,0,0,1,5.87,7.07c4.47,6.77,5.87,15.66,6.48,23.57s1.37,15.66,2.39,23.45c.5,3.82,1.14,7.58,1.94,11.34.47,2.16,1.57,4.59,2.33,6.93-.08,2.39-.22,4.76-.46,7.15a1.66,1.66,0,0,0,.59,1.46l1.65-.52a1.47,1.47,0,0,1,.34-.05,1,1,0,0,1,.21,2,104,104,0,0,1-12.42,3.8c2.13-.13,4.17-.6,6.37-.73.48,0,1-.06,1.51-.06l.49,0,.13.15c7,7-8,12.34-15.34,14.62-.92.24-1.79.49-2.6.79h0c8.91-2,17.93-4.3,26.13-7.84l.28-.47.08,0a40.79,40.79,0,0,1,4.4-6,2.47,2.47,0,0,1-.27-.21c-3.61-3.45-4.63-8.17-5.35-12.95-.91-6-1.48-12.08-1.85-18.14-.94-15.16-.58-30.43-.13-45.61-2.59-1.23-5.15-2.46-7.7-3.59-8-3.55-16.56-7.51-22.27-14.39"/><path class="cls-5" d="M357,375.87a.63.63,0,0,0-.47.2c-3.49,3.83-5.34,8.57-8.06,12.91-3.58,5.71-9.47,10.13-14.05,15-8.08,8.67-16.8,17.33-27.81,22,.65,2.79,1.29,5.6,1.88,8.43,7.47-3.32,14-8.27,21-12.46,6.57-3.93,13.7-6.82,20.3-10.67a83.52,83.52,0,0,1,7.69-35.3.8.8,0,0,0-.51-.19"/><path class="cls-5" d="M376.57,477.58a21.78,21.78,0,0,1,.81,11.88c-.48,2.82-1.56,6.38-.05,9.06,1.64,2.9,5.76,4,8.89,4.87-3.52-2.88-1.42-8.76-2.17-13.13-.86-5.05-3.82-9.24-7.48-12.68"/><path class="cls-6" d="M515.25,797.74a29.47,29.47,0,0,1-10.84,2.5l2.52.94a1.94,1.94,0,0,1,1.39,1.83c-.4,5.92-1.37,12.89.19,18.81a10.86,10.86,0,0,1,2.9-.42,7.49,7.49,0,0,1,1.07.07,1.73,1.73,0,0,1,.19-.28c3.26-3.92,5.41-6.42,5.47-11.89a21.9,21.9,0,0,0-2.89-11.56"/><path class="cls-7" d="M329.08,703l.7.38-.1-.38a1.12,1.12,0,0,1-.31.05.71.71,0,0,1-.29-.05m-68.79-43.47h-.22a1.46,1.46,0,0,1-.88.3,1.56,1.56,0,0,1-.85-.26c-1.18,0-2.35.11-3.51.23-4.52.44-10.88,1.46-13.66,5.48a8.38,8.38,0,0,0-1.29,6.08c3.27-4.09,9-5.42,15.06-5.42a73,73,0,0,1,19.16,3.14,100,100,0,0,1,25.3,11.82c6.76,4.3,13.3,8.54,18.3,14.81,3.67,2.48,7.27,5,11.17,7.17a.87.87,0,0,1-.27-.32c-5-9.14-13.06-16.1-20.4-23.33s-15-12.77-24.91-15.86a77.59,77.59,0,0,0-23-3.84"/><path class="cls-6" d="M254.94,666c-6.07,0-11.79,1.33-15.06,5.42.3,2.5,1.26,5,1.69,7.48a2.8,2.8,0,0,1,0,.4c3.53.33,7.06.58,10.6.78,7.87.44,15.76.67,23.64.79h1.79a4.66,4.66,0,0,1,4.49,2.06c1.15,1.4,2.14,3.17,3.53,4.35,2,1.69,4.82,2.06,7.76,2.06,1.18,0,2.37-.06,3.53-.12s2.3-.12,3.35-.12q.82,0,1.56.06a25.74,25.74,0,0,1,12.3,4.25c1.2.78,2.38,1.57,3.55,2.36-5-6.27-11.54-10.51-18.3-14.81a100,100,0,0,0-25.3-11.82A73,73,0,0,0,254.94,666"/><path class="cls-8" d="M435.07,504.94l-3,.65.45-.06,2.17-.29a1.73,1.73,0,0,1,.41-.3m11.23-2.7c-3.28.84-6.58,1.65-9.89,2.4a32.2,32.2,0,0,0,9.89-2.4M301.82,469.53a14.78,14.78,0,0,0-2.84.27c-7.85,1.57-13.19,10.33-17.27,16.5s-8.88,12.33-12.8,18.8c-5.19,8.58-4.77,15.73-2.64,25.2,3.59,15.92,5.24,32.18,6.32,48.44,1,15.64,3.57,32.4,1.7,48.11a1.55,1.55,0,0,1,.43,2.57c-3,2.7-7,4.13-10.39,6.19-.41.25-2,1-2.09,1.49s1.7,2,2.07,2.31a2.5,2.5,0,0,0,.24.22c1.66.48,3.29,1.09,5,1.56,3.75,1,7.57.91,11.42,1l3,.09a.76.76,0,0,1,.59-.26h0c1.9.08,3.8.22,5.7.4h1.55a60.75,60.75,0,0,1,11.4.92h-.47v0c1,0,.63,0,.82.07,2.53.36,1.9,4.27-.46,4.3l-1.37,0c-3.27,0-6.51-.19-9.74-.37-2.75-.15-5.5-.31-8.27-.35A54.68,54.68,0,0,1,301.45,656c.81.63,0,1.65-.78,1.65a.92.92,0,0,1-.42-.1c-8.82-4.32-17.51-7.91-27.44-8.54-.41,0-.84,0-1.29,0a24.49,24.49,0,0,0-4.77.48,1.94,1.94,0,0,1-.79,1l0,0-.43.19h0a5.81,5.81,0,0,0-2.45,1.69,1.89,1.89,0,0,0,0,.72c6.85,1,13.79,1.85,20.36,3.88,8.2,2.52,14.31,7.78,20.95,12.94l5,3.85a113.15,113.15,0,0,1,10.49,7.89,40.52,40.52,0,0,1,3.84,3.8c.78.69,1.53,1.4,2.29,2.11,1.91-.17,3.39-2,3.26-4.47a7.79,7.79,0,0,0-.62-2.65,22.7,22.7,0,0,0-5-3,11.83,11.83,0,0,1-6.42-6.66c-.65-1.79-.56-3.26,1.2-4.32a11.55,11.55,0,0,1,2.92-.71,26.51,26.51,0,0,0,5.25-2.35c2.8-1.44,6.12-2.74,8.33-5.08,2.59-2.74,2.76-6.49,2.57-10.08-3.82-3.87-8.36-7.06-11.54-11.52a18.62,18.62,0,0,1-3.33-8.67,15.44,15.44,0,0,1-.5-2.17,3.29,3.29,0,0,1-.05-.44,2.85,2.85,0,0,1-.34-2.47l.3-1a29.88,29.88,0,0,1,2.6-8.83c1.94-6.74,3.75-13.54,5.39-20.33,1.09-4.52,1.23-9.49-1.79-13.32-2.42-3.06-6.34-4.5-9.83-6-2.32-1-2.42-5,.42-5H319c2.61.21,6.76,2.13,10,2.23l.87-.32c3.16-1.53,3.31-4.82,2.26-8-1.28-2.64-3.14-5.25-4-6.86a2.43,2.43,0,0,1-.29-.94c-2.28-2.7-4.62-5.39-7.49-7.08-2.16-1.27-.85-4.23,1.18-4.22a2.31,2.31,0,0,1,1.12.29c3.63,1.93,7.32,3.76,11,5.56a189.19,189.19,0,0,0,28.22,9.32c3.91.93,8.54,2.25,13.23,3.06a46.85,46.85,0,0,0,6.33.47,25.19,25.19,0,0,0,11.7-2.58L391.71,558c-6.76-6.62-13.57-13.71-21.85-18.44a.6.6,0,0,1,.26-1.09l.19,0a44.77,44.77,0,0,1,10.32,5.66c2,1,3.89,2.21,5.87,3.33,1.61.91,5.09,3.07,7.36,3.07a1.94,1.94,0,0,0,2.1-2l-.27-.47c-4.59-7.9-10.9-14.51-15.34-22.48a.5.5,0,0,1,.45-.74.51.51,0,0,1,.42.23c4.77,7.12,11.25,12.87,15.94,20.1.23.35.45.7.67,1.05a1.55,1.55,0,0,1,1.27,1.09c.23.74.47,1.48.72,2.21a144.05,144.05,0,0,1,7.95,16.34,364.78,364.78,0,0,1,25.08,90.72,418,418,0,0,1,3.88,46.34c.43,15.8-1,31.14-2.73,46.81.32-.6.66-1.2,1-1.79l.27-.8a2.19,2.19,0,0,1,.64-.88c1.59-3.22,3.34-6.34,4.75-9.27a1.13,1.13,0,0,1,.55-.55c.17-.39.34-.78.5-1.18a1.53,1.53,0,0,1,1.43-1,1.43,1.43,0,0,1,1.41,1.81c-.89,4.56-3,8.67-5.08,12.74,1,4.47.1,9.66.33,14.16a39.81,39.81,0,0,0,3.65,15.51c5.67,2.13,11.38,4.15,17.09,6.17,9.74,3.44,19.51,6.82,29.24,10.29,3.73.39,7.6,1,11.43,1.25a2,2,0,0,1,1.63-1.77c5-.83,5.2-4.41,2.48-8.09-2.53-3.43-6.57-4.18-10.55-4.95-10.07-2-20.5-1.74-29.6-7.06a1.91,1.91,0,0,1,1-3.54,1.69,1.69,0,0,1,.49.06,107,107,0,0,0,25.64,3.62c.86,0,1.72,0,2.59,0l1.42,0c10-.78,18.83-3.61,18-16.54a39.44,39.44,0,0,0-.91-6.24c-2.67-3.65-5.52-7.16-7.95-11-4-6.33-8.05-14.22-8.08-22-2.28-5.87-2.58-12.23-2.49-19.25.17-12.07,1.69-24.13.83-36.21-.87-12.34-5-24.13-9.63-35.53a141.22,141.22,0,0,0-7.52-16.64c-1.5-2.67-3-5.33-4.2-8.09-3-1.77-6.26-3.31-8.48-5.93-6-7.11,4.7-16.77,4.32-24.34a46.26,46.26,0,0,0-3.33-14.19,3.54,3.54,0,0,1-1.35-1.82c-.48-1.44-.9-2.91-1.24-4.37-2.48-5.57-5.17-11.08-6.85-16.8-2.71-9.18-5.45-19.44-4.1-29.14a97,97,0,0,1-12.07,2.31,26.24,26.24,0,0,1-5.12.75H436a3.14,3.14,0,0,1-.45,0l-1.54.18a179.67,179.67,0,0,1-20.84,1.62,66.69,66.69,0,0,1-17.87-2.24,48.6,48.6,0,0,1-15.75-4.06,10.77,10.77,0,0,1-5.49-5.08l-.17-.1A235.08,235.08,0,0,0,350,485.69c-8.63-4.17-17.87-6.66-26.92-9.71-6.17-2.08-14.26-6.45-21.28-6.45"/><path class="cls-9" d="M439.46,748.77c-.9,1.73-1.82,3.46-2.67,5.21-1.85,3.83-3.66,8-2.36,12.31,1,3.4,3.61,6.33,5.39,9.35a1.85,1.85,0,0,1,.19,1.5c1.14.44,2.28.88,3.43,1.3a39.81,39.81,0,0,1-3.65-15.51c-.23-4.5.71-9.69-.33-14.16m1.74-12.35a1.13,1.13,0,0,0-.55.55c-1.41,2.93-3.16,6-4.75,9.27a2.19,2.19,0,0,0-.64.88l-.27.8a127.87,127.87,0,0,0,6.21-11.5M264.55,639.63c1.58,1.37,3.41,2.31,5.12,3.52a1.76,1.76,0,0,1,.73,2.1c.57,0,1.15,0,1.73,0A41.66,41.66,0,0,1,283.77,647c2.77,0,5.52.2,8.27.35,3.23.18,6.47.37,9.74.37l1.37,0c2.36,0,3-3.94.46-4.3-.19,0,.18,0-.82-.07v0h.47a60.75,60.75,0,0,0-11.4-.92h-1.55c4.39.42,8.78,1,13.13,1.47,2.15.21,2.26,3.46.09,3.46h-.09c-6.36-.25-12.8-2.46-19.07-3.55a.9.9,0,0,1-.39-1.52l-3-.09c-3.85-.06-7.67.07-11.42-1-1.72-.47-3.35-1.08-5-1.56M397.83,546.2c.69,1.09,1.35,2.19,2,3.3-.25-.73-.49-1.47-.72-2.21a1.55,1.55,0,0,0-1.27-1.09m-17.2-2.09a147.06,147.06,0,0,1,12.92,11,125.22,125.22,0,0,1,9.94,9.88l.84,1A141.53,141.53,0,0,0,396,548.51a1.94,1.94,0,0,1-2.1,2c-2.27,0-5.75-2.16-7.36-3.07-2-1.12-3.85-2.34-5.87-3.33m-59.06-.81c-2,0-3.34,3-1.18,4.22,2.87,1.69,5.21,4.38,7.49,7.08a2.43,2.43,0,0,0,.29.94c.89,1.61,2.75,4.22,4,6.86,1.05,3.21.9,6.5-2.26,8l-.87.32c-3.27-.1-7.42-2-10-2.23h-.26c-2.84,0-2.74,4-.42,5,3.49,1.45,7.41,2.89,9.83,6,3,3.83,2.88,8.8,1.79,13.32-1.64,6.79-3.45,13.59-5.39,20.33a29.88,29.88,0,0,0-2.6,8.83l-.3,1a2.85,2.85,0,0,0,.34,2.47,3.29,3.29,0,0,0,.05.44,15.44,15.44,0,0,0,.5,2.17,18.62,18.62,0,0,0,3.33,8.67c3.18,4.46,7.72,7.65,11.54,11.52.19,3.59,0,7.34-2.57,10.08-2.21,2.34-5.53,3.64-8.33,5.08a26.51,26.51,0,0,1-5.25,2.35,11.55,11.55,0,0,0-2.92.71c-1.76,1.06-1.85,2.53-1.2,4.32a11.83,11.83,0,0,0,6.42,6.66,22.7,22.7,0,0,1,5,3,7.79,7.79,0,0,1,.62,2.65c.13,2.5-1.35,4.3-3.26,4.47-.76-.71-1.51-1.42-2.29-2.11a40.52,40.52,0,0,0-3.84-3.8,113.15,113.15,0,0,0-10.49-7.89l-5-3.85c-6.64-5.16-12.75-10.42-20.95-12.94-6.57-2-13.51-2.84-20.36-3.88a1.89,1.89,0,0,1,0-.72,5.81,5.81,0,0,1,2.45-1.69h0l.43-.19,0,0a1.94,1.94,0,0,0,.79-1c-3.76.77-7.2,2.56-6.95,6a86.24,86.24,0,0,1,17.82,2.6,63.54,63.54,0,0,1,30.12,16.14c4.46,4.24,8.68,8.74,13,13.16,4,4.11,8.61,8.71,9.7,14.54a1.08,1.08,0,0,1-.72,1.21l.1.38.31.17c2.13,1.13,4.28,2.22,6.44,3.31l.1,0c2.6-1.22,3.16-1.32,2.43-4.47a57.48,57.48,0,0,0-2.79-7.73c-1.14-2.93-3-6.74-2.63-10.12a1.92,1.92,0,0,1-.44-1.8c2.82-11.84,11.37-22.52,5.26-34.88-1.87-3.79-5.92-5.64-7.54-9.46s-1.5-8.81-1.3-12.92c.41-8.74,1.31-17.5,4-25.82,2.83-8.67,5.61-17.63-4.27-22.64a1.94,1.94,0,0,1,.46-3.52c2.63-.72,5.9-1.53,6-4.74,0-1.52-1-3.07-1.75-4.34-1.72-3-3.85-5.72-5.31-8.89a2.16,2.16,0,0,1,1.93-3.21,2.76,2.76,0,0,1,1.06.22C346,558.63,359,567,373.39,572.72c7.36,2.91,17.81,7.62,27,7.62a19.21,19.21,0,0,0,8.59-1.82l-.09-.28a1.6,1.6,0,0,1-.31-.22c-3.47-3.15-5.69-7.92-8.74-11.53-2.09-2.46-4.33-4.79-6.62-7.07A25.19,25.19,0,0,1,381.5,562a46.85,46.85,0,0,1-6.33-.47c-4.69-.81-9.32-2.13-13.23-3.06a189.19,189.19,0,0,1-28.22-9.32c-3.71-1.8-7.4-3.63-11-5.56a2.31,2.31,0,0,0-1.12-.29m144.57-47a143.64,143.64,0,0,1-17.92,5.46l-1.92.49a32.2,32.2,0,0,1-9.89,2.4l-1.34.3a1.73,1.73,0,0,0-.41.3l-2.17.29-.45.06c-2.94.61-5.89,1.16-8.86,1.63a131.85,131.85,0,0,1-20.67,1.93c-2.4,0-4.8-.11-7.18-.34a66.69,66.69,0,0,0,17.87,2.24A179.67,179.67,0,0,0,434,509.43l1.54-.18a3.14,3.14,0,0,0,.45,0h.09a26.24,26.24,0,0,0,5.12-.75,97,97,0,0,0,12.07-2.31c-1.35,9.7,1.39,20,4.1,29.14,1.68,5.72,4.37,11.23,6.85,16.8.34,1.46.76,2.93,1.24,4.37a3.54,3.54,0,0,0,1.35,1.82,46.26,46.26,0,0,1,3.33,14.19c.38,7.57-10.34,17.23-4.32,24.34,2.22,2.62,5.48,4.16,8.48,5.93,1.25,2.76,2.7,5.42,4.2,8.09a141.22,141.22,0,0,1,7.52,16.64c4.6,11.4,8.76,23.19,9.63,35.53.86,12.08-.66,24.14-.83,36.21-.09,7,.21,13.38,2.49,19.25,0,7.79,4.06,15.68,8.08,22,2.43,3.83,5.28,7.34,7.95,11a39.44,39.44,0,0,1,.91,6.24c.82,12.93-8.06,15.76-18,16.54l-1.42,0c-.87,0-1.73,0-2.59,0a107,107,0,0,1-25.64-3.62,1.69,1.69,0,0,0-.49-.06,1.91,1.91,0,0,0-1,3.54c9.1,5.32,19.53,5.11,29.6,7.06,4,.77,8,1.52,10.55,4.95,2.72,3.68,2.5,7.26-2.48,8.09a2,2,0,0,0-1.63,1.77c1.05.07,2.1.11,3.14.11a25.45,25.45,0,0,0,10.63-2,1.87,1.87,0,0,1,.74-.16h.08c2.14-1.19,4.8-2.38,5-5.14.15-2.3-1.69-4.56-2.84-6.43a24,24,0,0,1-3.19-6.65,16.91,16.91,0,0,1-3.84,1.37,2.09,2.09,0,0,1-.42,0,1.66,1.66,0,0,1-.85-3.07c5.18-3.46,9.86-6.42,9.17-13.38-.57-5.75-3.75-11.11-6.56-16-2.26-3.94-5-7.89-7.56-12a1.92,1.92,0,0,1-1.83-1.87c0-.42,0-.84,0-1.26-2.67-4.66-4.84-9.52-5.48-14.74a1,1,0,0,1,1.1-1.1,1.13,1.13,0,0,1,1.15.8,31.56,31.56,0,0,0,3,7c-.85-30.27-.34-60.72-7.87-90.3-2-7.67-3.59-15.43-5.68-23.07-1.89-6.93-5.36-13.72-6.81-20.7-1-5,.85-10.14,1.78-15a165.67,165.67,0,0,0,2.29-24.45,58.19,58.19,0,0,1-16.51-14.89c-8.09-11-8.77-25.07-3.59-36.89"/><path class="cls-10" d="M193.26,395.9c-1.9,4.34-5,8.15-8.64,10.08.93,17.64,1.18,35.33,2.06,53,1.86,37.11,4.56,73.92,9.46,110.77,2.45,18.4,4.89,36.79,6.81,55.26,1.77,16.93,2.15,33.88,3.31,50.84a19.4,19.4,0,0,1,5.06-.64,32.18,32.18,0,0,1,5.17.48c-3.37-20.29-6.42-40.76-8.5-61.19-4.19-41.06-5.41-82.23-7.73-123.41-1.47-26-4.12-52.25-4.15-78.38-1-5.56-2.07-11.17-2.85-16.78m9.08-10.46c-.25,5.1-.38,10.2-.42,15.31l.45,2.61c.09.49.17,1,.25,1.48-.07-6.46-.12-12.93-.28-19.4"/><path class="cls-11" d="M201,361.61a50.6,50.6,0,0,1-9.1,5.28,6.36,6.36,0,0,1-.9,3.45c3.95,1.8,3,6,.41,9.11,3.78.81,6.44,3.46,4,8.08-2.26,4.22-6.71,6.63-11.35,8.08.25,3.46.45,6.91.63,10.37,3.6-1.93,6.74-5.74,8.64-10.08.78,5.61,1.87,11.22,2.85,16.78,0,26.13,2.68,52.35,4.15,78.38,2.32,41.18,3.54,82.35,7.73,123.41,2.08,20.43,5.13,40.9,8.5,61.19,1.57.25,3.15.58,4.76.89-1.2-23.26-2.87-46.44-5.2-69.62-2.1-20.87-4.51-41.7-6.19-62.61-1.66-20.57-2.66-41.21-3.92-61.8s-2.4-41.29-3-62c-.16-5.24-.23-10.48-.29-15.72-.08-.49-.16-1-.25-1.48l-.45-2.61c0-5.11.17-10.21.42-15.31-.2-7.95-.58-15.9-1.38-23.83"/><path class="cls-11" d="M199,334l-5.76,1c-3.1.54-6.38.94-9.65,1.45a84.6,84.6,0,0,1,.1,11.26c.55-.4,1.09-.77,1.61-1.09A50.78,50.78,0,0,1,199,340.46s0-.06,0-.08c0-2.14.06-4.28,0-6.42"/><path class="cls-12" d="M83.62,83a1.23,1.23,0,0,1-.14.25c-2.94,4-1.62,9.8-.59,14.25.3,1.32,1,5.41,2.36,5.41.43,0,.93-.39,1.5-1.39s.43-2.64.45-3.69a38.14,38.14,0,0,0-1.13-10.32c-.26-1-.72-3.49-1.66-4.16a1.54,1.54,0,0,0-.79-.35"/><path class="cls-12" d="M296.27,63.13a6,6,0,0,0-.83.11c0,.9,0,2,0,3.26a2.2,2.2,0,0,1,0,2c0,4.14.13,8.5,1,8.5h.05c1.85-.38,1.7-7.66,1.63-8.94s-.09-3.3-.88-4.31c-.39-.51-.6-.65-.93-.65"/><path class="cls-10" d="M291.6,69.75c-7.5.48-15.05.55-22.6.55h-8.76c-5.16,0-10.33,0-15.47.21q-25.52.85-51,3.15A865.37,865.37,0,0,0,91.49,89l-.33,0a1.39,1.39,0,0,1-1.3-1h0a38.11,38.11,0,0,1,.69,9.58c11.36-6.13,25.58-6.93,38.06-9.14q26.77-4.77,53.87-7.48c36.36-3.66,72.86-4.17,109.27-6.9a41.94,41.94,0,0,1-.15-4.36"/><path class="cls-13" d="M185.81,68.86a.87.87,0,0,1-.78-.49c-1.35-2.5-1.31-5.73-1.7-8.52a41.91,41.91,0,0,1-.46-8.88,1.33,1.33,0,0,1,1.36-1.29A1.29,1.29,0,0,1,185.55,51a90,90,0,0,0,1.2,9.81c.37,2.4,1,5,.12,7.35a1.21,1.21,0,0,1-1.06.73m-7.43-27.78a1.89,1.89,0,0,1-.87-.21c-3.39-1.77-4-5.16-2.83-8.56,1.4-3.9,3.46-6.57,3.61-10.88a.83.83,0,0,1,.84-.83,1,1,0,0,1,.61.22c2.43,2,1.93,5.41,1,8.07-1.18,3.5-3,5.93-.54,9.26,1,1.43-.4,2.93-1.84,2.93m-.08-22.92a1.75,1.75,0,0,1-1.17-.42c-2.41-2.24-3.38-6.21-1.5-9.1a6.68,6.68,0,0,1,5.8-2.89A9.89,9.89,0,0,1,183.6,6a.9.9,0,0,1,.21,1.63c-1.42.74-3.73,1.62-4.43,3.2s.36,4.09.57,5.74c.13,1-.76,1.59-1.65,1.59M181.87,4.1a13.47,13.47,0,0,0-4.47,1c-4.48,1.76-6.2,4.56-4.14,9a1.8,1.8,0,0,1-.06,1.52l.21.16a6.35,6.35,0,0,1,2.12,5.42,4.64,4.64,0,0,1-.32,1.15.65.65,0,0,1-.5.89h0a4.21,4.21,0,0,1-3.38,1.68H171a1.65,1.65,0,0,1-.91-.34c-1.61.53-3.2,1.11-4.79,1.68l.86-.19a.85.85,0,0,1,.23,0c1,0,1.73,1.57.62,2-5.63,2.4-11.68,3.61-17.67,4.72-6.15,1.13-12.57,1-18.61,2.52l-.17,0a.62.62,0,0,1-.15-1.21c5.58-2,11.59-2.34,17.37-3.58,1.55-.34,3.09-.7,4.63-1.07-1.47.22-2.94.41-4.41.61-7.63,1.05-15.1,2.74-22.73,3.62a14.27,14.27,0,0,0,3.21,2.59,15,15,0,0,0,7.07,1.42,46.89,46.89,0,0,0,4.9-.3c6.6-.66,13.2-3.26,19.86-3.26.44,0,.88,0,1.32,0a1.42,1.42,0,0,1,1,2.32,1.2,1.2,0,0,1-.73,1.7C156.16,40.41,149.53,40,143.47,41h-.16a.85.85,0,0,1-.53-.19c-.85.09-1.69.16-2.53.21a8.31,8.31,0,0,0,6.13,2.28,33.43,33.43,0,0,0,8-1.4,33.06,33.06,0,0,1,7.81-1.4,10,10,0,0,1,1.24.07,1.67,1.67,0,0,1,1.47,2.12c.53-.11,1.07-.21,1.61-.28h.17c1.25,0,1.3,2,.15,2.38a49.91,49.91,0,0,1-11.51,2.18h0a.58.58,0,0,1-.48-.83q-1.22.26-2.46.45a7.88,7.88,0,0,0,6.56,2.85c4.28,0,9.22-2.06,13-3.11a1.74,1.74,0,0,1,.45-.06,1.82,1.82,0,0,1,1.55.87c1.33,2.23,3.22,3,5.55,3.44h.16a2,2,0,0,1,.72.13l.1,0c1.47.18,2.21,2.11,1.17,3,.21,2.34.29,4.69.44,7,.17,2.67.05,6,1.4,8.42a2,2,0,0,1,.14,1.68c2.79-.29,5.58-.56,8.37-.83l4.44-.4a1.72,1.72,0,0,1-.07-.21C194.89,63.58,194.9,56.94,195,51v-.11c-1.44-.48-1.73-3,0-3.26,5.89-1,11.92-.39,17.87-1.54,2.93-.57,6.37-1.19,9-2.7,2.12-1.23,2.73-3,3.1-5-2.17.27-4.35.49-6.5.87-1.53.27-3.05.54-4.57.75,1.88-.14,3.76-.21,5.62-.21l1.66,0a1.25,1.25,0,0,1,0,2.49c-2.14.19-4.29.25-6.46.25-1.45,0-2.9,0-4.35,0s-2.91,0-4.36,0c-.79,0-1.57,0-2.35,0h0c-.63,0-.78-1-.14-1.14,2.32-.42,4.68-.77,7.06-1-.31,0-.61,0-.92,0a20,20,0,0,1-3.52-.3c-1.64-.3-1.55-2.87,0-3.22a130.67,130.67,0,0,1,17.85-2.65c.35,0,.74,0,1.14,0h1.35c1.71,0,3.48-.13,4.53-1.36s1.1-3.56,1.22-5.56l-2.14.34a1.24,1.24,0,0,1-.56,2,59.74,59.74,0,0,1-10.86.81c-1.59,0-3.18,0-4.77-.06s-3.16-.06-4.72-.06c-1.07,0-2.14,0-3.18.05h0c-.69,0-.84-1.12-.14-1.25l.82-.15c-1.21-1.07-1.32-3.37.67-3.66,6.26-.89,12.7-.77,19-1.32,4.76-.42,13,.41,16.22-3.68l-2.54.34a1,1,0,0,1-.88,1.15,172.54,172.54,0,0,1-22.8,1.52c-4.78,0-9.53-.21-14.13-.64a.54.54,0,0,1,0-1.08l-1.7.1h-.05a.56.56,0,0,1-.56-.5l-.46.1a25.12,25.12,0,0,1,2.55,11.41c-.28,8-6,16.4-13.75,16.4a12.48,12.48,0,0,1-6.31-1.84,1.94,1.94,0,0,1-.34-3,1.27,1.27,0,0,1-.6.15,1.29,1.29,0,0,1-.65-.17,1.66,1.66,0,0,1-.42-2.37,1.47,1.47,0,0,1,1.21-.68,1.33,1.33,0,0,1,.82.29,1.36,1.36,0,0,1,.32,1.81l0,.18a1.44,1.44,0,0,1-.3.51,1.61,1.61,0,0,1,.8-.2h.12c2,.13,3.94.49,5.81.49a7.89,7.89,0,0,0,5.81-2.14c2.53-2.39,3.54-6.11,3.78-9.47.41-5.85-1.57-14.82-8.71-14.82l-.59,0h0c-.71,0-1-1.15-.35-1.45l.47-.19a1.36,1.36,0,0,1,.08-.61C191,9.76,196,7,201,4.39c-2.76.44-5.52,1.14-8.24,1.66a24.11,24.11,0,0,1-4.33.64,5.7,5.7,0,0,1-3.27-.94c-1-.69-.66-1-1.84-1.42a4.07,4.07,0,0,0-1.48-.23"/><path class="cls-14" d="M259.81,320.33a2.22,2.22,0,0,1-1.85,1,2.44,2.44,0,0,1-.48-.05c0,.23,0,.45,0,.68l2.55-.35c-.07-.42-.13-.84-.18-1.27m-41.51-3.45a23.72,23.72,0,0,1-.4,4.19q.15,1,.36,1.89a58.63,58.63,0,0,0,0-6.08m-102.13-223a125.33,125.33,0,0,0-18.72,3.75v.56a1.33,1.33,0,0,1,.34,0V98c5.88-1.26,12.07-2.75,18.38-4.06m172.55-15.1c-15.78,2.39-32.1,2.14-48,2.64-17.86.55-35.68,1.9-53.48,3.59S151.71,88.78,134,91.44c1.56,1,1.52,4.17-.68,4.53-11.44,1.9-22.77,4.58-34.19,6.62,1.35,18.64,3.94,37.12,4.83,55.81.73,15.21,2,30.2,3.69,45.25,2.11,5.07,5.47,9.62,6.89,15.07,1.79,6.84,1,14,1.58,20.92.71,8.1,2.84,16.14,4.73,24,1.67,6.92,2.75,13.86,4,20.84a1.58,1.58,0,0,1,1.4,1.56c.07,1.93.1,3.86.1,5.78,1.17,5.38,2.35,10.83,2.51,16.22a1.71,1.71,0,0,1,.25.69c.4,2.58.83,5.16,1.45,7.7a1.88,1.88,0,0,1,1.06-.36,1.21,1.21,0,0,1,1,.48,24.91,24.91,0,0,0,2.05,2.18c-.17-8.12-.5-16.15-1.09-24.25a1,1,0,0,1,1.06-1.05,1.05,1.05,0,0,1,1.05.76c1.43,5.29,1.55,10.81,1.39,16.32l.13,0c.24-1.55.52-3.08.84-4.6,0-.29,0-.58,0-.87a.75.75,0,0,1,.78-.75.88.88,0,0,1,.33.06h.13a1.27,1.27,0,0,1,1.33,1.22c0,4.14.23,8.28.52,12.42.27,1.22.53,2.44.85,3.63.27-10.1.93-20.19.78-30.29a2.14,2.14,0,0,1,1.32-2.1,45.41,45.41,0,0,1,.79-8.67.68.68,0,0,1,.7-.6.92.92,0,0,1,.92,1.05,42.06,42.06,0,0,0-.43,8.22,2.29,2.29,0,0,1,1.46,2,1.07,1.07,0,0,1,.83-.35.9.9,0,0,1,1,1,81.59,81.59,0,0,0-.56,12.44q.89,6.24,2.3,12.35a2.61,2.61,0,0,1,.87,1.19,1.2,1.2,0,0,1,.13-.43c0-6.2-.52-12.41-.54-18.7a2.33,2.33,0,0,1,1.65-2.33c.3-4.87,1-9.69,1.56-14.54a2.13,2.13,0,0,1,1.35-1.76,133.73,133.73,0,0,1,1.46-13.51,1.58,1.58,0,0,1,1.67-1.36,1.94,1.94,0,0,1,2,1.87c0,2.21-.1,4.42-.19,6.62a1.87,1.87,0,0,1,.44,1.29c-.32,11.68,1.82,23.12,3.74,34.59.74,4.41,1.11,9.36,1.87,14.19,0,.1,0,.21.07.31a2.22,2.22,0,0,1,2.07-1.34,2.68,2.68,0,0,1,2.46,1.69c.63,1.51,1.21,3,1.79,4.56a25.55,25.55,0,0,1,5.92-2.88,4.27,4.27,0,0,1,1.3-.22,3.08,3.08,0,0,1,2.24.94,76.86,76.86,0,0,1,10.52-1.24,28.58,28.58,0,0,1,3.07-.18l2.95-.18c.77-4.32,2.23-8.59,2.3-13l-.05-.15a.84.84,0,0,1,.86-1.07.83.83,0,0,1,.82.6c.62,2,1.21,4,1.79,6a2.06,2.06,0,0,1,.92,1.43c.2,1.22.38,2.45.53,3.67.39,1.39.78,2.78,1.18,4.16l.38-.09c-.19-1.81-.26-3.63-.28-5.48a2.48,2.48,0,0,1,2.61-2.48,2.37,2.37,0,0,1,2.4,1.81,10.65,10.65,0,0,0,1.29,2.93h.07l0-.08c-1.65-5.95-1.23-13.18-1.12-18.52a1.87,1.87,0,0,1,1.93-2,2.11,2.11,0,0,1,1.65.76c-.71-4.55-1.57-9-2.31-13.22A1.39,1.39,0,0,1,216,289a1.24,1.24,0,0,1,1.2.95l.07.26c-.21-2.25-.41-4.51-.61-6.76a1.9,1.9,0,0,1,1.84-1.89h0a4.71,4.71,0,0,1,.53,0,1.94,1.94,0,0,1,1.86,1.86c.26,2.71.41,5.47.53,8.25a1.74,1.74,0,0,1,.2.72q.13,2.49.3,5a1.34,1.34,0,0,1,1.19-.64,1.63,1.63,0,0,1,1.65,1.46c.67,5.89,1.32,11.77,2.15,17.64a1.08,1.08,0,0,1-.28.92c0,.25,0,.5.05.75.59.18,1.17.37,1.76.57-.26-1.46-.55-2.76-.63-3.2a1.27,1.27,0,0,1,1.23-1.57,1.33,1.33,0,0,1,1.24.89c.69,1.71,1.35,3.43,2,5.15,1.31.35,2.63.64,3.93,1a29,29,0,0,1,4.36-.26h2.05c.11-.54.18-1.1.26-1.65a.73.73,0,0,1-.46-.74c.25-8.27-.18-16.51.41-24.78a1,1,0,0,1,1-.94.84.84,0,0,1,.84.69l1.52,6.34a.86.86,0,0,1-.33.93,1.83,1.83,0,0,1,.69.94,42.47,42.47,0,0,1,1.66,7.84c0-2.29,0-4.58,0-6.83a2.2,2.2,0,0,1,.62-1.59c-.32-1.31-.63-2.63-.92-3.94a1.2,1.2,0,0,1-.89-1.33c.07-.9.11-1.8.13-2.69-.13-.86-.24-1.72-.31-2.58a1.83,1.83,0,0,1,.28-1.19c-.07-2.23-.21-4.45-.3-6.67-.07-1.07-.11-2.14-.09-3.21a1.15,1.15,0,0,1,1.2-1.18,1.18,1.18,0,0,1,1.23,1.18c.08,2.41.29,4.82.48,7.23.1.65.21,1.3.34,1.95a1.88,1.88,0,0,1,1.1,1.32,50.89,50.89,0,0,1,1.12,6.47c.31,1.33.66,2.68,1,4,.67,2,1.36,4,2,6l.23,0a1.81,1.81,0,0,1,1,.32c-.09-8.86.71-17.68,1.24-26.58a170,170,0,0,0,.56-18.2c-.28-6.35-.12-12.58.07-18.91a1.28,1.28,0,0,1,1.31-1.16,1,1,0,0,1,1,.84c.45,3.13.89,6.25,1.32,9.38a1.8,1.8,0,0,1,1.33-.56,1.31,1.31,0,0,1,1.39,1.1c0,.14,0,.4.05.4h0c2,17.26,6,34.29,10.13,51.21q-.66-5-1.31-10.07a1.51,1.51,0,0,1,1.67-1.69,1.79,1.79,0,0,1,1.79,1.22c1.35,4.68,2.83,9.3,4.18,14a14.44,14.44,0,0,0,2,.13c.41,0,.82,0,1.23-.05l.91-.61.21-.26a11.18,11.18,0,0,1,4.27-2.5c2-1.14,4-2.21,6-3.15-1.23-10.72-1.75-21.44-1.91-32.2a314.83,314.83,0,0,1-2.17-33.9,2.47,2.47,0,0,1,.61-1.72c-1.91-11.37-1.21-23-1.62-34.62-.55-15.53-4-30.85-2.78-46.44a3.89,3.89,0,0,1,2.1-3.16,130.21,130.21,0,0,1-.44-13.12c.2-9.55,1-19.07.85-28.63-.15-9.15.49-19-1.86-27.91"/><path class="cls-15" d="M107.67,203.65q.7,6.16,1.51,12.34c2.47,19,3.58,38.42,7.89,57.13,2,8.65,4.3,17.25,5.32,26.08s-1.23,16-2.93,24.35c2.16.29,4.25.87,6.48,1.28,3.88.7,7.73,1.38,11.58,2.23,6,1.35,12.43,2.25,18.12,4.77,1.21-7.71.72-15.51.23-23.28a110.59,110.59,0,0,1-.39-11.93c.17-3.77,1-7.46,1.22-11.23A1.28,1.28,0,0,1,158,284.2a1.13,1.13,0,0,1,1.12.87c1.27,4.55,2.94,8.88,3.73,13.56.71,4.25,1.09,8.55,1.79,12.81s1.6,8.24,2.58,12.33c-.76-4.83-1.13-9.78-1.87-14.19-1.92-11.47-4.06-22.91-3.74-34.59a1.87,1.87,0,0,0-.44-1.29c.09-2.2.16-4.41.19-6.62a1.94,1.94,0,0,0-2-1.87,1.58,1.58,0,0,0-1.67,1.36,133.73,133.73,0,0,0-1.46,13.51,2.13,2.13,0,0,0-1.35,1.76c-.6,4.85-1.26,9.67-1.56,14.54a2.33,2.33,0,0,0-1.65,2.33c0,6.29.54,12.5.54,18.7a1.2,1.2,0,0,0-.13.43,2.61,2.61,0,0,0-.87-1.19q-1.41-6.12-2.3-12.35a81.59,81.59,0,0,1,.56-12.44.9.9,0,0,0-1-1,1.07,1.07,0,0,0-.83.35,2.29,2.29,0,0,0-1.46-2,42.06,42.06,0,0,1,.43-8.22.92.92,0,0,0-.92-1.05.68.68,0,0,0-.7.6,45.41,45.41,0,0,0-.79,8.67,2.14,2.14,0,0,0-1.32,2.1c.15,10.1-.51,20.19-.78,30.29-.32-1.19-.58-2.41-.85-3.63-.29-4.14-.52-8.28-.52-12.42a1.27,1.27,0,0,0-1.33-1.22h-.13a.88.88,0,0,0-.33-.06.75.75,0,0,0-.78.75c0,.29,0,.58,0,.87-.32,1.52-.6,3-.84,4.6l-.13,0c.16-5.51,0-11-1.39-16.32a1.05,1.05,0,0,0-1.05-.76,1,1,0,0,0-1.06,1.05c.59,8.1.92,16.13,1.09,24.25a24.91,24.91,0,0,1-2.05-2.18,1.21,1.21,0,0,0-1-.48,1.88,1.88,0,0,0-1.06.36c-.62-2.54-1-5.12-1.45-7.7a1.71,1.71,0,0,0-.25-.69c-.16-5.39-1.34-10.84-2.51-16.22,0-1.92,0-3.85-.1-5.78a1.58,1.58,0,0,0-1.4-1.56c-1.27-7-2.35-13.92-4-20.84-1.89-7.88-4-15.92-4.73-24-.62-7,.21-14.08-1.58-20.92-1.42-5.45-4.78-10-6.89-15.07M218.26,323q-.21-.93-.36-1.89a23.72,23.72,0,0,0,.4-4.19,58.63,58.63,0,0,1,0,6.08m71.91-174.51a3.89,3.89,0,0,0-2.1,3.16c-1.22,15.59,2.23,30.91,2.78,46.44.41,11.65-.29,23.25,1.62,34.62a2.47,2.47,0,0,0-.61,1.72,314.83,314.83,0,0,0,2.17,33.9c.16,10.76.68,21.48,1.91,32.2-2,.94-4,2-6,3.15a11.18,11.18,0,0,0-4.27,2.5l-.21.26-.91.61c-.41,0-.82.05-1.23.05a14.44,14.44,0,0,1-2-.13c-1.35-4.66-2.83-9.28-4.18-14a1.79,1.79,0,0,0-1.79-1.22,1.51,1.51,0,0,0-1.67,1.69q.65,5,1.31,10.07c-4.16-16.92-8.11-33.95-10.13-51.21h0s0-.26-.05-.4a1.31,1.31,0,0,0-1.39-1.1,1.8,1.8,0,0,0-1.33.56c-.43-3.13-.87-6.25-1.32-9.38a1,1,0,0,0-1-.84,1.28,1.28,0,0,0-1.31,1.16c-.19,6.33-.35,12.56-.07,18.91a170,170,0,0,1-.56,18.2c-.53,8.9-1.33,17.72-1.24,26.58a1.81,1.81,0,0,0-1-.32l-.23,0c-.67-2-1.36-4-2-6-.36-1.35-.71-2.7-1-4a50.89,50.89,0,0,0-1.12-6.47,1.88,1.88,0,0,0-1.1-1.32c-.13-.65-.24-1.3-.34-1.95-.19-2.41-.4-4.82-.48-7.23A1.18,1.18,0,0,0,248,277.5a1.15,1.15,0,0,0-1.2,1.18c0,1.07,0,2.14.09,3.21.09,2.22.23,4.44.3,6.67a1.83,1.83,0,0,0-.28,1.19c.07.86.18,1.72.31,2.58,0,.89-.06,1.79-.13,2.69a1.2,1.2,0,0,0,.89,1.33c.29,1.31.6,2.63.92,3.94a2.2,2.2,0,0,0-.62,1.59c0,2.25,0,4.54,0,6.83a42.47,42.47,0,0,0-1.66-7.84,1.83,1.83,0,0,0-.69-.94.86.86,0,0,0,.33-.93l-1.52-6.34a.84.84,0,0,0-.84-.69,1,1,0,0,0-1,.94c-.59,8.27-.16,16.51-.41,24.78a.73.73,0,0,0,.46.74c-.08.55-.15,1.11-.26,1.65H240.6a29,29,0,0,0-4.36.26c-1.3-.35-2.62-.64-3.93-1-.67-1.72-1.33-3.44-2-5.15a1.33,1.33,0,0,0-1.24-.89,1.27,1.27,0,0,0-1.23,1.57c.08.44.37,1.74.63,3.2-.59-.2-1.17-.39-1.76-.57,0-.25,0-.5-.05-.75a1.08,1.08,0,0,0,.28-.92c-.83-5.87-1.48-11.75-2.15-17.64a1.63,1.63,0,0,0-1.65-1.46,1.34,1.34,0,0,0-1.19.64q-.17-2.49-.3-5a1.74,1.74,0,0,0-.2-.72c-.12-2.78-.27-5.54-.53-8.25a1.94,1.94,0,0,0-1.86-1.86,4.71,4.71,0,0,0-.53,0h0a1.9,1.9,0,0,0-1.84,1.89c.2,2.25.4,4.51.61,6.76l-.07-.26A1.24,1.24,0,0,0,216,289a1.39,1.39,0,0,0-1.37,1.66c.74,4.2,1.6,8.67,2.31,13.22a2.11,2.11,0,0,0-1.65-.76,1.87,1.87,0,0,0-1.93,2c-.11,5.34-.53,12.57,1.12,18.52l0,.08h-.07a10.65,10.65,0,0,1-1.29-2.93,2.37,2.37,0,0,0-2.4-1.81,2.48,2.48,0,0,0-2.61,2.48c0,1.85.09,3.67.28,5.48L208,327c-.4-1.38-.79-2.77-1.18-4.16-.15-1.22-.33-2.45-.53-3.67a2.06,2.06,0,0,0-.92-1.43c-.58-2-1.17-4-1.79-6a.83.83,0,0,0-.82-.6.84.84,0,0,0-.86,1.07l.05.15c-.07,4.36-1.53,8.63-2.3,13l-2.95.18a28.58,28.58,0,0,0-3.07.18,76.86,76.86,0,0,0-10.52,1.24,3.08,3.08,0,0,0-2.24-.94,4.27,4.27,0,0,0-1.3.22A25.55,25.55,0,0,0,173.6,329c-.58-1.52-1.16-3.05-1.79-4.56a2.68,2.68,0,0,0-2.46-1.69,2.22,2.22,0,0,0-2.07,1.34c1,4.11,2,8.22,2.92,12.34,4.53-2.26,9.52-2.87,14.54-3.81,6.87-1.3,13.74-2.52,20.66-3.59A82.71,82.71,0,0,1,214,327.9c2.84-.14,4.44.49,5-3.17,1-6.93-.65-14.62-.47-21.64a1.88,1.88,0,0,1,1.95-1.74,1.43,1.43,0,0,1,1.51,1.27c.79,5.09,1.67,10.17,2.52,15.25.21,1.26.21,4.31.9,5.26a3.43,3.43,0,0,0,3,1.34,36,36,0,0,0,4.37-.65c4.31-.52,8.62-.31,13-.54,3.95-.2,7.83-.78,11.73-1.33,0-.23,0-.45,0-.68a2.44,2.44,0,0,0,.48.05,2.22,2.22,0,0,0,1.85-1c-1.36-10.17-.65-20.87-.4-31.05.28-11.66,1.91-23.43,1.91-35a1,1,0,0,1,1.09-1,1,1,0,0,1,1,.76c3,10.87,2.5,22.21,4.23,33.28,1.64,10.43,5.92,20.17,8.46,30.38a114.56,114.56,0,0,0,14.07-5.78c4.35-2,8.86-4.06,12.23-7.53-6.8-37.14-2.62-74.74-6.41-112.08-1.49-14.67-4.65-29.1-5.84-43.76M134,91.44l-2.5.39c-5,.76-10.18,1.35-15.35,2.06-6.31,1.31-12.5,2.8-18.38,4.06v.3A1.48,1.48,0,0,1,99,99.64c.06,1,.13,2,.2,3,11.42-2,22.75-4.72,34.19-6.62,2.2-.36,2.24-3.53.68-4.53"/><path class="cls-16" d="M438.23,266.11a17.44,17.44,0,0,1-3.34,1.44c-2.67,11.27-7,22.28-11.07,33.22,7.92-9.94,12.38-22,14.41-34.66"/><path class="cls-2" d="M187.27,382.78c-5.54,2.94-12.32,3.76-18.47,4.51a17.94,17.94,0,0,0-2.89,3l0,.06a27.74,27.74,0,0,0,5.45.53,33,33,0,0,0,9.07-1.32,23,23,0,0,0,7.81-3.78,22.5,22.5,0,0,0,2.46-2.42,11.42,11.42,0,0,0-3.39-.63m.86-9.72c-4.55,2.79-12.39,3.31-18.34,3.31-2.51,0-4.69-.09-6.14-.15-.47,0-1-.05-1.58-.11a16.53,16.53,0,0,0-3.7,3.08,34.93,34.93,0,0,0,17,0,49.64,49.64,0,0,0,7.45-2.37,35,35,0,0,0,5.6-3.56l-.33-.23m-13-10.36-.2,0c-1.23.08-3.21.27-5.37.3a33,33,0,0,0-5.37,1.08c-1.63.48-7.82,2.43-8.49,5.13a41.27,41.27,0,0,0,7.42.74,33.57,33.57,0,0,0,8.27-1.06c1.49-.36,3-.79,4.44-1.21a18.63,18.63,0,0,1-.18-3.88,7.18,7.18,0,0,1-.52-1.13m2.33-11.6c-1.62.22-3.23.48-4.81.82s-9,2.55-9.65,5.09a12.87,12.87,0,0,1,4.62-.64l2.33,0a35.89,35.89,0,0,0,7.51-5.29m27.84-7.79c-5.46,0-11.58,2.76-15.72,5-3.57,1.94-7.66,4.36-9.89,7.89a6.23,6.23,0,0,0-1,3.64,12,12,0,0,0,6.9,2,25,25,0,0,0,8.73-1.88c3.87-1.47,8.06-5.62,12.17-5.76h.06a2,2,0,0,1,1.82,2.46,7.15,7.15,0,0,1-1.58,2.48c.65,7,.77,13.62-.65,20.39q.22,4.13.34,8.26C219,399,234.74,405,251.32,407.15a78.45,78.45,0,0,0,10.19.7,53.46,53.46,0,0,0,15.11-2A31.49,31.49,0,0,0,288.1,400c2.33-2,3.65-4.6,5.15-7.14A91.25,91.25,0,0,1,260.4,399a86.07,86.07,0,0,1-10-.59c-13.94-1.67-31.56-5.7-40.64-17.36a1.51,1.51,0,0,1-.3-.63.86.86,0,0,1-.34-1.13,80.2,80.2,0,0,0,5.23-17c.87-5.06,2.31-14.27-2.87-17.46a11.47,11.47,0,0,0-6.14-1.58"/><path class="cls-3" d="M206.49,387.79c.06,2.17.1,4.33.14,6.5a94.68,94.68,0,0,0,55.93,19.19c13,0,25.69-3.22,36.05-10.73a49.54,49.54,0,0,1,.56-12.48c-1.94.92-3.92,1.76-5.92,2.54-1.5,2.54-2.82,5.16-5.15,7.14a31.49,31.49,0,0,1-11.48,5.88,53.46,53.46,0,0,1-15.11,2,78.45,78.45,0,0,1-10.19-.7C234.74,405,219,399,206.49,387.79m-15.83-4.38a22.5,22.5,0,0,1-2.46,2.42,23,23,0,0,1-7.81,3.78,33,33,0,0,1-9.07,1.32,27.74,27.74,0,0,1-5.45-.53c-1.43,2.32-.35,3.28,2.24,3.5.57.05,1.14.08,1.72.08a38.69,38.69,0,0,0,6.48-.67c3.94-.69,8.15-1.72,11.57-3.86,1.65-1,4.32-2.85,3.67-5a1.73,1.73,0,0,0-.89-1.06m-2.2-10.12a35,35,0,0,1-5.6,3.56,49.64,49.64,0,0,1-7.45,2.37,34.93,34.93,0,0,1-17,0c-1.75,2.06-2.07,4.2,2.13,4.73a19.09,19.09,0,0,0,2.4.14,49.88,49.88,0,0,0,7.26-.73,84.88,84.88,0,0,0,9.38-1.82c2.61-.69,13.49-4.68,8.92-8.22m-12.79-9.46a18.63,18.63,0,0,0,.18,3.88c-1.48.42-2.95.85-4.44,1.21a33.57,33.57,0,0,1-8.27,1.06,41.27,41.27,0,0,1-7.42-.74,2,2,0,0,0,.06,1.16c.72,2,5.5,2.21,8.82,2.21h2.51c1,0,2.55.06,4.4.06,6.05,0,15.18-.54,17.06-4.63a15.33,15.33,0,0,1-4,.56,10.37,10.37,0,0,1-5.2-1.32,9.76,9.76,0,0,1-3.73-3.44m30.89-9.63h-.06c-4.11.14-8.3,4.29-12.17,5.76a25,25,0,0,1-8.73,1.88,12,12,0,0,1-6.9-2c.16,2.73,2.37,5,5.73,5h.15c7.24-.14,13.88-6.18,19.64-9.95a1.7,1.7,0,0,1,.93-.3,1.84,1.84,0,0,1,.83,3.32L204,359.37a.83.83,0,0,1,0,.15,188.69,188.69,0,0,1,2.08,20c1.42-6.77,1.3-13.39.65-20.39a7.15,7.15,0,0,0,1.58-2.48,2,2,0,0,0-1.82-2.46m-26.48-3.46-2.6.36a35.89,35.89,0,0,1-7.51,5.29l-2.33,0A12.87,12.87,0,0,0,163,357a1.44,1.44,0,0,0,0,.77c.39,1.36,3.68,1.66,6.76,1.66l1.29,0c1.42-.1,2.73-.15,3.84-.17.51-3,2.66-6,5.17-8.51"/><path class="cls-2" d="M516.75,534a98.93,98.93,0,0,0-11.76.93,40.57,40.57,0,0,1,3.92,2.43c1-.09,2-.12,2.94-.12,1.82,0,3.65.11,5.53.2.76,0,1.53.07,2.31.07a10.26,10.26,0,0,0,4.46-.81,9.86,9.86,0,0,0,2.17-1.52,21.36,21.36,0,0,0-5.87-1c-1.23-.11-2.46-.15-3.7-.15m1.53-11.12c-8,0-16.37,3.79-23.86,6.92l.31.3,3.08,1.36c2.39-2.7,7.55-3.11,10.69-3.66a37.25,37.25,0,0,0,7.74-1.75,8.19,8.19,0,0,0,3.81-3.08,12.94,12.94,0,0,0-1.38-.09h-.39m-13.35-9.09c-1.52.65-3,1.39-4.49,2.14a67.8,67.8,0,0,0-8.68,5.5,36.61,36.61,0,0,1-2.28,3.11,3.07,3.07,0,0,1,.7.61,52.44,52.44,0,0,1,8.89-6.8,34.12,34.12,0,0,0,5.86-4.56m.3-137.64c-.89,8.13,1.19,14.21,6,20.65,4.55,6.13,9.46,11.64,12.51,18.75s3.17,14.18,2.36,21.72c-.56,5.2-1.08,10.4-4.05,14.63-5,9.36-14.38,15.72-23.86,21.31-7.1,4.19-14.92,8-20.78,14-6.9,7-11.07,16.94-10.38,26.8.73,10.62,7.17,19.46,15.3,25.91a59.84,59.84,0,0,0,14.51,8.9,3,3,0,0,1,1.82-.68c1.6-.1,6.61.26,6.78-1.15.13-1.08-6.79-5.31-7.75-6a57.26,57.26,0,0,1-9.23-8c-.71-.4-1.42-.82-2.1-1.29-2.46-1.69-5-4.13-4.71-7.38a7.13,7.13,0,0,1,2.34-4.48,18.83,18.83,0,0,0,2.75-2.46c1.16-1.59,1.25-3.54,1.83-5.42a6.28,6.28,0,0,0-2.58-.48,21.15,21.15,0,0,0-7.51,1.83,1.17,1.17,0,0,1-.24.09,1.65,1.65,0,0,1-1.16.49,1.26,1.26,0,0,1-1.16-.69,1.6,1.6,0,0,1-.66-1.23,18.07,18.07,0,0,1,.05-2.66c-.65-11.69,8.33-19.38,18.23-25.36,3.67-2.21,7.47-4.18,11.28-6.16,6.72-5,13.42-10.12,19.26-16.15a72.22,72.22,0,0,0,9-11.5,58.52,58.52,0,0,0,4.29-9,46.07,46.07,0,0,0-3.1-23.05c-6.12-15.63-16.89-30.35-29.07-41.9"/><path class="cls-3" d="M505,534.93l-3.62.42a85.88,85.88,0,0,1,9.24,5.61,1.78,1.78,0,0,1,.41,0l.29,0a38.27,38.27,0,0,0,5.77.47,23.89,23.89,0,0,0,8.54-1.44c1.79-.68,3.77-2,1.74-4.13a3.1,3.1,0,0,0-1-.66,9.86,9.86,0,0,1-2.17,1.52,10.26,10.26,0,0,1-4.46.81c-.78,0-1.55,0-2.31-.07-1.88-.09-3.71-.2-5.53-.2-1,0-2,0-2.94.12a40.57,40.57,0,0,0-3.92-2.43m15.06-12a8.19,8.19,0,0,1-3.81,3.08,37.25,37.25,0,0,1-7.74,1.75c-3.14.55-8.3,1-10.69,3.66l-3.08-1.36-.31-.3-1.26.53c1.47,1.07,3,2,4.56,2.95a1.17,1.17,0,0,1,.9-.57c4.37-.69,8.79-1.4,13.23-1.75,1-.26,2-.56,3-.91,2.67-1,11.2-6.31,5.23-7.08m-11.13-10.56a11.73,11.73,0,0,0-3.47,1.16l-.52.22a34.12,34.12,0,0,1-5.86,4.56,52.44,52.44,0,0,0-8.89,6.8,3.07,3.07,0,0,0-.7-.61L488.23,526c.52.55,1,1.08,1.6,1.58,3.68-2.31,7.62-4.16,11.29-6.5,2.39-1.52,7.7-3.9,8.57-6.83.43-1.42,0-1.87-.77-1.87m-20.36-.47c-.58,1.88-.67,3.83-1.83,5.42a18.83,18.83,0,0,1-2.75,2.46,7.13,7.13,0,0,0-2.34,4.48c-.28,3.25,2.25,5.69,4.71,7.38.68.47,1.39.89,2.1,1.29a57.26,57.26,0,0,0,9.23,8c1,.7,7.88,4.93,7.75,6-.17,1.41-5.18,1-6.78,1.15a3,3,0,0,0-1.82.68,24.32,24.32,0,0,0,8.86,1.89H506c2.39,0,6-1.13,4.75-4.24-.84-2.13-4.68-3.64-6.55-4.66-7.29-3.94-14.42-7.87-19.74-14.39a1.94,1.94,0,0,1,0-2.66c2-2.23,7.73-7.94,5.68-11.41a3.35,3.35,0,0,0-1.53-1.36M537.4,441.1a58.52,58.52,0,0,1-4.29,9,72.22,72.22,0,0,1-9,11.5c-5.84,6-12.54,11.14-19.26,16.15-3.81,2-7.61,4-11.28,6.16-9.9,6-18.88,13.67-18.23,25.36a18.07,18.07,0,0,0-.05,2.66,1.6,1.6,0,0,0,.66,1.23,1.26,1.26,0,0,0,1.16.69,1.65,1.65,0,0,0,1.16-.49,1.86,1.86,0,0,1-.5.08,1.52,1.52,0,0,1-1.52-1.65,1.88,1.88,0,0,1,0-1c3.5-11.83,12.27-19,22.55-25,4.89-2.86,9.95-5.49,14.56-8.81A75.48,75.48,0,0,0,529,461.16a42.62,42.62,0,0,0,8.41-20.06M505.05,376a69.33,69.33,0,0,1-4.51,15.42c16.08,11.22,27.31,29,25,49.24A31,31,0,0,1,522,451.9c3-4.23,3.49-9.43,4.05-14.63.81-7.54.67-14.66-2.36-21.72s-8-12.62-12.51-18.75c-4.8-6.44-6.88-12.52-6-20.65l-.18-.17"/><path class="cls-16" d="M398.27,181.31a55,55,0,0,0-7.22.49c-14.76,2-28.41,8.89-39.8,18.33a116.13,116.13,0,0,0-14.63,14.62c-3.52,4.17-6.52,8.94-10,13.21,13.43-4.21,27.62-5.67,41.58-7,8.89-.86,17.83-1.52,26.76-1.52a144.47,144.47,0,0,1,19.59,1.25c1.68.24,2.12,2.38,1.48,3.63-2.18,4.23-2.55,9-4,13.55a13.58,13.58,0,0,0,2.49.19c.68,0,1.37,0,2.06-.06s1.39-.06,2.08-.06a12.64,12.64,0,0,1,3.21.35,2.2,2.2,0,0,1,1.62,2.12c-.59,4.92-1.34,9.78-2.32,14.62,1.76.31,3.49.72,5.25,1,1.45-6.66,6.06-19.46,12.61-19.58a41.09,41.09,0,0,0-10-43.2c-8.46-8.17-19.42-11.89-30.8-11.89"/><path class="cls-17" d="M362.67,226.12l-2.57.25a88.49,88.49,0,0,0-5.36,8.09,101.22,101.22,0,0,0-6.42,13,103.94,103.94,0,0,0-4.91,15.39c-1,4-2.38,8.29-2.78,12.36-.81,8.23,6.63,9.92,14.51,9.92,5.49,0,11.2-.82,14.48-.82,2.24,0,2.09-3.11,0-3.38a44.91,44.91,0,0,0-5.8-.33c-1.3,0-2.59,0-3.88.07s-2.58.06-3.87.06h-1.31c-2.32,0-5.5.15-7.67-.87-4-1.87-2-6.24-1.26-9.57,3.21-14.77,7.8-28.2,15.07-41.14.57-1,1.16-2.05,1.77-3.07"/><path class="cls-17" d="M395,219.42c-8.93,0-17.87.66-26.76,1.52-14,1.35-28.15,2.81-41.58,7-.89,1.1-1.82,2.18-2.79,3.2a.59.59,0,0,1-.42.18.62.62,0,0,1-.64-.8c.17-.49.36-1,.57-1.46a1.59,1.59,0,0,0,.71,3,1.67,1.67,0,0,0,.43,0c2.42-.56,4.84-1.09,7.27-1.57.38-1,.76-2,1.17-3a1.15,1.15,0,0,1,1.09-.73,1,1,0,0,1,1,1.31c-.22.62-.44,1.25-.65,1.88,8.51-1.6,17.08-2.73,25.71-3.58l2.57-.25q3.22-.3,6.45-.55c8.45-.67,16.94-1.24,25.41-1.24a151.49,151.49,0,0,1,15.94.78c-.43,1.36-.78,2.74-1.09,4.13a76,76,0,0,1-2.35,9.43,2.29,2.29,0,0,0,1.57,2.77,12.8,12.8,0,0,0,4.72.73c.61,0,1.23,0,1.84,0s1.22,0,1.84,0,1.28,0,1.92.08c-.66,4.71-1.47,9.4-2.34,14.08a2.19,2.19,0,0,0,2.08,2.73c3.19.15,6.26,1.05,9.45,1.2h.1a1.73,1.73,0,0,0,1.17-.46,2.51,2.51,0,0,0,.75-1.56c.32-3.31,4.48-17.41,9.16-17.41a3.43,3.43,0,0,1,2.59,1.57,6.65,6.65,0,0,1,1,1.93c1.37,3.94-.06,9.76-1.68,13-2.52,5-7,6.74-12.28,7.45-2.13.29-1.61,3.75.46,3.75h.05a22.21,22.21,0,0,0,2.32-.18c.48-1,1-2,1.48-2.94a.93.93,0,0,1,.84-.54,1.14,1.14,0,0,1,1.11,1.36c-.1.48-.21.95-.33,1.43a17.44,17.44,0,0,0,3.34-1.44c.13-.84.26-1.68.37-2.52a1.27,1.27,0,0,1,1.25-1.18,1.22,1.22,0,0,1,1.2,1.18c0,.15,0,.3,0,.46a16.93,16.93,0,0,0,4.15-5.82c2.41-5.49,3.83-14.69-1-19.37a11.21,11.21,0,0,0-1.54-1.27c0,.13-.09.25-.14.38a1.92,1.92,0,0,1-1.87,1.29c-1.18,0-2.33-.92-1.8-2.3l.21-.56c-6.55.12-11.16,12.92-12.61,19.58-1.76-.25-3.49-.66-5.25-1,1-4.84,1.73-9.7,2.32-14.62a2.2,2.2,0,0,0-1.62-2.12,12.64,12.64,0,0,0-3.21-.35c-.69,0-1.38,0-2.08.06s-1.38.06-2.06.06a13.58,13.58,0,0,1-2.49-.19c1.41-4.5,1.78-9.32,4-13.55.64-1.25.2-3.39-1.48-3.63A144.47,144.47,0,0,0,395,219.42"/><path class="cls-17" d="M439.85,262.41a1.27,1.27,0,0,0-1.25,1.18c-.11.84-.24,1.68-.37,2.52-2,12.69-6.49,24.72-14.41,34.66,4.08-10.94,8.4-21.95,11.07-33.22.12-.48.23-.95.33-1.43a1.14,1.14,0,0,0-1.11-1.36.93.93,0,0,0-.84.54c-.51,1-1,1.95-1.48,2.94a150.8,150.8,0,0,0-7.24,18.15C422,294,419,301.38,416.42,309a1.86,1.86,0,0,0-.1.39,19.33,19.33,0,0,1,2.34-3.44.52.52,0,0,1,.41-.21.73.73,0,0,1,.65.83c-.28,1.69-.61,3.34-1,5a2.05,2.05,0,0,0,1.15-.52c12-11,22.74-30.06,21.18-46.95,0-.16,0-.31,0-.46a1.22,1.22,0,0,0-1.2-1.18"/><path class="cls-17" d="M394.22,346c0,.23,0,.47,0,.71a1.58,1.58,0,0,0,.29,1.07c0-.37,0-.73.06-1.07a1.47,1.47,0,0,1,.2-.69l-.51,0m3.67-2.87c-1.17.2-2.36.36-3.56.48v.13l1.71.17a14.24,14.24,0,0,1,1.32,2.8c0,.33,0,.69-.06,1.07a1.75,1.75,0,0,0,.42-1.07c.06-1.2.13-2.39.17-3.58"/><path class="cls-17" d="M417.41,343.93l-.28,0c0,.14,0,.29,0,.43a1.68,1.68,0,0,0,.27-.45m1.66-38.22a.52.52,0,0,0-.41.21,19.33,19.33,0,0,0-2.34,3.44c-5.2,9.7-2.79,23.54-2.68,33.8a1.88,1.88,0,0,0,.44,1.22c0-.34,0-.68,0-1a1.29,1.29,0,0,1,.42-1.28,1.56,1.56,0,0,1,1.08-.41,1.43,1.43,0,0,1,.46.07l1.45-.13c-.23-5.42-.74-10.83-.72-16.26,0-4.85,1.05-9.29,2-13.84.35-1.64.68-3.29,1-5a.73.73,0,0,0-.65-.83"/><path class="cls-17" d="M334,226.76a1.15,1.15,0,0,0-1.09.73c-.41,1-.79,2-1.17,3-5.62,14.83-8.28,30.42-9.06,46.27s-.68,32.91,2.65,48.36c1,4.77,3.34,7.82,7.95,9.59,7.77,3,16.5,4.26,24.7,5.51,8.35,1.29,17.85,3.22,27.13,3.6,1.72-.16,3.45-.24,5.17-.24,1.08,0,2.15,0,3.22.1l.79-.08c1.2-.12,2.39-.28,3.56-.48a39.15,39.15,0,0,0,7-1.92l1.08-.44c1.84-.78.56-3.15-1.06-3.15l-.26,0a112.62,112.62,0,0,1-17.53,1.73c-1.9,0-3.82-.08-5.8-.27-7.76-.73-15.52-1.76-23.22-3-7.51-1.19-15.22-2.45-22.47-4.81-7-2.29-6.82-8.76-7.58-15.11-3.43-28.58-3.09-57.85,6-85.35.09-.28.19-.56.28-.84.21-.63.43-1.26.65-1.88a1,1,0,0,0-1-1.31"/><path class="cls-17" d="M398.36,177.78c-17.9,0-36,8.84-49.3,20.06a119.13,119.13,0,0,0-15.5,15.94c-3.74,4.61-7.85,9.75-10.19,15.3-.21.48-.4,1-.57,1.46a.62.62,0,0,0,.64.8.59.59,0,0,0,.42-.18c1-1,1.9-2.1,2.79-3.2,3.45-4.27,6.45-9,10-13.21a116.13,116.13,0,0,1,14.63-14.62c11.39-9.44,25-16.36,39.8-18.33a55,55,0,0,1,7.22-.49c11.38,0,22.34,3.72,30.8,11.89a41.09,41.09,0,0,1,10,43.2l-.21.56c-.53,1.38.62,2.3,1.8,2.3a1.92,1.92,0,0,0,1.87-1.29c.05-.13.1-.25.14-.38,8.2-23.06-4.88-48.71-27.55-56.94a49.08,49.08,0,0,0-16.79-2.87"/><path class="cls-18" d="M390.32,343.54c-1.72,0-3.45.08-5.17.24-13.48,1.28-26.71,7.3-38.22,13.76-15.5,8.69-29.85,19.3-45.7,27.36a.68.68,0,0,1,.69.54,2.13,2.13,0,0,1,.85,2.68c14.93-7.65,28.49-17.58,42.94-26.06,13.69-8,29.91-16.17,46.24-16.17.75,0,1.51,0,2.27.06l.51,0a1.5,1.5,0,0,1,1.29-.68,1.4,1.4,0,0,1,.94.34,1.22,1.22,0,0,0-.92-1.77l-1.71-.17-.79-.05c-1.07-.07-2.14-.1-3.22-.1"/><path class="cls-17" d="M301.92,385.44a.79.79,0,0,1,0,.22c-.14,1.15-.24,2.29-.32,3.42l.28-.14a2,2,0,0,0,.88-.82,2.13,2.13,0,0,0-.85-2.68m-90.24-6.11-.56.86a1.15,1.15,0,0,1-1,.48,1.27,1.27,0,0,1-.72-.21,1.51,1.51,0,0,0,.3.63c9.08,11.66,26.7,15.69,40.64,17.36a86.07,86.07,0,0,0,10,.59,91.25,91.25,0,0,0,32.85-6.23c2-.78,4-1.62,5.92-2.54a39,39,0,0,1,1.2-4.82.78.78,0,0,1,.29-.39,2.42,2.42,0,0,0-.91.22c-12.53,5.76-26,9.27-39.76,9.27q-3.93,0-7.88-.39c-14.23-1.43-29.36-5.44-40.43-14.83"/><path class="cls-17" d="M503.31,373.94a1.62,1.62,0,0,0,.48.87l.14-.32c-.21-.18-.42-.36-.62-.55m2-2.09.81.71a1.43,1.43,0,0,1-1,2.45l-.12,1,.18.17c12.18,11.55,22.95,26.27,29.07,41.9a46.07,46.07,0,0,1,3.1,23.05A42.62,42.62,0,0,1,529,461.16,75.48,75.48,0,0,1,513.35,477c-4.61,3.32-9.67,5.95-14.56,8.81-10.28,6-19.05,13.16-22.55,25a1.88,1.88,0,0,0,0,1,1.64,1.64,0,0,1,.71-1.17,14.66,14.66,0,0,1,4.19-2.08c5-12.21,17-17.88,28-24.52,11.21-6.78,21.28-16.56,27.39-28.24,6.89-13.14,6.22-27.26.55-40.69a125.15,125.15,0,0,0-30.66-42.78,1.77,1.77,0,0,0-1-.48"/><path class="cls-18" d="M414.49,342.09a1.29,1.29,0,0,0-.42,1.28c0-.07,0-.14,0-.21a1.41,1.41,0,0,1,.43-1.07m11.27-.79c-2.76,0-5.52.1-8.28.32l-1.45.13a1.42,1.42,0,0,1,1.08,1.41c0,.26,0,.52,0,.79l.28,0q3.52-.23,7-.22c28.83,0,57.23,11.19,78.86,30.23.2.19.41.37.62.55.1-.24.21-.49.32-.73a.46.46,0,0,1,.43-.26.54.54,0,0,1,.58.53l-.09,1a1.43,1.43,0,0,0,1-2.45l-.81-.71C483.59,353,454.68,341.3,425.76,341.3"/><path class="cls-18" d="M435.9,388.6a1.17,1.17,0,0,0-.82,1.93l.26.32c5.71,6.88,14.25,10.84,22.27,14.39,2.55,1.13,5.11,2.36,7.7,3.59,0-.46,0-.93,0-1.39a1.29,1.29,0,0,1,2.58,0c0,.89.05,1.78.07,2.67,6,2.8,12.05,5.4,18.38,6.52a2.22,2.22,0,0,0,.37,0,1.48,1.48,0,0,0,1.43-.76c3.06-6.92,7.72-12.87,10.55-20l.57-1.44-1.7-1.37a1.26,1.26,0,0,1-.49-.88l-.45,1.16c-.41,1.07-.85,2.11-1.32,3.13-2.67,5.82-6.14,11-9.29,16.62-9.11-3.11-17.72-7.34-26.57-11.12a104.37,104.37,0,0,1-16.94-8.58,47.89,47.89,0,0,1-5.85-4.53,1.18,1.18,0,0,0-.79-.33m68.78-15.1a.46.46,0,0,0-.43.26c-.11.24-.22.49-.32.73l-.14.32c-2.31,5.33-4.18,10.77-6.22,16.2a1.65,1.65,0,0,1,1.17-.56,1.31,1.31,0,0,1,.74.23l1.06.72A69.33,69.33,0,0,0,505.05,376l.12-1,.09-1a.54.54,0,0,0-.58-.53"/><path class="cls-17" d="M206.63,394.29l0,3.27c12,10.83,28.39,16.59,44.22,18.66A93.65,93.65,0,0,0,263,417c12.74,0,25.53-2.82,36-10.17-.18-1.37-.32-2.74-.41-4.11-10.36,7.51-23,10.73-36.05,10.73a94.68,94.68,0,0,1-55.93-19.19"/><path class="cls-18" d="M353,410.59c0,.79,0,1.59,0,2.38a1.63,1.63,0,0,0,0-2.38M301.19,384.9a.9.9,0,0,0-.53.16.78.78,0,0,0-.29.39,39,39,0,0,0-1.2,4.82,49.54,49.54,0,0,0-.56,12.48c.09,1.37.23,2.74.41,4.11,1.31,10.37,4.61,20.82,6.46,30.52a1.81,1.81,0,0,0,1.69,1.31,1.18,1.18,0,0,0,.46-.09c8-3.19,14.92-8.16,22.23-12.63,6.44-4,13.52-6.9,19.95-10.86q0-1.87,0-3.75c-6.6,3.85-13.73,6.74-20.3,10.67-7,4.19-13.56,9.14-21,12.46-.59-2.83-1.23-5.64-1.88-8.43-2.84-12.25-5.8-24.18-5-37,.08-1.13.18-2.27.32-3.42a.79.79,0,0,0,0-.22.68.68,0,0,0-.69-.54h0"/><path class="cls-18" d="M358.05,375.44a.43.43,0,0,0-.4.25l-.18.37a83.52,83.52,0,0,0-7.69,35.3q0,1.88,0,3.75.12,5.1.71,10.19a96,96,0,0,0,6.34,25.29c3.1,7.67,7.89,14.15,12.25,21.11,2.25,3.58,5,7.59,5.14,11.92.13,3.14-.7,6.26-1.05,9.33,0,.4-.07.79-.09,1.18,1.05.78,2.1,1.59,3.14,2.42,1.45,1.15.11,3.29-1.43,3.29a1.65,1.65,0,0,1-.73-.17,10.77,10.77,0,0,0,5.49,5.08,48.6,48.6,0,0,0,15.75,4.06c2.38.23,4.78.34,7.18.34a131.85,131.85,0,0,0,20.67-1.93c3-.47,5.92-1,8.86-1.63l3-.65,1.34-.3c3.31-.75,6.61-1.56,9.89-2.4l1.92-.49a143.64,143.64,0,0,0,17.92-5.46,42.87,42.87,0,0,1,2.09-4.11l-.08,0c-8.2,3.54-17.22,5.88-26.13,7.84-3.49.76-6.95,1.47-10.35,2.17-9,1.83-18.48,3.42-27.87,3.42a64.69,64.69,0,0,1-17.12-2.13l-.46-.13c-3.13-.85-7.25-2-8.89-4.87-1.51-2.68-.43-6.24.05-9.06a21.78,21.78,0,0,0-.81-11.88,23,23,0,0,0-1.2-2.67c-3.54-6.81-8.43-12.81-12.11-19.54a82.77,82.77,0,0,1-8.2-23.56A108.4,108.4,0,0,1,353,413c0-.79,0-1.59,0-2.38a107.63,107.63,0,0,1,5.58-34.51.51.51,0,0,0-.53-.64"/><path class="cls-18" d="M463.69,479.43a1.47,1.47,0,0,0-.34.05l-1.65.52c-12.36,3.75-25,6.12-37.45,9.55a.67.67,0,0,0,.19,1.3l.16,0c8.89-2,18-3.38,26.88-5.57a104,104,0,0,0,12.42-3.8,1,1,0,0,0-.21-2"/><path class="cls-18" d="M466.64,406.19a1.25,1.25,0,0,0-1.29,1.25c0,.46,0,.93,0,1.39-.45,15.18-.81,30.45.13,45.61.37,6.06.94,12.13,1.85,18.14.72,4.78,1.74,9.5,5.35,12.95a2.47,2.47,0,0,0,.27.21c.63-.7,1.29-1.38,2-2.05a2.68,2.68,0,0,0-.17-.23c-3.44-4-3.83-10.61-4.47-15.67-.8-6.34-1.27-12.7-1.58-19.08-.63-12.86-.38-25.73-.66-38.6,0-.89,0-1.78-.07-2.67a1.24,1.24,0,0,0-1.29-1.25"/><path class="cls-17" d="M498.74,390.45a1.65,1.65,0,0,0-1.17.56,1.69,1.69,0,0,0-.46,1.24,1.26,1.26,0,0,0,.49.88l1.7,1.37c7.72,6.35,14.74,13.84,18.75,23.09,4.27,9.86,5.56,22.6.48,32.41-8.25,16-28.46,20.84-41.5,31.76-.74.62-1.46,1.27-2.15,1.93s-1.34,1.35-2,2.05a40.79,40.79,0,0,0-4.4,6l-.28.47a42.87,42.87,0,0,0-2.09,4.11c-5.18,11.82-4.5,25.85,3.59,36.89a58.19,58.19,0,0,0,16.51,14.89c0-.59.05-1.18.07-1.77a1.46,1.46,0,0,1,1.53-1.42,1.33,1.33,0,0,1,1.42,1.42c0,1.15-.07,2.29-.11,3.44,1.06.57,2.12,1.1,3.2,1.59,3.69,1.71,8.76,3.88,13.4,3.88a10.7,10.7,0,0,0,5.64-1.43c3.85-2.32,4.41-6.23,2.56-9.41a31,31,0,0,1-3.54-.17c-1.89-.26-1.41-2.85.2-3.24a85.88,85.88,0,0,0-9.24-5.61l-2.36.24v0a1.61,1.61,0,0,1-1.29-2.27c-1.56-.92-3.09-1.88-4.56-2.95l-2,.8a1.79,1.79,0,0,1-.65.13c-1.63,0-2.32-2.62-.8-3.58h0l.11-.07c-.55-.5-1.08-1-1.6-1.58l1.25-1.49a36.61,36.61,0,0,0,2.28-3.11c-1.34,1-2.68,1.94-4.05,2.91a.51.51,0,0,1-.3.1c-.45,0-.88-.56-.57-1a28.48,28.48,0,0,1,7-6.53,6.59,6.59,0,0,0-1.24-6.24,8.76,8.76,0,0,0-7-2.87,15.1,15.1,0,0,0-4.56.73,14.66,14.66,0,0,0-4.19,2.08,1.64,1.64,0,0,0-.71,1.17,1.52,1.52,0,0,0,1.52,1.65,1.86,1.86,0,0,0,.5-.08,1.17,1.17,0,0,0,.24-.09,21.15,21.15,0,0,1,7.51-1.83,6.28,6.28,0,0,1,2.58.48,3.35,3.35,0,0,1,1.53,1.36c2.05,3.47-3.71,9.18-5.68,11.41a1.94,1.94,0,0,0,0,2.66c5.32,6.52,12.45,10.45,19.74,14.39,1.87,1,5.71,2.53,6.55,4.66,1.24,3.11-2.36,4.2-4.75,4.24h-.26a24.32,24.32,0,0,1-8.86-1.89,59.84,59.84,0,0,1-14.51-8.9c-8.13-6.45-14.57-15.29-15.3-25.91-.69-9.86,3.48-19.84,10.38-26.8,5.86-5.91,13.68-9.76,20.78-14,9.48-5.59,18.85-11.95,23.86-21.31a31,31,0,0,0,3.5-11.26c2.31-20.25-8.92-38-25-49.24l-1.06-.72a1.31,1.31,0,0,0-.74-.23"/><path class="cls-17" d="M509.76,509.61c-2.18,0-4.78,1.35-6.32,2.07a68.21,68.21,0,0,0-9.57,5.26,28.48,28.48,0,0,0-7,6.53c-.31.41.12,1,.57,1a.51.51,0,0,0,.3-.1c1.37-1,2.71-1.94,4.05-2.91a67.8,67.8,0,0,1,8.68-5.5c1.47-.75,3-1.49,4.49-2.14l.52-.22a11.73,11.73,0,0,1,3.47-1.16c.76,0,1.2.45.77,1.87-.87,2.93-6.18,5.31-8.57,6.83-3.67,2.34-7.61,4.19-11.29,6.5l-.11.07h0c-1.52,1-.83,3.58.8,3.58a1.79,1.79,0,0,0,.65-.13l2-.8,1.26-.53c7.49-3.13,15.85-6.92,23.86-6.92h.39a12.94,12.94,0,0,1,1.38.09c6,.77-2.56,6.1-5.23,7.08-1,.35-2,.65-3,.91-4.44.35-8.86,1.06-13.23,1.75a1.17,1.17,0,0,0-.9.57,1.61,1.61,0,0,0,1.29,2.27v0l2.36-.24,3.62-.42a98.93,98.93,0,0,1,11.76-.93c1.24,0,2.47,0,3.7.15a21.36,21.36,0,0,1,5.87,1,3.1,3.1,0,0,1,1,.66c2,2.11,0,3.45-1.74,4.13a23.89,23.89,0,0,1-8.54,1.44,38.27,38.27,0,0,1-5.77-.47l-.29,0a1.78,1.78,0,0,0-.41,0c-1.61.39-2.09,3-.2,3.24a31,31,0,0,0,3.54.17h.25c7.62,0,22.54-1.4,18-8.91-2.42-4-9.16-4.59-13.26-4.71h-.46c5.21-2.18,8.77-5.14,6.21-9-1.26-1.89-3.57-2.44-6-2.44a34.17,34.17,0,0,0-6.44.84q-2.46.5-4.94,1.13c4.3-3.34,7.29-7,5.39-10.16a3.19,3.19,0,0,0-2.93-1.53"/><path class="cls-17" d="M205.43,339.59a21.74,21.74,0,0,0-2.78.18c0,.2,0,.4,0,.61a1.86,1.86,0,0,1-1.34,1.75,1.54,1.54,0,0,1-1,0,1.84,1.84,0,0,1-1.33-1.67,50.78,50.78,0,0,0-13.73,6.11c-.52.32-1.06.69-1.61,1.09l-.06,1.14a.78.78,0,0,1-.12,1.41,1.59,1.59,0,0,1-2.85.45l-.56.08c-2.51,2.5-4.66,5.54-5.17,8.51H175c2.14,0,2.15,3.14.15,3.46a7.18,7.18,0,0,0,.52,1.13,9.76,9.76,0,0,0,3.73,3.44,10.37,10.37,0,0,0,5.2,1.32,15.33,15.33,0,0,0,4-.56,3.83,3.83,0,0,0,.34-1.75,1.3,1.3,0,0,1,1.36-1.4,1.52,1.52,0,0,1,1.56,1.4c0,.21,0,.41,0,.61a50.6,50.6,0,0,0,9.1-5.28l-.18-1.64a1.57,1.57,0,0,1,1.73-1.64,1.48,1.48,0,0,1,1.52,1l1.95-1.48a1.84,1.84,0,0,0-.83-3.32,1.7,1.7,0,0,0-.93.3c-5.76,3.77-12.4,9.81-19.64,9.95h-.15c-3.36,0-5.57-2.24-5.73-5a6.23,6.23,0,0,1,1-3.64c2.23-3.53,6.32-5.95,9.89-7.89,4.14-2.25,10.26-5,15.72-5a11.47,11.47,0,0,1,6.14,1.58c5.18,3.19,3.74,12.4,2.87,17.46a80.2,80.2,0,0,1-5.23,17,.86.86,0,0,0,.34,1.13,1.27,1.27,0,0,0,.72.21,1.15,1.15,0,0,0,1-.48l.56-.86a48.89,48.89,0,0,0,6.84-21.4c.53-5.61.56-12.52-4.69-16a14.85,14.85,0,0,0-8.4-2.34"/><path class="cls-17" d="M183.61,348.8l-.06,1a2,2,0,0,1-.06.37.78.78,0,0,0,.12-1.41m-7.1-.89A24.36,24.36,0,0,0,166.36,350c-2.88,1.32-7.43,4.23-7.39,7.9a4,4,0,0,0,1.69,3.33c-4,1.29-7.38,3.41-8.58,6.89-1.45,4.23,2.21,6.32,6.1,7.3A15,15,0,0,1,163.9,374h0c.66,0,.68.88.13,1.09a13.78,13.78,0,0,0-2,1c.58.06,1.11.09,1.58.11,1.45.06,3.63.15,6.14.15,6,0,13.79-.52,18.34-3.31-.13-.09-.28-.18-.44-.27a1.67,1.67,0,0,1,.94-3.09,2,2,0,0,1,.34,0,9.18,9.18,0,0,1,2,.61,6.36,6.36,0,0,0,.9-3.45c0-.2,0-.4,0-.61a1.52,1.52,0,0,0-1.56-1.4,1.3,1.3,0,0,0-1.36,1.4,3.83,3.83,0,0,1-.34,1.75c-1.88,4.09-11,4.63-17.06,4.63-1.85,0-3.42-.05-4.4-.06H164.6c-3.32,0-8.1-.2-8.82-2.21a2,2,0,0,1-.06-1.16c.67-2.7,6.86-4.65,8.49-5.13a33,33,0,0,1,5.37-1.08c2.16,0,4.14-.22,5.37-.3l.2,0c2-.32,2-3.45-.15-3.46h-.09c-1.11,0-2.42.07-3.84.17l-1.29,0c-3.08,0-6.37-.3-6.76-1.66a1.44,1.44,0,0,1,0-.77c.69-2.54,8-4.74,9.65-5.09s3.19-.6,4.81-.82l2.6-.36.56-.08a1.69,1.69,0,0,1-.24-.82c0-.55,0-1.11,0-1.67a29.29,29.29,0,0,0-3.85-.26"/><path class="cls-17" d="M188.63,369.7a1.67,1.67,0,0,0-.94,3.09c.16.09.31.18.44.27l.33.23c4.57,3.54-6.31,7.53-8.92,8.22a84.88,84.88,0,0,1-9.38,1.82,49.88,49.88,0,0,1-7.26.73,19.09,19.09,0,0,1-2.4-.14c-4.2-.53-3.88-2.67-2.13-4.73a16.53,16.53,0,0,1,3.7-3.08,13.78,13.78,0,0,1,2-1c.55-.21.53-1.09-.13-1.09h0a15,15,0,0,0-5.72,1.44c-3.34,1.58-6.05,4.37-4.74,8.13,1.19,3.42,5.09,4.24,8.91,4.24.66,0,1.32,0,2-.07a32,32,0,0,1,4.45-2.89.91.91,0,0,1,.45-.13.9.9,0,0,1,.6,1.5,12.42,12.42,0,0,1-1,1.06c6.15-.75,12.93-1.57,18.47-4.51l-.36-.07c-2.1-.45-1.37-3.29.47-3.47.44,0,.89-.07,1.34-.07a12.09,12.09,0,0,1,2.65.28c2.55-3.14,3.54-7.31-.41-9.11a9.18,9.18,0,0,0-2-.61,2,2,0,0,0-.34,0"/><path class="cls-17" d="M188.72,379.17c-.45,0-.9,0-1.34.07-1.84.18-2.57,3-.47,3.47l.36.07a11.42,11.42,0,0,1,3.39.63,1.73,1.73,0,0,1,.89,1.06c.65,2.13-2,3.95-3.67,5-3.42,2.14-7.63,3.17-11.57,3.86a38.69,38.69,0,0,1-6.48.67c-.58,0-1.15,0-1.72-.08-2.59-.22-3.67-1.18-2.24-3.5l0-.06a17.94,17.94,0,0,1,2.89-3,12.42,12.42,0,0,0,1-1.06.9.9,0,0,0-.6-1.5.91.91,0,0,0-.45.13,32,32,0,0,0-4.45,2.89c-2.71,2.18-4.77,5.05-2.05,8,1.67,1.8,4.4,2.34,7.24,2.34a48.2,48.2,0,0,0,7.88-.89c1.55-.27,3.2-.6,4.86-1l0-.82a.8.8,0,0,1,.83-.82.86.86,0,0,1,.87.82c0,.11,0,.21,0,.31,4.64-1.45,9.09-3.86,11.35-8.08,2.47-4.62-.19-7.27-4-8.08a12.09,12.09,0,0,0-2.65-.28"/><path class="cls-18" d="M183.57,336.4c-1,.16-2,.32-2.93.5.09,3.77-.3,7.51-.28,11.27,0,.56,0,1.12,0,1.67a1.69,1.69,0,0,0,.24.82,1.59,1.59,0,0,0,2.85-.45,2,2,0,0,0,.06-.37l.06-1,.06-1.14a84.6,84.6,0,0,0-.1-11.26"/><path class="cls-18" d="M202.3,333.42c-1.11.17-2.21.35-3.32.54.08,2.14,0,4.28,0,6.42,0,0,0,.05,0,.08a1.84,1.84,0,0,0,1.33,1.67,1.54,1.54,0,0,0,1,0,1.86,1.86,0,0,0,1.34-1.75c0-.21,0-.41,0-.61,0-2.12-.13-4.24-.35-6.35"/><path class="cls-18" d="M158,284.2a1.28,1.28,0,0,0-1.29,1.19c-.22,3.77-1,7.46-1.22,11.23a110.59,110.59,0,0,0,.39,11.93c.49,7.77,1,15.57-.23,23.28-5.69-2.52-12.08-3.42-18.12-4.77-3.85-.85-7.7-1.53-11.58-2.23-2.23-.41-4.32-1-6.48-1.28-.06.31-.13.61-.19.92a1.54,1.54,0,0,1-1.57,1.37,2.07,2.07,0,0,1-2.08-2.28,1.23,1.23,0,0,0,.23,2.28c3.4.79,6.57,2.23,10,3s7,1.5,10.54,2.32c6.74,1.57,13.46,3.09,20.11,5a1.49,1.49,0,0,0,.43.06,1.74,1.74,0,0,0,1.74-1.3c2.37-13.58.34-27.21.23-40.85a57.57,57.57,0,0,1,1.28,6.78c.46,3.82.76,7.65,1.28,11.46,1.24,9.17,4.11,18,6.09,27a1.48,1.48,0,0,0,1.53,1.14,1.88,1.88,0,0,0,.81-.18,40.44,40.44,0,0,1,10.75-3.36c1-.18,2-.34,2.93-.5,3.27-.51,6.55-.91,9.65-1.45l5.76-1c1.11-.19,2.21-.37,3.32-.54,4.56-.73,9.14-1.38,13.74-1.86,3.15-.33,5.49-1.26,6.35-4.56a25.23,25.23,0,0,0,.27-7.93c.28,1.18.54,2.35.77,3.53.47,2.36.9,3.58,3.42,4.2a9.65,9.65,0,0,0,2.28.24c1.34,0,2.7-.19,4-.28s2.37-.11,3.55-.11c1.72,0,3.45.06,5.19.1l1.73,0A85.41,85.41,0,0,0,260.74,325a1.79,1.79,0,0,0,.91-2.76c0,.17-.07.34-.11.51a.69.69,0,0,1-.7.52.65.65,0,0,1-.68-.52c-.06-.37-.12-.74-.17-1.11l-2.55.35c-3.9.55-7.78,1.13-11.73,1.33-4.34.23-8.65,0-13,.54a36,36,0,0,1-4.37.65,3.43,3.43,0,0,1-3-1.34c-.69-.95-.69-4-.9-5.26-.85-5.08-1.73-10.16-2.52-15.25a1.43,1.43,0,0,0-1.51-1.27,1.88,1.88,0,0,0-1.95,1.74c-.18,7,1.5,14.71.47,21.64-.54,3.66-2.14,3-5,3.17A82.71,82.71,0,0,0,205.4,329c-6.92,1.07-13.79,2.29-20.66,3.59-5,.94-10,1.55-14.54,3.81-.9-4.12-1.93-8.23-2.92-12.34,0-.1-.05-.21-.07-.31-1-4.09-1.9-8.19-2.58-12.33s-1.08-8.56-1.79-12.81c-.79-4.68-2.46-9-3.73-13.56a1.13,1.13,0,0,0-1.12-.87"/><path class="cls-18" d="M262.41,253.18a1,1,0,0,0-1.09,1c0,11.62-1.63,23.39-1.91,35-.25,10.18-1,20.88.4,31.05.05.43.11.85.18,1.27s.11.74.17,1.11a.65.65,0,0,0,.68.52.69.69,0,0,0,.7-.52c0-.17.07-.34.11-.51,2.12-10.68,2-22.08,2.42-32.92v-.23c1.58,10.82,5.58,21.08,8.76,31.49A2,2,0,0,0,274.7,322a1.57,1.57,0,0,0,.52-.08c10-3.35,23.22-7.15,30.54-15.25a2,2,0,0,0,0-2.78h0a1.81,1.81,0,0,1-1.82,2.1,1.36,1.36,0,0,1-1.4-1.21l-.09-.46c-3.37,3.47-7.88,5.52-12.23,7.53a114.56,114.56,0,0,1-14.07,5.78c-2.54-10.21-6.82-20-8.46-30.38-1.73-11.07-1.23-22.41-4.23-33.28a1,1,0,0,0-1-.76"/><path class="cls-18" d="M97.37,98.19A1.34,1.34,0,0,0,96,99.64c.63,19,3.4,37.81,4.15,56.8.76,19.37,2.3,38.42,4.81,57.64,2.33,17.85,3.28,36.09,6.82,53.75,1.78,8.85,4.32,17.55,5.84,26.46.76,4.49,1.49,9.25,1.08,13.83-.47,5.18-2.2,10.22-3,15.35a.28.28,0,0,1,0,.09,2.07,2.07,0,0,0,2.08,2.28,1.54,1.54,0,0,0,1.57-1.37c.06-.31.13-.61.19-.92,1.7-8.35,3.93-15.67,2.93-24.35s-3.33-17.43-5.32-26.08c-4.31-18.71-5.42-38.11-7.89-57.13q-.81-6.18-1.51-12.34c-1.72-15.05-3-30-3.69-45.25-.89-18.69-3.48-37.17-4.83-55.81-.07-1-.14-2-.2-3a1.48,1.48,0,0,0-1.16-1.39,1.33,1.33,0,0,0-.34,0h-.08"/><path class="cls-18" d="M292.91,78.09c-1.39.25-2.79.49-4.19.7,2.35,8.89,1.71,18.76,1.86,27.91.16,9.56-.65,19.08-.85,28.63a130.21,130.21,0,0,0,.44,13.12c1.19,14.66,4.35,29.09,5.84,43.76,3.79,37.34-.39,74.94,6.41,112.08l.09.46a1.36,1.36,0,0,0,1.4,1.21,1.81,1.81,0,0,0,1.82-2.1h0c-6.5-38.27-1.2-77.13-5.63-115.51-2.19-19-6.2-37.56-5.42-56.84.38-9.55,1.12-19.06.66-28.63-.38-7.94,0-16-1.8-23.8a8.32,8.32,0,0,1-.63-1"/><path class="cls-18" d="M291.75,74.11c-36.41,2.73-72.91,3.24-109.27,6.9q-27.06,2.71-53.87,7.48c-12.48,2.21-26.7,3-38.06,9.14,0,.82-.11,1.62-.2,2.4l.18,0a1.28,1.28,0,0,0,.49-.11,64.59,64.59,0,0,1,6.43-2.3,125.33,125.33,0,0,1,18.72-3.75c5.17-.71,10.34-1.3,15.35-2.06l2.5-.39c17.69-2.66,35.46-4.73,53.26-6.42s35.62-3,53.48-3.59c15.86-.5,32.18-.25,48-2.64,1.4-.21,2.8-.45,4.19-.7a9.25,9.25,0,0,1-1.09-3.36c0-.2-.05-.4-.07-.62"/><path class="cls-18" d="M295.43,66.5c0,.66,0,1.34,0,2a2.2,2.2,0,0,0,0-2M292,65.79c-8.26.51-16.57.56-24.88.56h-5.22c-6.33,0-12.67,0-19,.26q-21.81.81-43.55,2.67a1.74,1.74,0,0,1-1.66,1.19,1.35,1.35,0,0,1-1.33-.93l-4.44.4c-2.79.27-5.58.54-8.37.83a2.13,2.13,0,0,1-.46.74,1.38,1.38,0,0,1-.4.32,2.33,2.33,0,0,1-1,.24,1.85,1.85,0,0,1-1.67-.92A732.57,732.57,0,0,0,90.75,86.31a1.21,1.21,0,0,0-1,1.36c0,.11,0,.22.08.34v0a1.39,1.39,0,0,0,1.3,1l.33,0A865.37,865.37,0,0,1,193.81,73.65q25.42-2.31,51-3.15c5.14-.18,10.31-.21,15.47-.21H269c7.55,0,15.1-.07,22.6-.55a27.63,27.63,0,0,1,.36-4"/><path class="cls-18" d="M295.44,63.24a6,6,0,0,1,.83-.11c.33,0,.54.14.93.65.79,1,.82,3.09.88,4.31s.22,8.56-1.63,8.94h-.05c-.85,0-1-4.36-1-8.5,0-.7,0-1.38,0-2,0-1.23,0-2.36,0-3.26M296.61,59A3.58,3.58,0,0,0,294,60.47a1.64,1.64,0,0,0-.36.75A11.61,11.61,0,0,0,292,65.79a27.63,27.63,0,0,0-.36,4,41.94,41.94,0,0,0,.15,4.36c0,.22,0,.42.07.62a9.25,9.25,0,0,0,1.09,3.36,8.32,8.32,0,0,0,.63,1,4.17,4.17,0,0,0,3.16,2,3.86,3.86,0,0,0,2.88-1.62c2.9-3.37,2.86-9.78,2.18-13.88-.41-2.47-2.54-6.56-5.15-6.56"/><path class="cls-18" d="M85.25,102.89c-1.39,0-2.06-4.09-2.36-5.41-1-4.45-2.35-10.25.59-14.25a1.23,1.23,0,0,0,.14-.25,1.54,1.54,0,0,1,.79.35c.94.67,1.4,3.14,1.66,4.16A38.14,38.14,0,0,1,87.2,97.81c0,1,.11,2.74-.45,3.69s-1.07,1.39-1.5,1.39M83.34,79.11a4.83,4.83,0,0,0-3.8,2.27A1.68,1.68,0,0,0,80,83.71c-3.06,5.08-1,13.84.72,18.73.75,2,2.18,4.65,4.47,4.65a3.72,3.72,0,0,0,1.25-.24c2.36-.88,3.51-3.77,3.82-6.07l.09-.75c.09-.78.16-1.58.2-2.4a38.11,38.11,0,0,0-.69-9.58v0c0-.12,0-.23-.08-.34a26.43,26.43,0,0,0-1.21-4c-1-2.64-3.06-4.57-5.22-4.57"/><path class="cls-18" d="M181.56,53.63a1.6,1.6,0,0,1-.72.33,8.58,8.58,0,0,1-1.81.2c-.3,0-.6,0-.9,0,0,5.59-.8,12.1,1.81,17l0,0a1.85,1.85,0,0,0,1.67.92,2.33,2.33,0,0,0,1-.24,1.38,1.38,0,0,0,.4-.32,2.13,2.13,0,0,0,.46-.74,2,2,0,0,0-.14-1.68c-1.35-2.4-1.23-5.75-1.4-8.42-.15-2.35-.23-4.7-.44-7m-2-3.1h-.16c.29.05.58.09.88.12a2,2,0,0,0-.72-.13"/><path class="cls-18" d="M195,50.93V51c-.06,5.9-.07,12.54,1.32,18.29a1.72,1.72,0,0,0,.07.21,1.35,1.35,0,0,0,1.33.93,1.74,1.74,0,0,0,1.66-1.19,1.51,1.51,0,0,0,.07-.37c.45-5.64-1-11.58-1.32-17.28a18.07,18.07,0,0,1-3.11-.7h0"/><path class="cls-18" d="M245.19,16.47l-.34,0c-7.9,1.12-15.75,2.35-23.76,2.36h-5.3a59.68,59.68,0,0,0-15.52,1.53.63.63,0,0,0-.44.75.56.56,0,0,0,.56.5h.05l1.7-.1h0c10-1,20.56-1.75,30.79-1.75q3.09,0,6.14.09a.85.85,0,0,1,.88.71l2.54-.34c-3.21,4.09-11.46,3.26-16.22,3.68-6.31.55-12.75.43-19,1.32-2,.29-1.88,2.59-.67,3.66,5.43-1,11.34-2.14,17-2.14a33.23,33.23,0,0,1,5.85.48.92.92,0,0,1,.56.31l2.14-.34c0-.72.08-1.38.16-1.92a.82.82,0,0,1,.85-.74,1.15,1.15,0,0,1,1.17,1l.06,1.3,1.24-.17c5.55-.75,10.1-2,11.3-8.08a1.71,1.71,0,0,0-1.77-2.14"/><path class="cls-18" d="M233.19,24.54a.82.82,0,0,0-.85.74c-.08.54-.12,1.2-.16,1.92-.12,2-.24,4.4-1.22,5.56s-2.82,1.36-4.53,1.36h-1.35c-.4,0-.79,0-1.14,0a130.67,130.67,0,0,0-17.85,2.65c-1.55.35-1.64,2.92,0,3.22a20,20,0,0,0,3.52.3c.31,0,.61,0,.92,0q1.66-.18,3.33-.3c1.52-.21,3-.48,4.57-.75,2.15-.38,4.33-.6,6.5-.87.09-.53.17-1.09.26-1.66a1.2,1.2,0,0,1,1.28-1A1.42,1.42,0,0,1,228,37.1c0,.3,0,.58-.06.86l1.07-.18c5.64-1.06,5.62-6.15,5.4-10.92l-.06-1.3a1.15,1.15,0,0,0-1.17-1"/><path class="cls-18" d="M226.47,35.69a1.2,1.2,0,0,0-1.28,1c-.09.57-.17,1.13-.26,1.66-.37,2.08-1,3.82-3.1,5-2.61,1.51-6.05,2.13-9,2.7-5.95,1.15-12,.51-17.87,1.54-1.75.3-1.46,2.78,0,3.26h0a18.07,18.07,0,0,0,3.11.7,25.77,25.77,0,0,0,3.66.24c5.87,0,12.33-1.63,17.18-3.24,6-2,8.48-4.77,9-10.67,0-.28.05-.56.06-.86a1.42,1.42,0,0,0-1.54-1.41"/><path class="cls-18" d="M175.21,22.34a4.4,4.4,0,0,1-.5.9h0a.65.65,0,0,0,.5-.89m-5.5-.48a51.27,51.27,0,0,0-7,1.84,88.61,88.61,0,0,1-14.28,2.62c-9.07,1.17-18,3.19-27.08,4.22-1.32.14-2.59,2-1.25,3,2.26,1.82,4.09,4.3,6.65,5.73,2.77,1.56,6.17,1.81,9.27,1.83h.78c-.07-.31-.13-.63-.18-1a1.09,1.09,0,0,1,1.21-1.22,1.41,1.41,0,0,1,1.18.57A9.39,9.39,0,0,0,140.25,41c.84-.05,1.68-.12,2.53-.21a.77.77,0,0,1,.28-1.32c5.74-2.16,12.2-2.67,18.24-3.6h.24a1.23,1.23,0,0,1,1.14.67,1.42,1.42,0,0,0-1-2.32c-.44,0-.88,0-1.32,0-6.66,0-13.26,2.6-19.86,3.26a46.89,46.89,0,0,1-4.9.3,15,15,0,0,1-7.07-1.42,14.27,14.27,0,0,1-3.21-2.59c7.63-.88,15.1-2.57,22.73-3.62,1.47-.2,2.94-.39,4.41-.61,4.3-1.06,8.57-2.23,12.89-3.23,1.59-.57,3.18-1.15,4.79-1.68a1.9,1.9,0,0,1-.41-2.71"/><path class="cls-18" d="M137.84,38.93a1.09,1.09,0,0,0-1.21,1.22c.05.34.11.66.18,1,1.07,4.5,5.2,5.92,10,5.92,1,0,2-.06,3-.16a11.55,11.55,0,0,1-.44-1.47,1,1,0,0,1,1-1.21.78.78,0,0,1,.72.48,9.6,9.6,0,0,0,1.15,1.87q1.24-.19,2.46-.45a.56.56,0,0,1,.37-.35c3.29-.91,6.42-2.37,9.74-3.09a1.67,1.67,0,0,0-1.47-2.12,10,10,0,0,0-1.24-.07,33.06,33.06,0,0,0-7.81,1.4,33.43,33.43,0,0,1-8,1.4A8.31,8.31,0,0,1,140.25,41,9.39,9.39,0,0,1,139,39.5a1.41,1.41,0,0,0-1.18-.57"/><path class="cls-18" d="M150.43,44.2a1,1,0,0,0-1,1.21,11.55,11.55,0,0,0,.44,1.47c1.57,4.22,5,5.52,9.06,5.52s8.82-1.38,12.53-2.35a9.19,9.19,0,0,0,6.68,4.06c.3,0,.6,0,.9,0a8.58,8.58,0,0,0,1.81-.2,1.6,1.6,0,0,0,.72-.33c1-.84.3-2.77-1.17-3l-.1,0c-.3,0-.59-.07-.88-.12-2.33-.4-4.22-1.21-5.55-3.44a1.82,1.82,0,0,0-1.55-.87,1.74,1.74,0,0,0-.45.06c-3.78,1.05-8.72,3.11-13,3.11a7.88,7.88,0,0,1-6.56-2.85,9.6,9.6,0,0,1-1.15-1.87.78.78,0,0,0-.72-.48"/><path class="cls-18" d="M192.09,15.61c-.11.24-.21.49-.31.74a1.44,1.44,0,0,1-1.4,1A1.33,1.33,0,0,1,189,16.2l-.47.19c-.69.3-.36,1.45.35,1.45h0l.59,0c7.14,0,9.12,9,8.71,14.82-.24,3.36-1.25,7.08-3.78,9.47a7.89,7.89,0,0,1-5.81,2.14c-1.87,0-3.82-.36-5.81-.49h-.12a1.61,1.61,0,0,0-.8.2,1.35,1.35,0,0,1-.35.28,1.94,1.94,0,0,0,.34,3A12.48,12.48,0,0,0,188.17,49c7.73,0,13.47-8.44,13.75-16.4a25.12,25.12,0,0,0-2.55-11.41c-1.62-3.15-4-5.54-7.28-5.61"/><path class="cls-18" d="M182,0a18.46,18.46,0,0,0-2.64.21c-7.12,1.08-17,9.81-8.36,16a1.62,1.62,0,0,1,1.37-.81,1.53,1.53,0,0,1,.82.25,1.8,1.8,0,0,0,.06-1.52c-2.06-4.44-.34-7.24,4.14-9a13.47,13.47,0,0,1,4.47-1,4.07,4.07,0,0,1,1.48.23c1.18.45.81.73,1.84,1.42a5.7,5.7,0,0,0,3.27.94,24.11,24.11,0,0,0,4.33-.64c2.72-.52,5.48-1.22,8.24-1.66-5.07,2.62-10,5.37-12,11.2a1.36,1.36,0,0,0-.08.61,1.33,1.33,0,0,0,1.41,1.11,1.44,1.44,0,0,0,1.4-1c.1-.25.2-.5.31-.74,3-6.33,11.29-8.23,16.82-11.68,1.1-.69,1.13-2.88-.4-3.1a24.61,24.61,0,0,0-3.3-.22,33.42,33.42,0,0,0-5.51.51c-2.48.41-6.59,1.91-9.5,1.91A6.23,6.23,0,0,1,189.12,3c-1.51-.26-2.15-1.75-3.77-2.4A9.23,9.23,0,0,0,182,0"/><path class="cls-18" d="M172.38,15.36a1.62,1.62,0,0,0-1.37.81,1.4,1.4,0,0,0,.25,1.74,3.24,3.24,0,0,1,1,2.59c-.12.84-.88.87-1.66,1a1.44,1.44,0,0,0-.85.39,1.9,1.9,0,0,0,.41,2.71,1.65,1.65,0,0,0,.91.34h.3a4.21,4.21,0,0,0,3.38-1.68,4.4,4.4,0,0,0,.5-.9,4.64,4.64,0,0,0,.32-1.15,6.35,6.35,0,0,0-2.12-5.42l-.21-.16a1.53,1.53,0,0,0-.82-.25"/><path class="cls-18" d="M183.1,394.48a.8.8,0,0,0-.83.82l0,.82c-.68,18.34.2,36.77.85,55.1q1,27.91,2.92,55.81c2.46,37,8.58,73.47,12.55,110.29,2.15,20,2.17,40,3.6,60v0a27,27,0,0,1,3.59-1.36l.5-.15c-1.16-17-1.54-33.91-3.31-50.84-1.92-18.47-4.36-36.86-6.81-55.26-4.9-36.85-7.6-73.66-9.46-110.77-.88-17.64-1.13-35.33-2.06-53-.18-3.46-.38-6.91-.63-10.37,0-.1,0-.2,0-.31a.86.86,0,0,0-.87-.82"/><path class="cls-18" d="M202.51,358.33a1.57,1.57,0,0,0-1.73,1.64l.18,1.64c.8,7.93,1.18,15.88,1.38,23.83.16,6.47.21,12.94.28,19.4.06,5.24.13,10.48.29,15.72.63,20.67,1.76,41.32,3,62s2.26,41.23,3.92,61.8c1.68,20.91,4.09,41.74,6.19,62.61,2.33,23.18,4,46.36,5.2,69.62l2.11.38.27.05c1.93-42-5-84.12-8.85-125.83C211,510,208.53,468.59,207,427.3c-.35-9.85-.27-19.8-.37-29.74l0-3.27c0-2.17-.08-4.33-.14-6.5q-.12-4.14-.34-8.26a188.69,188.69,0,0,0-2.08-20,.83.83,0,0,0,0-.15,1.48,1.48,0,0,0-1.52-1"/><path class="cls-17" d="M301.76,464.75c-5.94,0-11,3.06-15.19,7.48-5.12,5.35-8.77,11.85-12.9,18-4.52,6.68-10.12,13.07-12.54,20.88s.33,15.8,1.94,23.55a277.65,277.65,0,0,1,4.44,29.14c1,10.63,1.69,21.3,2.29,32,.61,10.88.38,21.76.86,32.62a13,13,0,0,0,1.72-1.28,1.63,1.63,0,0,1,1.1-.44,1.71,1.71,0,0,1,.81.21c1.87-15.71-.66-32.47-1.7-48.11-1.08-16.26-2.73-32.52-6.32-48.44-2.13-9.47-2.55-16.62,2.64-25.2,3.92-6.47,8.63-12.48,12.8-18.8s9.42-14.93,17.27-16.5a14.78,14.78,0,0,1,2.84-.27c7,0,15.11,4.37,21.28,6.45,9,3,18.29,5.54,26.92,9.71a235.08,235.08,0,0,1,23.9,13.88l.17.1a1.65,1.65,0,0,0,.73.17c1.54,0,2.88-2.14,1.43-3.29-1-.83-2.09-1.64-3.14-2.42-12.94-9.67-26.73-16.2-42.3-21.09-8.54-2.68-17.15-6.5-26-8a18.45,18.45,0,0,0-3.09-.27"/><path class="cls-17" d="M330.69,552.3a2.16,2.16,0,0,0-1.93,3.21c1.46,3.17,3.59,5.88,5.31,8.89.73,1.27,1.79,2.82,1.75,4.34-.08,3.21-3.35,4-6,4.74a1.94,1.94,0,0,0-.46,3.52c9.88,5,7.1,14,4.27,22.64-2.72,8.32-3.62,17.08-4,25.82-.2,4.11-.36,9,1.3,12.92s5.67,5.67,7.54,9.46c6.11,12.36-2.44,23-5.26,34.88a1.92,1.92,0,0,0,.44,1.8,7,7,0,0,1,.55-2.11.87.87,0,0,1,.82-.56,1.2,1.2,0,0,1,1.17,1.39,4.81,4.81,0,0,0,0,1.78,1.79,1.79,0,0,0,.92-1.24c2.79-11.33,10.28-21.17,6.69-33.26-1.46-4.91-4-7.95-7.57-11.39-4.45-4.27-2.89-13-2.33-18.56.49-5,.71-10.22,2-15.05,1.23-4.4,3-8.63,4-13.12,1.45-6.93-.11-12.68-5.2-16.63,3-1.5,5.28-3.85,4.83-7.77-.34-3.07-1.87-5.86-3.51-8.58,6.65,3.45,13.06,7.36,19.78,10.68a204.62,204.62,0,0,0,19.19,8c6.52,2.43,15.56,5.95,23.7,5.95a18.5,18.5,0,0,0,11.09-3.19c-.26-.77-.53-1.54-.8-2.31a19.21,19.21,0,0,1-8.59,1.82c-9.17,0-19.62-4.71-27-7.62C359,567,346,558.63,331.75,552.52a2.76,2.76,0,0,0-1.06-.22"/><path class="cls-17" d="M273.48,626.64a1.63,1.63,0,0,0-1.1.44,13,13,0,0,1-1.72,1.28c-1.78,1.12-3.84,2-5.62,2.92s-4.64,2.05-5.74,3.93c-2.32,4,3.93,8.54,7.49,10.48l.13,0a26.67,26.67,0,0,1,3.48-.41,1.76,1.76,0,0,0-.73-2.1c-1.71-1.21-3.54-2.15-5.12-3.52a2.5,2.5,0,0,1-.24-.22c-.37-.33-2.17-1.85-2.07-2.31s1.68-1.24,2.09-1.49c3.38-2.06,7.44-3.49,10.39-6.19a1.55,1.55,0,0,0-.43-2.57,1.71,1.71,0,0,0-.81-.21"/><path class="cls-17" d="M260.07,659.56l-1.73,0a1.56,1.56,0,0,0,.85.26,1.46,1.46,0,0,0,.88-.3m12.06-14.36c-.58,0-1.16,0-1.73,0a26.67,26.67,0,0,0-3.48.41l-.13,0c-4.62.92-12,5-11.26,9.77,1-.07,2-.1,3.07-.1l1.2,0c-.25-3.42,3.19-5.21,6.95-6a24.49,24.49,0,0,1,4.77-.48c.45,0,.88,0,1.29,0,9.93.63,18.62,4.22,27.44,8.54a.92.92,0,0,0,.42.1c.82,0,1.59-1,.78-1.65A54.68,54.68,0,0,0,283.77,647a41.66,41.66,0,0,0-11.64-1.81"/><path class="cls-17" d="M284.57,642a.76.76,0,0,0-.59.26.9.9,0,0,0,.39,1.52c6.27,1.09,12.71,3.3,19.07,3.55h.09c2.17,0,2.06-3.25-.09-3.46-4.35-.43-8.74-1.05-13.13-1.47-1.9-.18-3.8-.32-5.7-.4h0"/><path class="cls-17" d="M258.6,655.36c-1,0-2.05,0-3.07.1a35.17,35.17,0,0,0-10.79,2.28c-9.06,3.57-11.3,12.85-7.35,21.12,1.4.15,2.81.29,4.21.41a2.8,2.8,0,0,0,0-.4c-.43-2.45-1.39-5-1.69-7.48a8.38,8.38,0,0,1,1.29-6.08c2.78-4,9.14-5,13.66-5.48,1.16-.12,2.33-.19,3.51-.23l1.73,0h.22a77.59,77.59,0,0,1,23,3.84c9.88,3.09,17.58,8.65,24.91,15.86s15.44,14.19,20.4,23.33a.87.87,0,0,0,.27.32l.21.12a.71.71,0,0,0,.29.05,1.12,1.12,0,0,0,.31-.05h0a1.08,1.08,0,0,0,.72-1.21c-1.09-5.83-5.72-10.43-9.7-14.54-4.28-4.42-8.5-8.92-13-13.16A63.54,63.54,0,0,0,277.62,658a86.24,86.24,0,0,0-17.82-2.6l-1.2,0"/><path class="cls-17" d="M335,681.85a.87.87,0,0,0-.82.56,7,7,0,0,0-.55,2.11c-.34,3.38,1.49,7.19,2.63,10.12a57.48,57.48,0,0,1,2.79,7.73c.73,3.15.17,3.25-2.43,4.47l-.1,0q2.52,1.26,5,2.56c1.85-1.78,2.11-5.57,1.41-8.15a55.18,55.18,0,0,0-3.68-9c-.91-1.94-2.78-4.8-3.15-7.3a4.81,4.81,0,0,1,0-1.78,1.2,1.2,0,0,0-1.17-1.39"/><path class="cls-17" d="M380.8,524.82a.5.5,0,0,0-.45.74c4.44,8,10.75,14.58,15.34,22.48l.27.47A141.53,141.53,0,0,1,404.33,566c2.73,3.09,5.83,6.69,6.6,10.65a1.45,1.45,0,0,1-1.39,1.78,1.4,1.4,0,0,1-.67-.18l.09.28c.27.77.54,1.54.8,2.31a454.54,454.54,0,0,1,14.18,50.07,379,379,0,0,1,8.29,59.8c.57,10,.79,20,.66,30s-1.53,19.72-2.58,29.55a1.5,1.5,0,0,0,1.61,1.73,2.2,2.2,0,0,0,1-.23c.36-.7.73-1.4,1.11-2.09,1.75-15.67,3.16-31,2.73-46.81a418,418,0,0,0-3.88-46.34,364.78,364.78,0,0,0-25.08-90.72,144.05,144.05,0,0,0-7.95-16.34c-.64-1.11-1.3-2.21-2-3.3-.22-.35-.44-.7-.67-1.05-4.69-7.23-11.17-13-15.94-20.1a.51.51,0,0,0-.42-.23"/><path class="cls-17" d="M502.79,729.71c0,.42,0,.84,0,1.26a1.92,1.92,0,0,0,1.83,1.87c-.65-1-1.27-2.08-1.88-3.13m-15-184.83a1.46,1.46,0,0,0-1.53,1.42c0,.59-.05,1.18-.07,1.77A165.67,165.67,0,0,1,484,572.52c-.93,4.89-2.82,10-1.78,15,1.45,7,4.92,13.77,6.81,20.7,2.09,7.64,3.72,15.4,5.68,23.07,7.53,29.58,7,60,7.87,90.3,1.23,2.21,2.66,4.35,4.08,6.43-1.2-31.42.52-63.68-7.44-94.38-2-7.64-3.75-15.33-5.76-23-1.93-7.39-4.72-14.23-7.32-21.37-2.3-6.33.53-13.07,1.5-19.44a174.36,174.36,0,0,0,1.56-20.16c0-1.15.08-2.29.11-3.44a1.33,1.33,0,0,0-1.42-1.42"/><path class="cls-17" d="M498.41,713.87a1,1,0,0,0-1.1,1.1c.64,5.22,2.81,10.08,5.48,14.74.61,1,1.23,2.09,1.88,3.13,2.54,4.08,5.3,8,7.56,12,2.81,4.91,6,10.27,6.56,16,.69,7-4,9.92-9.17,13.38a1.66,1.66,0,0,0,.85,3.07,2.09,2.09,0,0,0,.42,0,16.91,16.91,0,0,0,3.84-1.37,13.35,13.35,0,0,1-.38-2.89,1.07,1.07,0,0,1,1.13-1.08,1,1,0,0,1,1,.79,12,12,0,0,0,.58,1.75,15,15,0,0,0,5.84-8.23c1.46-5.5-.48-11.22-2.75-16.2-3-6.47-7.12-12.29-11-18.19-.82-1.24-1.68-2.49-2.55-3.76-1.42-2.08-2.85-4.22-4.08-6.43a31.56,31.56,0,0,1-3-7,1.13,1.13,0,0,0-1.15-.8"/><path class="cls-17" d="M515.48,771.89a1.07,1.07,0,0,0-1.13,1.08,13.35,13.35,0,0,0,.38,2.89,24,24,0,0,0,3.19,6.65c1.15,1.87,3,4.13,2.84,6.43-.17,2.76-2.83,3.95-5,5.14a1.58,1.58,0,0,1,.81,2.95c-.44.25-.89.49-1.35.71a21.9,21.9,0,0,1,2.89,11.56c-.06,5.47-2.21,8-5.47,11.89a1.73,1.73,0,0,0-.19.28,8.8,8.8,0,0,1,3.94,1.55c3.6-2.13,5.19-7.62,5.57-11.39a26.3,26.3,0,0,0-2.81-15c3.06-1.9,5.64-4.11,5.27-8.21-.51-5.49-5.34-9.12-7.35-14a12,12,0,0,1-.58-1.75,1,1,0,0,0-1-.79"/><path class="cls-17" d="M484.64,797a1.62,1.62,0,0,0,1,.91c1.53.45,3.19.87,4.93,1.22-2-.72-4-1.43-6-2.13m31.07-2.95a1.87,1.87,0,0,0-.74.16,25.45,25.45,0,0,1-10.63,2c-1,0-2.09,0-3.14-.11-3.83-.24-7.7-.86-11.43-1.25q7.34,2.63,14.64,5.34a29.47,29.47,0,0,0,10.84-2.5c.46-.22.91-.46,1.35-.71a1.58,1.58,0,0,0-.81-2.95h-.08"/><path class="cls-17" d="M443.13,734.22a1.53,1.53,0,0,0-1.43,1c-.16.4-.33.79-.5,1.18a127.87,127.87,0,0,1-6.21,11.5c-.33.59-.67,1.19-1,1.79s-.75,1.39-1.11,2.09a42,42,0,0,0-2.89,7.06c-1.75,5.93.4,11.38,3.94,16q2.07.76,4.11,1.56l2,.75a1.85,1.85,0,0,0-.19-1.5c-1.78-3-4.36-5.95-5.39-9.35-1.3-4.28.51-8.48,2.36-12.31.85-1.75,1.77-3.48,2.67-5.21,2.13-4.07,4.19-8.18,5.08-12.74a1.43,1.43,0,0,0-1.41-1.81"/><path class="cls-17" d="M370.12,538.42a.6.6,0,0,0-.26,1.09c8.28,4.73,15.09,11.82,21.85,18.44l1.49,1.47c2.29,2.28,4.53,4.61,6.62,7.07,3.05,3.61,5.27,8.38,8.74,11.53a1.6,1.6,0,0,0,.31.22,1.4,1.4,0,0,0,.67.18,1.45,1.45,0,0,0,1.39-1.78c-.77-4-3.87-7.56-6.6-10.65l-.84-1a125.22,125.22,0,0,0-9.94-9.88,147.06,147.06,0,0,0-12.92-11,44.77,44.77,0,0,0-10.32-5.66l-.19,0"/><path class="cls-19" d="M411,53.73a1.43,1.43,0,0,0-1.1.53c-3.83,4.45-6.65,10-9.8,14.92A134.51,134.51,0,0,1,387.72,86a.54.54,0,0,0,.38.89.49.49,0,0,0,.35-.16,186.54,186.54,0,0,0,11.92-14.4c4.07-5.24,8.63-10.41,12.18-16A1.75,1.75,0,0,0,411,53.73"/><path class="cls-19" d="M425.52,76.66a2,2,0,0,0-1.26.44c-10,7.78-19,16.9-29.19,24.5a.59.59,0,0,0,.26,1.06.51.51,0,0,0,.3-.1C406.22,95.34,417.12,88,427,79.82c1.53-1.27.13-3.16-1.47-3.16"/><path class="cls-19" d="M2.88,135.14a2.84,2.84,0,0,0-1.51,5.25c11.63,8,22.78,17,35,24a.68.68,0,0,0,.32.09c.57,0,1.06-.75.53-1.18-11-8.89-21.41-18.5-32.4-27.4a3.1,3.1,0,0,0-2-.76"/><path class="cls-19" d="M15.27,103.35c-1.55,0-2.94,1.76-1.95,3.23,1.09,1.62,2.75,2.51,4.19,3.8,1.83,1.65,3.53,3.43,5.3,5.13a98.48,98.48,0,0,0,12.39,10.2.86.86,0,0,0,.45.15.91.91,0,0,0,.56-1.46C32.68,120,28.32,116.27,24.63,112c-2.32-2.7-5.23-7.65-8.87-8.57a2.05,2.05,0,0,0-.49-.06"/><path class="cls-17" d="M211.32,675.18a19.4,19.4,0,0,0-5.06.64l-.5.15a27,27,0,0,0-3.59,1.36c-8,3.75-14.92,11.61-14.4,20.68-15.44,3.86-31.48,4.63-47.25,6.33a1.74,1.74,0,0,0-1.6,1.22c-3.71,10.69-13,18.3-17.06,28.82-.62,1.6-1,5.26-2.09,6.25-1,.85-3.56.88-4.84,1.23-1.76.48-3.49,1-5.21,1.63-7.1,2.45-13.93,5.63-21,8.14a1.25,1.25,0,0,0-.9,1.17,24.85,24.85,0,0,0,1.1,6.61c-2.06.85-4.1,1.76-6.14,2.64-.62.27-.25,1.15.33,1.15l.14,0a67.09,67.09,0,0,0,7.37-2.06,1.14,1.14,0,0,0,.78-1.38c-1.22-3.75-2-5.71,2-7.19,3.11-1.14,6.15-2.43,9.22-3.67a94.89,94.89,0,0,1,19-5.94,1.26,1.26,0,0,0,.92-1.2c1.32-13.5,14.18-22.09,19.08-34.2,16.19-1.57,32.36-2.71,48.16-6.84a1.57,1.57,0,0,0,1.15-1.51c-1.3-11.37,10.16-20.83,21-20.83a17.32,17.32,0,0,1,3.06.27,326,326,0,0,0,43.65,5.08c3.48.14,7,.24,10.45.32h.34c.69,0,1.49,0,2.34-.09s1.75-.09,2.64-.09a9.34,9.34,0,0,1,4.83.95c3,2,3.63,5.81,7.5,7.06a19.1,19.1,0,0,0,5.82.74c1,0,2.08,0,3.11-.08s2.07-.08,3.08-.08c.42,0,.83,0,1.24,0,6.48.27,11,2.87,16.09,6.6,9.67,7,20.82,11.28,30.94,17.52a54,54,0,0,1,14.43,12.84,18.43,18.43,0,0,0,9.24,6.63c8.11,2.54,20.54-.94,26.1,7,6.15,8.79,7.75,20,17.06,26.6,5.62,4,12.45,6,18.77,8.48,7.39,3,14.85,5.74,22.35,8.43,9.85,3.54,19.75,6.95,29.61,10.44,2,.7,4,1.41,6,2.13q6.93,2.49,13.82,5.1c-.6,6.68-1.48,14.24,1,20.53a2,2,0,0,0,1.84,1.38,2.33,2.33,0,0,0,1-.23,7.64,7.64,0,0,1,3.13-.73c5.24,0,8.06,6.79,12,10.21a1.87,1.87,0,0,0,2,.33c-.7-.21-1.41-.43-2.11-.66s-.56-1.22.1-1.22h.07c1.07.1,2.15.22,3.23.34a1.59,1.59,0,0,0-.61-1.5c-3.77-3.22-6.32-7.43-9.65-9.7a8.8,8.8,0,0,0-3.94-1.55,7.49,7.49,0,0,0-1.07-.07,10.86,10.86,0,0,0-2.9.42c-1.56-5.92-.59-12.89-.19-18.81a1.94,1.94,0,0,0-1.39-1.83l-2.52-.94q-7.29-2.73-14.64-5.34c-9.73-3.47-19.5-6.85-29.24-10.29-5.71-2-11.42-4-17.09-6.17-1.15-.42-2.29-.86-3.43-1.3l-2-.75q-2-.79-4.11-1.56a114.41,114.41,0,0,1-15-6.35c-6.42-3.49-10-9.23-13.13-15.62-2.2-4.51-3.88-10.1-7.45-13.74-6.55-6.68-16.82-4.2-25.06-6.11-6.26-1.45-8.67-6-12.79-10.31A59.6,59.6,0,0,0,347,712.45c-1.79-1.05-3.62-2-5.45-3q-2.51-1.31-5-2.56c-2.16-1.09-4.31-2.18-6.44-3.31l-.31-.17h0l-.7-.38-.21-.12c-3.9-2.18-7.5-4.69-11.17-7.17-1.17-.79-2.35-1.58-3.55-2.36a25.74,25.74,0,0,0-12.3-4.25q-.74-.06-1.56-.06c-1.05,0-2.19.06-3.35.12s-2.35.12-3.53.12c-2.94,0-5.78-.37-7.76-2.06-1.39-1.18-2.38-3-3.53-4.35a4.66,4.66,0,0,0-4.49-2.06h-1.79c-7.88-.12-15.77-.35-23.64-.79-3.54-.2-7.07-.45-10.6-.78-1.4-.12-2.81-.26-4.21-.41-4.6-.5-9.19-1.11-13.76-1.88l-.27-.05-2.11-.38c-1.61-.31-3.19-.64-4.76-.89a32.18,32.18,0,0,0-5.17-.48"/><path class="cls-17" d="M523.38,833.87c-.66,0-.71,1-.1,1.22s1.41.45,2.11.66c22.49,6.86,46,7.76,69.41,8.18,4,.07,7.93.13,11.92.13A191.49,191.49,0,0,0,634,842.45c1.4-.21,3.42-1.42,4.62-1.54h.26c2.34,0,4,3,5.08,4.86,2,3.43,3.46,7.58,6.34,10.41a1.67,1.67,0,0,0,1.18.49A1.76,1.76,0,0,0,653,854c-2.81-4.4-7.14-16.58-14-16.58a5.58,5.58,0,0,0-.7,0,30.48,30.48,0,0,0-3.48,1.09c-3.45.85-7.45.64-11,.84Q613.47,840,603,840h-1.42c-14-.06-28.1-.45-42-1.74-11-1-21.92-2.82-32.89-4-1.08-.12-2.16-.24-3.23-.34h-.07"/><path class="cls-18" d="M415.57,341.68a1.56,1.56,0,0,0-1.08.41,1.41,1.41,0,0,0-.43,1.07c0,.07,0,.14,0,.21,0,.33,0,.67,0,1,.13,5.51.54,11.56-5.71,13.52a30.88,30.88,0,0,1-4.9,1.35,9,9,0,0,1-1.15.08,4.37,4.37,0,0,1-2.36-.59c-3.19-2-2.87-7.36-2.66-11,0-.38.05-.74.06-1.07a1.23,1.23,0,0,0-.4-1,1.4,1.4,0,0,0-.94-.34,1.5,1.5,0,0,0-1.29.68,1.47,1.47,0,0,0-.2.69c0,.34,0,.7-.06,1.07-.21,4.15-.4,9.6,2.65,12.67a6.62,6.62,0,0,0,4.9,1.87,22,22,0,0,0,5.36-.91c3.53-.92,6.82-2,8.51-5.48s1.37-7.71,1.25-11.5c0-.14,0-.29,0-.43s0-.53,0-.79a1.54,1.54,0,0,0-1.54-1.48"/><path class="cls-14" d="M181.43,5.75a6.68,6.68,0,0,0-5.8,2.89c-1.88,2.89-.91,6.86,1.5,9.1a1.75,1.75,0,0,0,1.17.42c.89,0,1.78-.57,1.65-1.59-.21-1.65-1.28-4.1-.57-5.74s3-2.46,4.43-3.2A.9.9,0,0,0,183.6,6a9.89,9.89,0,0,0-2.17-.25"/><path class="cls-14" d="M179.13,20.6a.83.83,0,0,0-.84.83c-.15,4.31-2.21,7-3.61,10.88-1.22,3.4-.56,6.79,2.83,8.56a1.89,1.89,0,0,0,.87.21c1.44,0,2.88-1.5,1.84-2.93-2.42-3.33-.64-5.76.54-9.26.91-2.66,1.41-6.06-1-8.07a1,1,0,0,0-.61-.22"/><path class="cls-14" d="M166.42,26a.85.85,0,0,0-.23,0l-.86.19c-4.32,1-8.59,2.17-12.89,3.23-1.54.37-3.08.73-4.63,1.07C142,31.79,136,32.1,130.44,34.13a.62.62,0,0,0,.15,1.21l.17,0c6-1.51,12.46-1.39,18.61-2.52,6-1.11,12-2.32,17.67-4.72,1.11-.48.42-2-.62-2"/><path class="cls-14" d="M161.54,35.85h-.24c-6,.93-12.5,1.44-18.24,3.6a.77.77,0,0,0-.28,1.32.85.85,0,0,0,.53.19h.16c6.06-.93,12.69-.55,18.48-2.74a1.2,1.2,0,0,0,.73-1.7,1.23,1.23,0,0,0-1.14-.67"/><path class="cls-14" d="M166.65,42.37h-.17c-.54.07-1.08.17-1.61.28-3.32.72-6.45,2.18-9.74,3.09a.56.56,0,0,0-.37.35.58.58,0,0,0,.48.83h0a49.91,49.91,0,0,0,11.51-2.18c1.15-.39,1.1-2.38-.15-2.38"/><path class="cls-14" d="M232.94,19.77c-10.23,0-20.75.75-30.79,1.75h0a.54.54,0,0,0,0,1.08c4.6.43,9.35.64,14.13.64a172.54,172.54,0,0,0,22.8-1.52,1,1,0,0,0,.88-1.15.85.85,0,0,0-.88-.71q-3-.09-6.14-.09"/><path class="cls-14" d="M223.63,26.75c-5.69,0-11.6,1.16-17,2.14l-.82.15c-.7.13-.55,1.25.14,1.25h0c1,0,2.11-.05,3.18-.05,1.56,0,3.14,0,4.72.06s3.18.06,4.77.06a59.74,59.74,0,0,0,10.86-.81,1.24,1.24,0,0,0,.56-2,.92.92,0,0,0-.56-.31,33.23,33.23,0,0,0-5.85-.48"/><path class="cls-14" d="M219.48,39.79c-1.86,0-3.74.07-5.62.21q-1.67.12-3.33.3c-2.38.27-4.74.62-7.06,1-.64.12-.49,1.14.14,1.14h0c.78,0,1.56,0,2.35,0,1.45,0,2.9,0,4.36,0s2.9,0,4.35,0c2.17,0,4.32-.06,6.46-.25a1.25,1.25,0,0,0,0-2.49l-1.66,0"/><path class="cls-14" d="M184.23,49.68A1.33,1.33,0,0,0,182.87,51a41.91,41.91,0,0,0,.46,8.88c.39,2.79.35,6,1.7,8.52a.87.87,0,0,0,.78.49,1.21,1.21,0,0,0,1.06-.73c.92-2.3.25-4.95-.12-7.35a90,90,0,0,1-1.2-9.81,1.29,1.29,0,0,0-1.32-1.29"/><path class="cls-14" d="M181.06,41.16a1.47,1.47,0,0,0-1.21.68,1.66,1.66,0,0,0,.42,2.37,1.29,1.29,0,0,0,.65.17,1.27,1.27,0,0,0,.6-.15,1.35,1.35,0,0,0,.35-.28,1.44,1.44,0,0,0,.3-.51l0-.18a1.36,1.36,0,0,0-.32-1.81,1.33,1.33,0,0,0-.82-.29"/><path class="cls-18" d="M196.24,135.44q-15.62.36-31.17,1.52c-3.63.27-3.66,6.27,0,6,3.49-.26,7-.48,10.47-.68A221.3,221.3,0,0,0,158.7,170.7l-21.57-22.32c3.83-.89,7.63-1.87,11.42-3,3.53-1,2-6.81-1.51-5.79A222,222,0,0,1,115,146.47c-3.58.48-3.63,6.49,0,6,1.91-.26,3.81-.55,5.71-.85l.17.19c.64.58,1.29,1.15,1.94,1.71q14.1,16.66,29.58,31.91,1.81,13,2.86,26.15c0,.09,0,.17.05.25a60.24,60.24,0,0,0-10.55,1.78c-3.52,1-2,6.79,1.52,5.78,5.4-1.54,11.26-1.73,16.81-2.4l17.3-2.06c3.59-.43,3.63-6.44,0-6l-12.55,1.5q-2.12-17.19-5.42-34.15a219.24,219.24,0,0,1,20.21-34,3.6,3.6,0,0,0,.22-.37q6.7-.3,13.43-.47C199.89,141.36,199.9,135.36,196.24,135.44Z"/><path class="cls-18" d="M252.26,161.35c-3.32-14.92-13.64-30.68-30.09-27.26a2.55,2.55,0,0,0-.92.38c-14.08.05-21.75,15.43-24.32,28.35-2.74,13.74-.82,29.71,8.55,40.35s27.56,9.23,37.35.16C254.1,192.88,255.51,175.93,252.26,161.35Zm-12.38,30.11c-2.23,7.18-8.4,13.14-15.33,11.11a6.77,6.77,0,0,1-3.63-1.6c-7.88-6.13-8-22.4-8-31.59-.06-8.83,2-18.06,7.7-24.21a5,5,0,0,1,5.49-3.27c12.82,2.17,15.46,20.24,15.76,31.28C242,179.19,241.67,185.71,239.88,191.46Z"/><path class="cls-18" d="M270.67,126c-10.85-.81-8.91,14.07-8.62,20.73A229.89,229.89,0,0,0,264.76,173a32.9,32.9,0,0,0,2.08,11.24c.1.48.19,1,.29,1.43a2.53,2.53,0,0,0,2,2.08,3.36,3.36,0,0,0,4.19-2.87c.85-12.42,5.16-24.23,6.61-36.56C280.83,140.71,281.38,126.84,270.67,126Z"/><path class="cls-18" d="M273.91,193.78c-4.41-1.46-11.55,1.51-10.34,7,0,.07.05.13.07.2a6,6,0,0,0,.15,1.89c1.23,5.17,7.48,6.27,11.16,3S279.29,195.55,273.91,193.78Z"/></g></g></svg>